%TF.GenerationSoftware,Altium Limited,Altium Designer,25.7.1 (20)*%
G04 Layer_Color=8388736*
%FSLAX45Y45*%
%MOMM*%
%TF.SameCoordinates,D8C98939-B5AC-4A14-9F93-74B2487226E3*%
%TF.FilePolarity,Negative*%
%TF.FileFunction,Soldermask,Top*%
%TF.Part,Single*%
G01*
G75*
%TA.AperFunction,SMDPad,CuDef*%
%ADD12R,0.90620X0.85490*%
%ADD13R,1.20840X1.01213*%
%ADD14R,1.01213X1.20840*%
%ADD109R,0.90000X0.80000*%
%TA.AperFunction,ViaPad*%
%ADD119C,0.50000*%
%TA.AperFunction,SMDPad,CuDef*%
%ADD128R,3.76000X1.35000*%
%ADD129R,0.57000X0.63000*%
%ADD130R,1.48000X1.58000*%
%ADD131R,1.43620X1.13500*%
%ADD132R,0.78000X0.98000*%
%ADD133R,0.30000X1.55500*%
%ADD134R,1.55500X0.30000*%
%ADD135R,1.55500X0.28000*%
%ADD136R,0.28000X1.55500*%
%ADD137R,1.08000X1.08000*%
%ADD138R,0.73000X0.98000*%
%ADD139R,1.13000X1.23000*%
%ADD140R,3.81000X0.82000*%
%ADD141R,1.08000X1.08000*%
%ADD142R,1.23000X1.13000*%
%ADD143R,1.53000X0.44000*%
%ADD144R,0.55500X0.55247*%
%ADD145O,2.58000X0.78000*%
%ADD146R,0.55247X0.55500*%
%ADD147R,1.01504X1.04213*%
%ADD148R,2.08000X2.08000*%
%ADD149R,0.55500X0.58000*%
%ADD150R,0.65247X0.64817*%
%ADD151R,1.48573X1.58822*%
%ADD152R,3.63000X1.93000*%
%ADD153R,1.53000X0.43000*%
%ADD154R,0.82000X2.87000*%
%ADD155R,0.88000X1.03000*%
%ADD156R,1.53620X1.33464*%
%ADD157R,2.38620X1.63490*%
%ADD158R,0.60000X0.53000*%
%ADD159R,0.60000X0.56000*%
%ADD160R,1.43620X1.13464*%
%ADD161R,0.99000X1.30000*%
%ADD162R,1.04213X0.99340*%
%ADD163R,1.35000X3.76000*%
%ADD164R,1.13000X1.48000*%
%ADD165O,1.98000X0.68000*%
G04:AMPARAMS|DCode=166|XSize=0.65mm|YSize=0.3mm|CornerRadius=0.0763mm|HoleSize=0mm|Usage=FLASHONLY|Rotation=180.000|XOffset=0mm|YOffset=0mm|HoleType=Round|Shape=RoundedRectangle|*
%AMROUNDEDRECTD166*
21,1,0.65000,0.14740,0,0,180.0*
21,1,0.49740,0.30000,0,0,180.0*
1,1,0.15260,-0.24870,0.07370*
1,1,0.15260,0.24870,0.07370*
1,1,0.15260,0.24870,-0.07370*
1,1,0.15260,-0.24870,-0.07370*
%
%ADD166ROUNDEDRECTD166*%
%ADD167R,0.54500X0.54000*%
%ADD168R,0.54000X0.55247*%
%ADD169R,0.55247X0.54000*%
%ADD170O,1.98000X0.43000*%
%ADD171R,1.23000X0.65000*%
%ADD172R,0.98000X0.78000*%
%ADD173R,0.73000X0.78000*%
%ADD174R,0.88000X1.08000*%
%ADD175R,1.08000X0.88000*%
%ADD176R,0.68000X0.98000*%
%ADD177R,0.78000X0.78000*%
%ADD178R,1.78000X1.18000*%
%ADD179R,2.08000X2.88000*%
%ADD180R,1.48000X1.13000*%
%ADD181R,0.68000X0.88000*%
%ADD182R,0.78000X0.73000*%
%ADD183R,1.03000X1.43000*%
%ADD184R,1.13000X0.98000*%
%ADD185R,1.02000X0.83000*%
%ADD186R,0.75248X0.74817*%
%ADD187R,0.70000X0.73000*%
G04:AMPARAMS|DCode=188|XSize=0.68mm|YSize=0.3mm|CornerRadius=0.084mm|HoleSize=0mm|Usage=FLASHONLY|Rotation=0.000|XOffset=0mm|YOffset=0mm|HoleType=Round|Shape=RoundedRectangle|*
%AMROUNDEDRECTD188*
21,1,0.68000,0.13200,0,0,0.0*
21,1,0.51200,0.30000,0,0,0.0*
1,1,0.16800,0.25600,-0.06600*
1,1,0.16800,-0.25600,-0.06600*
1,1,0.16800,-0.25600,0.06600*
1,1,0.16800,0.25600,0.06600*
%
%ADD188ROUNDEDRECTD188*%
G04:AMPARAMS|DCode=189|XSize=0.68mm|YSize=0.295mm|CornerRadius=0.083mm|HoleSize=0mm|Usage=FLASHONLY|Rotation=0.000|XOffset=0mm|YOffset=0mm|HoleType=Round|Shape=RoundedRectangle|*
%AMROUNDEDRECTD189*
21,1,0.68000,0.12900,0,0,0.0*
21,1,0.51400,0.29500,0,0,0.0*
1,1,0.16600,0.25700,-0.06450*
1,1,0.16600,-0.25700,-0.06450*
1,1,0.16600,-0.25700,0.06450*
1,1,0.16600,0.25700,0.06450*
%
%ADD189ROUNDEDRECTD189*%
%ADD190R,0.70000X0.66000*%
%ADD191R,1.58822X1.48573*%
%ADD192R,0.88000X2.08000*%
%ADD193R,0.88000X0.98000*%
%ADD194R,1.03000X0.83000*%
%ADD195R,0.98000X0.88000*%
%ADD196R,0.43000X0.50000*%
%ADD197R,1.03000X1.03000*%
%ADD198R,0.88000X0.68000*%
%ADD199R,1.01000X1.45000*%
%ADD200R,0.53000X0.50000*%
%ADD201R,0.51000X0.53000*%
G04:AMPARAMS|DCode=202|XSize=0.65mm|YSize=0.28mm|CornerRadius=0.073mm|HoleSize=0mm|Usage=FLASHONLY|Rotation=180.000|XOffset=0mm|YOffset=0mm|HoleType=Round|Shape=RoundedRectangle|*
%AMROUNDEDRECTD202*
21,1,0.65000,0.13400,0,0,180.0*
21,1,0.50400,0.28000,0,0,180.0*
1,1,0.14600,-0.25200,0.06700*
1,1,0.14600,0.25200,0.06700*
1,1,0.14600,0.25200,-0.06700*
1,1,0.14600,-0.25200,-0.06700*
%
%ADD202ROUNDEDRECTD202*%
%ADD203R,1.08000X0.83000*%
%ADD204R,0.55000X0.53000*%
%ADD205R,0.83000X1.02000*%
%ADD206R,0.53000X0.55000*%
G04:AMPARAMS|DCode=207|XSize=0.63mm|YSize=1.33mm|CornerRadius=0.0895mm|HoleSize=0mm|Usage=FLASHONLY|Rotation=90.000|XOffset=0mm|YOffset=0mm|HoleType=Round|Shape=RoundedRectangle|*
%AMROUNDEDRECTD207*
21,1,0.63000,1.15100,0,0,90.0*
21,1,0.45100,1.33000,0,0,90.0*
1,1,0.17900,0.57550,0.22550*
1,1,0.17900,0.57550,-0.22550*
1,1,0.17900,-0.57550,-0.22550*
1,1,0.17900,-0.57550,0.22550*
%
%ADD207ROUNDEDRECTD207*%
G04:AMPARAMS|DCode=208|XSize=0.63mm|YSize=1.33mm|CornerRadius=0.0895mm|HoleSize=0mm|Usage=FLASHONLY|Rotation=180.000|XOffset=0mm|YOffset=0mm|HoleType=Round|Shape=RoundedRectangle|*
%AMROUNDEDRECTD208*
21,1,0.63000,1.15100,0,0,180.0*
21,1,0.45100,1.33000,0,0,180.0*
1,1,0.17900,-0.22550,0.57550*
1,1,0.17900,0.22550,0.57550*
1,1,0.17900,0.22550,-0.57550*
1,1,0.17900,-0.22550,-0.57550*
%
%ADD208ROUNDEDRECTD208*%
%ADD209R,2.87000X0.82000*%
%ADD210R,0.33000X0.36000*%
%ADD211R,1.23000X0.68000*%
%ADD212R,0.61000X0.63000*%
%ADD213R,0.74817X0.75248*%
%ADD214R,0.54818X0.55247*%
%ADD215R,0.98000X0.88000*%
%ADD216R,1.03000X1.03000*%
%TA.AperFunction,ViaPad*%
%ADD217C,0.63000*%
%ADD218C,0.58000*%
G36*
X16720000Y4675000D02*
X16720995D01*
X16722832Y4674239D01*
X16724239Y4672832D01*
X16725000Y4670994D01*
Y4670000D01*
X16725000D01*
X16725000Y4610000D01*
Y4609005D01*
X16724239Y4607168D01*
X16722832Y4605761D01*
X16720995Y4605000D01*
X16529005D01*
X16527168Y4605761D01*
X16525761Y4607168D01*
X16525000Y4609005D01*
Y4610000D01*
X16525000Y4610000D01*
Y4670000D01*
Y4670994D01*
X16525761Y4672832D01*
X16527168Y4674238D01*
X16529005Y4675000D01*
X16530000D01*
X16530000Y4675000D01*
X16560001Y4675000D01*
X16560995Y4675000D01*
X16562833Y4674239D01*
X16564240Y4672832D01*
X16564999Y4670994D01*
X16564999Y4670000D01*
X16564999Y4670000D01*
Y4637000D01*
X16565096Y4636024D01*
X16565843Y4634222D01*
X16567223Y4632842D01*
X16569025Y4632096D01*
X16570000Y4632000D01*
X16600000D01*
X16600977Y4632096D01*
X16602779Y4632843D01*
X16604158Y4634223D01*
X16604904Y4636025D01*
X16605000Y4637001D01*
X16605000D01*
X16605000Y4670000D01*
Y4670994D01*
X16605762Y4672832D01*
X16607169Y4674239D01*
X16609006Y4675000D01*
X16610001D01*
X16610001Y4675000D01*
X16639999Y4675000D01*
X16640994D01*
X16642831Y4674238D01*
X16644238Y4672832D01*
X16645000Y4670994D01*
Y4670000D01*
X16645000D01*
X16645000Y4637000D01*
X16645096Y4636025D01*
X16645842Y4634222D01*
X16647221Y4632843D01*
X16649023Y4632096D01*
X16649998Y4632000D01*
X16649998D01*
X16680000Y4632000D01*
X16680975Y4632096D01*
X16682777Y4632843D01*
X16684157Y4634222D01*
X16684904Y4636025D01*
X16685001Y4637000D01*
X16685001D01*
X16685001Y4670000D01*
Y4670994D01*
X16685760Y4672832D01*
X16687167Y4674238D01*
X16689005Y4674999D01*
X16689999D01*
X16689999Y4675000D01*
X16720000Y4675000D01*
D02*
G37*
G36*
X17099832Y4631239D02*
X17101239Y4629832D01*
X17102000Y4627994D01*
X17102000Y4627000D01*
X17102000Y4555000D01*
Y4555000D01*
X17102097Y4554024D01*
X17102843Y4552222D01*
X17104222Y4550842D01*
X17106024Y4550096D01*
X17107001Y4550000D01*
X17139999Y4550000D01*
Y4550000D01*
X17140994Y4550000D01*
X17142831Y4549239D01*
X17144238Y4547832D01*
X17145000Y4545994D01*
X17145000Y4545000D01*
X17145000Y4520000D01*
X17145000Y4520000D01*
Y4519005D01*
X17144238Y4517167D01*
X17142831Y4515761D01*
X17140994Y4515000D01*
X17139999D01*
X17010001Y4515000D01*
X17010001D01*
X17009006Y4514999D01*
X17007167Y4515760D01*
X17005762Y4517167D01*
X17005000Y4519005D01*
X17005000Y4520000D01*
Y4627000D01*
X17005000Y4627994D01*
X17005762Y4629832D01*
X17007169Y4631239D01*
X17009006Y4632000D01*
X17010001Y4632000D01*
X17097000Y4632000D01*
Y4632000D01*
X17097995Y4632000D01*
X17099832Y4631239D01*
D02*
G37*
G36*
X16880000Y4675000D02*
X16880994D01*
X16882832Y4674238D01*
X16884238Y4672832D01*
X16885001Y4670994D01*
Y4670000D01*
X16885001Y4670000D01*
X16885001Y4637000D01*
X16885097Y4636024D01*
X16885841Y4634222D01*
X16887221Y4632843D01*
X16889024Y4632096D01*
X16889999Y4632000D01*
X16889999Y4632000D01*
X16920000Y4632000D01*
X16920976Y4632096D01*
X16922778Y4632842D01*
X16924158Y4634222D01*
X16924904Y4636025D01*
X16925000Y4637000D01*
Y4637000D01*
X16925000Y4670000D01*
Y4670994D01*
X16925761Y4672832D01*
X16927168Y4674238D01*
X16929005Y4674999D01*
X16930000D01*
Y4675000D01*
X16960001Y4674999D01*
X16960994D01*
X16962833Y4674238D01*
X16964240Y4672832D01*
X16964999Y4670994D01*
Y4670000D01*
X16964999Y4670000D01*
X16964999Y4610000D01*
Y4609005D01*
X16964240Y4607168D01*
X16962833Y4605761D01*
X16960995Y4605000D01*
X16769006D01*
X16767168Y4605761D01*
X16765761Y4607168D01*
X16764999Y4609005D01*
Y4610000D01*
X16764999D01*
Y4670000D01*
Y4670994D01*
X16765761Y4672832D01*
X16767168Y4674238D01*
X16769005Y4674999D01*
X16770000D01*
X16770000Y4675000D01*
Y4675000D01*
X16800000Y4675000D01*
X16800995Y4675000D01*
X16802832Y4674239D01*
X16804239Y4672832D01*
X16805000Y4670994D01*
X16805000Y4670000D01*
X16805000Y4670000D01*
Y4636999D01*
X16805096Y4636024D01*
X16805843Y4634222D01*
X16807222Y4632842D01*
X16809026Y4632096D01*
X16810001Y4632000D01*
X16839999D01*
X16840976Y4632096D01*
X16842778Y4632842D01*
X16844157Y4634222D01*
X16844904Y4636025D01*
X16845000Y4637001D01*
X16845000D01*
X16845000Y4670000D01*
Y4670994D01*
X16845761Y4672832D01*
X16847168Y4674238D01*
X16849005Y4674999D01*
X16850000D01*
X16850000Y4675000D01*
X16880000Y4675000D01*
D02*
G37*
G36*
X16400000D02*
X16400993D01*
X16402832Y4674238D01*
X16404237Y4672832D01*
X16404999Y4670994D01*
Y4670000D01*
X16405000Y4670000D01*
X16405000Y4637000D01*
X16405096Y4636024D01*
X16405843Y4634222D01*
X16407220Y4632843D01*
X16409024Y4632096D01*
X16409999Y4632000D01*
X16409999Y4632000D01*
X16439999Y4632000D01*
X16440976Y4632096D01*
X16442778Y4632843D01*
X16444157Y4634222D01*
X16444904Y4636025D01*
X16445000Y4637000D01*
X16445000Y4637001D01*
Y4670000D01*
Y4670994D01*
X16445761Y4672832D01*
X16447168Y4674238D01*
X16449005Y4674999D01*
X16450000D01*
X16450000Y4675000D01*
X16480000Y4674999D01*
X16480994D01*
X16482832Y4674238D01*
X16484239Y4672832D01*
X16485001Y4670994D01*
Y4670000D01*
X16485001Y4670000D01*
X16485001Y4610000D01*
Y4609005D01*
X16484239Y4607168D01*
X16482832Y4605761D01*
X16480994Y4605000D01*
X16289006D01*
X16287167Y4605761D01*
X16285760Y4607168D01*
X16285001Y4609005D01*
Y4610000D01*
X16285001D01*
Y4670000D01*
Y4670994D01*
X16285760Y4672832D01*
X16287167Y4674238D01*
X16289005Y4674999D01*
X16289999D01*
X16289999Y4675000D01*
Y4675000D01*
X16320000Y4675000D01*
X16320995Y4675000D01*
X16322832Y4674239D01*
X16324239Y4672832D01*
X16325000Y4670994D01*
X16325000Y4670000D01*
X16325000Y4670000D01*
Y4636999D01*
X16325096Y4636024D01*
X16325842Y4634222D01*
X16327222Y4632842D01*
X16329024Y4632096D01*
X16330000Y4632000D01*
X16360001Y4632000D01*
X16360976Y4632096D01*
X16362778Y4632843D01*
X16364159Y4634223D01*
X16364903Y4636026D01*
X16364999Y4637001D01*
X16364999D01*
X16364999Y4670000D01*
Y4670994D01*
X16365761Y4672832D01*
X16367168Y4674238D01*
X16369005Y4674999D01*
X16370000D01*
X16370000Y4675000D01*
X16400000Y4675000D01*
D02*
G37*
G36*
X16242831Y4631239D02*
X16244238Y4629832D01*
X16245000Y4627994D01*
X16245000Y4627000D01*
X16245000Y4627000D01*
X16245000Y4520000D01*
X16245000Y4519005D01*
X16244238Y4517167D01*
X16242831Y4515761D01*
X16240994Y4514999D01*
X16239999Y4515000D01*
X16239999D01*
X16110001Y4515000D01*
X16109006D01*
X16107169Y4515761D01*
X16105762Y4517167D01*
X16105000Y4519005D01*
Y4520000D01*
Y4520000D01*
Y4545000D01*
Y4545994D01*
X16105762Y4547832D01*
X16107169Y4549239D01*
X16109006Y4550000D01*
X16110001D01*
X16110001Y4550000D01*
X16142999D01*
X16143974Y4550096D01*
X16145778Y4550842D01*
X16147157Y4552222D01*
X16147903Y4554024D01*
X16148000Y4555000D01*
X16148000Y4555000D01*
X16148000Y4627000D01*
Y4627994D01*
X16148761Y4629832D01*
X16150168Y4631239D01*
X16152007Y4632000D01*
X16153000D01*
Y4632000D01*
X16239999Y4632000D01*
X16240994Y4632000D01*
X16242831Y4631239D01*
D02*
G37*
G36*
X17139999Y4475000D02*
X17139999Y4474999D01*
X17140994Y4475000D01*
X17142831Y4474238D01*
X17144238Y4472832D01*
X17145000Y4470994D01*
X17145000Y4470000D01*
X17145000Y4440000D01*
X17145000Y4440000D01*
X17145000Y4439005D01*
X17144238Y4437167D01*
X17142831Y4435761D01*
X17140994Y4435000D01*
X17139999Y4435000D01*
X17107001Y4435000D01*
Y4435000D01*
X17106024Y4434904D01*
X17104222Y4434157D01*
X17102843Y4432778D01*
X17102097Y4430975D01*
X17102000Y4430000D01*
X17102000Y4400000D01*
X17102097Y4399024D01*
X17102843Y4397222D01*
X17104222Y4395842D01*
X17106024Y4395096D01*
X17107001Y4395000D01*
X17139999D01*
Y4394999D01*
X17140994D01*
X17142831Y4394238D01*
X17144238Y4392832D01*
X17145000Y4390994D01*
Y4390000D01*
X17145000Y4360000D01*
X17145000D01*
X17145000Y4359005D01*
X17144238Y4357168D01*
X17142831Y4355761D01*
X17140994Y4355000D01*
X17139999Y4355000D01*
X17080000Y4355000D01*
X17079005Y4354999D01*
X17077167Y4355760D01*
X17075761Y4357167D01*
X17075000Y4359005D01*
X17075000Y4360000D01*
Y4470000D01*
X17075000Y4470000D01*
X17075000Y4470994D01*
X17075761Y4472832D01*
X17077168Y4474239D01*
X17079005Y4475000D01*
X17080000Y4475000D01*
X17139999Y4475000D01*
Y4475000D01*
D02*
G37*
G36*
X16172832Y4474239D02*
X16174239Y4472832D01*
X16175000Y4470994D01*
X16175000Y4470000D01*
Y4470000D01*
X16175000Y4360000D01*
X16175000Y4359005D01*
X16174239Y4357167D01*
X16172833Y4355760D01*
X16170995Y4354999D01*
X16170000Y4355000D01*
X16110001Y4355000D01*
X16109006Y4355000D01*
X16107169Y4355761D01*
X16105762Y4357168D01*
X16105000Y4359005D01*
X16105000Y4360000D01*
Y4390000D01*
Y4390994D01*
X16105762Y4392832D01*
X16107169Y4394238D01*
X16109006Y4395000D01*
X16110001D01*
X16110001Y4395000D01*
X16142999D01*
X16143976Y4395095D01*
X16145778Y4395842D01*
X16147157Y4397221D01*
X16147903Y4399024D01*
X16148000Y4400000D01*
X16148000D01*
X16148000Y4430000D01*
X16147903Y4430975D01*
X16147157Y4432778D01*
X16145778Y4434157D01*
X16143974Y4434904D01*
X16142999Y4435000D01*
X16142999Y4435000D01*
X16110001Y4435000D01*
X16109006Y4435000D01*
X16107169Y4435761D01*
X16105762Y4437167D01*
X16105000Y4439005D01*
X16105000Y4440000D01*
Y4440000D01*
Y4470000D01*
Y4470994D01*
X16105762Y4472832D01*
X16107169Y4474238D01*
X16109006Y4474999D01*
X16110001D01*
X16110001Y4475000D01*
Y4475000D01*
X16170000Y4475000D01*
X16170995Y4475000D01*
X16172832Y4474239D01*
D02*
G37*
G36*
X16912833Y4486239D02*
X16914240Y4484832D01*
X16914999Y4482994D01*
Y4482000D01*
Y4348000D01*
Y4347005D01*
X16914240Y4345168D01*
X16912833Y4343761D01*
X16910994Y4343000D01*
X16819005D01*
X16817168Y4343761D01*
X16815761Y4345168D01*
X16814999Y4347005D01*
Y4348000D01*
X16814999D01*
X16814999Y4482000D01*
Y4482994D01*
X16815761Y4484832D01*
X16817168Y4486239D01*
X16819005Y4487000D01*
X16910994D01*
X16912833Y4486239D01*
D02*
G37*
G36*
X16672832D02*
X16674239Y4484832D01*
X16675000Y4482994D01*
Y4482000D01*
Y4348000D01*
Y4347005D01*
X16674239Y4345168D01*
X16672832Y4343761D01*
X16670995Y4343000D01*
X16579005D01*
X16577168Y4343761D01*
X16575761Y4345168D01*
X16575000Y4347005D01*
Y4348000D01*
Y4482000D01*
Y4482994D01*
X16575761Y4484832D01*
X16577168Y4486239D01*
X16579005Y4487000D01*
X16670995D01*
X16672832Y4486239D01*
D02*
G37*
G36*
X16432832D02*
X16434239Y4484832D01*
X16435001Y4482994D01*
Y4482000D01*
X16435001D01*
X16435001Y4348000D01*
Y4347005D01*
X16434239Y4345168D01*
X16432832Y4343761D01*
X16430994Y4343000D01*
X16339005D01*
X16337167Y4343761D01*
X16335760Y4345168D01*
X16335001Y4347005D01*
Y4348000D01*
Y4482000D01*
Y4482994D01*
X16335760Y4484832D01*
X16337167Y4486239D01*
X16339005Y4487000D01*
X16430994D01*
X16432832Y4486239D01*
D02*
G37*
G36*
X17139999Y4315000D02*
X17139999Y4314999D01*
X17140994Y4315000D01*
X17142831Y4314239D01*
X17144238Y4312832D01*
X17145000Y4310994D01*
X17145000Y4310000D01*
X17145000Y4280000D01*
X17145000D01*
X17145000Y4279005D01*
X17144238Y4277167D01*
X17142831Y4275761D01*
X17140994Y4275000D01*
X17139999Y4275000D01*
X17107001D01*
Y4275000D01*
X17106024Y4274904D01*
X17104222Y4274157D01*
X17102843Y4272778D01*
X17102097Y4270975D01*
X17102000Y4270000D01*
X17102000Y4240000D01*
Y4240000D01*
X17102097Y4239024D01*
X17102843Y4237221D01*
X17104222Y4235842D01*
X17106024Y4235095D01*
X17107001Y4235000D01*
X17139999Y4235000D01*
Y4234999D01*
X17140994D01*
X17142831Y4234238D01*
X17144238Y4232832D01*
X17145000Y4230994D01*
Y4230000D01*
X17145000Y4200000D01*
X17145000D01*
X17145000Y4199005D01*
X17144238Y4197168D01*
X17142831Y4195761D01*
X17140994Y4195000D01*
X17139999Y4195000D01*
X17080000Y4194999D01*
Y4195000D01*
X17079005Y4194999D01*
X17077167Y4195760D01*
X17075761Y4197167D01*
X17075000Y4199005D01*
X17075000Y4200000D01*
Y4310000D01*
X17075000Y4310000D01*
X17075000Y4310994D01*
X17075761Y4312832D01*
X17077168Y4314239D01*
X17079005Y4315000D01*
X17080000Y4315000D01*
X17139999Y4315000D01*
Y4315000D01*
D02*
G37*
G36*
X16172832Y4314239D02*
X16174239Y4312832D01*
X16175000Y4310994D01*
X16175000Y4310000D01*
Y4200000D01*
X16175000Y4199005D01*
X16174239Y4197167D01*
X16172833Y4195760D01*
X16170995Y4194999D01*
X16170000Y4194999D01*
X16110001Y4195000D01*
X16109006Y4195000D01*
X16107169Y4195761D01*
X16105762Y4197168D01*
X16105000Y4199005D01*
X16105000Y4200000D01*
Y4230000D01*
Y4230994D01*
X16105762Y4232832D01*
X16107169Y4234238D01*
X16109006Y4234999D01*
X16110001D01*
X16110001Y4235000D01*
X16142999Y4235000D01*
X16143976Y4235095D01*
X16145778Y4235842D01*
X16147157Y4237221D01*
X16147903Y4239024D01*
X16148000Y4240000D01*
X16148000Y4240000D01*
X16148000Y4270000D01*
X16147903Y4270975D01*
X16147157Y4272778D01*
X16145778Y4274157D01*
X16143974Y4274904D01*
X16142999Y4275000D01*
X16142999Y4275000D01*
X16110001D01*
X16109006Y4275000D01*
X16107169Y4275761D01*
X16105762Y4277167D01*
X16105000Y4279005D01*
X16105000Y4280000D01*
Y4310000D01*
Y4310994D01*
X16105762Y4312832D01*
X16107169Y4314239D01*
X16109006Y4314999D01*
X16110001D01*
X16110001Y4315000D01*
Y4315000D01*
X16170000Y4315000D01*
X16170995Y4315000D01*
X16172832Y4314239D01*
D02*
G37*
G36*
X17080000Y4155000D02*
X17139999D01*
X17139999Y4155000D01*
X17140994Y4155000D01*
X17142831Y4154239D01*
X17144238Y4152832D01*
X17145000Y4150994D01*
X17145000Y4150000D01*
X17145000Y4120000D01*
X17145000D01*
X17145000Y4119005D01*
X17144238Y4117168D01*
X17142831Y4115761D01*
X17140994Y4115000D01*
X17139999Y4115000D01*
X17107001D01*
Y4115000D01*
X17106024Y4114904D01*
X17104222Y4114157D01*
X17102843Y4112778D01*
X17102097Y4110975D01*
X17102000Y4110000D01*
X17102000Y4080000D01*
X17102097Y4079024D01*
X17102843Y4077221D01*
X17104222Y4075842D01*
X17106024Y4075095D01*
X17107001Y4075000D01*
X17139999D01*
Y4074999D01*
X17140994D01*
X17142831Y4074238D01*
X17144238Y4072832D01*
X17145000Y4070994D01*
Y4070000D01*
X17145000Y4040000D01*
X17145000D01*
X17145000Y4039005D01*
X17144238Y4037167D01*
X17142831Y4035761D01*
X17140994Y4035000D01*
X17139999Y4035000D01*
X17080000Y4035000D01*
X17079005Y4034999D01*
X17077167Y4035760D01*
X17075761Y4037167D01*
X17075000Y4039005D01*
X17075000Y4040000D01*
Y4150000D01*
X17075000D01*
X17075000Y4150994D01*
X17075761Y4152832D01*
X17077168Y4154239D01*
X17079005Y4155000D01*
X17080000Y4155000D01*
D02*
G37*
G36*
X16172832Y4154239D02*
X16174239Y4152832D01*
X16175000Y4150994D01*
X16175000Y4150000D01*
Y4040000D01*
X16175000Y4039005D01*
X16174239Y4037167D01*
X16172833Y4035760D01*
X16170995Y4034999D01*
X16170000Y4035000D01*
X16110001Y4035000D01*
X16109006Y4035000D01*
X16107169Y4035761D01*
X16105762Y4037167D01*
X16105000Y4039005D01*
X16105000Y4040000D01*
Y4070000D01*
Y4070994D01*
X16105762Y4072832D01*
X16107169Y4074238D01*
X16109006Y4074999D01*
X16110001D01*
X16110001Y4075000D01*
X16142999D01*
X16143976Y4075095D01*
X16145778Y4075842D01*
X16147157Y4077221D01*
X16147903Y4079024D01*
X16148000Y4079999D01*
X16148000Y4080000D01*
X16148000Y4110000D01*
X16147903Y4110975D01*
X16147157Y4112778D01*
X16145778Y4114157D01*
X16143974Y4114904D01*
X16142999Y4115000D01*
X16142999Y4115000D01*
X16110001D01*
X16109006Y4115000D01*
X16107169Y4115761D01*
X16105762Y4117168D01*
X16105000Y4119005D01*
X16105000Y4120000D01*
Y4150000D01*
Y4150994D01*
X16105762Y4152832D01*
X16107169Y4154238D01*
X16109006Y4154999D01*
X16110001D01*
X16110001Y4155000D01*
X16170000D01*
X16170995Y4155000D01*
X16172832Y4154239D01*
D02*
G37*
G36*
X16912833Y4166239D02*
X16914240Y4164832D01*
X16914999Y4162994D01*
Y4162000D01*
Y4028000D01*
Y4027005D01*
X16914240Y4025167D01*
X16912833Y4023761D01*
X16910994Y4023000D01*
X16819005D01*
X16817168Y4023761D01*
X16815761Y4025167D01*
X16814999Y4027005D01*
Y4028000D01*
X16814999D01*
X16814999Y4162000D01*
Y4162994D01*
X16815761Y4164832D01*
X16817168Y4166239D01*
X16819005Y4167000D01*
X16910994D01*
X16912833Y4166239D01*
D02*
G37*
G36*
X16672832D02*
X16674239Y4164832D01*
X16675000Y4162994D01*
Y4162000D01*
Y4028000D01*
Y4027005D01*
X16674239Y4025167D01*
X16672832Y4023761D01*
X16670995Y4023000D01*
X16579005D01*
X16577168Y4023761D01*
X16575761Y4025167D01*
X16575000Y4027005D01*
Y4028000D01*
Y4162000D01*
Y4162994D01*
X16575761Y4164832D01*
X16577168Y4166239D01*
X16579005Y4167000D01*
X16670995D01*
X16672832Y4166239D01*
D02*
G37*
G36*
X16432832D02*
X16434239Y4164832D01*
X16435001Y4162994D01*
Y4162000D01*
X16435001Y4162000D01*
X16435001Y4028000D01*
Y4027005D01*
X16434239Y4025167D01*
X16432832Y4023761D01*
X16430994Y4023000D01*
X16339005D01*
X16337167Y4023761D01*
X16335760Y4025167D01*
X16335001Y4027005D01*
Y4028000D01*
Y4162000D01*
Y4162994D01*
X16335760Y4164832D01*
X16337167Y4166239D01*
X16339005Y4167000D01*
X16430994D01*
X16432832Y4166239D01*
D02*
G37*
G36*
X17142831Y3994239D02*
X17144238Y3992832D01*
X17145000Y3990994D01*
X17145000Y3990000D01*
X17145000Y3960000D01*
X17145000D01*
X17145000Y3959005D01*
X17144238Y3957168D01*
X17142831Y3955761D01*
X17140994Y3955000D01*
X17139999Y3955000D01*
X17107001D01*
Y3955000D01*
X17106024Y3954904D01*
X17104222Y3954157D01*
X17102843Y3952778D01*
X17102097Y3950975D01*
X17102000Y3950000D01*
X17102000Y3920000D01*
X17102097Y3919024D01*
X17102843Y3917222D01*
X17104222Y3915842D01*
X17106024Y3915096D01*
X17107001Y3915000D01*
X17139999D01*
Y3915000D01*
X17140994D01*
X17142831Y3914239D01*
X17144238Y3912832D01*
X17145000Y3910994D01*
Y3910000D01*
X17145000Y3880000D01*
X17145000D01*
X17145000Y3879005D01*
X17144238Y3877168D01*
X17142831Y3875761D01*
X17140994Y3875000D01*
X17139999Y3875000D01*
X17080000Y3875000D01*
X17079005Y3874999D01*
X17077167Y3875760D01*
X17075761Y3877167D01*
X17075000Y3879005D01*
X17075000Y3880000D01*
Y3990000D01*
X17075000Y3990000D01*
X17075000Y3990994D01*
X17075761Y3992832D01*
X17077168Y3994239D01*
X17079005Y3995000D01*
X17080000Y3995000D01*
X17139999Y3995000D01*
X17139999Y3995000D01*
X17140994Y3995000D01*
X17142831Y3994239D01*
D02*
G37*
G36*
X16172832D02*
X16174239Y3992832D01*
X16175000Y3990994D01*
X16175000Y3990000D01*
Y3880000D01*
X16175000Y3879005D01*
X16174239Y3877167D01*
X16172833Y3875760D01*
X16170995Y3874999D01*
X16170000Y3875000D01*
X16110001Y3875000D01*
X16109006Y3875000D01*
X16107169Y3875761D01*
X16105762Y3877168D01*
X16105000Y3879005D01*
X16105000Y3880000D01*
Y3910000D01*
Y3910994D01*
X16105762Y3912832D01*
X16107169Y3914238D01*
X16109006Y3915000D01*
X16110001D01*
X16110001Y3915000D01*
X16142999D01*
X16143976Y3915096D01*
X16145778Y3915842D01*
X16147157Y3917222D01*
X16147903Y3919024D01*
X16148000Y3920000D01*
X16148000Y3920000D01*
X16148000Y3950000D01*
X16147903Y3950975D01*
X16147157Y3952778D01*
X16145778Y3954157D01*
X16143974Y3954904D01*
X16142999Y3955000D01*
X16142999Y3955000D01*
X16110001D01*
X16109006Y3955000D01*
X16107169Y3955761D01*
X16105762Y3957168D01*
X16105000Y3959005D01*
X16105000Y3960000D01*
Y3990000D01*
Y3990994D01*
X16105762Y3992832D01*
X16107169Y3994238D01*
X16109006Y3994999D01*
X16110001D01*
X16110001Y3995000D01*
X16170000Y3995000D01*
X16170995Y3995000D01*
X16172832Y3994239D01*
D02*
G37*
G36*
Y3794239D02*
X16174239Y3792832D01*
X16175000Y3790994D01*
X16175000Y3790000D01*
X16175000Y3680000D01*
X16175000Y3679005D01*
X16174239Y3677167D01*
X16172833Y3675760D01*
X16170995Y3674999D01*
X16170000Y3675000D01*
X16170000D01*
X16110001Y3675000D01*
X16109006Y3675000D01*
X16107169Y3675761D01*
X16105762Y3677167D01*
X16105000Y3679005D01*
X16105000Y3680000D01*
Y3680000D01*
Y3710000D01*
Y3710994D01*
X16105762Y3712832D01*
X16107169Y3714238D01*
X16109006Y3714999D01*
X16110001D01*
Y3715000D01*
X16142999D01*
X16143976Y3715096D01*
X16145778Y3715842D01*
X16147157Y3717221D01*
X16147903Y3719024D01*
X16148000Y3720000D01*
X16148000Y3720000D01*
X16148000Y3750000D01*
X16147903Y3750975D01*
X16147157Y3752778D01*
X16145778Y3754157D01*
X16143974Y3754904D01*
X16142999Y3755000D01*
X16142999Y3755000D01*
X16110001D01*
X16109006Y3755000D01*
X16107169Y3755761D01*
X16105762Y3757167D01*
X16105000Y3759005D01*
X16105000Y3760000D01*
Y3790000D01*
Y3790994D01*
X16105762Y3792832D01*
X16107169Y3794239D01*
X16109006Y3795000D01*
X16110001Y3795000D01*
Y3795000D01*
Y3795000D01*
X16170000Y3795000D01*
X16170995Y3795000D01*
X16172832Y3794239D01*
D02*
G37*
G36*
X17139999Y3795000D02*
X17140994D01*
X17142831Y3794238D01*
X17144238Y3792832D01*
X17145000Y3790994D01*
Y3790000D01*
X17145000D01*
X17145000Y3760000D01*
X17145000Y3759005D01*
X17144238Y3757167D01*
X17142831Y3755761D01*
X17140994Y3755000D01*
X17139999Y3755000D01*
X17139999D01*
X17139999D01*
D01*
X17107001Y3755000D01*
X17106024Y3754904D01*
X17104222Y3754157D01*
X17102843Y3752777D01*
X17102097Y3750975D01*
X17102000Y3750000D01*
Y3720000D01*
X17102097Y3719024D01*
X17102843Y3717221D01*
X17104224Y3715842D01*
X17106026Y3715095D01*
X17107001Y3715000D01*
X17107002Y3715000D01*
X17139999Y3714999D01*
X17140994D01*
X17142831Y3714238D01*
X17144238Y3712832D01*
X17145000Y3710994D01*
Y3710000D01*
X17145000Y3710000D01*
X17145000Y3680000D01*
Y3679005D01*
X17144238Y3677168D01*
X17142831Y3675762D01*
X17140994Y3675000D01*
X17139999D01*
X17107001Y3675000D01*
X17106026Y3674904D01*
X17104224Y3674157D01*
X17102843Y3672778D01*
X17102097Y3670976D01*
X17102000Y3670001D01*
X17102000Y3640000D01*
X17102097Y3639024D01*
X17102843Y3637222D01*
X17104224Y3635842D01*
X17106026Y3635096D01*
X17107001Y3635000D01*
X17139999Y3635000D01*
X17140994D01*
X17142831Y3634238D01*
X17144238Y3632832D01*
X17145000Y3630994D01*
Y3630000D01*
X17145000D01*
X17145000Y3600000D01*
Y3599005D01*
X17144238Y3597168D01*
X17142831Y3595761D01*
X17140994Y3595000D01*
X17079005D01*
X17077168Y3595761D01*
X17075761Y3597168D01*
X17075000Y3599005D01*
Y3600000D01*
Y3600000D01*
Y3790000D01*
Y3790994D01*
X17075761Y3792832D01*
X17077168Y3794239D01*
X17079005Y3795000D01*
X17080000D01*
X17080000Y3795000D01*
X17139999Y3795000D01*
D02*
G37*
G36*
X17032832Y3744239D02*
X17034239Y3742832D01*
X17035001Y3740994D01*
Y3740000D01*
Y3650000D01*
Y3649005D01*
X17034239Y3647167D01*
X17032832Y3645761D01*
X17030994Y3645000D01*
X16929005D01*
X16927168Y3645761D01*
X16925761Y3647167D01*
X16925000Y3649005D01*
Y3650000D01*
Y3740000D01*
Y3740994D01*
X16925761Y3742832D01*
X16927168Y3744239D01*
X16929005Y3745000D01*
X17030994D01*
X17032832Y3744239D01*
D02*
G37*
G36*
X16172832Y3634239D02*
X16174239Y3632832D01*
X16175000Y3630994D01*
Y3630000D01*
Y3600000D01*
Y3599005D01*
X16174239Y3597168D01*
X16172832Y3595761D01*
X16170995Y3595000D01*
X16109006D01*
X16107169Y3595761D01*
X16105762Y3597168D01*
X16105000Y3599005D01*
Y3600000D01*
Y3630000D01*
Y3630994D01*
X16105762Y3632832D01*
X16107169Y3634239D01*
X16109006Y3635000D01*
X16170995D01*
X16172832Y3634239D01*
D02*
G37*
G36*
Y3534239D02*
X16174239Y3532832D01*
X16175000Y3530994D01*
Y3530000D01*
Y3500000D01*
Y3499005D01*
X16174239Y3497168D01*
X16172832Y3495761D01*
X16170995Y3495000D01*
X16109006D01*
X16107169Y3495761D01*
X16105762Y3497168D01*
X16105000Y3499005D01*
Y3500000D01*
Y3530000D01*
Y3530994D01*
X16105762Y3532832D01*
X16107169Y3534239D01*
X16109006Y3535000D01*
X16170995D01*
X16172832Y3534239D01*
D02*
G37*
G36*
X17080000Y3535000D02*
X17139999D01*
X17139999Y3535000D01*
X17140994Y3535000D01*
X17142831Y3534239D01*
X17144238Y3532832D01*
X17145000Y3530994D01*
X17145000Y3530000D01*
X17145000Y3500000D01*
X17145000D01*
X17145000Y3499005D01*
X17144238Y3497168D01*
X17142831Y3495761D01*
X17140994Y3495000D01*
X17139999Y3495000D01*
X17107001D01*
Y3495000D01*
X17106024Y3494904D01*
X17104222Y3494157D01*
X17102843Y3492778D01*
X17102097Y3490975D01*
X17102000Y3490000D01*
X17102000Y3460000D01*
Y3460000D01*
X17102097Y3459024D01*
X17102843Y3457222D01*
X17104222Y3455842D01*
X17106024Y3455095D01*
X17107001Y3455000D01*
X17139999D01*
X17139999Y3454999D01*
X17140994D01*
X17142831Y3454238D01*
X17144238Y3452832D01*
X17145000Y3450994D01*
Y3450000D01*
X17145000Y3420000D01*
X17145000Y3420000D01*
X17145000Y3419005D01*
X17144238Y3417167D01*
X17142831Y3415761D01*
X17140994Y3415000D01*
X17139999Y3415000D01*
X17080000Y3415000D01*
X17080000Y3415000D01*
X17079005Y3415000D01*
X17077167Y3415761D01*
X17075761Y3417167D01*
X17075000Y3419005D01*
X17075000Y3420000D01*
Y3530000D01*
X17075000D01*
X17075000Y3530994D01*
X17075761Y3532832D01*
X17077168Y3534239D01*
X17079005Y3535000D01*
X17080000Y3535000D01*
D02*
G37*
G36*
X16743832Y3671239D02*
X16745239Y3669832D01*
X16746001Y3667994D01*
Y3667000D01*
Y3485000D01*
Y3484005D01*
X16745239Y3482168D01*
X16743832Y3480761D01*
X16741994Y3480000D01*
X16575005D01*
X16573167Y3480761D01*
X16571761Y3482168D01*
X16571001Y3484005D01*
Y3485000D01*
Y3667000D01*
Y3667994D01*
X16571761Y3669832D01*
X16573167Y3671239D01*
X16575005Y3672000D01*
X16741994D01*
X16743832Y3671239D01*
D02*
G37*
G36*
X17032832Y3524239D02*
X17034239Y3522832D01*
X17035001Y3520994D01*
Y3520000D01*
Y3430000D01*
Y3429005D01*
X17034239Y3427168D01*
X17032832Y3425761D01*
X17030994Y3425000D01*
X16929005D01*
X16927168Y3425761D01*
X16925761Y3427168D01*
X16925000Y3429005D01*
Y3430000D01*
Y3520000D01*
Y3520994D01*
X16925761Y3522832D01*
X16927168Y3524239D01*
X16929005Y3525000D01*
X17030994D01*
X17032832Y3524239D01*
D02*
G37*
G36*
X16172832Y3454239D02*
X16174239Y3452832D01*
X16175000Y3450994D01*
Y3450000D01*
Y3420000D01*
Y3419005D01*
X16174239Y3417168D01*
X16172832Y3415761D01*
X16170995Y3415000D01*
X16109006D01*
X16107169Y3415761D01*
X16105762Y3417168D01*
X16105000Y3419005D01*
Y3420000D01*
Y3450000D01*
Y3450994D01*
X16105762Y3452832D01*
X16107169Y3454239D01*
X16109006Y3455000D01*
X16170995D01*
X16172832Y3454239D01*
D02*
G37*
G36*
X16172833Y3354240D02*
X16174239Y3352833D01*
X16175000Y3350995D01*
X16175000Y3350000D01*
X16175000Y3240000D01*
X16175000Y3239005D01*
X16174239Y3237168D01*
X16172832Y3235761D01*
X16170995Y3235000D01*
X16170000Y3235000D01*
X16110001D01*
Y3235000D01*
X16109006Y3235000D01*
X16107169Y3235761D01*
X16105762Y3237168D01*
X16105000Y3239005D01*
Y3240000D01*
Y3270000D01*
X16105000Y3270994D01*
X16105762Y3272832D01*
X16107169Y3274239D01*
X16109006Y3275000D01*
X16110001Y3275000D01*
X16142999D01*
X16143974Y3275096D01*
X16145778Y3275842D01*
X16147157Y3277222D01*
X16147903Y3279024D01*
X16148000Y3280000D01*
X16148000Y3310000D01*
X16148000D01*
X16147903Y3310975D01*
X16147157Y3312778D01*
X16145778Y3314158D01*
X16143976Y3314904D01*
X16142999Y3315000D01*
X16110001Y3315000D01*
X16109006D01*
X16107169Y3315761D01*
X16105762Y3317168D01*
X16105000Y3319005D01*
Y3320000D01*
Y3350000D01*
X16105000Y3350994D01*
X16105762Y3352832D01*
X16107169Y3354239D01*
X16109006Y3355000D01*
X16110001Y3355000D01*
X16170000Y3355000D01*
X16170000Y3355000D01*
X16170995Y3355001D01*
X16172833Y3354240D01*
D02*
G37*
G36*
X17142831Y3354239D02*
X17144238Y3352832D01*
X17145000Y3350994D01*
Y3350000D01*
Y3320000D01*
Y3319005D01*
X17144238Y3317168D01*
X17142831Y3315761D01*
X17140994Y3315000D01*
X17079005D01*
X17077168Y3315761D01*
X17075761Y3317168D01*
X17075000Y3319005D01*
Y3320000D01*
Y3350000D01*
Y3350994D01*
X17075761Y3352832D01*
X17077168Y3354239D01*
X17079005Y3355000D01*
X17140994D01*
X17142831Y3354239D01*
D02*
G37*
G36*
X16743832Y3439239D02*
X16745239Y3437832D01*
X16746001Y3435994D01*
Y3435000D01*
Y3253000D01*
Y3252005D01*
X16745239Y3250167D01*
X16743832Y3248761D01*
X16741994Y3248000D01*
X16575005D01*
X16573167Y3248761D01*
X16571761Y3250167D01*
X16571001Y3252005D01*
Y3253000D01*
Y3435000D01*
Y3435994D01*
X16571761Y3437832D01*
X16573167Y3439239D01*
X16575005Y3440000D01*
X16741994D01*
X16743832Y3439239D01*
D02*
G37*
G36*
X17142831Y3274239D02*
X17144238Y3272832D01*
X17145000Y3270994D01*
Y3270000D01*
Y3240000D01*
Y3239005D01*
X17144238Y3237168D01*
X17142831Y3235761D01*
X17140994Y3235000D01*
X17079005D01*
X17077168Y3235761D01*
X17075761Y3237168D01*
X17075000Y3239005D01*
Y3240000D01*
Y3270000D01*
Y3270994D01*
X17075761Y3272832D01*
X17077168Y3274239D01*
X17079005Y3275000D01*
X17140994D01*
X17142831Y3274239D01*
D02*
G37*
G36*
X16242833Y3194239D02*
X16244238Y3192833D01*
X16245000Y3190995D01*
X16245000Y3190000D01*
X16245000Y3083000D01*
X16245000D01*
X16245000Y3082005D01*
X16244238Y3080168D01*
X16242831Y3078761D01*
X16240994Y3078000D01*
X16239999Y3078000D01*
X16153000D01*
X16152005Y3078000D01*
X16150168Y3078761D01*
X16148761Y3080167D01*
X16148000Y3082005D01*
X16148000Y3083000D01*
Y3155000D01*
X16148000D01*
X16147903Y3155975D01*
X16147157Y3157778D01*
X16145778Y3159158D01*
X16143976Y3159904D01*
X16142999Y3160000D01*
X16110001Y3160000D01*
X16110001D01*
X16109006Y3160000D01*
X16107167Y3160761D01*
X16105762Y3162167D01*
X16105000Y3164005D01*
X16105000Y3165000D01*
Y3190000D01*
Y3190994D01*
X16105762Y3192832D01*
X16107169Y3194239D01*
X16109006Y3195000D01*
X16110001D01*
X16239999Y3195000D01*
Y3195000D01*
X16240994Y3195000D01*
X16242833Y3194239D01*
D02*
G37*
G36*
X17010001Y3195000D02*
X17010001Y3195000D01*
X17139999Y3195000D01*
X17140994D01*
X17142831Y3194239D01*
X17144238Y3192832D01*
X17145000Y3190994D01*
Y3190000D01*
X17145000D01*
X17145000Y3165000D01*
X17145000Y3164005D01*
X17144238Y3162167D01*
X17142831Y3160761D01*
X17140994Y3160000D01*
X17139999Y3160000D01*
X17139999Y3160000D01*
X17107001Y3160000D01*
X17106024Y3159904D01*
X17104222Y3159158D01*
X17102843Y3157778D01*
X17102097Y3155975D01*
X17102000Y3155000D01*
X17102000Y3083000D01*
X17102000Y3082005D01*
X17101239Y3080167D01*
X17099832Y3078761D01*
X17097995Y3078000D01*
X17097000Y3078000D01*
X17010001D01*
X17009006Y3078000D01*
X17007169Y3078761D01*
X17005762Y3080168D01*
X17005000Y3082005D01*
X17005000Y3083000D01*
Y3190000D01*
X17005000Y3190995D01*
X17005762Y3192833D01*
X17007167Y3194239D01*
X17009006Y3195000D01*
X17010001Y3195000D01*
D02*
G37*
G36*
X16962833Y3104239D02*
X16964240Y3102832D01*
X16964999Y3100995D01*
Y3100000D01*
Y3040000D01*
Y3039005D01*
X16964240Y3037168D01*
X16962833Y3035761D01*
X16960995Y3035000D01*
X16929005D01*
X16927168Y3035761D01*
X16925761Y3037168D01*
X16925000Y3039005D01*
Y3040000D01*
Y3100000D01*
Y3100995D01*
X16925761Y3102832D01*
X16927168Y3104239D01*
X16929005Y3105000D01*
X16930000D01*
Y3105000D01*
X16960001Y3105000D01*
X16960995D01*
X16962833Y3104239D01*
D02*
G37*
G36*
X16882832D02*
X16884239Y3102832D01*
X16885001Y3100995D01*
Y3100000D01*
Y3040000D01*
Y3039005D01*
X16884239Y3037168D01*
X16882832Y3035761D01*
X16880994Y3035000D01*
X16849005D01*
X16847168Y3035761D01*
X16845761Y3037168D01*
X16845000Y3039005D01*
Y3040000D01*
Y3100000D01*
Y3100995D01*
X16845761Y3102832D01*
X16847168Y3104239D01*
X16849005Y3105000D01*
X16880994D01*
X16882832Y3104239D01*
D02*
G37*
G36*
X16562833Y3104239D02*
X16564240Y3102832D01*
X16564999Y3100994D01*
Y3100000D01*
X16564999Y3100000D01*
X16564999Y3040000D01*
Y3039005D01*
X16564240Y3037168D01*
X16562833Y3035761D01*
X16560994Y3035000D01*
X16529005D01*
X16527168Y3035761D01*
X16525761Y3037168D01*
X16525000Y3039005D01*
Y3040000D01*
Y3100000D01*
Y3100994D01*
X16525761Y3102832D01*
X16527168Y3104239D01*
X16529005Y3105000D01*
X16560994D01*
X16562833Y3104239D01*
D02*
G37*
G36*
X16322832D02*
X16324239Y3102832D01*
X16325000Y3100994D01*
Y3100000D01*
Y3040000D01*
Y3039005D01*
X16324239Y3037168D01*
X16322832Y3035761D01*
X16320995Y3035000D01*
X16289005D01*
X16287167Y3035761D01*
X16285760Y3037168D01*
X16285001Y3039005D01*
Y3040000D01*
Y3100000D01*
Y3100994D01*
X16285760Y3102832D01*
X16287167Y3104239D01*
X16289005Y3105000D01*
X16320995D01*
X16322832Y3104239D01*
D02*
G37*
G36*
X16482832D02*
X16484239Y3102832D01*
X16485001Y3100994D01*
Y3100000D01*
X16485001Y3040000D01*
Y3039005D01*
X16484239Y3037168D01*
X16482832Y3035761D01*
X16480994Y3035000D01*
X16480000Y3035000D01*
X16449005D01*
X16447168Y3035761D01*
X16445761Y3037168D01*
X16445000Y3039005D01*
Y3040000D01*
Y3100000D01*
Y3100994D01*
X16445761Y3102832D01*
X16447168Y3104239D01*
X16449005Y3105000D01*
X16480994D01*
X16482832Y3104239D01*
D02*
G37*
G36*
X16402832D02*
X16404239Y3102832D01*
X16405000Y3100994D01*
Y3100000D01*
X16405000Y3040000D01*
Y3039005D01*
X16404237Y3037168D01*
X16402832Y3035761D01*
X16400993Y3035000D01*
X16400000Y3035000D01*
X16369005D01*
X16367168Y3035761D01*
X16365761Y3037168D01*
X16364999Y3039005D01*
Y3040000D01*
Y3100000D01*
Y3100994D01*
X16365761Y3102832D01*
X16367168Y3104239D01*
X16369005Y3105000D01*
X16400993D01*
X16402832Y3104239D01*
D02*
G37*
G36*
X16800000Y3104999D02*
X16800993D01*
X16802832Y3104238D01*
X16804239Y3102832D01*
X16805000Y3100994D01*
Y3100000D01*
X16805000Y3100000D01*
X16805000Y3040000D01*
Y3039005D01*
X16804237Y3037168D01*
X16802832Y3035761D01*
X16800993Y3035000D01*
X16800000D01*
Y3035000D01*
X16770000D01*
X16769005Y3035000D01*
X16767168Y3035761D01*
X16765761Y3037167D01*
X16764999Y3039005D01*
X16764999Y3040000D01*
X16764999Y3073000D01*
X16764903Y3073975D01*
X16764157Y3075777D01*
X16762778Y3077157D01*
X16760976Y3077903D01*
X16760001Y3077999D01*
X16760001Y3078000D01*
X16730000Y3077999D01*
X16729024Y3077903D01*
X16727222Y3077157D01*
X16725842Y3075777D01*
X16725095Y3073974D01*
X16725000Y3072998D01*
Y3072998D01*
X16725000Y3040000D01*
Y3039005D01*
X16724239Y3037168D01*
X16722832Y3035761D01*
X16720995Y3035000D01*
X16720000D01*
X16720000Y3035000D01*
X16689005D01*
X16687167Y3035761D01*
X16685760Y3037168D01*
X16685001Y3039005D01*
Y3040000D01*
X16685001D01*
X16685001Y3072999D01*
X16684904Y3073975D01*
X16684158Y3075777D01*
X16682777Y3077156D01*
X16680975Y3077903D01*
X16680000Y3077999D01*
Y3077999D01*
X16650000Y3078000D01*
X16649023Y3077904D01*
X16647221Y3077157D01*
X16645844Y3075777D01*
X16645096Y3073974D01*
X16645000Y3072999D01*
Y3072999D01*
X16645000Y3040000D01*
Y3039005D01*
X16644238Y3037168D01*
X16642831Y3035761D01*
X16640994Y3035000D01*
X16609006D01*
X16607169Y3035761D01*
X16605762Y3037168D01*
X16605000Y3039005D01*
Y3040000D01*
Y3100000D01*
Y3100994D01*
X16605762Y3102832D01*
X16607169Y3104238D01*
X16609006Y3104999D01*
X16610001D01*
X16610001Y3105000D01*
X16800000Y3104999D01*
D02*
G37*
D12*
X7605000Y7110130D02*
D03*
Y6985000D02*
D03*
X7587500Y8157433D02*
D03*
Y8282563D02*
D03*
D13*
X15124878Y5440000D02*
D03*
X15285252D02*
D03*
X16990373Y7297500D02*
D03*
X16830000D02*
D03*
X10920187Y5667500D02*
D03*
X10759813D02*
D03*
D14*
X9190000Y7173186D02*
D03*
Y7012812D02*
D03*
X9220000Y5905122D02*
D03*
Y5744749D02*
D03*
X6397500Y4285124D02*
D03*
Y4124750D02*
D03*
X4687500Y2980122D02*
D03*
Y2819748D02*
D03*
X10872500Y3927687D02*
D03*
Y3767314D02*
D03*
X16032500Y5020187D02*
D03*
Y4859813D02*
D03*
D109*
X3982501Y8017002D02*
D03*
X3812499D02*
D03*
D119*
X16554999Y3305002D02*
D03*
Y3405002D02*
D03*
X16625002D02*
D03*
Y3505002D02*
D03*
X16554999D02*
D03*
Y3605002D02*
D03*
X16625002D02*
D03*
Y3305002D02*
D03*
X16694998D02*
D03*
Y3605002D02*
D03*
Y3405002D02*
D03*
Y3505002D02*
D03*
X17005000Y3617498D02*
D03*
X16794998D02*
D03*
Y3694999D02*
D03*
X16934998Y3617498D02*
D03*
X16865001D02*
D03*
X17123000Y3654999D02*
D03*
X16554999Y3905001D02*
D03*
Y3705001D02*
D03*
Y3805001D02*
D03*
Y4105001D02*
D03*
Y4205000D02*
D03*
Y4005001D02*
D03*
X16625002Y4305000D02*
D03*
Y3805001D02*
D03*
Y3905001D02*
D03*
Y3705001D02*
D03*
X16694998Y3905001D02*
D03*
X16625002Y4105001D02*
D03*
Y4205000D02*
D03*
Y4005001D02*
D03*
X16694998Y4205000D02*
D03*
X16554999Y4405000D02*
D03*
Y4505000D02*
D03*
Y4305000D02*
D03*
X16625002Y4405000D02*
D03*
Y4505000D02*
D03*
X16665001Y4650999D02*
D03*
X16585001D02*
D03*
X16694998Y4005001D02*
D03*
Y3705001D02*
D03*
Y3805001D02*
D03*
Y4405000D02*
D03*
Y4105001D02*
D03*
X16934998Y3694999D02*
D03*
X16865001D02*
D03*
X17005000D02*
D03*
X17123000Y3734999D02*
D03*
X16865001Y3772499D02*
D03*
X16794998D02*
D03*
X17005000D02*
D03*
X16934998D02*
D03*
X16694998Y4305000D02*
D03*
Y4505000D02*
D03*
X17005000Y3439998D02*
D03*
X16865001D02*
D03*
X16934998D02*
D03*
X17005000Y3510001D02*
D03*
X16865001D02*
D03*
X16934998D02*
D03*
X16794998Y4005001D02*
D03*
Y3905001D02*
D03*
Y4105001D02*
D03*
Y4205000D02*
D03*
X16934998Y3905001D02*
D03*
X16865001D02*
D03*
Y4005001D02*
D03*
Y4105001D02*
D03*
Y4205000D02*
D03*
X16934998Y4005001D02*
D03*
Y4205000D02*
D03*
Y4105001D02*
D03*
X16794998Y4305000D02*
D03*
X16865001D02*
D03*
X16794998Y4405000D02*
D03*
X16865001D02*
D03*
X16794998Y4505000D02*
D03*
X16865001D02*
D03*
X16825002Y4650999D02*
D03*
X16934998Y4305000D02*
D03*
Y4405000D02*
D03*
Y4505000D02*
D03*
X16905000Y4650999D02*
D03*
D128*
X3150000Y4336500D02*
D03*
X3645000D02*
D03*
X3150000Y4082500D02*
D03*
X3645000D02*
D03*
X3150000Y3828500D02*
D03*
X3645000D02*
D03*
X15347501Y7582500D02*
D03*
X14852499D02*
D03*
X15347501Y7836500D02*
D03*
X14852499D02*
D03*
X15347501Y8090500D02*
D03*
X14852499D02*
D03*
X9085499Y4874499D02*
D03*
X14964999Y3381502D02*
D03*
Y3127502D02*
D03*
Y2873502D02*
D03*
X14521002Y3127502D02*
D03*
X14964999Y3635502D02*
D03*
X14521002Y3381502D02*
D03*
Y3635502D02*
D03*
Y2873502D02*
D03*
X9529501Y4874499D02*
D03*
X9085499Y4620499D02*
D03*
X9529501D02*
D03*
X9085499Y4366499D02*
D03*
X9529501Y5128499D02*
D03*
Y4366499D02*
D03*
X9085499Y5128499D02*
D03*
D129*
X15350000Y6395000D02*
D03*
X15264999D02*
D03*
D130*
X5245000Y8322500D02*
D03*
X5055000D02*
D03*
X17345000Y3252500D02*
D03*
X17535001D02*
D03*
X17342500Y3610000D02*
D03*
X17532500D02*
D03*
X17337500Y4332500D02*
D03*
X17527499D02*
D03*
X17332500Y3942500D02*
D03*
X17522501D02*
D03*
X5265000Y7270000D02*
D03*
X5455000D02*
D03*
X5415000Y6535000D02*
D03*
X5225000D02*
D03*
X5175000Y7597500D02*
D03*
X4985000D02*
D03*
D131*
X14152499Y6677411D02*
D03*
Y6812588D02*
D03*
D132*
X9835000Y8067500D02*
D03*
X9695000D02*
D03*
X11222498Y6372500D02*
D03*
X11362498D02*
D03*
X7157500Y5100000D02*
D03*
X7017500D02*
D03*
X5472500Y3900000D02*
D03*
X5332500D02*
D03*
X10984999Y8080001D02*
D03*
X7344999Y3830000D02*
D03*
X11125004Y8080001D02*
D03*
X7205000Y3830000D02*
D03*
D133*
X12287001Y5032299D02*
D03*
X11637000D02*
D03*
X12387001Y3884696D02*
D03*
X11936999Y5032299D02*
D03*
X11687002Y3884696D02*
D03*
X11787002D02*
D03*
X12087001D02*
D03*
X12036999Y5032299D02*
D03*
X12387001D02*
D03*
X11987002Y3884696D02*
D03*
X11936999D02*
D03*
X12236999Y5032299D02*
D03*
X12136999D02*
D03*
X11836999D02*
D03*
X12287001Y3884696D02*
D03*
X12236999D02*
D03*
X11637000D02*
D03*
X11687002Y5032299D02*
D03*
D134*
X12585802Y4283497D02*
D03*
Y4433499D02*
D03*
Y4183497D02*
D03*
X11438199Y4283497D02*
D03*
Y4483496D02*
D03*
X12585802Y4683496D02*
D03*
X11438199Y4383496D02*
D03*
X12585802Y4783496D02*
D03*
Y4083497D02*
D03*
Y4833498D02*
D03*
Y4333499D02*
D03*
X11438199Y4083497D02*
D03*
Y4183497D02*
D03*
Y4683496D02*
D03*
Y4583496D02*
D03*
Y4783496D02*
D03*
Y4833498D02*
D03*
X12585802Y4533499D02*
D03*
D135*
X11438199Y4633498D02*
D03*
X12585802Y4133499D02*
D03*
Y4233499D02*
D03*
X11438199D02*
D03*
X12585802Y4483496D02*
D03*
X11438199Y4333499D02*
D03*
X12585802Y4733498D02*
D03*
Y4583496D02*
D03*
X11438199Y4533499D02*
D03*
Y4433499D02*
D03*
X12585802Y4383496D02*
D03*
X11438199Y4733498D02*
D03*
Y4133499D02*
D03*
X12585802Y4633498D02*
D03*
D136*
X12187001Y5032299D02*
D03*
X11887002D02*
D03*
X11787002D02*
D03*
X11737000D02*
D03*
Y3884696D02*
D03*
X11836999D02*
D03*
X11887002D02*
D03*
X12036999D02*
D03*
X12136999D02*
D03*
X12087001Y5032299D02*
D03*
X12187001Y3884696D02*
D03*
X11987002Y5032299D02*
D03*
X12336998D02*
D03*
Y3884696D02*
D03*
D137*
X9662500Y3119999D02*
D03*
X6995000Y5300000D02*
D03*
X6865000D02*
D03*
X7470001Y5332500D02*
D03*
X11442500Y8080000D02*
D03*
X11572500D02*
D03*
X9512500Y6855000D02*
D03*
X9642500D02*
D03*
X7340000Y5332500D02*
D03*
X5730000Y4247500D02*
D03*
X5600000D02*
D03*
X11025000Y8240000D02*
D03*
X11155000D02*
D03*
X8492500Y3939997D02*
D03*
X8622502D02*
D03*
X10095001Y3410001D02*
D03*
X9100002Y3912499D02*
D03*
X10035002Y3920002D02*
D03*
X10002500Y3632500D02*
D03*
X9572503Y3920002D02*
D03*
X9442501D02*
D03*
X9964999Y3410001D02*
D03*
X9532498Y3119999D02*
D03*
X9872497Y3632500D02*
D03*
X9904999Y3920002D02*
D03*
X8970000Y3912499D02*
D03*
D138*
X13957500Y2675000D02*
D03*
X14102499D02*
D03*
X13902499Y3300000D02*
D03*
X13757500D02*
D03*
X14555000Y3932500D02*
D03*
X14700000D02*
D03*
X15372501Y2687500D02*
D03*
X15517500D02*
D03*
D139*
X17767500Y7040000D02*
D03*
Y7205000D02*
D03*
X16082500Y5440000D02*
D03*
Y5275000D02*
D03*
D140*
X16472499Y6179998D02*
D03*
X17547501Y6667500D02*
D03*
X17321501Y6540500D02*
D03*
Y6794500D02*
D03*
X17306496Y6307000D02*
D03*
X16246500Y6052998D02*
D03*
X17532500Y6180000D02*
D03*
X17306496Y6053000D02*
D03*
X16246500Y6306998D02*
D03*
X16475502Y6570502D02*
D03*
Y6824502D02*
D03*
X16249498Y6697502D02*
D03*
D141*
X12620000Y5945002D02*
D03*
X15372501Y7132500D02*
D03*
X5318498Y4173459D02*
D03*
Y4043459D02*
D03*
X9825000Y6725000D02*
D03*
Y6855000D02*
D03*
X12005001Y6077502D02*
D03*
X11530001Y5902501D02*
D03*
X11317502Y5910001D02*
D03*
X9884999Y2647498D02*
D03*
X12392503Y5937499D02*
D03*
X12200002Y5932504D02*
D03*
X12005001Y5947499D02*
D03*
X11765001Y5922499D02*
D03*
X12847498Y5949996D02*
D03*
X15372501Y7002503D02*
D03*
X9884999Y2777500D02*
D03*
X11317502Y6039998D02*
D03*
X11530001Y6032503D02*
D03*
X12620000Y6075004D02*
D03*
X12392503Y6067501D02*
D03*
X12847498Y6079998D02*
D03*
X12200002Y6062501D02*
D03*
X11765001Y6052502D02*
D03*
D142*
X17302499Y7382500D02*
D03*
X17467500D02*
D03*
X17505000Y7120000D02*
D03*
X17339999D02*
D03*
X4007500Y7552004D02*
D03*
X3842496D02*
D03*
X5610001Y5919998D02*
D03*
X5445003D02*
D03*
D143*
X4997503Y6925004D02*
D03*
X5442501D02*
D03*
X4997503Y6860001D02*
D03*
X5442501D02*
D03*
Y6795002D02*
D03*
X4997503D02*
D03*
X5442501Y6990003D02*
D03*
X4997503D02*
D03*
D144*
X7297501Y8282498D02*
D03*
X5349646Y7700000D02*
D03*
X5456969Y7927503D02*
D03*
X6417142Y7830002D02*
D03*
X7373214Y8282498D02*
D03*
X6492855Y7830002D02*
D03*
X5532681Y7927503D02*
D03*
X5425359Y7700000D02*
D03*
D145*
X7287499Y8017002D02*
D03*
X6735003Y5592999D02*
D03*
X6717502Y6397000D02*
D03*
X6797502Y7763002D02*
D03*
X7225000Y5846999D02*
D03*
X7207499Y6651000D02*
D03*
X6735003Y5719999D02*
D03*
X7287499Y7636002D02*
D03*
X6717502Y6778000D02*
D03*
X6735003Y5973999D02*
D03*
X6797502Y7890002D02*
D03*
X7287499D02*
D03*
X6797502Y7636002D02*
D03*
X7287499Y7763002D02*
D03*
X6797502Y8017002D02*
D03*
X7225000Y5592999D02*
D03*
X6717502Y6651000D02*
D03*
X7207499Y6524000D02*
D03*
X6735003Y5846999D02*
D03*
X7225000Y5719999D02*
D03*
X7207499Y6397000D02*
D03*
Y6778000D02*
D03*
X6717502Y6524000D02*
D03*
X7225000Y5973999D02*
D03*
D146*
X6390000Y5797144D02*
D03*
X6417498Y6400002D02*
D03*
X7525202Y5983077D02*
D03*
X7504999Y6674998D02*
D03*
X5445003Y8092140D02*
D03*
Y8167853D02*
D03*
X7504999Y6750710D02*
D03*
X7525202Y5907364D02*
D03*
X6417498Y6324290D02*
D03*
X6390000Y5872856D02*
D03*
D147*
X16154420Y2862499D02*
D03*
X16297499D02*
D03*
D148*
X16382503Y5435001D02*
D03*
Y5035001D02*
D03*
D149*
X5671790Y6707500D02*
D03*
X5714643Y6895002D02*
D03*
X5609646Y7107499D02*
D03*
X5685358D02*
D03*
X5790356Y6895002D02*
D03*
X5747502Y6707500D02*
D03*
D150*
X16937500Y2804571D02*
D03*
Y2895000D02*
D03*
D151*
X17249998Y2812501D02*
D03*
X17435246D02*
D03*
X15312502Y6662501D02*
D03*
X15127254D02*
D03*
D152*
X16962502Y5237500D02*
D03*
X17492497D02*
D03*
D153*
X5162499Y7862494D02*
D03*
Y7927497D02*
D03*
Y8057495D02*
D03*
X4717501Y7862494D02*
D03*
Y8057495D02*
D03*
X5162499Y7992496D02*
D03*
X4717501Y7927497D02*
D03*
Y7992496D02*
D03*
D154*
X5022002Y6120003D02*
D03*
X4895002D02*
D03*
X4768002D02*
D03*
X5022002Y5713004D02*
D03*
X4895002D02*
D03*
X4768002D02*
D03*
D155*
X14267500Y4727499D02*
D03*
X14402501D02*
D03*
D156*
X14707500Y4772503D02*
D03*
Y4937658D02*
D03*
D157*
X15120000Y4834936D02*
D03*
Y5060061D02*
D03*
D158*
X7600002Y5628998D02*
D03*
X6555001Y8166500D02*
D03*
X7600002Y5551000D02*
D03*
X6555001Y8088502D02*
D03*
D159*
X7499998Y6396498D02*
D03*
Y6318499D02*
D03*
D160*
X14625002Y6972422D02*
D03*
Y7117578D02*
D03*
D161*
X14852498Y6977502D02*
D03*
X15179497D02*
D03*
D162*
X4702501Y7105455D02*
D03*
Y6964546D02*
D03*
D163*
X3729000Y5822500D02*
D03*
Y5378503D02*
D03*
X3475000Y5822500D02*
D03*
Y5378503D02*
D03*
X3221000D02*
D03*
X2967000Y5822500D02*
D03*
Y5378503D02*
D03*
X3221000Y5822500D02*
D03*
D164*
X6562501Y5367500D02*
D03*
X10230002Y5499999D02*
D03*
X6372499Y5367500D02*
D03*
X4925995Y4105961D02*
D03*
X10040000Y5499999D02*
D03*
X5115997Y4105961D02*
D03*
D165*
X7184502Y4887199D02*
D03*
X12772502Y7021500D02*
D03*
Y6386500D02*
D03*
X11734998Y7177999D02*
D03*
X11264997Y6796999D02*
D03*
X12302500Y6640500D02*
D03*
Y6513500D02*
D03*
X11734998Y6542999D02*
D03*
X11264997Y6669999D02*
D03*
X9280002Y3413999D02*
D03*
X8810000Y2905999D02*
D03*
Y3032999D02*
D03*
X9280002Y2778999D02*
D03*
X7182348Y3428843D02*
D03*
X6712346Y3047843D02*
D03*
X7182348Y2793843D02*
D03*
X6712346Y2920843D02*
D03*
X7184502Y4760199D02*
D03*
X4969998Y3452002D02*
D03*
X6714500Y4633199D02*
D03*
X9482501Y6292002D02*
D03*
X9432498Y7576002D02*
D03*
X5439999Y2944002D02*
D03*
X11264997Y6542999D02*
D03*
X11734998Y7050999D02*
D03*
X11264997Y7304999D02*
D03*
X11734998Y6923999D02*
D03*
Y6669999D02*
D03*
Y6796999D02*
D03*
X11264997Y7177999D02*
D03*
Y7050999D02*
D03*
X11734998Y7304999D02*
D03*
X11264997Y6923999D02*
D03*
X5439999Y3325002D02*
D03*
X6712346Y3174843D02*
D03*
X8810000Y3159999D02*
D03*
X7184502Y4506199D02*
D03*
X9952502Y6165002D02*
D03*
X9902500Y7449002D02*
D03*
X12302500Y6767500D02*
D03*
X12772502Y7148500D02*
D03*
X9432498Y7449002D02*
D03*
X9482501Y6165002D02*
D03*
X9280002Y3540999D02*
D03*
X6714500Y4506199D02*
D03*
X7182348Y3555843D02*
D03*
X4969998Y3325002D02*
D03*
X9432498Y7068002D02*
D03*
X9902500Y7576002D02*
D03*
Y7703002D02*
D03*
Y7195002D02*
D03*
X9432498Y7830002D02*
D03*
Y7703002D02*
D03*
Y7322002D02*
D03*
Y7195002D02*
D03*
X9902500Y7830002D02*
D03*
Y7322002D02*
D03*
Y7068002D02*
D03*
X12302500Y6894500D02*
D03*
Y7021500D02*
D03*
X9952502Y5911002D02*
D03*
Y6038002D02*
D03*
Y6292002D02*
D03*
Y6419002D02*
D03*
Y6546002D02*
D03*
X9482501Y6038002D02*
D03*
Y6419002D02*
D03*
Y6546002D02*
D03*
Y5911002D02*
D03*
Y5784002D02*
D03*
X9952502D02*
D03*
X6714500Y4760199D02*
D03*
Y4887199D02*
D03*
X7184502Y4379199D02*
D03*
Y4633199D02*
D03*
X6714500Y4379199D02*
D03*
Y4252199D02*
D03*
X7184502D02*
D03*
Y4125199D02*
D03*
X6714500D02*
D03*
X5439999Y3198002D02*
D03*
X4969998Y3071002D02*
D03*
Y2944002D02*
D03*
X5439999Y3452002D02*
D03*
Y3579002D02*
D03*
Y3706002D02*
D03*
X4969998Y3198002D02*
D03*
Y3579002D02*
D03*
Y3706002D02*
D03*
X5439999Y3071002D02*
D03*
X6712346Y3301843D02*
D03*
Y3428843D02*
D03*
X7182348Y2920843D02*
D03*
Y3301843D02*
D03*
Y3174843D02*
D03*
Y3047843D02*
D03*
X6712346Y3555843D02*
D03*
Y2793843D02*
D03*
X8810000Y2778999D02*
D03*
X9280002Y3286999D02*
D03*
X8810000Y3540999D02*
D03*
X9280002Y2905999D02*
D03*
Y3159999D02*
D03*
Y3032999D02*
D03*
X8810000Y3286999D02*
D03*
Y3413999D02*
D03*
X12772502Y6513500D02*
D03*
Y6894500D02*
D03*
Y6767500D02*
D03*
Y6640500D02*
D03*
X12302500Y6386500D02*
D03*
Y7148500D02*
D03*
D166*
X14401500Y4987503D02*
D03*
Y4937501D02*
D03*
X14253500Y5037501D02*
D03*
Y4937501D02*
D03*
D167*
X14887498Y4462856D02*
D03*
Y4387144D02*
D03*
D168*
X14031789Y5759999D02*
D03*
X12472502Y5282499D02*
D03*
X11705356Y5302500D02*
D03*
X12875357Y4629993D02*
D03*
X12967500Y4052500D02*
D03*
X12359645Y3677503D02*
D03*
X11629644Y5302500D02*
D03*
X12396790Y5282499D02*
D03*
X12951070Y4629993D02*
D03*
X12891788Y4052500D02*
D03*
X12435357Y3677503D02*
D03*
X14107500Y5759999D02*
D03*
D169*
X15032503Y5939648D02*
D03*
X15020000Y5805714D02*
D03*
Y5730001D02*
D03*
X15032503Y6015360D02*
D03*
D170*
X14779832Y5859866D02*
D03*
X14339835D02*
D03*
X14779832Y5794868D02*
D03*
Y5989869D02*
D03*
Y5924870D02*
D03*
X14339835D02*
D03*
Y5989869D02*
D03*
Y5794868D02*
D03*
D171*
X14607500Y6612499D02*
D03*
Y6517498D02*
D03*
Y6707500D02*
D03*
D172*
X15647502Y6482502D02*
D03*
X5455001Y2705003D02*
D03*
Y2564999D02*
D03*
X11042498Y7175002D02*
D03*
X15647502Y6622501D02*
D03*
X11042498Y7315007D02*
D03*
D173*
X12892496Y7332502D02*
D03*
X8440001Y8237501D02*
D03*
X9147500Y6159998D02*
D03*
X8530001Y6707500D02*
D03*
X8964996Y5790001D02*
D03*
X2979994Y2775001D02*
D03*
X2844998D02*
D03*
X8830000Y5790001D02*
D03*
X12757501Y7332502D02*
D03*
X9282496Y6159998D02*
D03*
X8664997Y6707500D02*
D03*
X8574997Y8237501D02*
D03*
D174*
X12822499Y8235000D02*
D03*
X9677502Y3330001D02*
D03*
X9527499D02*
D03*
X12672502Y8235000D02*
D03*
D175*
X12750002Y7922504D02*
D03*
X12460097Y7917398D02*
D03*
X12192498Y7917500D02*
D03*
X11842504Y7605003D02*
D03*
X11615000Y7607500D02*
D03*
X11342502Y7604999D02*
D03*
X11062498Y7612502D02*
D03*
X8527501Y3632500D02*
D03*
X9592498Y2640000D02*
D03*
X7575000Y3160000D02*
D03*
X8427502Y2740000D02*
D03*
X7497501Y2682499D02*
D03*
X6410000Y2960004D02*
D03*
X12487499Y3304997D02*
D03*
X11615000Y7757497D02*
D03*
X12487499Y3155000D02*
D03*
X8427502Y2589997D02*
D03*
X12192498Y7767498D02*
D03*
X7575000Y3310002D02*
D03*
X9592498Y2789997D02*
D03*
X8527501Y3482497D02*
D03*
X7497501Y2832501D02*
D03*
X6434999Y3712505D02*
D03*
X6410000Y2810002D02*
D03*
X12460097Y7767396D02*
D03*
X12750002Y7772502D02*
D03*
X11842504Y7755005D02*
D03*
X11342502Y7755001D02*
D03*
X11062498Y7762504D02*
D03*
X6434999Y3562502D02*
D03*
D176*
X15377499Y5759999D02*
D03*
X15282500D02*
D03*
X15377499Y5999998D02*
D03*
X15472501Y5759999D02*
D03*
Y5999998D02*
D03*
X15282500D02*
D03*
D177*
X15530002Y5475000D02*
D03*
Y5615000D02*
D03*
D178*
X14043233Y5931809D02*
D03*
Y6191814D02*
D03*
D179*
X14567499Y5432501D02*
D03*
X14117497D02*
D03*
D180*
X11942501Y8242503D02*
D03*
Y8052501D02*
D03*
D181*
X11617503Y8252501D02*
D03*
X11782500Y6367502D02*
D03*
X9147500Y6372499D02*
D03*
X7564999Y4730003D02*
D03*
X5527497Y5290002D02*
D03*
X5800000Y3572500D02*
D03*
X4597500Y3187500D02*
D03*
X9507500Y8135002D02*
D03*
X9377502D02*
D03*
X5752501Y4437502D02*
D03*
X5622503D02*
D03*
X11652498Y6367502D02*
D03*
X9277497Y6372499D02*
D03*
X9809998Y8244997D02*
D03*
X11487501Y8252501D02*
D03*
X5657499Y5290002D02*
D03*
X7435002Y4730003D02*
D03*
X9940000Y8244997D02*
D03*
X5669998Y3572500D02*
D03*
X4727502Y3187500D02*
D03*
D182*
X11974998Y7172498D02*
D03*
X12075003Y6647500D02*
D03*
X11030000Y6770003D02*
D03*
X10122499Y7584999D02*
D03*
X9197503Y7600000D02*
D03*
X8862502Y7022501D02*
D03*
X10217500Y6312499D02*
D03*
X9522501Y3527501D02*
D03*
X7507498Y4457502D02*
D03*
X7452502Y3490001D02*
D03*
X8497499Y3102503D02*
D03*
X6367501Y4627499D02*
D03*
X5644998Y5027498D02*
D03*
X4689998Y4429999D02*
D03*
X4639999Y3497499D02*
D03*
X6422502Y3312498D02*
D03*
X3600000Y3342500D02*
D03*
X5777499Y3205002D02*
D03*
X6422502Y3177502D02*
D03*
X5777499Y3340003D02*
D03*
X8497499Y3237499D02*
D03*
X4689998Y4564995D02*
D03*
X7507498Y4592503D02*
D03*
X8862502Y7157502D02*
D03*
X10217500Y6177498D02*
D03*
X11030000Y6904999D02*
D03*
X10122499Y7450003D02*
D03*
X12075003Y6782501D02*
D03*
X9197503Y7465004D02*
D03*
X11974998Y7307494D02*
D03*
X9522501Y3662497D02*
D03*
X5644998Y4892502D02*
D03*
X6367501Y4762495D02*
D03*
X7452502Y3624997D02*
D03*
X4639999Y3362504D02*
D03*
X3600000Y3207504D02*
D03*
D183*
X11252500Y5360005D02*
D03*
X11402502D02*
D03*
D184*
X15512502Y5020005D02*
D03*
Y4875002D02*
D03*
D185*
X15490991Y4407546D02*
D03*
Y4267546D02*
D03*
D186*
X16695624Y2794568D02*
D03*
Y2895000D02*
D03*
X6317498Y7247285D02*
D03*
Y7347717D02*
D03*
D187*
X15485005Y4082501D02*
D03*
X15385001D02*
D03*
D188*
X15097498Y4270004D02*
D03*
Y4120001D02*
D03*
X15227495D02*
D03*
Y4270004D02*
D03*
D189*
X15097498Y4170004D02*
D03*
X15227495D02*
D03*
Y4220001D02*
D03*
X15097498D02*
D03*
D190*
X14819998Y4221002D02*
D03*
Y4129003D02*
D03*
D191*
X14014999Y4779752D02*
D03*
Y4964999D02*
D03*
D192*
X14170000Y4257502D02*
D03*
X14589999D02*
D03*
D193*
X12792502Y3290001D02*
D03*
X12942499D02*
D03*
D194*
X12939999Y2822499D02*
D03*
X12794996Y2937500D02*
D03*
Y2822499D02*
D03*
X12939999Y2937500D02*
D03*
D195*
X12490003Y2674996D02*
D03*
X5685003Y2722499D02*
D03*
X10267500Y7207504D02*
D03*
X5685003Y2572497D02*
D03*
X7477501Y4012499D02*
D03*
X10252500Y5747498D02*
D03*
X10267500Y7057502D02*
D03*
X10252500Y5897500D02*
D03*
X7477501Y4162501D02*
D03*
X12490003Y2824998D02*
D03*
D196*
X11253001Y4050001D02*
D03*
X11187002D02*
D03*
D197*
X12242500Y2572500D02*
D03*
X11045003Y2640000D02*
D03*
X12222500Y3222498D02*
D03*
X11014999Y3282502D02*
D03*
X12242500Y2717504D02*
D03*
X11014999Y3137504D02*
D03*
X12222500Y3077500D02*
D03*
X11045003Y2784999D02*
D03*
D198*
X9215001Y7979999D02*
D03*
X6350000Y5190002D02*
D03*
X5800001Y3849996D02*
D03*
Y3719998D02*
D03*
X8832499Y8107503D02*
D03*
X9017500Y8235004D02*
D03*
X8832499Y8237500D02*
D03*
X9612498Y5452501D02*
D03*
Y5582498D02*
D03*
X3585002Y3087502D02*
D03*
Y2957500D02*
D03*
X5662498Y4760001D02*
D03*
X9260002Y6547500D02*
D03*
Y6677503D02*
D03*
X11030001Y6387495D02*
D03*
X5662498Y4629998D02*
D03*
X7462500Y4964999D02*
D03*
X9215001Y7849996D02*
D03*
X7462500Y5095001D02*
D03*
X9017500Y8105002D02*
D03*
X9775002Y5447502D02*
D03*
Y5577500D02*
D03*
X11030001Y6517498D02*
D03*
X3754999Y3087497D02*
D03*
X6350000Y5060005D02*
D03*
X3754999Y2957500D02*
D03*
X4692498Y3917498D02*
D03*
Y4047500D02*
D03*
D199*
X15167497Y4435003D02*
D03*
X15324501D02*
D03*
D200*
X12915001Y4780001D02*
D03*
X11270000Y3820003D02*
D03*
X12915001Y4860000D02*
D03*
X11270000Y3900002D02*
D03*
D201*
X12892245Y3835254D02*
D03*
X12812247D02*
D03*
D202*
X14401500Y5037501D02*
D03*
X14253500Y4987503D02*
D03*
D203*
X7622499Y7882438D02*
D03*
Y7732436D02*
D03*
X6582501Y7372497D02*
D03*
X6827500Y7222500D02*
D03*
Y7372497D02*
D03*
X7427498Y7200001D02*
D03*
Y7350003D02*
D03*
X6582501Y7222500D02*
D03*
D204*
X3002502Y3517500D02*
D03*
X3077503D02*
D03*
X8497499Y5780004D02*
D03*
X8572500D02*
D03*
X8412499Y7210000D02*
D03*
X8487500D02*
D03*
X3342502Y3520004D02*
D03*
X4987498Y5217500D02*
D03*
X8574999Y5564998D02*
D03*
X8494999Y7022501D02*
D03*
X8499998Y5564998D02*
D03*
X5062499Y5217500D02*
D03*
X8419998Y7022501D02*
D03*
X3417503Y3520004D02*
D03*
D205*
X15464999Y6150000D02*
D03*
X15325000D02*
D03*
D206*
X4675002Y5090003D02*
D03*
Y5015001D02*
D03*
D207*
X2844998Y3342503D02*
D03*
X4924999Y5015001D02*
D03*
X2844998Y2961503D02*
D03*
X4924999Y4634001D02*
D03*
X5449997Y4888001D02*
D03*
X3369996Y3215503D02*
D03*
X5449997Y4761001D02*
D03*
Y4634001D02*
D03*
Y5015001D02*
D03*
X4924999Y4761001D02*
D03*
Y4888001D02*
D03*
X3369996Y3342503D02*
D03*
X2844998Y3088503D02*
D03*
X3369996Y2961503D02*
D03*
Y3088503D02*
D03*
X2844998Y3215503D02*
D03*
D208*
X8532002Y5974999D02*
D03*
X8504001Y7400000D02*
D03*
X8913002Y5974999D02*
D03*
X8885001Y7400000D02*
D03*
X8659002Y6499997D02*
D03*
X8631001Y7924998D02*
D03*
Y7400000D02*
D03*
X8758001D02*
D03*
X8504001Y7924998D02*
D03*
X8758001D02*
D03*
X8885001D02*
D03*
X8786002Y6499997D02*
D03*
X8659002Y5974999D02*
D03*
X8532002Y6499997D02*
D03*
X8786002Y5974999D02*
D03*
X8913002Y6499997D02*
D03*
D209*
X11860002Y2946999D02*
D03*
X11453002D02*
D03*
X3382004Y7904500D02*
D03*
Y7777500D02*
D03*
Y7650500D02*
D03*
X2975000D02*
D03*
Y7777500D02*
D03*
Y7904500D02*
D03*
X11453002Y3073999D02*
D03*
X11860002D02*
D03*
X11453002Y2819999D02*
D03*
X11860002D02*
D03*
D210*
X15075002Y6435000D02*
D03*
X15020000D02*
D03*
D211*
X14867499Y6707500D02*
D03*
Y6517498D02*
D03*
D212*
X15555002Y7012500D02*
D03*
X15639999D02*
D03*
D213*
X6405001Y7615001D02*
D03*
X6304570D02*
D03*
D214*
X7107072Y7145000D02*
D03*
X7187499D02*
D03*
X7102287Y7349998D02*
D03*
X7182714D02*
D03*
D215*
X5410002Y5652501D02*
D03*
X5580004D02*
D03*
D216*
X3962496Y7782001D02*
D03*
X3817498D02*
D03*
X5572501Y6170000D02*
D03*
X5427502D02*
D03*
D217*
X4012500Y3947500D02*
D03*
X4139448Y3972500D02*
D03*
X2742500Y3570000D02*
D03*
X2935000Y4705000D02*
D03*
X2735000Y4617500D02*
D03*
X3995000Y4625000D02*
D03*
X3120000Y4740000D02*
D03*
X3685000Y6832500D02*
D03*
X3147500Y7075000D02*
D03*
X7762500Y7190000D02*
D03*
X16707500Y6440000D02*
D03*
X8792500Y5557500D02*
D03*
X8592500Y5465000D02*
D03*
X9057500Y6275000D02*
D03*
X9155000Y6675000D02*
D03*
X12400000Y7312500D02*
D03*
X5442500Y8320000D02*
D03*
X14497501Y7940000D02*
D03*
X13975000Y7437500D02*
D03*
X16180000Y7670000D02*
D03*
X16900000Y7120000D02*
D03*
X16510001Y7125000D02*
D03*
X16589999Y7042500D02*
D03*
X12360593Y8439997D02*
D03*
X5557500Y6312500D02*
D03*
X5349999Y7541950D02*
D03*
X5792500Y7170000D02*
D03*
X5690610Y7450308D02*
D03*
X5252500Y7432500D02*
D03*
X5525000Y7455000D02*
D03*
X6287500Y3487500D02*
D03*
X5940000Y3477500D02*
D03*
X5675000Y3850000D02*
D03*
X7167500Y5315000D02*
D03*
X6461645Y6206645D02*
D03*
X6490202Y6035000D02*
D03*
X6145000Y5527500D02*
D03*
X5645000Y5457500D02*
D03*
X3855000Y4992500D02*
D03*
X3573052Y4710000D02*
D03*
X12130000Y3530000D02*
D03*
X12060000Y3412500D02*
D03*
X12010042Y3532500D02*
D03*
X11981649Y3650851D02*
D03*
X12812500Y4520000D02*
D03*
X16750806Y6933306D02*
D03*
X15677499Y5022500D02*
D03*
X15650000Y6839448D02*
D03*
X9055000Y6370000D02*
D03*
X8803138Y6899493D02*
D03*
X8919412Y6846587D02*
D03*
X8922500Y6685000D02*
D03*
X11335000Y3582500D02*
D03*
X11295000Y3410000D02*
D03*
X11695594Y3515268D02*
D03*
X13922501Y4385000D02*
D03*
X14025000Y3922500D02*
D03*
X12377500Y3537500D02*
D03*
X12597500Y3737500D02*
D03*
X12922499Y2562500D02*
D03*
X12057500D02*
D03*
X10830000Y2677500D02*
D03*
X9420001Y2627498D02*
D03*
X9232500Y2645000D02*
D03*
X10125000Y2540000D02*
D03*
X10850000Y3607500D02*
D03*
X12857500Y3587500D02*
D03*
X12680000Y3562500D02*
D03*
X11567500Y3525000D02*
D03*
X11850441Y3503493D02*
D03*
X11047500Y3690000D02*
D03*
X17214999Y6950000D02*
D03*
X17087500Y7062500D02*
D03*
X17432500Y6955000D02*
D03*
X12957500Y4440000D02*
D03*
X12820187Y4177687D02*
D03*
X12852499Y4365000D02*
D03*
X12904004Y4256504D02*
D03*
X11115000Y4492500D02*
D03*
X13875000Y3012500D02*
D03*
X16464999Y5906948D02*
D03*
X15263290Y5267274D02*
D03*
X14095593Y5202768D02*
D03*
X12985001Y4177500D02*
D03*
X14810098Y5323240D02*
D03*
X14882500Y5097500D02*
D03*
X16162691Y5794809D02*
D03*
X15976640Y6123849D02*
D03*
X13067500Y4573498D02*
D03*
X15525000Y6440000D02*
D03*
X15680000Y6165552D02*
D03*
X13792500Y4575000D02*
D03*
X14065001Y4582500D02*
D03*
X14762500Y4452500D02*
D03*
X15907500Y4712500D02*
D03*
X12747500Y4592500D02*
D03*
X13132500Y4885000D02*
D03*
X16170000Y4845000D02*
D03*
X16662500Y5775000D02*
D03*
X16660001Y5572500D02*
D03*
X16102499Y5587500D02*
D03*
X17302499Y5902500D02*
D03*
X14835002Y5439999D02*
D03*
X13875000Y5185000D02*
D03*
X13887502Y5377500D02*
D03*
X13775000Y5275000D02*
D03*
X12195000Y5350000D02*
D03*
X10915000Y5535000D02*
D03*
X11875000Y5537500D02*
D03*
X11820000Y5332500D02*
D03*
X10707500Y5515000D02*
D03*
X11985000Y6500002D02*
D03*
X12100000Y6390000D02*
D03*
X11052500Y5237500D02*
D03*
X15382500Y5600000D02*
D03*
X15414999Y5245000D02*
D03*
X15095003Y6202502D02*
D03*
X12992500Y6274622D02*
D03*
X13902499Y7185000D02*
D03*
X15767500Y6997500D02*
D03*
X12935001Y5437500D02*
D03*
Y4990000D02*
D03*
X13050000Y5249956D02*
D03*
X13174965Y6290000D02*
D03*
X11269109Y8100731D02*
D03*
X10275000Y7337500D02*
D03*
X16137500Y7432500D02*
D03*
X5837499Y6329319D02*
D03*
X6415000Y6565000D02*
D03*
X7837500Y4147500D02*
D03*
X7810002Y2735001D02*
D03*
X7927503Y3985001D02*
D03*
X5635000Y6565001D02*
D03*
X7057502Y8239999D02*
D03*
X13020726Y8053227D02*
D03*
X14872504Y4667499D02*
D03*
X16517500Y5812500D02*
D03*
X13307503Y7872501D02*
D03*
X5362500Y7827500D02*
D03*
X8227500Y8375000D02*
D03*
X16939999Y6925000D02*
D03*
X8700000Y8317500D02*
D03*
X13130002Y8302498D02*
D03*
X7537500Y6152500D02*
D03*
X7765444Y6724556D02*
D03*
X7297501Y7009638D02*
D03*
X5805002Y8097500D02*
D03*
X7284999Y7457501D02*
D03*
X14932503Y7162500D02*
D03*
X6494998Y5687502D02*
D03*
X5587500Y6947500D02*
D03*
X4907500Y6627500D02*
D03*
X9982500Y6895000D02*
D03*
X7592500Y5205000D02*
D03*
X8739998Y4775002D02*
D03*
X6882500Y5012539D02*
D03*
X7282500Y5045000D02*
D03*
X4657286Y7718681D02*
D03*
X14785001Y7152498D02*
D03*
X13168219Y7712502D02*
D03*
X12914772Y7854772D02*
D03*
X13172501Y7247500D02*
D03*
X14487500Y6385000D02*
D03*
X13002499Y6945000D02*
D03*
X12962500Y7197500D02*
D03*
X15139999Y5859998D02*
D03*
X14352499Y6257498D02*
D03*
X13852499Y5927500D02*
D03*
X12127500Y8252500D02*
D03*
X12337501Y7575001D02*
D03*
X12040000Y7057500D02*
D03*
X11615000Y7450000D02*
D03*
X11454999Y7447498D02*
D03*
X12717501Y6254999D02*
D03*
X12149999Y6227501D02*
D03*
X12635000Y5190000D02*
D03*
X11742941Y6210000D02*
D03*
X17245000Y4567499D02*
D03*
X17632503Y3435000D02*
D03*
X15617500Y4222500D02*
D03*
X15320000Y3282500D02*
D03*
X16425002Y2582499D02*
D03*
X14957500Y4157500D02*
D03*
X12790140Y4724859D02*
D03*
X13070000Y4157500D02*
D03*
X12847498Y3139999D02*
D03*
X9637500Y8232500D02*
D03*
X10500977Y7026522D02*
D03*
X10237500Y6775000D02*
D03*
X8300000Y8002500D02*
D03*
X8395000Y6550000D02*
D03*
X7660000Y6619112D02*
D03*
X8205593Y6498093D02*
D03*
X7622500Y5757500D02*
D03*
X6542502Y7700000D02*
D03*
X5639999Y7994995D02*
D03*
X7520000Y7485000D02*
D03*
X6747500Y6942501D02*
D03*
X7152498Y6929999D02*
D03*
X5925000Y6907500D02*
D03*
X4657498Y6809545D02*
D03*
X5767500Y6552500D02*
D03*
X10367500Y5340000D02*
D03*
X9685000Y3672500D02*
D03*
X8367502Y3659998D02*
D03*
X7604999Y3454999D02*
D03*
X8559998Y2917500D02*
D03*
X8377499Y2924998D02*
D03*
X7670000Y2687500D02*
D03*
X6705000Y5062500D02*
D03*
X7369470Y4442501D02*
D03*
X4824999Y4372498D02*
D03*
X4872500Y3890000D02*
D03*
X4580000Y3677500D02*
D03*
X4481876Y3283125D02*
D03*
X3757500Y3347504D02*
D03*
X6250000Y2959999D02*
D03*
X5822500Y3055000D02*
D03*
X3102498Y2772501D02*
D03*
X14194998Y3914999D02*
D03*
X15482500Y4560000D02*
D03*
X12342500Y5447500D02*
D03*
X11187500Y3390000D02*
D03*
X11057499Y3565002D02*
D03*
X11255000Y4476232D02*
D03*
X11932002Y5232500D02*
D03*
X11527500Y6210000D02*
D03*
X11520000Y6375000D02*
D03*
X8600140Y6870141D02*
D03*
X8907500Y3737500D02*
D03*
X6602500Y2675000D02*
D03*
X7560000Y8004717D02*
D03*
X7486655Y5730785D02*
D03*
X7719493Y4694847D02*
D03*
X5335001Y7994995D02*
D03*
X7605997Y4973497D02*
D03*
X9585000Y7970000D02*
D03*
X4562500Y3815000D02*
D03*
X3210000Y3515000D02*
D03*
X6502500Y4970002D02*
D03*
X5277500Y5140000D02*
D03*
X8642500Y7107500D02*
D03*
X9117500Y7715000D02*
D03*
X11352500Y8255000D02*
D03*
X8745000Y5047500D02*
D03*
X9880000Y4400000D02*
D03*
X9882500Y4840000D02*
D03*
X10165000Y4127500D02*
D03*
X12787500Y3975000D02*
D03*
X10277500Y7872500D02*
D03*
X13799998Y5487502D02*
D03*
X15625000Y2770000D02*
D03*
X15190002Y2564999D02*
D03*
X15352502Y3022498D02*
D03*
X12285000Y7415000D02*
D03*
X9520000Y2962500D02*
D03*
X11105000Y4162500D02*
D03*
X11092500Y4660000D02*
D03*
X11227500Y4642500D02*
D03*
X11250000Y4232500D02*
D03*
X11042500Y7037500D02*
D03*
X10420000Y7335000D02*
D03*
X10510000Y6680000D02*
D03*
X10392500Y6767500D02*
D03*
X13180000Y7082500D02*
D03*
X12590000Y7392500D02*
D03*
X11999999Y7824700D02*
D03*
X12330000Y8064997D02*
D03*
X10967500Y7917500D02*
D03*
X11950000Y6970000D02*
D03*
X11937500Y6737500D02*
D03*
X11122500Y6222500D02*
D03*
X10352500Y6500000D02*
D03*
X10152500Y6482500D02*
D03*
X10392500Y6080000D02*
D03*
X10160000Y6037500D02*
D03*
X10300000Y6645000D02*
D03*
X7525000Y3000000D02*
D03*
X5267500Y6032500D02*
D03*
X3922500Y2947500D02*
D03*
X5640000Y3200000D02*
D03*
X5672500Y3025000D02*
D03*
X7397500Y3007500D02*
D03*
X8625000Y3105000D02*
D03*
X8607500Y3790000D02*
D03*
X7272500Y3977500D02*
D03*
X6512500Y4607500D02*
D03*
X7480000Y6527500D02*
D03*
X9047501Y7902500D02*
D03*
X11630000Y5452500D02*
D03*
X10105000Y7307500D02*
D03*
X9160000Y8155000D02*
D03*
X8390000Y6820000D02*
D03*
X9207500Y7317500D02*
D03*
X8630000Y8092500D02*
D03*
X9962500Y3220000D02*
D03*
X7397500Y3180000D02*
D03*
X6245000Y3112500D02*
D03*
X5845000Y4615000D02*
D03*
X4755000Y6690000D02*
D03*
X4775000Y3355000D02*
D03*
X10157500Y3770000D02*
D03*
X14835001Y6207500D02*
D03*
X11902603Y3342011D02*
D03*
X12339807Y2904807D02*
D03*
X11692500Y3690000D02*
D03*
X12962500Y6810000D02*
D03*
X9372500Y3742500D02*
D03*
X6375000Y2577500D02*
D03*
X7447500Y4310000D02*
D03*
X7645000Y3975000D02*
D03*
X7745000Y2557500D02*
D03*
X10095000Y7882500D02*
D03*
X11767500Y7897500D02*
D03*
X10825000Y7170000D02*
D03*
X10882500Y7320000D02*
D03*
X14914999Y3942500D02*
D03*
X10755000Y2952500D02*
D03*
X13242500Y2802500D02*
D03*
X11100000Y5065000D02*
D03*
X10090000Y8230000D02*
D03*
X10227500Y7702500D02*
D03*
X10047500Y8082500D02*
D03*
X6545000Y7955000D02*
D03*
X5450000Y4055000D02*
D03*
X6527500Y3087500D02*
D03*
X6870000Y2565000D02*
D03*
X7690000Y4820000D02*
D03*
X7777500Y4980000D02*
D03*
X7380000Y4585000D02*
D03*
X7662500Y4125000D02*
D03*
X7607500Y4315000D02*
D03*
X8533089Y4155592D02*
D03*
X10240000Y5295000D02*
D03*
X9837500Y3200000D02*
D03*
X9670000Y3487501D02*
D03*
X7065000Y3932500D02*
D03*
X4690000Y4687500D02*
D03*
X4747500Y4812500D02*
D03*
X4635000Y4890000D02*
D03*
X4927500Y4452500D02*
D03*
X6207500Y7475000D02*
D03*
X6550000Y7564999D02*
D03*
X6155000Y7635000D02*
D03*
X2647498Y2967502D02*
D03*
X5630291Y3407212D02*
D03*
X15175002Y5602498D02*
D03*
X12075003Y6909999D02*
D03*
X12100001Y7189998D02*
D03*
X12660000Y7529998D02*
D03*
X13822502Y7129998D02*
D03*
X13645003Y7262500D02*
D03*
X13302498Y7197501D02*
D03*
X16297501Y5707500D02*
D03*
X9050000Y7389998D02*
D03*
X6230000Y4827499D02*
D03*
X7552502Y3819997D02*
D03*
X5415001Y4492498D02*
D03*
X14672501Y6380000D02*
D03*
X15605000Y5825000D02*
D03*
X12380000Y5580000D02*
D03*
X11872500Y5680000D02*
D03*
X10362500Y7700000D02*
D03*
X11192500Y7888484D02*
D03*
X11487500Y7892500D02*
D03*
X12775001Y5775000D02*
D03*
X8787500Y6677500D02*
D03*
X11737500Y8112500D02*
D03*
X5452500Y4270000D02*
D03*
X9262501Y5439999D02*
D03*
X6487500Y6687500D02*
D03*
X5302499Y5767502D02*
D03*
X10146248Y4995001D02*
D03*
X9857501Y5012502D02*
D03*
X9312499Y5570002D02*
D03*
X4872502Y5382499D02*
D03*
X8307502Y3810000D02*
D03*
X7747498Y3752499D02*
D03*
X4757501Y5307503D02*
D03*
X2842499Y8232501D02*
D03*
X11067501Y4807499D02*
D03*
X11197499Y4847499D02*
D03*
X12595001Y7637501D02*
D03*
X8384809Y3322691D02*
D03*
X8227502Y3407501D02*
D03*
X7667498Y3642502D02*
D03*
X10087498Y5280000D02*
D03*
X10395001Y5739999D02*
D03*
X12227499Y7287499D02*
D03*
X10107498Y3012501D02*
D03*
X13916441Y5673943D02*
D03*
X6594998Y3762502D02*
D03*
X5567502Y7777500D02*
D03*
X14072499Y3825001D02*
D03*
X11257498Y5135001D02*
D03*
X8492500Y5342499D02*
D03*
X9875591Y5193091D02*
D03*
X8527501Y4507499D02*
D03*
X13279999Y5312501D02*
D03*
X13114999Y5157500D02*
D03*
X12397501Y6239998D02*
D03*
X11031220Y5967501D02*
D03*
X9747499Y3825001D02*
D03*
X7425003Y3307503D02*
D03*
X8687501Y3659998D02*
D03*
X9729998Y2917500D02*
D03*
X8277499Y2775001D02*
D03*
X6700002Y7467498D02*
D03*
X5212502Y3820003D02*
D03*
D218*
X17123000Y3474999D02*
D03*
%TF.MD5,a326ca8db0477c37b0b415ef66b7b7b9*%
M02*
