%TF.GenerationSoftware,Altium Limited,Altium Designer,25.7.1 (20)*%
G04 Layer_Color=128*
%FSLAX45Y45*%
%MOMM*%
%TF.SameCoordinates,D8C98939-B5AC-4A14-9F93-74B2487226E3*%
%TF.FilePolarity,Positive*%
%TF.FileFunction,Drillmap*%
%TF.Part,Single*%
G01*
G75*
%TA.AperFunction,NonConductor*%
%ADD225C,0.12700*%
D225*
X3997500Y3947500D02*
X4027500D01*
X4012500Y3932500D02*
Y3962500D01*
X4124448Y3972500D02*
X4154448D01*
X4139448Y3957500D02*
Y3987500D01*
X2727500Y3570000D02*
X2757500D01*
X2742500Y3555000D02*
Y3585000D01*
X2920000Y4705000D02*
X2950000D01*
X2935000Y4690000D02*
Y4720000D01*
X2720000Y4617500D02*
X2750000D01*
X2735000Y4602500D02*
Y4632500D01*
X3980000Y4625000D02*
X4010000D01*
X3995000Y4610000D02*
Y4640000D01*
X3105000Y4740000D02*
X3135000D01*
X3120000Y4725000D02*
Y4755000D01*
X3670000Y6832500D02*
X3700000D01*
X3685000Y6817500D02*
Y6847500D01*
X3132500Y7075000D02*
X3162500D01*
X3147500Y7060000D02*
Y7090000D01*
X7747500Y7190000D02*
X7777500D01*
X7762500Y7175000D02*
Y7205000D01*
X16692500Y6440000D02*
X16722501D01*
X16707500Y6425000D02*
Y6455000D01*
X8777500Y5557500D02*
X8807500D01*
X8792500Y5542500D02*
Y5572500D01*
X8577500Y5465000D02*
X8607500D01*
X8592500Y5450000D02*
Y5480000D01*
X9042500Y6275000D02*
X9072500D01*
X9057500Y6260000D02*
Y6290000D01*
X9140000Y6675000D02*
X9170000D01*
X9155000Y6660000D02*
Y6690000D01*
X12385000Y7312500D02*
X12415000D01*
X12400000Y7297500D02*
Y7327500D01*
X5427500Y8320000D02*
X5457500D01*
X5442500Y8305000D02*
Y8335000D01*
X14482500Y7940000D02*
X14512500D01*
X14497501Y7925000D02*
Y7955000D01*
X13960001Y7437500D02*
X13989999D01*
X13975000Y7422500D02*
Y7452500D01*
X16164999Y7670000D02*
X16195000D01*
X16180000Y7655000D02*
Y7685000D01*
X16885001Y7120000D02*
X16914999D01*
X16900000Y7105000D02*
Y7135000D01*
X16495000Y7125000D02*
X16525000D01*
X16510001Y7110000D02*
Y7140000D01*
X16575000Y7042500D02*
X16605000D01*
X16589999Y7027500D02*
Y7057500D01*
X12345593Y8439997D02*
X12375593D01*
X12360593Y8424997D02*
Y8454997D01*
X5542500Y6312500D02*
X5572500D01*
X5557500Y6297500D02*
Y6327500D01*
X5334999Y7541950D02*
X5364999D01*
X5349999Y7526950D02*
Y7556950D01*
X5777500Y7170000D02*
X5807500D01*
X5792500Y7155000D02*
Y7185000D01*
X5675610Y7450308D02*
X5705610D01*
X5690610Y7435308D02*
Y7465308D01*
X5237500Y7432500D02*
X5267500D01*
X5252500Y7417500D02*
Y7447500D01*
X5510000Y7455000D02*
X5540000D01*
X5525000Y7440000D02*
Y7470000D01*
X6272500Y3487500D02*
X6302500D01*
X6287500Y3472500D02*
Y3502500D01*
X5925000Y3477500D02*
X5955000D01*
X5940000Y3462500D02*
Y3492500D01*
X5660000Y3850000D02*
X5690000D01*
X5675000Y3835000D02*
Y3865000D01*
X7152500Y5315000D02*
X7182500D01*
X7167500Y5300000D02*
Y5330000D01*
X6446645Y6206645D02*
X6476645D01*
X6461645Y6191645D02*
Y6221645D01*
X6475202Y6035000D02*
X6505202D01*
X6490202Y6020000D02*
Y6050000D01*
X6130000Y5527500D02*
X6160000D01*
X6145000Y5512500D02*
Y5542500D01*
X5630000Y5457500D02*
X5660000D01*
X5645000Y5442500D02*
Y5472500D01*
X3840000Y4992500D02*
X3870000D01*
X3855000Y4977500D02*
Y5007500D01*
X3558052Y4710000D02*
X3588052D01*
X3573052Y4695000D02*
Y4725000D01*
X12115000Y3530000D02*
X12145000D01*
X12130000Y3515000D02*
Y3545000D01*
X12045000Y3412500D02*
X12075000D01*
X12060000Y3397500D02*
Y3427500D01*
X11995042Y3532500D02*
X12025042D01*
X12010042Y3517500D02*
Y3547500D01*
X11966649Y3650851D02*
X11996649D01*
X11981649Y3635851D02*
Y3665851D01*
X12797500Y4520000D02*
X12827499D01*
X12812500Y4505000D02*
Y4535000D01*
X16735806Y6933306D02*
X16765807D01*
X16750806Y6918306D02*
Y6948306D01*
X15662500Y5022500D02*
X15692500D01*
X15677499Y5007500D02*
Y5037500D01*
X15635001Y6839448D02*
X15664999D01*
X15650000Y6824448D02*
Y6854448D01*
X9040000Y6370000D02*
X9070000D01*
X9055000Y6355000D02*
Y6385000D01*
X8788138Y6899493D02*
X8818138D01*
X8803138Y6884493D02*
Y6914493D01*
X8904412Y6846587D02*
X8934412D01*
X8919412Y6831587D02*
Y6861587D01*
X8907500Y6685000D02*
X8937500D01*
X8922500Y6670000D02*
Y6700000D01*
X11320000Y3582500D02*
X11350000D01*
X11335000Y3567500D02*
Y3597500D01*
X11280000Y3410000D02*
X11310000D01*
X11295000Y3395000D02*
Y3425000D01*
X11680594Y3515268D02*
X11710594D01*
X11695594Y3500268D02*
Y3530268D01*
X13907500Y4385000D02*
X13937500D01*
X13922501Y4370000D02*
Y4400000D01*
X14010001Y3922500D02*
X14039999D01*
X14025000Y3907500D02*
Y3937500D01*
X12362500Y3537500D02*
X12392500D01*
X12377500Y3522500D02*
Y3552500D01*
X12582500Y3737500D02*
X12612500D01*
X12597500Y3722500D02*
Y3752500D01*
X12907500Y2562500D02*
X12937498D01*
X12922499Y2547500D02*
Y2577500D01*
X12042500Y2562500D02*
X12072500D01*
X12057500Y2547500D02*
Y2577500D01*
X10815000Y2677500D02*
X10845000D01*
X10830000Y2662500D02*
Y2692500D01*
X9405002Y2627498D02*
X9435001D01*
X9420001Y2612498D02*
Y2642498D01*
X9217500Y2645000D02*
X9247500D01*
X9232500Y2630000D02*
Y2660000D01*
X10110000Y2540000D02*
X10140000D01*
X10125000Y2525000D02*
Y2555000D01*
X10835000Y3607500D02*
X10865000D01*
X10850000Y3592500D02*
Y3622500D01*
X12842500Y3587500D02*
X12872501D01*
X12857500Y3572500D02*
Y3602500D01*
X12665000Y3562500D02*
X12695000D01*
X12680000Y3547500D02*
Y3577500D01*
X11552500Y3525000D02*
X11582500D01*
X11567500Y3510000D02*
Y3540000D01*
X11835441Y3503493D02*
X11865441D01*
X11850441Y3488493D02*
Y3518493D01*
X11032500Y3690000D02*
X11062500D01*
X11047500Y3675000D02*
Y3705000D01*
X17200000Y6950000D02*
X17230000D01*
X17214999Y6935000D02*
Y6965000D01*
X17072501Y7062500D02*
X17102499D01*
X17087500Y7047500D02*
Y7077500D01*
X17417500Y6955000D02*
X17447501D01*
X17432500Y6940000D02*
Y6970000D01*
X12942500Y4440000D02*
X12972501D01*
X12957500Y4425000D02*
Y4455000D01*
X12805186Y4177687D02*
X12835187D01*
X12820187Y4162687D02*
Y4192687D01*
X12837500Y4365000D02*
X12867500D01*
X12852499Y4350000D02*
Y4380000D01*
X12889005Y4256504D02*
X12919003D01*
X12904004Y4241504D02*
Y4271504D01*
X11100000Y4492500D02*
X11130000D01*
X11115000Y4477500D02*
Y4507500D01*
X13860001Y3012500D02*
X13889999D01*
X13875000Y2997500D02*
Y3027500D01*
X16450000Y5906948D02*
X16480000D01*
X16464999Y5891948D02*
Y5921948D01*
X15248289Y5267274D02*
X15278290D01*
X15263290Y5252274D02*
Y5282274D01*
X14080594Y5202768D02*
X14110594D01*
X14095593Y5187768D02*
Y5217768D01*
X12970000Y4177500D02*
X13000000D01*
X12985001Y4162500D02*
Y4192500D01*
X14795097Y5323240D02*
X14825098D01*
X14810098Y5308240D02*
Y5338240D01*
X14867500Y5097500D02*
X14897501D01*
X14882500Y5082500D02*
Y5112500D01*
X16147691Y5794809D02*
X16177692D01*
X16162691Y5779809D02*
Y5809809D01*
X15961641Y6123849D02*
X15991641D01*
X15976640Y6108849D02*
Y6138849D01*
X13052499Y4573498D02*
X13082500D01*
X13067500Y4558498D02*
Y4588498D01*
X15510001Y6440000D02*
X15539999D01*
X15525000Y6425000D02*
Y6455000D01*
X15664999Y6165552D02*
X15695000D01*
X15680000Y6150552D02*
Y6180552D01*
X13777499Y4575000D02*
X13807500D01*
X13792500Y4560000D02*
Y4590000D01*
X14050002Y4582500D02*
X14080000D01*
X14065001Y4567500D02*
Y4597500D01*
X14747501Y4452500D02*
X14777499D01*
X14762500Y4437500D02*
Y4467500D01*
X15892500Y4712500D02*
X15922501D01*
X15907500Y4697500D02*
Y4727500D01*
X12732500Y4592500D02*
X12762500D01*
X12747500Y4577500D02*
Y4607500D01*
X13117500Y4885000D02*
X13147501D01*
X13132500Y4870000D02*
Y4900000D01*
X16155000Y4845000D02*
X16185001D01*
X16170000Y4830000D02*
Y4860000D01*
X16647501Y5775000D02*
X16677499D01*
X16662500Y5760000D02*
Y5790000D01*
X16645000Y5572500D02*
X16675000D01*
X16660001Y5557500D02*
Y5587500D01*
X16087500D02*
X16117500D01*
X16102499Y5572500D02*
Y5602500D01*
X17287500Y5902500D02*
X17317500D01*
X17302499Y5887500D02*
Y5917500D01*
X14820003Y5439999D02*
X14850002D01*
X14835002Y5424999D02*
Y5454999D01*
X13860001Y5185000D02*
X13889999D01*
X13875000Y5170000D02*
Y5200000D01*
X13872501Y5377500D02*
X13902501D01*
X13887502Y5362500D02*
Y5392500D01*
X13760001Y5275000D02*
X13789999D01*
X13775000Y5260000D02*
Y5290000D01*
X12180000Y5350000D02*
X12210000D01*
X12195000Y5335000D02*
Y5365000D01*
X10900000Y5535000D02*
X10930000D01*
X10915000Y5520000D02*
Y5550000D01*
X11860000Y5537500D02*
X11890000D01*
X11875000Y5522500D02*
Y5552500D01*
X11805000Y5332500D02*
X11835000D01*
X11820000Y5317500D02*
Y5347500D01*
X10692500Y5515000D02*
X10722500D01*
X10707500Y5500000D02*
Y5530000D01*
X11970000Y6500002D02*
X12000000D01*
X11985000Y6485002D02*
Y6515002D01*
X12085000Y6390000D02*
X12115000D01*
X12100000Y6375000D02*
Y6405000D01*
X11037500Y5237500D02*
X11067500D01*
X11052500Y5222500D02*
Y5252500D01*
X15367500Y5600000D02*
X15397501D01*
X15382500Y5585000D02*
Y5615000D01*
X15400000Y5245000D02*
X15430000D01*
X15414999Y5230000D02*
Y5260000D01*
X15080002Y6202502D02*
X15110002D01*
X15095003Y6187502D02*
Y6217502D01*
X12977499Y6274622D02*
X13007500D01*
X12992500Y6259622D02*
Y6289622D01*
X13887500Y7185000D02*
X13917500D01*
X13902499Y7170000D02*
Y7200000D01*
X15752499Y6997500D02*
X15782500D01*
X15767500Y6982500D02*
Y7012500D01*
X12920000Y5437500D02*
X12950000D01*
X12935001Y5422500D02*
Y5452500D01*
X12920000Y4990000D02*
X12950000D01*
X12935001Y4975000D02*
Y5005000D01*
X13035001Y5249956D02*
X13064999D01*
X13050000Y5234957D02*
Y5264956D01*
X13159966Y6290000D02*
X13189964D01*
X13174965Y6275000D02*
Y6305000D01*
X11254109Y8100731D02*
X11284108D01*
X11269109Y8085731D02*
Y8115731D01*
X10260000Y7337500D02*
X10290000D01*
X10275000Y7322500D02*
Y7352500D01*
X16122501Y7432500D02*
X16152499D01*
X16137500Y7417500D02*
Y7447500D01*
X5822499Y6329319D02*
X5852499D01*
X5837499Y6314319D02*
Y6344319D01*
X6400000Y6565000D02*
X6430000D01*
X6415000Y6550000D02*
Y6580000D01*
X7822500Y4147500D02*
X7852500D01*
X7837500Y4132500D02*
Y4162500D01*
X7795002Y2735001D02*
X7825002D01*
X7810002Y2720001D02*
Y2750001D01*
X7912503Y3985001D02*
X7942503D01*
X7927503Y3970001D02*
Y4000001D01*
X5620000Y6565001D02*
X5650000D01*
X5635000Y6550001D02*
Y6580001D01*
X7042502Y8239999D02*
X7072502D01*
X7057502Y8224999D02*
Y8254999D01*
X16545000Y3305002D02*
X16564999D01*
X16554999Y3295002D02*
Y3315002D01*
X16545000Y3405002D02*
X16564999D01*
X16554999Y3395002D02*
Y3415002D01*
X16615001Y3405002D02*
X16635001D01*
X16625002Y3395002D02*
Y3415002D01*
X16615001Y3505002D02*
X16635001D01*
X16625002Y3495002D02*
Y3515002D01*
X16545000Y3505002D02*
X16564999D01*
X16554999Y3495002D02*
Y3515002D01*
X16545000Y3605002D02*
X16564999D01*
X16554999Y3595002D02*
Y3615002D01*
X16615001Y3605002D02*
X16635001D01*
X16625002Y3595002D02*
Y3615002D01*
X16615001Y3305002D02*
X16635001D01*
X16625002Y3295002D02*
Y3315002D01*
X16684998Y3305002D02*
X16704997D01*
X16694998Y3295002D02*
Y3315002D01*
X16684998Y3605002D02*
X16704997D01*
X16694998Y3595002D02*
Y3615002D01*
X16684998Y3405002D02*
X16704997D01*
X16694998Y3395002D02*
Y3415002D01*
X16684998Y3505002D02*
X16704997D01*
X16694998Y3495002D02*
Y3515002D01*
X16995000Y3617498D02*
X17014999D01*
X17005000Y3607498D02*
Y3627498D01*
X16784998Y3617498D02*
X16804997D01*
X16794998Y3607498D02*
Y3627498D01*
X16784998Y3694999D02*
X16804997D01*
X16794998Y3684999D02*
Y3704999D01*
X16924998Y3617498D02*
X16944998D01*
X16934998Y3607498D02*
Y3627498D01*
X16855000Y3617498D02*
X16875002D01*
X16865001Y3607498D02*
Y3627498D01*
X17112999Y3654999D02*
X17132999D01*
X17123000Y3644999D02*
Y3664999D01*
X16545000Y3905001D02*
X16564999D01*
X16554999Y3895001D02*
Y3915001D01*
X16545000Y3705001D02*
X16564999D01*
X16554999Y3695001D02*
Y3715001D01*
X16545000Y3805001D02*
X16564999D01*
X16554999Y3795001D02*
Y3815001D01*
X16545000Y4105001D02*
X16564999D01*
X16554999Y4095001D02*
Y4115001D01*
X16545000Y4205000D02*
X16564999D01*
X16554999Y4195000D02*
Y4215000D01*
X16545000Y4005001D02*
X16564999D01*
X16554999Y3995001D02*
Y4015001D01*
X16615001Y4305000D02*
X16635001D01*
X16625002Y4295000D02*
Y4315000D01*
X16615001Y3805001D02*
X16635001D01*
X16625002Y3795001D02*
Y3815001D01*
X16615001Y3905001D02*
X16635001D01*
X16625002Y3895001D02*
Y3915001D01*
X16615001Y3705001D02*
X16635001D01*
X16625002Y3695001D02*
Y3715001D01*
X16684998Y3905001D02*
X16704997D01*
X16694998Y3895001D02*
Y3915001D01*
X16615001Y4105001D02*
X16635001D01*
X16625002Y4095001D02*
Y4115001D01*
X16615001Y4205000D02*
X16635001D01*
X16625002Y4195000D02*
Y4215000D01*
X16615001Y4005001D02*
X16635001D01*
X16625002Y3995001D02*
Y4015001D01*
X16684998Y4205000D02*
X16704997D01*
X16694998Y4195000D02*
Y4215000D01*
X16545000Y4405000D02*
X16564999D01*
X16554999Y4395000D02*
Y4415000D01*
X16545000Y4505000D02*
X16564999D01*
X16554999Y4495000D02*
Y4515000D01*
X16545000Y4305000D02*
X16564999D01*
X16554999Y4295000D02*
Y4315000D01*
X16615001Y4405000D02*
X16635001D01*
X16625002Y4395000D02*
Y4415000D01*
X16615001Y4505000D02*
X16635001D01*
X16625002Y4495000D02*
Y4515000D01*
X16655000Y4650999D02*
X16675002D01*
X16665001Y4640999D02*
Y4660999D01*
X16575002Y4650999D02*
X16595001D01*
X16585001Y4640999D02*
Y4660999D01*
X16684998Y4005001D02*
X16704997D01*
X16694998Y3995001D02*
Y4015001D01*
X16684998Y3705001D02*
X16704997D01*
X16694998Y3695001D02*
Y3715001D01*
X16684998Y3805001D02*
X16704997D01*
X16694998Y3795001D02*
Y3815001D01*
X16684998Y4405000D02*
X16704997D01*
X16694998Y4395000D02*
Y4415000D01*
X16684998Y4105001D02*
X16704997D01*
X16694998Y4095001D02*
Y4115001D01*
X16924998Y3694999D02*
X16944998D01*
X16934998Y3684999D02*
Y3704999D01*
X16855000Y3694999D02*
X16875002D01*
X16865001Y3684999D02*
Y3704999D01*
X16995000Y3694999D02*
X17014999D01*
X17005000Y3684999D02*
Y3704999D01*
X17112999Y3734999D02*
X17132999D01*
X17123000Y3724999D02*
Y3744999D01*
X16855000Y3772499D02*
X16875002D01*
X16865001Y3762499D02*
Y3782499D01*
X16784998Y3772499D02*
X16804997D01*
X16794998Y3762499D02*
Y3782499D01*
X16995000Y3772499D02*
X17014999D01*
X17005000Y3762499D02*
Y3782499D01*
X16924998Y3772499D02*
X16944998D01*
X16934998Y3762499D02*
Y3782499D01*
X16684998Y4305000D02*
X16704997D01*
X16694998Y4295000D02*
Y4315000D01*
X16684998Y4505000D02*
X16704997D01*
X16694998Y4495000D02*
Y4515000D01*
X13005727Y8053227D02*
X13035725D01*
X13020726Y8038228D02*
Y8068227D01*
X14857503Y4667499D02*
X14887503D01*
X14872504Y4652499D02*
Y4682499D01*
X16502499Y5812500D02*
X16532500D01*
X16517500Y5797500D02*
Y5827500D01*
X13292502Y7872501D02*
X13322502D01*
X13307503Y7857501D02*
Y7887501D01*
X5347500Y7827500D02*
X5377500D01*
X5362500Y7812500D02*
Y7842500D01*
X8212500Y8375000D02*
X8242500D01*
X8227500Y8360000D02*
Y8390000D01*
X16925000Y6925000D02*
X16955000D01*
X16939999Y6910000D02*
Y6940000D01*
X8685000Y8317500D02*
X8715000D01*
X8700000Y8302500D02*
Y8332500D01*
X13115002Y8302498D02*
X13145003D01*
X13130002Y8287498D02*
Y8317498D01*
X7522500Y6152500D02*
X7552500D01*
X7537500Y6137500D02*
Y6167500D01*
X7750444Y6724556D02*
X7780444D01*
X7765444Y6709556D02*
Y6739556D01*
X7282501Y7009638D02*
X7312501D01*
X7297501Y6994638D02*
Y7024638D01*
X5790002Y8097500D02*
X5820002D01*
X5805002Y8082500D02*
Y8112500D01*
X7269999Y7457501D02*
X7299999D01*
X7284999Y7442501D02*
Y7472501D01*
X14917503Y7162500D02*
X14947502D01*
X14932503Y7147500D02*
Y7177500D01*
X16995000Y3439998D02*
X17014999D01*
X17005000Y3429998D02*
Y3449998D01*
X16855000Y3439998D02*
X16875002D01*
X16865001Y3429998D02*
Y3449998D01*
X16924998Y3439998D02*
X16944998D01*
X16934998Y3429998D02*
Y3449998D01*
X17112999Y3474999D02*
X17132999D01*
X17123000Y3464999D02*
Y3484999D01*
X16995000Y3510001D02*
X17014999D01*
X17005000Y3500001D02*
Y3520001D01*
X16855000Y3510001D02*
X16875002D01*
X16865001Y3500001D02*
Y3520001D01*
X16924998Y3510001D02*
X16944998D01*
X16934998Y3500001D02*
Y3520001D01*
X6479998Y5687502D02*
X6509998D01*
X6494998Y5672502D02*
Y5702502D01*
X5572500Y6947500D02*
X5602500D01*
X5587500Y6932500D02*
Y6962500D01*
X4892500Y6627500D02*
X4922500D01*
X4907500Y6612500D02*
Y6642500D01*
X9967500Y6895000D02*
X9997500D01*
X9982500Y6880000D02*
Y6910000D01*
X7577500Y5205000D02*
X7607500D01*
X7592500Y5190000D02*
Y5220000D01*
X8724998Y4775002D02*
X8754998D01*
X8739998Y4760002D02*
Y4790002D01*
X6867500Y5012539D02*
X6897500D01*
X6882500Y4997539D02*
Y5027539D01*
X7267500Y5045000D02*
X7297500D01*
X7282500Y5030000D02*
Y5060000D01*
X4642286Y7718681D02*
X4672286D01*
X4657286Y7703681D02*
Y7733681D01*
X16784998Y4005001D02*
X16804997D01*
X16794998Y3995001D02*
Y4015001D01*
X16784998Y3905001D02*
X16804997D01*
X16794998Y3895001D02*
Y3915001D01*
X16784998Y4105001D02*
X16804997D01*
X16794998Y4095001D02*
Y4115001D01*
X16784998Y4205000D02*
X16804997D01*
X16794998Y4195000D02*
Y4215000D01*
X16924998Y3905001D02*
X16944998D01*
X16934998Y3895001D02*
Y3915001D01*
X16855000Y3905001D02*
X16875002D01*
X16865001Y3895001D02*
Y3915001D01*
X16855000Y4005001D02*
X16875002D01*
X16865001Y3995001D02*
Y4015001D01*
X16855000Y4105001D02*
X16875002D01*
X16865001Y4095001D02*
Y4115001D01*
X16855000Y4205000D02*
X16875002D01*
X16865001Y4195000D02*
Y4215000D01*
X16924998Y4005001D02*
X16944998D01*
X16934998Y3995001D02*
Y4015001D01*
X16924998Y4205000D02*
X16944998D01*
X16934998Y4195000D02*
Y4215000D01*
X16924998Y4105001D02*
X16944998D01*
X16934998Y4095001D02*
Y4115001D01*
X16784998Y4305000D02*
X16804997D01*
X16794998Y4295000D02*
Y4315000D01*
X16855000Y4305000D02*
X16875002D01*
X16865001Y4295000D02*
Y4315000D01*
X16784998Y4405000D02*
X16804997D01*
X16794998Y4395000D02*
Y4415000D01*
X16855000Y4405000D02*
X16875002D01*
X16865001Y4395000D02*
Y4415000D01*
X16784998Y4505000D02*
X16804997D01*
X16794998Y4495000D02*
Y4515000D01*
X16855000Y4505000D02*
X16875002D01*
X16865001Y4495000D02*
Y4515000D01*
X16815001Y4650999D02*
X16835001D01*
X16825002Y4640999D02*
Y4660999D01*
X16924998Y4305000D02*
X16944998D01*
X16934998Y4295000D02*
Y4315000D01*
X16924998Y4405000D02*
X16944998D01*
X16934998Y4395000D02*
Y4415000D01*
X16924998Y4505000D02*
X16944998D01*
X16934998Y4495000D02*
Y4515000D01*
X16895001Y4650999D02*
X16914999D01*
X16905000Y4640999D02*
Y4660999D01*
X14770000Y7152498D02*
X14800000D01*
X14785001Y7137498D02*
Y7167498D01*
X13153220Y7712502D02*
X13183218D01*
X13168219Y7697502D02*
Y7727502D01*
X12899773Y7854772D02*
X12929771D01*
X12914772Y7839772D02*
Y7869772D01*
X13157500Y7247500D02*
X13187500D01*
X13172501Y7232500D02*
Y7262500D01*
X14472501Y6385000D02*
X14502499D01*
X14487500Y6370000D02*
Y6400000D01*
X12987500Y6945000D02*
X13017500D01*
X13002499Y6930000D02*
Y6960000D01*
X12947501Y7197500D02*
X12977499D01*
X12962500Y7182500D02*
Y7212500D01*
X15125000Y5859998D02*
X15155000D01*
X15139999Y5844998D02*
Y5874998D01*
X14337498Y6257498D02*
X14367499D01*
X14352499Y6242498D02*
Y6272498D01*
X13837500Y5927500D02*
X13867500D01*
X13852499Y5912500D02*
Y5942500D01*
X12112500Y8252500D02*
X12142500D01*
X12127500Y8237500D02*
Y8267500D01*
X12322501Y7575001D02*
X12352501D01*
X12337501Y7560001D02*
Y7590001D01*
X12025000Y7057500D02*
X12055000D01*
X12040000Y7042500D02*
Y7072500D01*
X11600000Y7450000D02*
X11630000D01*
X11615000Y7435000D02*
Y7465000D01*
X11439999Y7447498D02*
X11469999D01*
X11454999Y7432498D02*
Y7462498D01*
X12702501Y6254999D02*
X12732501D01*
X12717501Y6239999D02*
Y6269999D01*
X12134999Y6227501D02*
X12164999D01*
X12149999Y6212501D02*
Y6242501D01*
X12620000Y5190000D02*
X12650000D01*
X12635000Y5175000D02*
Y5205000D01*
X11727941Y6210000D02*
X11757941D01*
X11742941Y6195000D02*
Y6225000D01*
X17230000Y4567499D02*
X17260001D01*
X17245000Y4552499D02*
Y4582499D01*
X17617502Y3435000D02*
X17647502D01*
X17632503Y3420000D02*
Y3450000D01*
X15602499Y4222500D02*
X15632500D01*
X15617500Y4207500D02*
Y4237500D01*
X15305000Y3282500D02*
X15335001D01*
X15320000Y3267500D02*
Y3297500D01*
X16410001Y2582499D02*
X16440001D01*
X16425002Y2567499D02*
Y2597499D01*
X14942500Y4157500D02*
X14972501D01*
X14957500Y4142500D02*
Y4172500D01*
X12775140Y4724859D02*
X12805141D01*
X12790140Y4709859D02*
Y4739859D01*
X13055000Y4157500D02*
X13085001D01*
X13070000Y4142500D02*
Y4172500D01*
X12832498Y3139999D02*
X12862498D01*
X12847498Y3124999D02*
Y3154999D01*
X9622500Y8232500D02*
X9652500D01*
X9637500Y8217500D02*
Y8247500D01*
X10485977Y7026522D02*
X10515977D01*
X10500977Y7011522D02*
Y7041522D01*
X10222500Y6775000D02*
X10252500D01*
X10237500Y6760000D02*
Y6790000D01*
X8285000Y8002500D02*
X8315000D01*
X8300000Y7987500D02*
Y8017500D01*
X8380000Y6550000D02*
X8410000D01*
X8395000Y6535000D02*
Y6565000D01*
X7645000Y6619112D02*
X7675000D01*
X7660000Y6604112D02*
Y6634112D01*
X8190593Y6498093D02*
X8220593D01*
X8205593Y6483093D02*
Y6513093D01*
X7607500Y5757500D02*
X7637500D01*
X7622500Y5742500D02*
Y5772500D01*
X6527502Y7700000D02*
X6557501D01*
X6542502Y7685000D02*
Y7715000D01*
X5624999Y7994995D02*
X5654999D01*
X5639999Y7979995D02*
Y8009995D01*
X7505000Y7485000D02*
X7535000D01*
X7520000Y7470000D02*
Y7500000D01*
X6732500Y6942501D02*
X6762500D01*
X6747500Y6927501D02*
Y6957501D01*
X7137498Y6929999D02*
X7167498D01*
X7152498Y6914999D02*
Y6944999D01*
X5910000Y6907500D02*
X5940000D01*
X5925000Y6892500D02*
Y6922500D01*
X4642498Y6809545D02*
X4672498D01*
X4657498Y6794545D02*
Y6824545D01*
X5752500Y6552500D02*
X5782500D01*
X5767500Y6537500D02*
Y6567500D01*
X10352500Y5340000D02*
X10382500D01*
X10367500Y5325000D02*
Y5355000D01*
X9670000Y3672500D02*
X9700000D01*
X9685000Y3657500D02*
Y3687500D01*
X8352502Y3659998D02*
X8382502D01*
X8367502Y3644998D02*
Y3674998D01*
X7589999Y3454999D02*
X7619999D01*
X7604999Y3439999D02*
Y3469999D01*
X8544998Y2917500D02*
X8574998D01*
X8559998Y2902500D02*
Y2932500D01*
X8362499Y2924998D02*
X8392499D01*
X8377499Y2909998D02*
Y2939998D01*
X7655000Y2687500D02*
X7685000D01*
X7670000Y2672500D02*
Y2702500D01*
X6690000Y5062500D02*
X6720000D01*
X6705000Y5047500D02*
Y5077500D01*
X7354470Y4442501D02*
X7384470D01*
X7369470Y4427501D02*
Y4457501D01*
X4809999Y4372498D02*
X4839999D01*
X4824999Y4357498D02*
Y4387498D01*
X4857500Y3890000D02*
X4887500D01*
X4872500Y3875000D02*
Y3905000D01*
X4565000Y3677500D02*
X4595000D01*
X4580000Y3662500D02*
Y3692500D01*
X4466876Y3283125D02*
X4496876D01*
X4481876Y3268125D02*
Y3298125D01*
X3742500Y3347504D02*
X3772500D01*
X3757500Y3332504D02*
Y3362504D01*
X6235000Y2959999D02*
X6265000D01*
X6250000Y2944999D02*
Y2974999D01*
X5807500Y3055000D02*
X5837500D01*
X5822500Y3040000D02*
Y3070000D01*
X3087498Y2772501D02*
X3117498D01*
X3102498Y2757501D02*
Y2787501D01*
X14179997Y3914999D02*
X14209998D01*
X14194998Y3899999D02*
Y3929998D01*
X15467500Y4560000D02*
X15497501D01*
X15482500Y4545000D02*
Y4575000D01*
X12327500Y5447500D02*
X12357500D01*
X12342500Y5432500D02*
Y5462500D01*
X11172500Y3390000D02*
X11202500D01*
X11187500Y3375000D02*
Y3405000D01*
X11042499Y3565002D02*
X11072499D01*
X11057499Y3550002D02*
Y3580002D01*
X11240000Y4476232D02*
X11270000D01*
X11255000Y4461232D02*
Y4491232D01*
X11917002Y5232500D02*
X11947002D01*
X11932002Y5217500D02*
Y5247500D01*
X11512500Y6210000D02*
X11542500D01*
X11527500Y6195000D02*
Y6225000D01*
X11505000Y6375000D02*
X11535000D01*
X11520000Y6360000D02*
Y6390000D01*
X8585140Y6870141D02*
X8615140D01*
X8600140Y6855141D02*
Y6885141D01*
X8892500Y3737500D02*
X8922500D01*
X8907500Y3722500D02*
Y3752500D01*
X6587500Y2675000D02*
X6617500D01*
X6602500Y2660000D02*
Y2690000D01*
X7545000Y8004717D02*
X7575000D01*
X7560000Y7989717D02*
Y8019717D01*
X7471655Y5730785D02*
X7501655D01*
X7486655Y5715785D02*
Y5745785D01*
X7704493Y4694847D02*
X7734493D01*
X7719493Y4679847D02*
Y4709847D01*
X5320001Y7994995D02*
X5350001D01*
X5335001Y7979995D02*
Y8009995D01*
X7590997Y4973497D02*
X7620997D01*
X7605997Y4958497D02*
Y4988497D01*
X9570000Y7970000D02*
X9600000D01*
X9585000Y7955000D02*
Y7985000D01*
X4547500Y3815000D02*
X4577500D01*
X4562500Y3800000D02*
Y3830000D01*
X3195000Y3515000D02*
X3225000D01*
X3210000Y3500000D02*
Y3530000D01*
X6487500Y4970002D02*
X6517500D01*
X6502500Y4955002D02*
Y4985002D01*
X5262500Y5140000D02*
X5292500D01*
X5277500Y5125000D02*
Y5155000D01*
X8627500Y7107500D02*
X8657500D01*
X8642500Y7092500D02*
Y7122500D01*
X9102500Y7715000D02*
X9132500D01*
X9117500Y7700000D02*
Y7730000D01*
X11337500Y8255000D02*
X11367500D01*
X11352500Y8240000D02*
Y8270000D01*
X8730000Y5047500D02*
X8760000D01*
X8745000Y5032500D02*
Y5062500D01*
X9865000Y4400000D02*
X9895000D01*
X9880000Y4385000D02*
Y4415000D01*
X9867500Y4840000D02*
X9897500D01*
X9882500Y4825000D02*
Y4855000D01*
X10150000Y4127500D02*
X10180000D01*
X10165000Y4112500D02*
Y4142500D01*
X12772500Y3975000D02*
X12802499D01*
X12787500Y3960000D02*
Y3990000D01*
X10262500Y7872500D02*
X10292500D01*
X10277500Y7857500D02*
Y7887500D01*
X13784998Y5487502D02*
X13814998D01*
X13799998Y5472502D02*
Y5502502D01*
X15610001Y2770000D02*
X15639999D01*
X15625000Y2755000D02*
Y2785000D01*
X15175003Y2564999D02*
X15205003D01*
X15190002Y2549999D02*
Y2579999D01*
X15337502Y3022498D02*
X15367502D01*
X15352502Y3007498D02*
Y3037498D01*
X12270000Y7415000D02*
X12300000D01*
X12285000Y7400000D02*
Y7430000D01*
X9505000Y2962500D02*
X9535000D01*
X9520000Y2947500D02*
Y2977500D01*
X11090000Y4162500D02*
X11120000D01*
X11105000Y4147500D02*
Y4177500D01*
X11077500Y4660000D02*
X11107500D01*
X11092500Y4645000D02*
Y4675000D01*
X11212500Y4642500D02*
X11242500D01*
X11227500Y4627500D02*
Y4657500D01*
X11240000Y4232500D02*
X11260000D01*
X11250000Y4222500D02*
Y4242500D01*
X11027500Y7037500D02*
X11057500D01*
X11042500Y7022500D02*
Y7052500D01*
X10405000Y7335000D02*
X10435000D01*
X10420000Y7320000D02*
Y7350000D01*
X10495000Y6680000D02*
X10525000D01*
X10510000Y6665000D02*
Y6695000D01*
X10377500Y6767500D02*
X10407500D01*
X10392500Y6752500D02*
Y6782500D01*
X13164999Y7082500D02*
X13195000D01*
X13180000Y7067500D02*
Y7097500D01*
X12575000Y7392500D02*
X12605000D01*
X12590000Y7377500D02*
Y7407500D01*
X11984999Y7824700D02*
X12014999D01*
X11999999Y7809700D02*
Y7839700D01*
X12315000Y8064997D02*
X12345000D01*
X12330000Y8049997D02*
Y8079997D01*
X10952500Y7917500D02*
X10982500D01*
X10967500Y7902500D02*
Y7932500D01*
X11935000Y6970000D02*
X11965000D01*
X11950000Y6955000D02*
Y6985000D01*
X11922500Y6737500D02*
X11952500D01*
X11937500Y6722500D02*
Y6752500D01*
X11107500Y6222500D02*
X11137500D01*
X11122500Y6207500D02*
Y6237500D01*
X10337500Y6500000D02*
X10367500D01*
X10352500Y6485000D02*
Y6515000D01*
X10137500Y6482500D02*
X10167500D01*
X10152500Y6467500D02*
Y6497500D01*
X10377500Y6080000D02*
X10407500D01*
X10392500Y6065000D02*
Y6095000D01*
X10145000Y6037500D02*
X10175000D01*
X10160000Y6022500D02*
Y6052500D01*
X10285000Y6645000D02*
X10315000D01*
X10300000Y6630000D02*
Y6660000D01*
X7510000Y3000000D02*
X7540000D01*
X7525000Y2985000D02*
Y3015000D01*
X5252500Y6032500D02*
X5282500D01*
X5267500Y6017500D02*
Y6047500D01*
X3907500Y2947500D02*
X3937500D01*
X3922500Y2932500D02*
Y2962500D01*
X5625000Y3200000D02*
X5655000D01*
X5640000Y3185000D02*
Y3215000D01*
X5657500Y3025000D02*
X5687500D01*
X5672500Y3010000D02*
Y3040000D01*
X7382500Y3007500D02*
X7412500D01*
X7397500Y2992500D02*
Y3022500D01*
X8610000Y3105000D02*
X8640000D01*
X8625000Y3090000D02*
Y3120000D01*
X8592500Y3790000D02*
X8622500D01*
X8607500Y3775000D02*
Y3805000D01*
X7257500Y3977500D02*
X7287500D01*
X7272500Y3962500D02*
Y3992500D01*
X6497500Y4607500D02*
X6527500D01*
X6512500Y4592500D02*
Y4622500D01*
X7465000Y6527500D02*
X7495000D01*
X7480000Y6512500D02*
Y6542500D01*
X9032501Y7902500D02*
X9062501D01*
X9047501Y7887500D02*
Y7917500D01*
X11615000Y5452500D02*
X11645000D01*
X11630000Y5437500D02*
Y5467500D01*
X10090000Y7307500D02*
X10120000D01*
X10105000Y7292500D02*
Y7322500D01*
X9145000Y8155000D02*
X9175000D01*
X9160000Y8140000D02*
Y8170000D01*
X8375000Y6820000D02*
X8405000D01*
X8390000Y6805000D02*
Y6835000D01*
X9192500Y7317500D02*
X9222500D01*
X9207500Y7302500D02*
Y7332500D01*
X8615000Y8092500D02*
X8645000D01*
X8630000Y8077500D02*
Y8107500D01*
X9947500Y3220000D02*
X9977500D01*
X9962500Y3205000D02*
Y3235000D01*
X7382500Y3180000D02*
X7412500D01*
X7397500Y3165000D02*
Y3195000D01*
X6230000Y3112500D02*
X6260000D01*
X6245000Y3097500D02*
Y3127500D01*
X5830000Y4615000D02*
X5860000D01*
X5845000Y4600000D02*
Y4630000D01*
X4740000Y6690000D02*
X4770000D01*
X4755000Y6675000D02*
Y6705000D01*
X4760000Y3355000D02*
X4790000D01*
X4775000Y3340000D02*
Y3370000D01*
X10142500Y3770000D02*
X10172500D01*
X10157500Y3755000D02*
Y3785000D01*
X14820000Y6207500D02*
X14850000D01*
X14835001Y6192500D02*
Y6222500D01*
X11887603Y3342011D02*
X11917603D01*
X11902603Y3327011D02*
Y3357011D01*
X12324807Y2904807D02*
X12354807D01*
X12339807Y2889807D02*
Y2919807D01*
X11677500Y3690000D02*
X11707500D01*
X11692500Y3675000D02*
Y3705000D01*
X12947501Y6810000D02*
X12977499D01*
X12962500Y6795000D02*
Y6825000D01*
X9357500Y3742500D02*
X9387500D01*
X9372500Y3727500D02*
Y3757500D01*
X6360000Y2577500D02*
X6390000D01*
X6375000Y2562500D02*
Y2592500D01*
X7432500Y4310000D02*
X7462500D01*
X7447500Y4295000D02*
Y4325000D01*
X7630000Y3975000D02*
X7660000D01*
X7645000Y3960000D02*
Y3990000D01*
X7730000Y2557500D02*
X7760000D01*
X7745000Y2542500D02*
Y2572500D01*
X10080000Y7882500D02*
X10110000D01*
X10095000Y7867500D02*
Y7897500D01*
X11752500D02*
X11782500D01*
X11767500Y7882500D02*
Y7912500D01*
X10810000Y7170000D02*
X10840000D01*
X10825000Y7155000D02*
Y7185000D01*
X10867500Y7320000D02*
X10897500D01*
X10882500Y7305000D02*
Y7335000D01*
X14900000Y3942500D02*
X14930000D01*
X14914999Y3927500D02*
Y3957500D01*
X10740000Y2952500D02*
X10770000D01*
X10755000Y2937500D02*
Y2967500D01*
X13227499Y2802500D02*
X13257500D01*
X13242500Y2787500D02*
Y2817500D01*
X11085000Y5065000D02*
X11115000D01*
X11100000Y5050000D02*
Y5080000D01*
X10075000Y8230000D02*
X10105000D01*
X10090000Y8215000D02*
Y8245000D01*
X10212500Y7702500D02*
X10242500D01*
X10227500Y7687500D02*
Y7717500D01*
X10032500Y8082500D02*
X10062500D01*
X10047500Y8067500D02*
Y8097500D01*
X6530000Y7955000D02*
X6560000D01*
X6545000Y7940000D02*
Y7970000D01*
X5435000Y4055000D02*
X5465000D01*
X5450000Y4040000D02*
Y4070000D01*
X6512500Y3087500D02*
X6542500D01*
X6527500Y3072500D02*
Y3102500D01*
X6855000Y2565000D02*
X6885000D01*
X6870000Y2550000D02*
Y2580000D01*
X7675000Y4820000D02*
X7705000D01*
X7690000Y4805000D02*
Y4835000D01*
X7762500Y4980000D02*
X7792500D01*
X7777500Y4965000D02*
Y4995000D01*
X7365000Y4585000D02*
X7395000D01*
X7380000Y4570000D02*
Y4600000D01*
X7647500Y4125000D02*
X7677500D01*
X7662500Y4110000D02*
Y4140000D01*
X7592500Y4315000D02*
X7622500D01*
X7607500Y4300000D02*
Y4330000D01*
X8518089Y4155592D02*
X8548089D01*
X8533089Y4140592D02*
Y4170592D01*
X10225000Y5295000D02*
X10255000D01*
X10240000Y5280000D02*
Y5310000D01*
X9822500Y3200000D02*
X9852500D01*
X9837500Y3185000D02*
Y3215000D01*
X9655000Y3487501D02*
X9685000D01*
X9670000Y3472501D02*
Y3502501D01*
X7050000Y3932500D02*
X7080000D01*
X7065000Y3917500D02*
Y3947500D01*
X4675000Y4687500D02*
X4705000D01*
X4690000Y4672500D02*
Y4702500D01*
X4732500Y4812500D02*
X4762500D01*
X4747500Y4797500D02*
Y4827500D01*
X4620000Y4890000D02*
X4650000D01*
X4635000Y4875000D02*
Y4905000D01*
X4912500Y4452500D02*
X4942500D01*
X4927500Y4437500D02*
Y4467500D01*
X6192500Y7475000D02*
X6222500D01*
X6207500Y7460000D02*
Y7490000D01*
X6535000Y7564999D02*
X6565000D01*
X6550000Y7549999D02*
Y7579999D01*
X6140000Y7635000D02*
X6170000D01*
X6155000Y7620000D02*
Y7650000D01*
X2632498Y2967502D02*
X2662498D01*
X2647498Y2952502D02*
Y2982502D01*
X5615291Y3407212D02*
X5645291D01*
X5630291Y3392212D02*
Y3422212D01*
X15160001Y5602498D02*
X15190001D01*
X15175002Y5587498D02*
Y5617498D01*
X12060003Y6909999D02*
X12090002D01*
X12075003Y6894999D02*
Y6924999D01*
X12085001Y7189998D02*
X12115001D01*
X12100001Y7174998D02*
Y7204998D01*
X12645000Y7529998D02*
X12675000D01*
X12660000Y7514998D02*
Y7544998D01*
X13807503Y7129998D02*
X13837502D01*
X13822502Y7114998D02*
Y7144998D01*
X13630002Y7262500D02*
X13660002D01*
X13645003Y7247500D02*
Y7277500D01*
X13287498Y7197501D02*
X13317497D01*
X13302498Y7182502D02*
Y7212501D01*
X16282500Y5707500D02*
X16312500D01*
X16297501Y5692500D02*
Y5722500D01*
X9035000Y7389998D02*
X9065000D01*
X9050000Y7374998D02*
Y7404998D01*
X6215000Y4827499D02*
X6245000D01*
X6230000Y4812499D02*
Y4842499D01*
X7537502Y3819997D02*
X7567502D01*
X7552502Y3804997D02*
Y3834997D01*
X5400001Y4492498D02*
X5430001D01*
X5415001Y4477498D02*
Y4507498D01*
X14657500Y6380000D02*
X14687500D01*
X14672501Y6365000D02*
Y6395000D01*
X15589999Y5825000D02*
X15620000D01*
X15605000Y5810000D02*
Y5840000D01*
X12365000Y5580000D02*
X12395000D01*
X12380000Y5565000D02*
Y5595000D01*
X11857500Y5680000D02*
X11887500D01*
X11872500Y5665000D02*
Y5695000D01*
X10347500Y7700000D02*
X10377500D01*
X10362500Y7685000D02*
Y7715000D01*
X11177500Y7888484D02*
X11207500D01*
X11192500Y7873484D02*
Y7903484D01*
X11472500Y7892500D02*
X11502500D01*
X11487500Y7877500D02*
Y7907500D01*
X12760001Y5775000D02*
X12790001D01*
X12775001Y5760000D02*
Y5790000D01*
X8772500Y6677500D02*
X8802500D01*
X8787500Y6662500D02*
Y6692500D01*
X11722500Y8112500D02*
X11752500D01*
X11737500Y8097500D02*
Y8127500D01*
X5437500Y4270000D02*
X5467500D01*
X5452500Y4255000D02*
Y4285000D01*
X9247501Y5439999D02*
X9277501D01*
X9262501Y5424999D02*
Y5454999D01*
X6472500Y6687500D02*
X6502500D01*
X6487500Y6672500D02*
Y6702500D01*
X5287499Y5767502D02*
X5317499D01*
X5302499Y5752502D02*
Y5782502D01*
X10131248Y4995001D02*
X10161248D01*
X10146248Y4980001D02*
Y5010001D01*
X9842501Y5012502D02*
X9872501D01*
X9857501Y4997502D02*
Y5027502D01*
X9297499Y5570002D02*
X9327498D01*
X9312499Y5555002D02*
Y5585002D01*
X4857502Y5382499D02*
X4887502D01*
X4872502Y5367499D02*
Y5397499D01*
X8292502Y3810000D02*
X8322502D01*
X8307502Y3795000D02*
Y3825000D01*
X7732498Y3752499D02*
X7762498D01*
X7747498Y3737500D02*
Y3767499D01*
X4742501Y5307503D02*
X4772501D01*
X4757501Y5292503D02*
Y5322503D01*
X2827499Y8232501D02*
X2857499D01*
X2842499Y8217501D02*
Y8247501D01*
X11052501Y4807499D02*
X11082501D01*
X11067501Y4792499D02*
Y4822499D01*
X11182499Y4847499D02*
X11212499D01*
X11197499Y4832499D02*
Y4862499D01*
X12580002Y7637501D02*
X12610001D01*
X12595001Y7622501D02*
Y7652501D01*
X8369809Y3322691D02*
X8399809D01*
X8384809Y3307691D02*
Y3337691D01*
X8212502Y3407501D02*
X8242502D01*
X8227502Y3392501D02*
Y3422501D01*
X7652498Y3642502D02*
X7682498D01*
X7667498Y3627502D02*
Y3657502D01*
X10072498Y5280000D02*
X10102498D01*
X10087498Y5265000D02*
Y5295000D01*
X10380001Y5739999D02*
X10410001D01*
X10395001Y5724999D02*
Y5754999D01*
X12212499Y7287499D02*
X12242499D01*
X12227499Y7272499D02*
Y7302499D01*
X10092498Y3012501D02*
X10122498D01*
X10107498Y2997501D02*
Y3027501D01*
X13901442Y5673943D02*
X13931442D01*
X13916441Y5658943D02*
Y5688943D01*
X6579998Y3762502D02*
X6609998D01*
X6594998Y3747502D02*
Y3777502D01*
X5552502Y7777500D02*
X5582502D01*
X5567502Y7762500D02*
Y7792500D01*
X14057500Y3825001D02*
X14087498D01*
X14072499Y3810001D02*
Y3840001D01*
X11242498Y5135001D02*
X11272498D01*
X11257498Y5120001D02*
Y5150001D01*
X8477500Y5342499D02*
X8507500D01*
X8492500Y5327499D02*
Y5357499D01*
X9860591Y5193091D02*
X9890591D01*
X9875591Y5178091D02*
Y5208091D01*
X8512501Y4507499D02*
X8542501D01*
X8527501Y4492499D02*
Y4522499D01*
X13264999Y5312501D02*
X13295000D01*
X13279999Y5297501D02*
Y5327501D01*
X13100000Y5157500D02*
X13130000D01*
X13114999Y5142501D02*
Y5172500D01*
X12382501Y6239998D02*
X12412501D01*
X12397501Y6224998D02*
Y6254998D01*
X11016220Y5967501D02*
X11046220D01*
X11031220Y5952501D02*
Y5982501D01*
X9732499Y3825001D02*
X9762499D01*
X9747499Y3810001D02*
Y3840001D01*
X7410003Y3307503D02*
X7440003D01*
X7425003Y3292503D02*
Y3322503D01*
X8672501Y3659998D02*
X8702501D01*
X8687501Y3644998D02*
Y3674998D01*
X9714998Y2917500D02*
X9744998D01*
X9729998Y2902500D02*
Y2932500D01*
X8262499Y2775001D02*
X8292499D01*
X8277499Y2760001D02*
Y2790001D01*
X6685002Y7467498D02*
X6715002D01*
X6700002Y7452498D02*
Y7482498D01*
X5197502Y3820003D02*
X5227502D01*
X5212502Y3805003D02*
Y3835002D01*
%TF.MD5,2ccb49c431adb1510735e5d982f3e411*%
M02*
