%TF.GenerationSoftware,Altium Limited,Altium Designer,25.7.1 (20)*%
G04 Layer_Color=255*
%FSLAX45Y45*%
%MOMM*%
%TF.SameCoordinates,D8C98939-B5AC-4A14-9F93-74B2487226E3*%
%TF.FilePolarity,Positive*%
%TF.FileFunction,Pads,Top*%
%TF.Part,Single*%
G01*
G75*
%TA.AperFunction,SMDPad,CuDef*%
%ADD10R,3.68000X1.27000*%
%ADD11R,0.49000X0.55000*%
%ADD12R,0.90620X0.85490*%
%ADD13R,1.20840X1.01213*%
%ADD14R,1.01213X1.20840*%
%ADD15R,1.40000X1.50000*%
%ADD16R,1.35620X1.05500*%
%ADD17R,0.70000X0.90000*%
%ADD18R,0.22000X1.47500*%
%ADD19R,1.47500X0.22000*%
%ADD20R,1.47500X0.20000*%
%ADD21R,0.20000X1.47500*%
%ADD22R,1.00000X1.00000*%
%ADD23R,0.65000X0.90000*%
%ADD24R,1.05000X1.15000*%
%ADD25R,3.73000X0.74000*%
%ADD26R,1.00000X1.00000*%
%ADD27R,1.15000X1.05000*%
%ADD28R,1.45000X0.36000*%
%ADD29R,0.47500X0.47247*%
%ADD30O,2.50000X0.70000*%
%ADD31R,0.47247X0.47500*%
%ADD32R,0.93504X0.96213*%
%ADD33R,2.00000X2.00000*%
%ADD34R,0.47500X0.50000*%
%ADD35R,0.57247X0.56818*%
%ADD36R,1.40574X1.50822*%
%ADD37R,3.55000X1.85000*%
%TA.AperFunction,SMDPad,SMDef*%
G04:AMPARAMS|DCode=38|XSize=1.5mm|YSize=1.27mm|CornerRadius=0.0508mm|HoleSize=0mm|Usage=FLASHONLY|Rotation=0.000|XOffset=0mm|YOffset=0mm|HoleType=Round|Shape=RoundedRectangle|*
%AMROUNDEDRECTD38*
21,1,1.50000,1.16840,0,0,0.0*
21,1,1.39840,1.27000,0,0,0.0*
1,1,0.10160,0.69920,-0.58420*
1,1,0.10160,-0.69920,-0.58420*
1,1,0.10160,-0.69920,0.58420*
1,1,0.10160,0.69920,0.58420*
%
%ADD38ROUNDEDRECTD38*%
G04:AMPARAMS|DCode=39|XSize=0.8mm|YSize=1.3mm|CornerRadius=0.052mm|HoleSize=0mm|Usage=FLASHONLY|Rotation=0.000|XOffset=0mm|YOffset=0mm|HoleType=Round|Shape=RoundedRectangle|*
%AMROUNDEDRECTD39*
21,1,0.80000,1.19600,0,0,0.0*
21,1,0.69600,1.30000,0,0,0.0*
1,1,0.10400,0.34800,-0.59800*
1,1,0.10400,-0.34800,-0.59800*
1,1,0.10400,-0.34800,0.59800*
1,1,0.10400,0.34800,0.59800*
%
%ADD39ROUNDEDRECTD39*%
G04:AMPARAMS|DCode=40|XSize=0.8mm|YSize=0.5mm|CornerRadius=0.05mm|HoleSize=0mm|Usage=FLASHONLY|Rotation=0.000|XOffset=0mm|YOffset=0mm|HoleType=Round|Shape=RoundedRectangle|*
%AMROUNDEDRECTD40*
21,1,0.80000,0.40000,0,0,0.0*
21,1,0.70000,0.50000,0,0,0.0*
1,1,0.10000,0.35000,-0.20000*
1,1,0.10000,-0.35000,-0.20000*
1,1,0.10000,-0.35000,0.20000*
1,1,0.10000,0.35000,0.20000*
%
%ADD40ROUNDEDRECTD40*%
%ADD41C,2.39203*%
G04:AMPARAMS|DCode=42|XSize=2.1mm|YSize=0.8mm|CornerRadius=0.052mm|HoleSize=0mm|Usage=FLASHONLY|Rotation=0.000|XOffset=0mm|YOffset=0mm|HoleType=Round|Shape=RoundedRectangle|*
%AMROUNDEDRECTD42*
21,1,2.10000,0.69600,0,0,0.0*
21,1,1.99600,0.80000,0,0,0.0*
1,1,0.10400,0.99800,-0.34800*
1,1,0.10400,-0.99800,-0.34800*
1,1,0.10400,-0.99800,0.34800*
1,1,0.10400,0.99800,0.34800*
%
%ADD42ROUNDEDRECTD42*%
%TA.AperFunction,SMDPad,CuDef*%
%ADD43R,1.45000X0.35000*%
%ADD44R,0.74000X2.79000*%
%ADD45R,0.80000X0.95000*%
%ADD46R,1.45620X1.25464*%
%ADD47R,2.30620X1.55490*%
%ADD48R,0.52000X0.45000*%
%ADD49R,0.52000X0.48000*%
%ADD50R,1.35620X1.05464*%
%ADD51R,0.91000X1.22000*%
%TA.AperFunction,SMDPad,SMDef*%
%ADD52C,1.17000*%
%TA.AperFunction,SMDPad,CuDef*%
%ADD53R,0.96213X0.91340*%
%ADD54R,1.27000X3.68000*%
%ADD55R,1.05000X1.40000*%
%ADD56O,1.90000X0.60000*%
%TA.AperFunction,SMDPad,SMDef*%
G04:AMPARAMS|DCode=57|XSize=1.1mm|YSize=4.74mm|CornerRadius=0.0495mm|HoleSize=0mm|Usage=FLASHONLY|Rotation=0.000|XOffset=0mm|YOffset=0mm|HoleType=Round|Shape=RoundedRectangle|*
%AMROUNDEDRECTD57*
21,1,1.10000,4.64100,0,0,0.0*
21,1,1.00100,4.74000,0,0,0.0*
1,1,0.09900,0.50050,-2.32050*
1,1,0.09900,-0.50050,-2.32050*
1,1,0.09900,-0.50050,2.32050*
1,1,0.09900,0.50050,2.32050*
%
%ADD57ROUNDEDRECTD57*%
G04:AMPARAMS|DCode=58|XSize=0.5mm|YSize=0.8mm|CornerRadius=0.05mm|HoleSize=0mm|Usage=FLASHONLY|Rotation=0.000|XOffset=0mm|YOffset=0mm|HoleType=Round|Shape=RoundedRectangle|*
%AMROUNDEDRECTD58*
21,1,0.50000,0.70000,0,0,0.0*
21,1,0.40000,0.80000,0,0,0.0*
1,1,0.10000,0.20000,-0.35000*
1,1,0.10000,-0.20000,-0.35000*
1,1,0.10000,-0.20000,0.35000*
1,1,0.10000,0.20000,0.35000*
%
%ADD58ROUNDEDRECTD58*%
%ADD59C,1.89000*%
%TA.AperFunction,SMDPad,CuDef*%
G04:AMPARAMS|DCode=60|XSize=0.57mm|YSize=0.22mm|CornerRadius=0.0363mm|HoleSize=0mm|Usage=FLASHONLY|Rotation=180.000|XOffset=0mm|YOffset=0mm|HoleType=Round|Shape=RoundedRectangle|*
%AMROUNDEDRECTD60*
21,1,0.57000,0.14740,0,0,180.0*
21,1,0.49740,0.22000,0,0,180.0*
1,1,0.07260,-0.24870,0.07370*
1,1,0.07260,0.24870,0.07370*
1,1,0.07260,0.24870,-0.07370*
1,1,0.07260,-0.24870,-0.07370*
%
%ADD60ROUNDEDRECTD60*%
%ADD61R,0.46500X0.46000*%
%ADD62R,0.46000X0.47247*%
%ADD63R,0.47247X0.46000*%
%ADD64O,1.90000X0.35000*%
%ADD65R,1.15000X0.57000*%
%ADD66R,0.90000X0.70000*%
%ADD67R,0.65000X0.70000*%
%ADD68R,0.80000X1.00000*%
%ADD69R,1.00000X0.80000*%
%ADD70R,0.60000X0.90000*%
%ADD71R,0.70000X0.70000*%
%ADD72R,1.70000X1.10000*%
%ADD73R,2.00000X2.80000*%
%ADD74R,1.40000X1.05000*%
%ADD75R,0.60000X0.80000*%
%ADD76R,0.70000X0.65000*%
%ADD77R,0.95000X1.35000*%
%ADD78R,1.05000X0.90000*%
%ADD79R,0.94000X0.75000*%
%ADD80R,0.67248X0.66817*%
%ADD81R,0.62000X0.65000*%
G04:AMPARAMS|DCode=82|XSize=0.6mm|YSize=0.22mm|CornerRadius=0.044mm|HoleSize=0mm|Usage=FLASHONLY|Rotation=0.000|XOffset=0mm|YOffset=0mm|HoleType=Round|Shape=RoundedRectangle|*
%AMROUNDEDRECTD82*
21,1,0.60000,0.13200,0,0,0.0*
21,1,0.51200,0.22000,0,0,0.0*
1,1,0.08800,0.25600,-0.06600*
1,1,0.08800,-0.25600,-0.06600*
1,1,0.08800,-0.25600,0.06600*
1,1,0.08800,0.25600,0.06600*
%
%ADD82ROUNDEDRECTD82*%
G04:AMPARAMS|DCode=83|XSize=0.6mm|YSize=0.215mm|CornerRadius=0.043mm|HoleSize=0mm|Usage=FLASHONLY|Rotation=0.000|XOffset=0mm|YOffset=0mm|HoleType=Round|Shape=RoundedRectangle|*
%AMROUNDEDRECTD83*
21,1,0.60000,0.12900,0,0,0.0*
21,1,0.51400,0.21500,0,0,0.0*
1,1,0.08600,0.25700,-0.06450*
1,1,0.08600,-0.25700,-0.06450*
1,1,0.08600,-0.25700,0.06450*
1,1,0.08600,0.25700,0.06450*
%
%ADD83ROUNDEDRECTD83*%
%ADD84R,0.62000X0.58000*%
%ADD85R,1.50822X1.40574*%
%ADD86R,0.80000X2.00000*%
%ADD87R,0.80000X0.90000*%
%ADD88R,0.95000X0.75000*%
%ADD89R,0.90000X0.80000*%
%ADD90R,0.35000X0.42000*%
%ADD91R,0.95000X0.95000*%
%ADD92R,0.80000X0.60000*%
%ADD93R,0.93000X1.37000*%
%ADD94R,0.45000X0.42000*%
%ADD95R,0.43000X0.45000*%
G04:AMPARAMS|DCode=96|XSize=0.57mm|YSize=0.2mm|CornerRadius=0.033mm|HoleSize=0mm|Usage=FLASHONLY|Rotation=180.000|XOffset=0mm|YOffset=0mm|HoleType=Round|Shape=RoundedRectangle|*
%AMROUNDEDRECTD96*
21,1,0.57000,0.13400,0,0,180.0*
21,1,0.50400,0.20000,0,0,180.0*
1,1,0.06600,-0.25200,0.06700*
1,1,0.06600,0.25200,0.06700*
1,1,0.06600,0.25200,-0.06700*
1,1,0.06600,-0.25200,-0.06700*
%
%ADD96ROUNDEDRECTD96*%
%ADD97R,1.00000X0.75000*%
%ADD98R,0.47000X0.45000*%
%ADD99R,0.75000X0.94000*%
%ADD100R,0.45000X0.47000*%
G04:AMPARAMS|DCode=101|XSize=0.55mm|YSize=1.25mm|CornerRadius=0.0495mm|HoleSize=0mm|Usage=FLASHONLY|Rotation=90.000|XOffset=0mm|YOffset=0mm|HoleType=Round|Shape=RoundedRectangle|*
%AMROUNDEDRECTD101*
21,1,0.55000,1.15100,0,0,90.0*
21,1,0.45100,1.25000,0,0,90.0*
1,1,0.09900,0.57550,0.22550*
1,1,0.09900,0.57550,-0.22550*
1,1,0.09900,-0.57550,-0.22550*
1,1,0.09900,-0.57550,0.22550*
%
%ADD101ROUNDEDRECTD101*%
G04:AMPARAMS|DCode=102|XSize=0.55mm|YSize=1.25mm|CornerRadius=0.0495mm|HoleSize=0mm|Usage=FLASHONLY|Rotation=180.000|XOffset=0mm|YOffset=0mm|HoleType=Round|Shape=RoundedRectangle|*
%AMROUNDEDRECTD102*
21,1,0.55000,1.15100,0,0,180.0*
21,1,0.45100,1.25000,0,0,180.0*
1,1,0.09900,-0.22550,0.57550*
1,1,0.09900,0.22550,0.57550*
1,1,0.09900,0.22550,-0.57550*
1,1,0.09900,-0.22550,-0.57550*
%
%ADD102ROUNDEDRECTD102*%
%ADD103R,2.79000X0.74000*%
%ADD104R,0.25000X0.28000*%
%ADD105R,1.15000X0.60000*%
%ADD106R,0.53000X0.55000*%
%ADD107R,0.66817X0.67248*%
%ADD108R,0.46818X0.47247*%
%ADD109R,0.90000X0.80000*%
%ADD110R,0.95000X0.95000*%
D10*
X3150000Y4336500D02*
D03*
X3645000D02*
D03*
X3150000Y4082500D02*
D03*
X3645000D02*
D03*
X3150000Y3828500D02*
D03*
X3645000D02*
D03*
X15347501Y7582500D02*
D03*
X14852499D02*
D03*
X15347501Y7836500D02*
D03*
X14852499D02*
D03*
X15347501Y8090500D02*
D03*
X14852499D02*
D03*
X9085499Y4874499D02*
D03*
X14964999Y3381502D02*
D03*
Y3127502D02*
D03*
Y2873502D02*
D03*
X14521002Y3127502D02*
D03*
X14964999Y3635502D02*
D03*
X14521002Y3381502D02*
D03*
Y3635502D02*
D03*
Y2873502D02*
D03*
X9529501Y4874499D02*
D03*
X9085499Y4620499D02*
D03*
X9529501D02*
D03*
X9085499Y4366499D02*
D03*
X9529501Y5128499D02*
D03*
Y4366499D02*
D03*
X9085499Y5128499D02*
D03*
D11*
X15350000Y6395000D02*
D03*
X15264999D02*
D03*
D12*
X7605000Y7110130D02*
D03*
Y6985000D02*
D03*
X7587500Y8157433D02*
D03*
Y8282563D02*
D03*
D13*
X15124878Y5440000D02*
D03*
X15285252D02*
D03*
X16990373Y7297500D02*
D03*
X16830000D02*
D03*
X10920187Y5667500D02*
D03*
X10759813D02*
D03*
D14*
X9190000Y7173186D02*
D03*
Y7012812D02*
D03*
X9220000Y5905122D02*
D03*
Y5744749D02*
D03*
X6397500Y4285124D02*
D03*
Y4124750D02*
D03*
X4687500Y2980122D02*
D03*
Y2819748D02*
D03*
X10872500Y3927687D02*
D03*
Y3767314D02*
D03*
X16032500Y5020187D02*
D03*
Y4859813D02*
D03*
D15*
X5245000Y8322500D02*
D03*
X5055000D02*
D03*
X17345000Y3252500D02*
D03*
X17535001D02*
D03*
X17342500Y3610000D02*
D03*
X17532500D02*
D03*
X17337500Y4332500D02*
D03*
X17527499D02*
D03*
X17332500Y3942500D02*
D03*
X17522501D02*
D03*
X5265000Y7270000D02*
D03*
X5455000D02*
D03*
X5415000Y6535000D02*
D03*
X5225000D02*
D03*
X5175000Y7597500D02*
D03*
X4985000D02*
D03*
D16*
X14152499Y6677411D02*
D03*
Y6812588D02*
D03*
D17*
X9835000Y8067500D02*
D03*
X9695000D02*
D03*
X11222498Y6372500D02*
D03*
X11362498D02*
D03*
X7157500Y5100000D02*
D03*
X7017500D02*
D03*
X5472500Y3900000D02*
D03*
X5332500D02*
D03*
X10984999Y8080001D02*
D03*
X7344999Y3830000D02*
D03*
X11125004Y8080001D02*
D03*
X7205000Y3830000D02*
D03*
D18*
X12287001Y5032299D02*
D03*
X11637000D02*
D03*
X12387001Y3884696D02*
D03*
X11936999Y5032299D02*
D03*
X11687002Y3884696D02*
D03*
X11787002D02*
D03*
X12087001D02*
D03*
X12036999Y5032299D02*
D03*
X12387001D02*
D03*
X11987002Y3884696D02*
D03*
X11936999D02*
D03*
X12236999Y5032299D02*
D03*
X12136999D02*
D03*
X11836999D02*
D03*
X12287001Y3884696D02*
D03*
X12236999D02*
D03*
X11637000D02*
D03*
X11687002Y5032299D02*
D03*
D19*
X12585802Y4283497D02*
D03*
Y4433499D02*
D03*
Y4183497D02*
D03*
X11438199Y4283497D02*
D03*
Y4483496D02*
D03*
X12585802Y4683496D02*
D03*
X11438199Y4383496D02*
D03*
X12585802Y4783496D02*
D03*
Y4083497D02*
D03*
Y4833498D02*
D03*
Y4333499D02*
D03*
X11438199Y4083497D02*
D03*
Y4183497D02*
D03*
Y4683496D02*
D03*
Y4583496D02*
D03*
Y4783496D02*
D03*
Y4833498D02*
D03*
X12585802Y4533499D02*
D03*
D20*
X11438199Y4633498D02*
D03*
X12585802Y4133499D02*
D03*
Y4233499D02*
D03*
X11438199D02*
D03*
X12585802Y4483496D02*
D03*
X11438199Y4333499D02*
D03*
X12585802Y4733498D02*
D03*
Y4583496D02*
D03*
X11438199Y4533499D02*
D03*
Y4433499D02*
D03*
X12585802Y4383496D02*
D03*
X11438199Y4733498D02*
D03*
Y4133499D02*
D03*
X12585802Y4633498D02*
D03*
D21*
X12187001Y5032299D02*
D03*
X11887002D02*
D03*
X11787002D02*
D03*
X11737000D02*
D03*
Y3884696D02*
D03*
X11836999D02*
D03*
X11887002D02*
D03*
X12036999D02*
D03*
X12136999D02*
D03*
X12087001Y5032299D02*
D03*
X12187001Y3884696D02*
D03*
X11987002Y5032299D02*
D03*
X12336998D02*
D03*
Y3884696D02*
D03*
D22*
X9662500Y3119999D02*
D03*
X6995000Y5300000D02*
D03*
X6865000D02*
D03*
X7470001Y5332500D02*
D03*
X11442500Y8080000D02*
D03*
X11572500D02*
D03*
X9512500Y6855000D02*
D03*
X9642500D02*
D03*
X7340000Y5332500D02*
D03*
X5730000Y4247500D02*
D03*
X5600000D02*
D03*
X11025000Y8240000D02*
D03*
X11155000D02*
D03*
X8492500Y3939997D02*
D03*
X8622502D02*
D03*
X10095001Y3410001D02*
D03*
X9100002Y3912499D02*
D03*
X10035002Y3920002D02*
D03*
X10002500Y3632500D02*
D03*
X9572503Y3920002D02*
D03*
X9442501D02*
D03*
X9964999Y3410001D02*
D03*
X9532498Y3119999D02*
D03*
X9872497Y3632500D02*
D03*
X9904999Y3920002D02*
D03*
X8970000Y3912499D02*
D03*
D23*
X13957500Y2675000D02*
D03*
X14102499D02*
D03*
X13902499Y3300000D02*
D03*
X13757500D02*
D03*
X14555000Y3932500D02*
D03*
X14700000D02*
D03*
X15372501Y2687500D02*
D03*
X15517500D02*
D03*
D24*
X17767500Y7040000D02*
D03*
Y7205000D02*
D03*
X16082500Y5440000D02*
D03*
Y5275000D02*
D03*
D25*
X16472499Y6179998D02*
D03*
X17547501Y6667500D02*
D03*
X17321501Y6540500D02*
D03*
Y6794500D02*
D03*
X17306496Y6307000D02*
D03*
X16246500Y6052998D02*
D03*
X17532500Y6180000D02*
D03*
X17306496Y6053000D02*
D03*
X16246500Y6306998D02*
D03*
X16475502Y6570502D02*
D03*
Y6824502D02*
D03*
X16249498Y6697502D02*
D03*
D26*
X12620000Y5945002D02*
D03*
X15372501Y7132500D02*
D03*
X5318498Y4173459D02*
D03*
Y4043459D02*
D03*
X9825000Y6725000D02*
D03*
Y6855000D02*
D03*
X12005001Y6077502D02*
D03*
X11530001Y5902501D02*
D03*
X11317502Y5910001D02*
D03*
X9884999Y2647498D02*
D03*
X12392503Y5937499D02*
D03*
X12200002Y5932504D02*
D03*
X12005001Y5947499D02*
D03*
X11765001Y5922499D02*
D03*
X12847498Y5949996D02*
D03*
X15372501Y7002503D02*
D03*
X9884999Y2777500D02*
D03*
X11317502Y6039998D02*
D03*
X11530001Y6032503D02*
D03*
X12620000Y6075004D02*
D03*
X12392503Y6067501D02*
D03*
X12847498Y6079998D02*
D03*
X12200002Y6062501D02*
D03*
X11765001Y6052502D02*
D03*
D27*
X17302499Y7382500D02*
D03*
X17467500D02*
D03*
X17505000Y7120000D02*
D03*
X17339999D02*
D03*
X4007500Y7552004D02*
D03*
X3842496D02*
D03*
X5610001Y5919998D02*
D03*
X5445003D02*
D03*
D28*
X4997503Y6925004D02*
D03*
X5442501D02*
D03*
X4997503Y6860001D02*
D03*
X5442501D02*
D03*
Y6795002D02*
D03*
X4997503D02*
D03*
X5442501Y6990003D02*
D03*
X4997503D02*
D03*
D29*
X7297501Y8282498D02*
D03*
X5349646Y7700000D02*
D03*
X5456969Y7927503D02*
D03*
X6417142Y7830002D02*
D03*
X7373214Y8282498D02*
D03*
X6492855Y7830002D02*
D03*
X5532681Y7927503D02*
D03*
X5425359Y7700000D02*
D03*
D30*
X7287499Y8017002D02*
D03*
X6735003Y5592999D02*
D03*
X6717502Y6397000D02*
D03*
X6797502Y7763002D02*
D03*
X7225000Y5846999D02*
D03*
X7207499Y6651000D02*
D03*
X6735003Y5719999D02*
D03*
X7287499Y7636002D02*
D03*
X6717502Y6778000D02*
D03*
X6735003Y5973999D02*
D03*
X6797502Y7890002D02*
D03*
X7287499D02*
D03*
X6797502Y7636002D02*
D03*
X7287499Y7763002D02*
D03*
X6797502Y8017002D02*
D03*
X7225000Y5592999D02*
D03*
X6717502Y6651000D02*
D03*
X7207499Y6524000D02*
D03*
X6735003Y5846999D02*
D03*
X7225000Y5719999D02*
D03*
X7207499Y6397000D02*
D03*
Y6778000D02*
D03*
X6717502Y6524000D02*
D03*
X7225000Y5973999D02*
D03*
D31*
X6390000Y5797144D02*
D03*
X6417498Y6400002D02*
D03*
X7525202Y5983077D02*
D03*
X7504999Y6674998D02*
D03*
X5445003Y8092140D02*
D03*
Y8167853D02*
D03*
X7504999Y6750710D02*
D03*
X7525202Y5907364D02*
D03*
X6417498Y6324290D02*
D03*
X6390000Y5872856D02*
D03*
D32*
X16154420Y2862499D02*
D03*
X16297499D02*
D03*
D33*
X16382503Y5435001D02*
D03*
Y5035001D02*
D03*
D34*
X5671790Y6707500D02*
D03*
X5714643Y6895002D02*
D03*
X5609646Y7107499D02*
D03*
X5685358D02*
D03*
X5790356Y6895002D02*
D03*
X5747502Y6707500D02*
D03*
D35*
X16937500Y2804571D02*
D03*
Y2895000D02*
D03*
D36*
X17249998Y2812501D02*
D03*
X17435246D02*
D03*
X15312502Y6662501D02*
D03*
X15127254D02*
D03*
D37*
X16962502Y5237500D02*
D03*
X17492497D02*
D03*
D38*
X16174998Y3136499D02*
D03*
X17075003D02*
D03*
X16174998Y4573499D02*
D03*
X17075003D02*
D03*
D39*
X16139998Y3295000D02*
D03*
Y3734999D02*
D03*
Y3934998D02*
D03*
Y4094998D02*
D03*
Y4254998D02*
D03*
Y4414998D02*
D03*
X17109999Y3934998D02*
D03*
Y4094998D02*
D03*
Y4254998D02*
D03*
Y4414998D02*
D03*
D40*
X16139998Y3514999D02*
D03*
X17109999Y3335000D02*
D03*
Y3255000D02*
D03*
X16139998Y3434999D02*
D03*
Y3614999D02*
D03*
D41*
X16652890Y3681049D02*
D03*
D42*
X16705000Y3070001D02*
D03*
X16385002Y4640001D02*
D03*
D43*
X5162499Y7862494D02*
D03*
Y7927497D02*
D03*
Y8057495D02*
D03*
X4717501Y7862494D02*
D03*
Y8057495D02*
D03*
X5162499Y7992496D02*
D03*
X4717501Y7927497D02*
D03*
Y7992496D02*
D03*
D44*
X5022002Y6120003D02*
D03*
X4895002D02*
D03*
X4768002D02*
D03*
X5022002Y5713004D02*
D03*
X4895002D02*
D03*
X4768002D02*
D03*
D45*
X14267500Y4727499D02*
D03*
X14402501D02*
D03*
D46*
X14707500Y4772503D02*
D03*
Y4937658D02*
D03*
D47*
X15120000Y4834936D02*
D03*
Y5060061D02*
D03*
D48*
X7600002Y5628998D02*
D03*
X6555001Y8166500D02*
D03*
X7600002Y5551000D02*
D03*
X6555001Y8088502D02*
D03*
D49*
X7499998Y6396498D02*
D03*
Y6318499D02*
D03*
D50*
X14625002Y6972422D02*
D03*
Y7117578D02*
D03*
D51*
X14852498Y6977502D02*
D03*
X15179497D02*
D03*
D52*
X16975500Y3474999D02*
D03*
D53*
X4702501Y7105455D02*
D03*
Y6964546D02*
D03*
D54*
X3729000Y5822500D02*
D03*
Y5378503D02*
D03*
X3475000Y5822500D02*
D03*
Y5378503D02*
D03*
X3221000D02*
D03*
X2967000Y5822500D02*
D03*
Y5378503D02*
D03*
X3221000Y5822500D02*
D03*
D55*
X6562501Y5367500D02*
D03*
X10230002Y5499999D02*
D03*
X6372499Y5367500D02*
D03*
X4925995Y4105961D02*
D03*
X10040000Y5499999D02*
D03*
X5115997Y4105961D02*
D03*
D56*
X7184502Y4887199D02*
D03*
X12772502Y7021500D02*
D03*
Y6386500D02*
D03*
X11734998Y7177999D02*
D03*
X11264997Y6796999D02*
D03*
X12302500Y6640500D02*
D03*
Y6513500D02*
D03*
X11734998Y6542999D02*
D03*
X11264997Y6669999D02*
D03*
X9280002Y3413999D02*
D03*
X8810000Y2905999D02*
D03*
Y3032999D02*
D03*
X9280002Y2778999D02*
D03*
X7182348Y3428843D02*
D03*
X6712346Y3047843D02*
D03*
X7182348Y2793843D02*
D03*
X6712346Y2920843D02*
D03*
X7184502Y4760199D02*
D03*
X4969998Y3452002D02*
D03*
X6714500Y4633199D02*
D03*
X9482501Y6292002D02*
D03*
X9432498Y7576002D02*
D03*
X5439999Y2944002D02*
D03*
X11264997Y6542999D02*
D03*
X11734998Y7050999D02*
D03*
X11264997Y7304999D02*
D03*
X11734998Y6923999D02*
D03*
Y6669999D02*
D03*
Y6796999D02*
D03*
X11264997Y7177999D02*
D03*
Y7050999D02*
D03*
X11734998Y7304999D02*
D03*
X11264997Y6923999D02*
D03*
X5439999Y3325002D02*
D03*
X6712346Y3174843D02*
D03*
X8810000Y3159999D02*
D03*
X7184502Y4506199D02*
D03*
X9952502Y6165002D02*
D03*
X9902500Y7449002D02*
D03*
X12302500Y6767500D02*
D03*
X12772502Y7148500D02*
D03*
X9432498Y7449002D02*
D03*
X9482501Y6165002D02*
D03*
X9280002Y3540999D02*
D03*
X6714500Y4506199D02*
D03*
X7182348Y3555843D02*
D03*
X4969998Y3325002D02*
D03*
X9432498Y7068002D02*
D03*
X9902500Y7576002D02*
D03*
Y7703002D02*
D03*
Y7195002D02*
D03*
X9432498Y7830002D02*
D03*
Y7703002D02*
D03*
Y7322002D02*
D03*
Y7195002D02*
D03*
X9902500Y7830002D02*
D03*
Y7322002D02*
D03*
Y7068002D02*
D03*
X12302500Y6894500D02*
D03*
Y7021500D02*
D03*
X9952502Y5911002D02*
D03*
Y6038002D02*
D03*
Y6292002D02*
D03*
Y6419002D02*
D03*
Y6546002D02*
D03*
X9482501Y6038002D02*
D03*
Y6419002D02*
D03*
Y6546002D02*
D03*
Y5911002D02*
D03*
Y5784002D02*
D03*
X9952502D02*
D03*
X6714500Y4760199D02*
D03*
Y4887199D02*
D03*
X7184502Y4379199D02*
D03*
Y4633199D02*
D03*
X6714500Y4379199D02*
D03*
Y4252199D02*
D03*
X7184502D02*
D03*
Y4125199D02*
D03*
X6714500D02*
D03*
X5439999Y3198002D02*
D03*
X4969998Y3071002D02*
D03*
Y2944002D02*
D03*
X5439999Y3452002D02*
D03*
Y3579002D02*
D03*
Y3706002D02*
D03*
X4969998Y3198002D02*
D03*
Y3579002D02*
D03*
Y3706002D02*
D03*
X5439999Y3071002D02*
D03*
X6712346Y3301843D02*
D03*
Y3428843D02*
D03*
X7182348Y2920843D02*
D03*
Y3301843D02*
D03*
Y3174843D02*
D03*
Y3047843D02*
D03*
X6712346Y3555843D02*
D03*
Y2793843D02*
D03*
X8810000Y2778999D02*
D03*
X9280002Y3286999D02*
D03*
X8810000Y3540999D02*
D03*
X9280002Y2905999D02*
D03*
Y3159999D02*
D03*
Y3032999D02*
D03*
X8810000Y3286999D02*
D03*
Y3413999D02*
D03*
X12772502Y6513500D02*
D03*
Y6894500D02*
D03*
Y6767500D02*
D03*
Y6640500D02*
D03*
X12302500Y6386500D02*
D03*
Y7148500D02*
D03*
D57*
X16385002Y4254998D02*
D03*
D58*
X16945000Y3070001D02*
D03*
X16865001D02*
D03*
X16545001D02*
D03*
X16465001D02*
D03*
X16385002D02*
D03*
X16305002D02*
D03*
D59*
X16865001Y4265000D02*
D03*
D60*
X14401500Y4987503D02*
D03*
Y4937501D02*
D03*
X14253500Y5037501D02*
D03*
Y4937501D02*
D03*
D61*
X14887498Y4462856D02*
D03*
Y4387144D02*
D03*
D62*
X14031789Y5759999D02*
D03*
X12472502Y5282499D02*
D03*
X11705356Y5302500D02*
D03*
X12875357Y4629993D02*
D03*
X12967500Y4052500D02*
D03*
X12359645Y3677503D02*
D03*
X11629644Y5302500D02*
D03*
X12396790Y5282499D02*
D03*
X12951070Y4629993D02*
D03*
X12891788Y4052500D02*
D03*
X12435357Y3677503D02*
D03*
X14107500Y5759999D02*
D03*
D63*
X15032503Y5939648D02*
D03*
X15020000Y5805714D02*
D03*
Y5730001D02*
D03*
X15032503Y6015360D02*
D03*
D64*
X14779832Y5859866D02*
D03*
X14339835D02*
D03*
X14779832Y5794868D02*
D03*
Y5989869D02*
D03*
Y5924870D02*
D03*
X14339835D02*
D03*
Y5989869D02*
D03*
Y5794868D02*
D03*
D65*
X14607500Y6612499D02*
D03*
Y6517498D02*
D03*
Y6707500D02*
D03*
D66*
X15647502Y6482502D02*
D03*
X5455001Y2705003D02*
D03*
Y2564999D02*
D03*
X11042498Y7175002D02*
D03*
X15647502Y6622501D02*
D03*
X11042498Y7315007D02*
D03*
D67*
X12892496Y7332502D02*
D03*
X8440001Y8237501D02*
D03*
X9147500Y6159998D02*
D03*
X8530001Y6707500D02*
D03*
X8964996Y5790001D02*
D03*
X2979994Y2775001D02*
D03*
X2844998D02*
D03*
X8830000Y5790001D02*
D03*
X12757501Y7332502D02*
D03*
X9282496Y6159998D02*
D03*
X8664997Y6707500D02*
D03*
X8574997Y8237501D02*
D03*
D68*
X12822499Y8235000D02*
D03*
X9677502Y3330001D02*
D03*
X9527499D02*
D03*
X12672502Y8235000D02*
D03*
D69*
X12750002Y7922504D02*
D03*
X12460097Y7917398D02*
D03*
X12192498Y7917500D02*
D03*
X11842504Y7605003D02*
D03*
X11615000Y7607500D02*
D03*
X11342502Y7604999D02*
D03*
X11062498Y7612502D02*
D03*
X8527501Y3632500D02*
D03*
X9592498Y2640000D02*
D03*
X7575000Y3160000D02*
D03*
X8427502Y2740000D02*
D03*
X7497501Y2682499D02*
D03*
X6410000Y2960004D02*
D03*
X12487499Y3304997D02*
D03*
X11615000Y7757497D02*
D03*
X12487499Y3155000D02*
D03*
X8427502Y2589997D02*
D03*
X12192498Y7767498D02*
D03*
X7575000Y3310002D02*
D03*
X9592498Y2789997D02*
D03*
X8527501Y3482497D02*
D03*
X7497501Y2832501D02*
D03*
X6434999Y3712505D02*
D03*
X6410000Y2810002D02*
D03*
X12460097Y7767396D02*
D03*
X12750002Y7772502D02*
D03*
X11842504Y7755005D02*
D03*
X11342502Y7755001D02*
D03*
X11062498Y7762504D02*
D03*
X6434999Y3562502D02*
D03*
D70*
X15377499Y5759999D02*
D03*
X15282500D02*
D03*
X15377499Y5999998D02*
D03*
X15472501Y5759999D02*
D03*
Y5999998D02*
D03*
X15282500D02*
D03*
D71*
X15530002Y5475000D02*
D03*
Y5615000D02*
D03*
D72*
X14043233Y5931809D02*
D03*
Y6191814D02*
D03*
D73*
X14567499Y5432501D02*
D03*
X14117497D02*
D03*
D74*
X11942501Y8242503D02*
D03*
Y8052501D02*
D03*
D75*
X11617503Y8252501D02*
D03*
X11782500Y6367502D02*
D03*
X9147500Y6372499D02*
D03*
X7564999Y4730003D02*
D03*
X5527497Y5290002D02*
D03*
X5800000Y3572500D02*
D03*
X4597500Y3187500D02*
D03*
X9507500Y8135002D02*
D03*
X9377502D02*
D03*
X5752501Y4437502D02*
D03*
X5622503D02*
D03*
X11652498Y6367502D02*
D03*
X9277497Y6372499D02*
D03*
X9809998Y8244997D02*
D03*
X11487501Y8252501D02*
D03*
X5657499Y5290002D02*
D03*
X7435002Y4730003D02*
D03*
X9940000Y8244997D02*
D03*
X5669998Y3572500D02*
D03*
X4727502Y3187500D02*
D03*
D76*
X11974998Y7172498D02*
D03*
X12075003Y6647500D02*
D03*
X11030000Y6770003D02*
D03*
X10122499Y7584999D02*
D03*
X9197503Y7600000D02*
D03*
X8862502Y7022501D02*
D03*
X10217500Y6312499D02*
D03*
X9522501Y3527501D02*
D03*
X7507498Y4457502D02*
D03*
X7452502Y3490001D02*
D03*
X8497499Y3102503D02*
D03*
X6367501Y4627499D02*
D03*
X5644998Y5027498D02*
D03*
X4689998Y4429999D02*
D03*
X4639999Y3497499D02*
D03*
X6422502Y3312498D02*
D03*
X3600000Y3342500D02*
D03*
X5777499Y3205002D02*
D03*
X6422502Y3177502D02*
D03*
X5777499Y3340003D02*
D03*
X8497499Y3237499D02*
D03*
X4689998Y4564995D02*
D03*
X7507498Y4592503D02*
D03*
X8862502Y7157502D02*
D03*
X10217500Y6177498D02*
D03*
X11030000Y6904999D02*
D03*
X10122499Y7450003D02*
D03*
X12075003Y6782501D02*
D03*
X9197503Y7465004D02*
D03*
X11974998Y7307494D02*
D03*
X9522501Y3662497D02*
D03*
X5644998Y4892502D02*
D03*
X6367501Y4762495D02*
D03*
X7452502Y3624997D02*
D03*
X4639999Y3362504D02*
D03*
X3600000Y3207504D02*
D03*
D77*
X11252500Y5360005D02*
D03*
X11402502D02*
D03*
D78*
X15512502Y5020005D02*
D03*
Y4875002D02*
D03*
D79*
X15490991Y4407546D02*
D03*
Y4267546D02*
D03*
D80*
X16695624Y2794568D02*
D03*
Y2895000D02*
D03*
X6317498Y7247285D02*
D03*
Y7347717D02*
D03*
D81*
X15485005Y4082501D02*
D03*
X15385001D02*
D03*
D82*
X15097498Y4270004D02*
D03*
Y4120001D02*
D03*
X15227495D02*
D03*
Y4270004D02*
D03*
D83*
X15097498Y4170004D02*
D03*
X15227495D02*
D03*
Y4220001D02*
D03*
X15097498D02*
D03*
D84*
X14819998Y4221002D02*
D03*
Y4129003D02*
D03*
D85*
X14014999Y4779752D02*
D03*
Y4964999D02*
D03*
D86*
X14170000Y4257502D02*
D03*
X14589999D02*
D03*
D87*
X12792502Y3290001D02*
D03*
X12942499D02*
D03*
D88*
X12939999Y2822499D02*
D03*
X12794996Y2937500D02*
D03*
Y2822499D02*
D03*
X12939999Y2937500D02*
D03*
D89*
X12490003Y2674996D02*
D03*
X5685003Y2722499D02*
D03*
X10267500Y7207504D02*
D03*
X5685003Y2572497D02*
D03*
X7477501Y4012499D02*
D03*
X10252500Y5747498D02*
D03*
X10267500Y7057502D02*
D03*
X10252500Y5897500D02*
D03*
X7477501Y4162501D02*
D03*
X12490003Y2824998D02*
D03*
D90*
X11253001Y4050001D02*
D03*
X11187002D02*
D03*
D91*
X12242500Y2572500D02*
D03*
X11045003Y2640000D02*
D03*
X12222500Y3222498D02*
D03*
X11014999Y3282502D02*
D03*
X12242500Y2717504D02*
D03*
X11014999Y3137504D02*
D03*
X12222500Y3077500D02*
D03*
X11045003Y2784999D02*
D03*
D92*
X9215001Y7979999D02*
D03*
X6350000Y5190002D02*
D03*
X5800001Y3849996D02*
D03*
Y3719998D02*
D03*
X8832499Y8107503D02*
D03*
X9017500Y8235004D02*
D03*
X8832499Y8237500D02*
D03*
X9612498Y5452501D02*
D03*
Y5582498D02*
D03*
X3585002Y3087502D02*
D03*
Y2957500D02*
D03*
X5662498Y4760001D02*
D03*
X9260002Y6547500D02*
D03*
Y6677503D02*
D03*
X11030001Y6387495D02*
D03*
X5662498Y4629998D02*
D03*
X7462500Y4964999D02*
D03*
X9215001Y7849996D02*
D03*
X7462500Y5095001D02*
D03*
X9017500Y8105002D02*
D03*
X9775002Y5447502D02*
D03*
Y5577500D02*
D03*
X11030001Y6517498D02*
D03*
X3754999Y3087497D02*
D03*
X6350000Y5060005D02*
D03*
X3754999Y2957500D02*
D03*
X4692498Y3917498D02*
D03*
Y4047500D02*
D03*
D93*
X15167497Y4435003D02*
D03*
X15324501D02*
D03*
D94*
X12915001Y4780001D02*
D03*
X11270000Y3820003D02*
D03*
X12915001Y4860000D02*
D03*
X11270000Y3900002D02*
D03*
D95*
X12892245Y3835254D02*
D03*
X12812247D02*
D03*
D96*
X14401500Y5037501D02*
D03*
X14253500Y4987503D02*
D03*
D97*
X7622499Y7882438D02*
D03*
Y7732436D02*
D03*
X6582501Y7372497D02*
D03*
X6827500Y7222500D02*
D03*
Y7372497D02*
D03*
X7427498Y7200001D02*
D03*
Y7350003D02*
D03*
X6582501Y7222500D02*
D03*
D98*
X3002502Y3517500D02*
D03*
X3077503D02*
D03*
X8497499Y5780004D02*
D03*
X8572500D02*
D03*
X8412499Y7210000D02*
D03*
X8487500D02*
D03*
X3342502Y3520004D02*
D03*
X4987498Y5217500D02*
D03*
X8574999Y5564998D02*
D03*
X8494999Y7022501D02*
D03*
X8499998Y5564998D02*
D03*
X5062499Y5217500D02*
D03*
X8419998Y7022501D02*
D03*
X3417503Y3520004D02*
D03*
D99*
X15464999Y6150000D02*
D03*
X15325000D02*
D03*
D100*
X4675002Y5090003D02*
D03*
Y5015001D02*
D03*
D101*
X2844998Y3342503D02*
D03*
X4924999Y5015001D02*
D03*
X2844998Y2961503D02*
D03*
X4924999Y4634001D02*
D03*
X5449997Y4888001D02*
D03*
X3369996Y3215503D02*
D03*
X5449997Y4761001D02*
D03*
Y4634001D02*
D03*
Y5015001D02*
D03*
X4924999Y4761001D02*
D03*
Y4888001D02*
D03*
X3369996Y3342503D02*
D03*
X2844998Y3088503D02*
D03*
X3369996Y2961503D02*
D03*
Y3088503D02*
D03*
X2844998Y3215503D02*
D03*
D102*
X8532002Y5974999D02*
D03*
X8504001Y7400000D02*
D03*
X8913002Y5974999D02*
D03*
X8885001Y7400000D02*
D03*
X8659002Y6499997D02*
D03*
X8631001Y7924998D02*
D03*
Y7400000D02*
D03*
X8758001D02*
D03*
X8504001Y7924998D02*
D03*
X8758001D02*
D03*
X8885001D02*
D03*
X8786002Y6499997D02*
D03*
X8659002Y5974999D02*
D03*
X8532002Y6499997D02*
D03*
X8786002Y5974999D02*
D03*
X8913002Y6499997D02*
D03*
D103*
X11860002Y2946999D02*
D03*
X11453002D02*
D03*
X3382004Y7904500D02*
D03*
Y7777500D02*
D03*
Y7650500D02*
D03*
X2975000D02*
D03*
Y7777500D02*
D03*
Y7904500D02*
D03*
X11453002Y3073999D02*
D03*
X11860002D02*
D03*
X11453002Y2819999D02*
D03*
X11860002D02*
D03*
D104*
X15075002Y6435000D02*
D03*
X15020000D02*
D03*
D105*
X14867499Y6707500D02*
D03*
Y6517498D02*
D03*
D106*
X15555002Y7012500D02*
D03*
X15639999D02*
D03*
D107*
X6405001Y7615001D02*
D03*
X6304570D02*
D03*
D108*
X7107072Y7145000D02*
D03*
X7187499D02*
D03*
X7102287Y7349998D02*
D03*
X7182714D02*
D03*
D109*
X5410002Y5652501D02*
D03*
X3982501Y8017002D02*
D03*
X3812499D02*
D03*
X5580004Y5652501D02*
D03*
D110*
X3962496Y7782001D02*
D03*
X3817498D02*
D03*
X5572501Y6170000D02*
D03*
X5427502D02*
D03*
%TF.MD5,44d8e2e51560417ff575831b2d0f60ed*%
M02*
