%TF.GenerationSoftware,Altium Limited,Altium Designer,25.7.1 (20)*%
G04 Layer_Color=0*
%FSLAX45Y45*%
%MOMM*%
%TF.SameCoordinates,D8C98939-B5AC-4A14-9F93-74B2487226E3*%
%TF.FilePolarity,Positive*%
%TF.FileFunction,Other,Top_Component_Center*%
%TF.Part,Single*%
G01*
G75*
%TA.AperFunction,NonConductor*%
%ADD122C,0.10000*%
D122*
X7555000Y7047565D02*
X7655000D01*
X7605000Y6997565D02*
Y7097565D01*
X7537500Y8219998D02*
X7637500D01*
X7587500Y8169998D02*
Y8269998D01*
X15205064Y5390000D02*
Y5490000D01*
X15155064Y5440000D02*
X15255064D01*
X9140000Y7092999D02*
X9240000D01*
X9190000Y7042999D02*
Y7142999D01*
X9170000Y5824935D02*
X9270000D01*
X9220000Y5774935D02*
Y5874935D01*
X6347500Y4204937D02*
X6447500D01*
X6397500Y4154937D02*
Y4254937D01*
X4637500Y2899935D02*
X4737500D01*
X4687500Y2849935D02*
Y2949935D01*
X14102499Y6745000D02*
X14202499D01*
X14152499Y6695000D02*
Y6795000D01*
X16910187Y7247500D02*
Y7347500D01*
X16860187Y7297500D02*
X16960187D01*
X10840000Y5617500D02*
Y5717500D01*
X10790000Y5667500D02*
X10890000D01*
X10822500Y3847500D02*
X10922500D01*
X10872500Y3797500D02*
Y3897500D01*
X15982500Y4940000D02*
X16082500D01*
X16032500Y4890000D02*
Y4990000D01*
X16625002Y3805001D02*
Y3905001D01*
X16574998Y3854999D02*
X16674998D01*
X14837495Y4425000D02*
X14937495D01*
X14887498Y4374998D02*
Y4474997D01*
X15020000Y5717860D02*
Y5817860D01*
X14970003Y5767857D02*
X15070003D01*
X15162495Y4145005D02*
Y4245005D01*
X15112498Y4195003D02*
X15212498D01*
X12397501Y3627506D02*
Y3727506D01*
X12347504Y3677503D02*
X12447504D01*
X7622499Y7757439D02*
Y7857439D01*
X7572502Y7807437D02*
X7672502D01*
X7335357Y8232496D02*
Y8332495D01*
X7285355Y8282498D02*
X7385355D01*
X5597505Y7107499D02*
X5697504D01*
X5647502Y7057497D02*
Y7157496D01*
X14277502Y4987503D02*
X14377502D01*
X14327499Y4937501D02*
Y5037501D01*
X17419501Y6130003D02*
Y6230003D01*
X17369498Y6180000D02*
X17469498D01*
X17384499Y6667500D02*
X17484499D01*
X17434502Y6617503D02*
Y6717502D01*
X17342622Y2762499D02*
Y2862499D01*
X17292619Y2812501D02*
X17392619D01*
X16645625Y2844784D02*
X16745625D01*
X16695624Y2794787D02*
Y2894787D01*
X16937500Y2799786D02*
Y2899785D01*
X16887498Y2849783D02*
X16987497D01*
X4702501Y6984998D02*
Y7084998D01*
X4652499Y7035001D02*
X4752499D01*
X9214998Y6109995D02*
Y6209995D01*
X9165001Y6159998D02*
X9265001D01*
X8812500Y7090004D02*
X8912499D01*
X8862502Y7040001D02*
Y7140001D01*
X5635000Y2647498D02*
X5735000D01*
X5685003Y2597501D02*
Y2697500D01*
X11617503Y5302500D02*
X11717503D01*
X11667500Y5252498D02*
Y5352498D01*
X14292499Y5432501D02*
X14392499D01*
X14342500Y5382499D02*
Y5482499D01*
X13965001Y4872375D02*
X14065001D01*
X14014999Y4822378D02*
Y4922378D01*
X15219878Y6612499D02*
Y6712499D01*
X15169881Y6662501D02*
X15269881D01*
X14574998Y7045000D02*
X14674998D01*
X14625002Y6995002D02*
Y7095002D01*
X15530002Y5495000D02*
Y5595000D01*
X15480000Y5544998D02*
X15579999D01*
X14019643Y5759999D02*
X14119643D01*
X14069644Y5709996D02*
Y5809996D01*
X16175960Y2862499D02*
X16275958D01*
X16225961Y2812501D02*
Y2912501D01*
X14982504Y5977504D02*
X15082504D01*
X15032503Y5927507D02*
Y6027506D01*
X16312500Y6697502D02*
X16412500D01*
X16362502Y6647500D02*
Y6747500D01*
X16309503Y6179998D02*
X16409502D01*
X16359500Y6130000D02*
Y6230000D01*
X6422502Y3195003D02*
Y3295002D01*
X6372499Y3245000D02*
X6472499D01*
X12879646Y4052500D02*
X12979646D01*
X12929643Y4002497D02*
Y4102497D01*
X7457501Y4525005D02*
X7557501D01*
X7507498Y4475002D02*
Y4575002D01*
X6304783Y7615001D02*
X6404783D01*
X6354785Y7564999D02*
Y7664999D01*
X7452502Y3507496D02*
Y3607496D01*
X7402500Y3557499D02*
X7502500D01*
X5777499Y3222503D02*
Y3322503D01*
X5727497Y3272506D02*
X5827497D01*
X6454999Y7780000D02*
Y7879999D01*
X6405001Y7830002D02*
X6505001D01*
X6267501Y7297501D02*
X6367501D01*
X6317498Y7247499D02*
Y7347499D01*
X7147286Y7095002D02*
Y7195002D01*
X7097283Y7145000D02*
X7197283D01*
X6777502Y7297496D02*
X6877502D01*
X6827500Y7247499D02*
Y7347499D01*
X7142500Y7300001D02*
Y7400000D01*
X7092498Y7349998D02*
X7192498D01*
X7377501Y7275002D02*
X7477501D01*
X7427498Y7225000D02*
Y7324999D01*
X6532499Y7297501D02*
X6632499D01*
X6582501Y7247499D02*
Y7347499D01*
X3847500Y8017002D02*
X3947500D01*
X3897497Y7967004D02*
Y8067004D01*
X12867497Y3239999D02*
Y3339998D01*
X12817500Y3290001D02*
X12917500D01*
X4689998Y4447494D02*
Y4547494D01*
X4639996Y4497497D02*
X4739996D01*
X15070003Y4947498D02*
X15170003D01*
X15120000Y4897501D02*
Y4997501D01*
X14707500Y4805081D02*
Y4905080D01*
X14657497Y4855083D02*
X14757497D01*
X11327501Y5310002D02*
Y5410002D01*
X11277498Y5360005D02*
X11377498D01*
X12384649Y5282499D02*
X12484649D01*
X12434646Y5232502D02*
Y5332501D01*
X12913213Y4579991D02*
Y4679991D01*
X12863210Y4629993D02*
X12963210D01*
X12490003Y2700000D02*
Y2799999D01*
X12440001Y2749997D02*
X12540000D01*
X12075003Y6665001D02*
Y6765000D01*
X12025000Y6715003D02*
X12125000D01*
X12775001Y7332502D02*
X12875002D01*
X12824998Y7282500D02*
Y7382500D01*
X11924995Y7239996D02*
X12024995D01*
X11974998Y7189993D02*
Y7289993D01*
X10252500Y5772496D02*
Y5872496D01*
X10202503Y5822499D02*
X10302502D01*
X8547496Y6707500D02*
X8647496D01*
X8597499Y6657503D02*
Y6757502D01*
X8847501Y5790001D02*
X8947501D01*
X8897498Y5739999D02*
Y5839998D01*
X10217500Y6194999D02*
Y6294999D01*
X10167503Y6244996D02*
X10267502D01*
X11030000Y6787504D02*
Y6887503D01*
X10979998Y6837501D02*
X11079998D01*
X10267500Y7082500D02*
Y7182500D01*
X10217503Y7132503D02*
X10317503D01*
X10122499Y7467503D02*
Y7567503D01*
X10072502Y7517501D02*
X10172502D01*
X6367496Y6362146D02*
X6467495D01*
X6417498Y6312149D02*
Y6412149D01*
X7475205Y5945221D02*
X7575205D01*
X7525202Y5895218D02*
Y5995218D01*
X6339997Y5835000D02*
X6439997D01*
X6390000Y5784997D02*
Y5884997D01*
X7455002Y6712854D02*
X7555001D01*
X7504999Y6662857D02*
Y6762857D01*
X9522501Y3544997D02*
Y3644997D01*
X9472498Y3594999D02*
X9572498D01*
X8497499Y3120004D02*
Y3220004D01*
X8447496Y3170001D02*
X8547496D01*
X3600000Y3225000D02*
Y3324999D01*
X3550003Y3275002D02*
X3650002D01*
X7477501Y4037498D02*
Y4137497D01*
X7427504Y4087500D02*
X7527503D01*
X5644998Y4910003D02*
Y5010003D01*
X5595000Y4960000D02*
X5695000D01*
X6367501Y4645000D02*
Y4744999D01*
X6317503Y4694997D02*
X6417503D01*
X8507499Y8187504D02*
Y8287504D01*
X8457496Y8237501D02*
X8557496D01*
X9147500Y7532502D02*
X9247500D01*
X9197503Y7482500D02*
Y7582499D01*
X4590002Y3430002D02*
X4690002D01*
X4639999Y3379999D02*
Y3479999D01*
X2912496Y2724998D02*
Y2824998D01*
X2862499Y2775001D02*
X2962499D01*
X5395001Y8129996D02*
X5495000D01*
X5445003Y8079994D02*
Y8179994D01*
X5387503Y7650002D02*
Y7750002D01*
X5337500Y7700000D02*
X5437500D01*
X5659648Y6707500D02*
X5759648D01*
X5709646Y6657497D02*
Y6757497D01*
X5494825Y7877505D02*
Y7977505D01*
X5444822Y7927503D02*
X5544822D01*
X5752500Y6845000D02*
Y6945000D01*
X5702502Y6895002D02*
X5802502D01*
X5495006Y5602503D02*
Y5702503D01*
X5445003Y5652501D02*
X5545003D01*
%TF.MD5,6f7418fec24dfca5130705fe0c7e489d*%
M02*
