%TF.GenerationSoftware,Altium Limited,Altium Designer,25.7.1 (20)*%
G04 Layer_Color=32768*
%FSLAX45Y45*%
%MOMM*%
%TF.SameCoordinates,D8C98939-B5AC-4A14-9F93-74B2487226E3*%
%TF.FilePolarity,Positive*%
%TF.FileFunction,Other,Top_Courtyard*%
%TF.Part,Single*%
G01*
G75*
%TA.AperFunction,NonConductor*%
%ADD120C,0.20000*%
%ADD122C,0.10000*%
%ADD219C,0.05000*%
%ADD220C,0.00100*%
D120*
X7545000Y6932255D02*
X7665000D01*
Y7162875D01*
X7545000D02*
X7665000D01*
X7545000Y6932255D02*
Y7162875D01*
X7527500Y8335308D02*
X7647500D01*
X7527500Y8104688D02*
Y8335308D01*
Y8104688D02*
X7647500D01*
Y8335308D01*
X15395673Y5339393D02*
Y5540607D01*
X15014458D02*
X15395673D01*
X15014458Y5339393D02*
Y5540607D01*
Y5339393D02*
X15395673D01*
X9089393Y6902392D02*
X9290607D01*
Y7283605D01*
X9089393D02*
X9290607D01*
X9089393Y6902392D02*
Y7283605D01*
X9119393Y5634329D02*
X9320607D01*
Y6015542D01*
X9119393D02*
X9320607D01*
X9119393Y5634329D02*
Y6015542D01*
X6296893Y4014330D02*
X6498106D01*
Y4395544D01*
X6296893D02*
X6498106D01*
X6296893Y4014330D02*
Y4395544D01*
X4586893Y2709328D02*
X4788107D01*
Y3090542D01*
X4586893D02*
X4788107D01*
X4586893Y2709328D02*
Y3090542D01*
X14070000Y6880310D02*
X14235001D01*
X14070000Y6609690D02*
Y6880310D01*
Y6609690D02*
X14235001D01*
Y6880310D01*
X16719580Y7196893D02*
Y7398107D01*
Y7196893D02*
X17100793D01*
Y7398107D01*
X16719580D02*
X17100793D01*
X10649393Y5566893D02*
Y5768107D01*
Y5566893D02*
X11030607D01*
Y5768107D01*
X10649393D02*
X11030607D01*
X10771893Y3656893D02*
X10973107D01*
Y4038107D01*
X10771893D02*
X10973107D01*
X10771893Y3656893D02*
Y4038107D01*
X15931892Y4749393D02*
X16133107D01*
Y5130607D01*
X15931892D02*
X16133107D01*
X15931892Y4749393D02*
Y5130607D01*
X16090001Y3019999D02*
Y4689998D01*
Y3019999D02*
X17160001D01*
Y4689998D01*
X16090001D02*
X17160001D01*
X14849998Y4351376D02*
X14924998D01*
Y4498624D01*
X14849998D02*
X14924998D01*
X14849998Y4351376D02*
Y4498624D01*
X15057501Y5694233D02*
Y5841482D01*
X14982500Y5694233D02*
X15057501D01*
X14982500D02*
Y5841482D01*
X15057501D01*
X15057498Y4080001D02*
Y4310004D01*
Y4080001D02*
X15267496D01*
Y4310004D01*
X15057498D02*
X15267496D01*
X12471126Y3640003D02*
Y3715004D01*
X12323877D02*
X12471126D01*
X12323877Y3640003D02*
Y3715004D01*
Y3640003D02*
X12471126D01*
X7682499Y7684938D02*
Y7929936D01*
X7562499Y7684938D02*
X7682499D01*
X7562499D02*
Y7929936D01*
X7682499D01*
X7261733Y8244997D02*
Y8319999D01*
Y8244997D02*
X7408982D01*
Y8319999D01*
X7261733D02*
X7408982D01*
X5573878Y7145000D02*
X5721126D01*
Y7069999D02*
Y7145000D01*
X5573878Y7069999D02*
X5721126D01*
X5573878D02*
Y7145000D01*
X14210001Y4877501D02*
X14445000D01*
X14210001D02*
Y5097501D01*
X14445000D01*
Y4877501D02*
Y5097501D01*
X17109998Y5976998D02*
Y6383002D01*
X17728999D01*
Y5976998D02*
Y6383002D01*
X17109998Y5976998D02*
X17728999D01*
X17125002Y6464498D02*
X17744000D01*
Y6870502D01*
X17125002D02*
X17744000D01*
X17125002Y6464498D02*
Y6870502D01*
X17555530Y2687091D02*
Y2937911D01*
X17129709D02*
X17555530D01*
X17129709Y2687091D02*
Y2937911D01*
Y2687091D02*
X17555530D01*
X16641998Y2948406D02*
X16749248D01*
X16641998Y2741162D02*
Y2948406D01*
Y2741162D02*
X16749248D01*
Y2948406D01*
X16893878Y2761162D02*
Y2938409D01*
X16981122D01*
Y2761162D02*
Y2938409D01*
X16893878Y2761162D02*
X16981122D01*
X4629395Y6893878D02*
Y7176123D01*
X4775608D01*
Y6893878D02*
Y7176123D01*
X4629395Y6893878D02*
X4775608D01*
X9325000Y6104997D02*
Y6214999D01*
X9104996D02*
X9325000D01*
X9104996Y6104997D02*
Y6214999D01*
Y6104997D02*
X9325000D01*
X8807501Y7200001D02*
X8917503D01*
X8807501Y6980001D02*
Y7200001D01*
Y6980001D02*
X8917503D01*
Y7200001D01*
X5610001Y2512497D02*
X5760004D01*
Y2782499D01*
X5610001D02*
X5760004D01*
X5610001Y2512497D02*
Y2782499D01*
X11593876Y5340001D02*
X11741125D01*
Y5265000D02*
Y5340001D01*
X11593876Y5265000D02*
X11741125D01*
X11593876D02*
Y5340001D01*
X14007501Y5252502D02*
X14677502D01*
X14007501D02*
Y5612501D01*
X14677502D01*
Y5252502D02*
Y5612501D01*
X13889589Y5085288D02*
X14140408D01*
X13889589Y4659462D02*
Y5085288D01*
Y4659462D02*
X14140408D01*
Y5085288D01*
X15006970Y6537091D02*
Y6787911D01*
Y6537091D02*
X15432791D01*
Y6787911D01*
X15006970D02*
X15432791D01*
X14542503Y6909689D02*
X14707501D01*
Y7180311D01*
X14542503D02*
X14707501D01*
X14542503Y6909689D02*
Y7180311D01*
X15585004Y5430002D02*
Y5659999D01*
X15475002Y5430002D02*
X15585004D01*
X15475002D02*
Y5659999D01*
X15585004D01*
X13996021Y5722498D02*
X14143269D01*
X13996021D02*
Y5797499D01*
X14143269D01*
Y5722498D02*
Y5797499D01*
X16082671Y2935605D02*
X16369254D01*
Y2789392D02*
Y2935605D01*
X16082671Y2789392D02*
X16369254D01*
X16082671D02*
Y2935605D01*
X14995003Y6051128D02*
X15070003D01*
X14995003Y5903879D02*
Y6051128D01*
Y5903879D02*
X15070003D01*
Y6051128D01*
X16052998Y6900499D02*
X16672002D01*
X16052998Y6494501D02*
Y6900499D01*
Y6494501D02*
X16672002D01*
Y6900499D01*
X16050002Y5977001D02*
X16668999D01*
Y6383000D01*
X16050002D02*
X16668999D01*
X16050002Y5977001D02*
Y6383000D01*
X6367501Y3134998D02*
Y3355002D01*
X6477503D01*
Y3134998D02*
Y3355002D01*
X6367501Y3134998D02*
X6477503D01*
X12856020Y4090000D02*
X13003268D01*
Y4014999D02*
Y4090000D01*
X12856020Y4014999D02*
X13003268D01*
X12856020D02*
Y4090000D01*
X7452497Y4635002D02*
X7562499D01*
X7452497Y4415003D02*
Y4635002D01*
Y4415003D02*
X7562499D01*
Y4635002D01*
X6251158Y7561377D02*
X6458407D01*
X6251158D02*
Y7668626D01*
X6458407D01*
Y7561377D02*
Y7668626D01*
X7507503Y3447496D02*
Y3667501D01*
X7397501Y3447496D02*
X7507503D01*
X7397501D02*
Y3667501D01*
X7507503D01*
X5832500Y3162503D02*
Y3382503D01*
X5722498Y3162503D02*
X5832500D01*
X5722498D02*
Y3382503D01*
X5832500D01*
X6381374Y7792502D02*
Y7867503D01*
Y7792502D02*
X6528623D01*
Y7867503D01*
X6381374D02*
X6528623D01*
X6263879Y7401123D02*
X6371123D01*
X6263879Y7193874D02*
Y7401123D01*
Y7193874D02*
X6371123D01*
Y7401123D01*
X7220910Y7107499D02*
Y7182500D01*
X7073661D02*
X7220910D01*
X7073661Y7107499D02*
Y7182500D01*
Y7107499D02*
X7220910D01*
X6767500Y7420000D02*
X6887500D01*
X6767500Y7174997D02*
Y7420000D01*
Y7174997D02*
X6887500D01*
Y7420000D01*
X7216125Y7312503D02*
Y7387499D01*
X7068876D02*
X7216125D01*
X7068876Y7312503D02*
Y7387499D01*
Y7312503D02*
X7216125D01*
X7367499Y7397501D02*
X7487498D01*
X7367499Y7152503D02*
Y7397501D01*
Y7152503D02*
X7487498D01*
Y7397501D01*
X6522502Y7420000D02*
X6642501D01*
X6522502Y7175002D02*
Y7420000D01*
Y7175002D02*
X6642501D01*
Y7420000D01*
X3757498Y7962001D02*
X4037497D01*
X3757498D02*
Y8072003D01*
X4037497D01*
Y7962001D02*
Y8072003D01*
X13010002Y3207502D02*
Y3372500D01*
X12724999D02*
X13010002D01*
X12724999Y3207502D02*
Y3372500D01*
Y3207502D02*
X13010002D01*
X4744999Y4387494D02*
Y4607499D01*
X4634997Y4387494D02*
X4744999D01*
X4634997D02*
Y4607499D01*
X4744999D01*
X14954692Y5187808D02*
X15285309D01*
X14954692Y4707189D02*
Y5187808D01*
Y4707189D02*
X15285309D01*
Y5187808D01*
X14609689Y4684771D02*
Y5025390D01*
X14805309D01*
Y4684771D02*
Y5025390D01*
X14609689Y4684771D02*
X14805309D01*
X11467501Y5275006D02*
Y5445003D01*
X11187501D02*
X11467501D01*
X11187501Y5275006D02*
Y5445003D01*
Y5275006D02*
X11467501D01*
X12361022Y5320000D02*
X12508271D01*
Y5244998D02*
Y5320000D01*
X12361022Y5244998D02*
X12508271D01*
X12361022D02*
Y5320000D01*
X12986836Y4592493D02*
Y4667494D01*
X12839587D02*
X12986836D01*
X12839587Y4592493D02*
Y4667494D01*
Y4592493D02*
X12986836D01*
X12572502Y2607498D02*
Y2892496D01*
X12407504Y2607498D02*
X12572502D01*
X12407504D02*
Y2892496D01*
X12572502D01*
X12130004Y6605001D02*
Y6825000D01*
X12020001Y6605001D02*
X12130004D01*
X12020001D02*
Y6825000D01*
X12130004D01*
X12714996Y7387504D02*
X12935001D01*
Y7277501D02*
Y7387504D01*
X12714996Y7277501D02*
X12935001D01*
X12714996D02*
Y7387504D01*
X11919996Y7349998D02*
X12029999D01*
X11919996Y7129993D02*
Y7349998D01*
Y7129993D02*
X12029999D01*
Y7349998D01*
X10327501Y5687498D02*
Y5957500D01*
X10177499Y5687498D02*
X10327501D01*
X10177499D02*
Y5957500D01*
X10327501D01*
X8487496Y6652499D02*
X8707501D01*
X8487496D02*
Y6762501D01*
X8707501D01*
Y6652499D02*
Y6762501D01*
X8787496Y5845002D02*
X9007500D01*
Y5735000D02*
Y5845002D01*
X8787496Y5735000D02*
X9007500D01*
X8787496D02*
Y5845002D01*
X10162499Y6134999D02*
Y6354999D01*
X10272501D01*
Y6134999D02*
Y6354999D01*
X10162499Y6134999D02*
X10272501D01*
X11085001Y6727499D02*
Y6947503D01*
X10974999Y6727499D02*
X11085001D01*
X10974999D02*
Y6947503D01*
X11085001D01*
X10342502Y6997502D02*
Y7267504D01*
X10192499Y6997502D02*
X10342502D01*
X10192499D02*
Y7267504D01*
X10342502D01*
X10067498Y7407499D02*
Y7627503D01*
X10177501D01*
Y7407499D02*
Y7627503D01*
X10067498Y7407499D02*
X10177501D01*
X6379997Y6435771D02*
X6454999D01*
X6379997Y6288522D02*
Y6435771D01*
Y6288522D02*
X6454999D01*
Y6435771D01*
X7487702Y6018845D02*
X7562703D01*
X7487702Y5871596D02*
Y6018845D01*
Y5871596D02*
X7562703D01*
Y6018845D01*
X6352499Y5761375D02*
X6427500D01*
Y5908624D01*
X6352499D02*
X6427500D01*
X6352499Y5761375D02*
Y5908624D01*
X7467498Y6639230D02*
X7542500D01*
Y6786479D01*
X7467498D02*
X7542500D01*
X7467498Y6639230D02*
Y6786479D01*
X9577502Y3484997D02*
Y3705001D01*
X9467499Y3484997D02*
X9577502D01*
X9467499D02*
Y3705001D01*
X9577502D01*
X8552500Y3059999D02*
Y3280004D01*
X8442498Y3059999D02*
X8552500D01*
X8442498D02*
Y3280004D01*
X8552500D01*
X3544999Y3165000D02*
Y3385004D01*
X3655001D01*
Y3165000D02*
Y3385004D01*
X3544999Y3165000D02*
X3655001D01*
X7552502Y3952499D02*
Y4222501D01*
X7402500Y3952499D02*
X7552502D01*
X7402500D02*
Y4222501D01*
X7552502D01*
X5589996Y4849998D02*
Y5070003D01*
X5699999D01*
Y4849998D02*
Y5070003D01*
X5589996Y4849998D02*
X5699999D01*
X6422502Y4584995D02*
Y4804999D01*
X6312499Y4584995D02*
X6422502D01*
X6312499D02*
Y4804999D01*
X6422502D01*
X8617501Y8182500D02*
Y8292502D01*
X8397496D02*
X8617501D01*
X8397496Y8182500D02*
Y8292502D01*
Y8182500D02*
X8617501D01*
X9142501Y7422500D02*
X9252504D01*
Y7642504D01*
X9142501D02*
X9252504D01*
X9142501Y7422500D02*
Y7642504D01*
X4584998Y3319999D02*
X4695000D01*
Y3540004D01*
X4584998D02*
X4695000D01*
X4584998Y3319999D02*
Y3540004D01*
X2802494Y2720000D02*
Y2830002D01*
Y2720000D02*
X3022498D01*
Y2830002D01*
X2802494D02*
X3022498D01*
X5407503Y8056372D02*
X5482504D01*
Y8203621D01*
X5407503D02*
X5482504D01*
X5407503Y8056372D02*
Y8203621D01*
X5313878Y7662499D02*
Y7737500D01*
Y7662499D02*
X5461127D01*
Y7737500D01*
X5313878D02*
X5461127D01*
X5636021Y6745000D02*
X5783270D01*
Y6669999D02*
Y6745000D01*
X5636021Y6669999D02*
X5783270D01*
X5636021D02*
Y6745000D01*
X5421200Y7890002D02*
Y7965003D01*
Y7890002D02*
X5568449D01*
Y7965003D01*
X5421200D02*
X5568449D01*
X5678875Y6857502D02*
Y6932503D01*
Y6857502D02*
X5826124D01*
Y6932503D01*
X5678875D02*
X5826124D01*
X5635005Y5597500D02*
Y5707502D01*
X5355006D02*
X5635005D01*
X5355006Y5597500D02*
Y5707502D01*
Y5597500D02*
X5635005D01*
D122*
X15280000Y6395000D02*
X15335001D01*
X15307500Y6367500D02*
Y6422500D01*
X5150000Y8272500D02*
Y8372500D01*
X5100000Y8322500D02*
X5200000D01*
X17439999Y3202500D02*
Y3302500D01*
X17389999Y3252500D02*
X17489999D01*
X17437500Y3560000D02*
Y3660000D01*
X17387500Y3610000D02*
X17487500D01*
X17432500Y4282500D02*
Y4382500D01*
X17382500Y4332500D02*
X17482500D01*
X17427499Y3892500D02*
Y3992500D01*
X17377499Y3942500D02*
X17477499D01*
X5360000Y7220000D02*
Y7320000D01*
X5310000Y7270000D02*
X5410000D01*
X5320000Y6485000D02*
Y6585000D01*
X5270000Y6535000D02*
X5370000D01*
X5080000Y7547500D02*
Y7647500D01*
X5030000Y7597500D02*
X5130000D01*
X9720000Y8067500D02*
X9810000D01*
X9765000Y8022500D02*
Y8112500D01*
X11247498Y6372500D02*
X11337498D01*
X11292498Y6327500D02*
Y6417500D01*
X7042500Y5100000D02*
X7132500D01*
X7087500Y5055000D02*
Y5145000D01*
X5357500Y3900000D02*
X5447500D01*
X5402500Y3855000D02*
Y3945000D01*
X17337500Y7382500D02*
X17432500D01*
X17385001Y7335000D02*
Y7430000D01*
X17375000Y7120000D02*
X17470000D01*
X17422501Y7072500D02*
Y7167500D01*
X17767500Y7075000D02*
Y7170000D01*
X17720000Y7122500D02*
X17814999D01*
X16082500Y5310000D02*
Y5405000D01*
X16035001Y5357500D02*
X16130000D01*
X14509831Y5892368D02*
X14609831D01*
X14559834Y5842366D02*
Y5942371D01*
X11220002Y4033501D02*
Y4066501D01*
X11203502Y4050001D02*
X11236502D01*
X7042501Y7776500D02*
Y7876499D01*
X6992498Y7826502D02*
X7092498D01*
X3012505Y3517500D02*
X3067506D01*
X3040003Y3490002D02*
Y3544998D01*
X9442501Y8090004D02*
Y8180001D01*
X9397502Y8135002D02*
X9487500D01*
X7600002Y5562501D02*
Y5617502D01*
X7572504Y5589999D02*
X7627500D01*
X8534999Y5752506D02*
Y5807502D01*
X8507501Y5780004D02*
X8562503D01*
X8449999Y7182502D02*
Y7237498D01*
X8422501Y7210000D02*
X8477497D01*
X4647504Y5052502D02*
X4702500D01*
X4675002Y5025004D02*
Y5080000D01*
X12647498Y2614996D02*
Y3079999D01*
Y2614996D02*
X13087497D01*
Y3079999D01*
X12647498D02*
X13087497D01*
X6555001Y8100003D02*
Y8154999D01*
X6527503Y8127501D02*
X6582499D01*
X11159998Y6473998D02*
Y7374001D01*
X11839997Y6473998D02*
Y7374001D01*
X11159998D02*
X11839997D01*
X11159998Y6473998D02*
X11839997D01*
X11449995Y6923999D02*
X11549995D01*
X11499997Y6873997D02*
Y6973997D01*
X14237000Y2646502D02*
Y3862502D01*
X15249002D01*
Y2646502D02*
Y3862502D01*
X14237000Y2646502D02*
X15249002D01*
X15245999Y4385000D02*
Y4485000D01*
X15196002Y4435003D02*
X15296002D01*
X15435004Y4055003D02*
Y4109999D01*
X15407504Y4082501D02*
X15462502D01*
X12487499Y3184997D02*
Y3275000D01*
X12442495Y3230001D02*
X12532497D01*
X5800001Y3739998D02*
Y3829996D01*
X5755002Y3784997D02*
X5844999D01*
X8382503Y2664998D02*
X8472500D01*
X8427502Y2620000D02*
Y2710002D01*
X8694501Y7612497D02*
Y7712502D01*
X8644499Y7662499D02*
X8744499D01*
X9327500Y6999000D02*
Y7899004D01*
X10007498Y6999000D02*
Y7899004D01*
X9327500D02*
X10007498D01*
X9327500Y6999000D02*
X10007498D01*
X9617502Y7449002D02*
X9717502D01*
X9667499Y7399000D02*
Y7498999D01*
X8722502Y6187501D02*
Y6287501D01*
X8672505Y6237498D02*
X8772505D01*
X5187498Y4774504D02*
Y4874504D01*
X5137495Y4824501D02*
X5237500D01*
X3107497Y3102000D02*
Y3202000D01*
X3057495Y3152003D02*
X3157499D01*
X9717502Y6114999D02*
Y6214999D01*
X9667499Y6165002D02*
X9767504D01*
X9377502Y5715000D02*
X10057501D01*
X9377502Y6615003D02*
X10057501D01*
Y5715000D02*
Y6615003D01*
X9377502Y5715000D02*
Y6615003D01*
X6949501Y4456196D02*
Y4556196D01*
X6899499Y4506199D02*
X6999503D01*
X6609502Y4056197D02*
X7289500D01*
X6609502Y4956200D02*
X7289500D01*
Y4056197D02*
Y4956200D01*
X6609502Y4056197D02*
Y4956200D01*
X5204998Y3275000D02*
Y3375000D01*
X5154996Y3325002D02*
X5255001D01*
X4864999Y2875001D02*
X5544998D01*
X4864999Y3775004D02*
X5544998D01*
Y2875001D02*
Y3775004D01*
X4864999Y2875001D02*
Y3775004D01*
X8787501Y8172501D02*
X8877498D01*
X8832499Y8127503D02*
Y8217500D01*
X9567499Y5517500D02*
X9657497D01*
X9612498Y5472501D02*
Y5562498D01*
X5642503Y4437502D02*
X5732501D01*
X5687502Y4392503D02*
Y4482501D01*
X3585002Y2977500D02*
Y3067502D01*
X3540003Y3022503D02*
X3630000D01*
X5455001Y2590002D02*
Y2680000D01*
X5410002Y2635001D02*
X5499999D01*
X14030000Y4012499D02*
X14729997D01*
X14030000D02*
Y4502501D01*
X14729997D01*
Y4012499D02*
Y4502501D01*
X15377499Y5830001D02*
Y5930001D01*
X15327498Y5879998D02*
X15427498D01*
X14966000Y6977502D02*
X15066000D01*
X15015997Y6927499D02*
Y7027499D01*
X15047504Y6417499D02*
Y6452501D01*
X15030002Y6435000D02*
X15064999D01*
X15570003Y7012500D02*
X15624998D01*
X15597501Y6985002D02*
Y7039998D01*
X15647502Y6507500D02*
Y6597503D01*
X15602504Y6552499D02*
X15692500D01*
X12242500Y2597504D02*
Y2692500D01*
X12195002Y2645002D02*
X12289998D01*
X16382503Y5184999D02*
Y5285003D01*
X16332500Y5235001D02*
X16432504D01*
X14043233Y6011814D02*
Y6111814D01*
X13993236Y6061812D02*
X14093236D01*
X12147499Y7842499D02*
X12237496D01*
X12192498Y7797500D02*
Y7887498D01*
X6607348Y2724841D02*
Y3624844D01*
X7287346Y2724841D02*
Y3624844D01*
X6607348D02*
X7287346D01*
X6607348Y2724841D02*
X7287346D01*
X6897345Y3174843D02*
X6997349D01*
X6947347Y3124840D02*
Y3224840D01*
X9813498Y4139499D02*
Y5355499D01*
X8801501Y4139499D02*
X9813498D01*
X8801501D02*
Y5355499D01*
X9813498D01*
X8705002Y2709997D02*
Y3610000D01*
X9385000Y2709997D02*
Y3610000D01*
X8705002D02*
X9385000D01*
X8705002Y2709997D02*
X9385000D01*
X8994999Y3159999D02*
X9095003D01*
X9045001Y3109996D02*
Y3209996D01*
X7497501Y2712502D02*
Y2802504D01*
X7452502Y2757500D02*
X7542500D01*
X6365001Y2885003D02*
X6454999D01*
X6410000Y2840004D02*
Y2930002D01*
X6962501Y6537503D02*
Y6637503D01*
X6912498Y6587500D02*
X7012498D01*
X2740000Y5094500D02*
Y6106502D01*
Y5094500D02*
X3956000D01*
Y6106502D01*
X2740000D02*
X3956000D01*
X3889994Y7734503D02*
Y7829499D01*
X3842496Y7782001D02*
X3937497D01*
X3925001Y7504506D02*
Y7599502D01*
X3877497Y7552004D02*
X3972499D01*
X14335004Y4680001D02*
Y4774997D01*
X14287500Y4727499D02*
X14382501D01*
X10967501Y3210001D02*
X11062497D01*
X11014999Y3162503D02*
Y3257504D01*
X12175002Y3150001D02*
X12269998D01*
X12222500Y3102498D02*
Y3197499D01*
X10997505Y2712497D02*
X11092501D01*
X11045003Y2664999D02*
Y2760000D01*
X12887498Y4820001D02*
X12942499D01*
X12915001Y4792502D02*
Y4847499D01*
X11242502Y3860002D02*
X11297498D01*
X11270000Y3832499D02*
Y3887500D01*
X12852246Y3807751D02*
Y3862752D01*
X12824748Y3835254D02*
X12879749D01*
X11552499Y8207502D02*
Y8297499D01*
X11507500Y8252501D02*
X11597503D01*
X12537501Y6717497D02*
Y6817497D01*
X12487504Y6767500D02*
X12587503D01*
X12197502Y6317498D02*
X12877499D01*
X12197502Y7217501D02*
X12877499D01*
Y6317498D02*
Y7217501D01*
X12197502Y6317498D02*
Y7217501D01*
X12702499Y8235000D02*
X12792502D01*
X12747498Y8190001D02*
Y8279999D01*
X12460097Y7797399D02*
Y7887396D01*
X12415098Y7842397D02*
X12505096D01*
X12750002Y7802504D02*
Y7892501D01*
X12705004Y7847503D02*
X12795001D01*
X11615000Y7637497D02*
Y7727500D01*
X11570001Y7682496D02*
X11659999D01*
X9260002Y6567500D02*
Y6657503D01*
X9215003Y6612504D02*
X9305000D01*
X11717496Y6322503D02*
Y6412501D01*
X11672498Y6367502D02*
X11762500D01*
X8510001Y5564998D02*
X8564997D01*
X8537499Y5537500D02*
Y5592496D01*
X9730003Y5512501D02*
X9820001D01*
X9775002Y5467502D02*
Y5557500D01*
X11842504Y7635006D02*
Y7725003D01*
X11797506Y7680004D02*
X11887503D01*
X11342502Y7635001D02*
Y7724999D01*
X11297503Y7680000D02*
X11387501D01*
X11062498Y7642504D02*
Y7732502D01*
X11017499Y7687503D02*
X11107496D01*
X10985002Y6452499D02*
X11074999D01*
X11030001Y6407495D02*
Y6497498D01*
X10997499Y7245005D02*
X11087496D01*
X11042498Y7200006D02*
Y7290003D01*
X9167500Y6372499D02*
X9257497D01*
X9212499Y6327501D02*
Y6417498D01*
X15465002Y4947503D02*
X15559999D01*
X15512502Y4900005D02*
Y4995001D01*
X9017500Y8125002D02*
Y8215004D01*
X8972501Y8170005D02*
X9062498D01*
X9874997Y8199999D02*
Y8289996D01*
X9829998Y8244997D02*
X9920000D01*
X11055001Y8035002D02*
Y8125000D01*
X11010003Y8080001D02*
X11100000D01*
X7472500Y6357499D02*
X7527497D01*
X7499998Y6330001D02*
Y6385002D01*
X6929999Y5783499D02*
X7029999D01*
X6980001Y5733501D02*
Y5833501D01*
X9592498Y2669997D02*
Y2760000D01*
X9547499Y2715001D02*
X9637502D01*
X8482503Y3557499D02*
X8572500D01*
X8527501Y3512500D02*
Y3602497D01*
X9602500Y3285002D02*
Y3375000D01*
X9557502Y3330001D02*
X9647499D01*
X6305001Y5125004D02*
X6394999D01*
X6350000Y5080005D02*
Y5170002D01*
X7500000Y4685005D02*
Y4775002D01*
X7455002Y4730003D02*
X7544999D01*
X5024999Y5190002D02*
Y5244998D01*
X4997501Y5217500D02*
X5052497D01*
X5662498Y4649998D02*
Y4740001D01*
X5617500Y4694997D02*
X5707497D01*
X7417501Y5030003D02*
X7507498D01*
X7462500Y4984999D02*
Y5075001D01*
X7275002Y3785001D02*
Y3874999D01*
X7229998Y3830000D02*
X7320001D01*
X5592501Y5245003D02*
Y5335001D01*
X5547497Y5290002D02*
X5637500D01*
X9215001Y7869996D02*
Y7959999D01*
X9170002Y7915000D02*
X9260000D01*
X8430001Y7022501D02*
X8484997D01*
X8457499Y6995003D02*
Y7049999D01*
X7575000Y3190003D02*
Y3280000D01*
X7530001Y3235001D02*
X7619999D01*
X6434999Y3592505D02*
Y3682502D01*
X6390000Y3637504D02*
X6479997D01*
X5689998Y3572500D02*
X5780000D01*
X5734996Y3527501D02*
Y3617498D01*
X4662499Y3142501D02*
Y3232499D01*
X4617500Y3187500D02*
X4707502D01*
X3754999Y2977500D02*
Y3067497D01*
X3710000Y3022498D02*
X3799997D01*
X3380003Y3492506D02*
Y3547502D01*
X3352505Y3520004D02*
X3407501D01*
X5452501Y6170000D02*
X5547502D01*
X5499999Y6122502D02*
Y6217498D01*
X5479999Y5919998D02*
X5575000D01*
X5527502Y5872500D02*
Y5967496D01*
X4692498Y3937498D02*
Y4027500D01*
X4647499Y3982502D02*
X4737496D01*
D219*
X6965000Y5300000D02*
G03*
X6965000Y5300000I-35000J0D01*
G01*
X11542500Y8080000D02*
G03*
X11542500Y8080000I-35000J0D01*
G01*
X9612500Y6855000D02*
G03*
X9612500Y6855000I-35000J0D01*
G01*
X7440000Y5332500D02*
G03*
X7440000Y5332500I-35000J0D01*
G01*
X5700000Y4247500D02*
G03*
X5700000Y4247500I-35000J0D01*
G01*
X11125000Y8240000D02*
G03*
X11125000Y8240000I-35000J0D01*
G01*
X5353498Y4108459D02*
G03*
X5353498Y4108459I-35000J0D01*
G01*
X9860000Y6790000D02*
G03*
X9860000Y6790000I-35000J0D01*
G01*
X8592498Y3939997D02*
G03*
X8592498Y3939997I-35000J0D01*
G01*
X15407500Y7067500D02*
G03*
X15407500Y7067500I-35000J0D01*
G01*
X11352500Y5975000D02*
G03*
X11352500Y5975000I-35000J0D01*
G01*
X11565000Y5967500D02*
G03*
X11565000Y5967500I-35000J0D01*
G01*
X12655000Y6010000D02*
G03*
X12655000Y6010000I-35000J0D01*
G01*
X12427500Y6002500D02*
G03*
X12427500Y6002500I-35000J0D01*
G01*
X12882500Y6014998D02*
G03*
X12882500Y6014998I-35000J0D01*
G01*
X12235000Y5997500D02*
G03*
X12235000Y5997500I-35000J0D01*
G01*
X12040000Y6012500D02*
G03*
X12040000Y6012500I-35000J0D01*
G01*
X11800000Y5987500D02*
G03*
X11800000Y5987500I-35000J0D01*
G01*
X9972496Y3632500D02*
G03*
X9972496Y3632500I-35000J0D01*
G01*
X9632501Y3120001D02*
G03*
X9632501Y3120001I-35000J0D01*
G01*
X9919999Y2712501D02*
G03*
X9919999Y2712501I-35000J0D01*
G01*
X10005002Y3920000D02*
G03*
X10005002Y3920000I-35000J0D01*
G01*
X9070002Y3912500D02*
G03*
X9070002Y3912500I-35000J0D01*
G01*
X9542500Y3920000D02*
G03*
X9542500Y3920000I-35000J0D01*
G01*
X10064999Y3410002D02*
G03*
X10064999Y3410002I-35000J0D01*
G01*
X2810000Y3581500D02*
Y4583500D01*
X3929000D01*
Y3581500D02*
Y4583500D01*
X2810000Y3581500D02*
X3929000D01*
X15397501Y6350000D02*
Y6440000D01*
X15217500Y6350000D02*
Y6440000D01*
Y6350000D02*
X15397501D01*
X15217500Y6440000D02*
X15397501D01*
X4935000Y8197500D02*
X5365000D01*
X4935000Y8447500D02*
X5365000D01*
Y8197500D02*
Y8447500D01*
X4935000Y8197500D02*
Y8447500D01*
X15687500Y7335500D02*
Y8337500D01*
X14568500Y7335500D02*
X15687500D01*
X14568500D02*
Y8337500D01*
X15687500D01*
X17225000Y3377500D02*
X17655000D01*
X17225000Y3127500D02*
X17655000D01*
X17225000D02*
Y3377500D01*
X17655000Y3127500D02*
Y3377500D01*
X17222501Y3735000D02*
X17652499D01*
X17222501Y3485000D02*
X17652499D01*
X17222501D02*
Y3735000D01*
X17652499Y3485000D02*
Y3735000D01*
X17217500Y4457500D02*
X17647501D01*
X17217500Y4207500D02*
X17647501D01*
X17217500D02*
Y4457500D01*
X17647501Y4207500D02*
Y4457500D01*
X17212500Y4067500D02*
X17642500D01*
X17212500Y3817500D02*
X17642500D01*
X17212500D02*
Y4067500D01*
X17642500Y3817500D02*
Y4067500D01*
X5145000Y7395000D02*
X5575000D01*
X5145000Y7145000D02*
X5575000D01*
X5145000D02*
Y7395000D01*
X5575000Y7145000D02*
Y7395000D01*
X5105000Y6410000D02*
X5535000D01*
X5105000Y6660000D02*
X5535000D01*
Y6410000D02*
Y6660000D01*
X5105000Y6410000D02*
Y6660000D01*
X4865000Y7472500D02*
X5295000D01*
X4865000Y7722500D02*
X5295000D01*
Y7472500D02*
Y7722500D01*
X4865000Y7472500D02*
Y7722500D01*
X9895000Y7997500D02*
Y8137500D01*
X9635000Y7997500D02*
Y8137500D01*
Y7997500D02*
X9895000D01*
X9635000Y8137500D02*
X9895000D01*
X11162498Y6302500D02*
Y6442500D01*
X11422498Y6302500D02*
Y6442500D01*
X11162498D02*
X11422498D01*
X11162498Y6302500D02*
X11422498D01*
X7217500Y5030000D02*
Y5170000D01*
X6957500Y5030000D02*
Y5170000D01*
Y5030000D02*
X7217500D01*
X6957500Y5170000D02*
X7217500D01*
X5532500Y3830000D02*
Y3970000D01*
X5272500Y3830000D02*
Y3970000D01*
Y3830000D02*
X5532500D01*
X5272500Y3970000D02*
X5532500D01*
X11339500Y3785997D02*
X12684501D01*
X11339500D02*
Y5130998D01*
X12684501D01*
Y3785997D02*
Y5130998D01*
X17195000Y7277500D02*
Y7487500D01*
X17575000Y7277500D02*
Y7487500D01*
X17195000D02*
X17575000D01*
X17195000Y7277500D02*
X17575000D01*
X17612500Y7015000D02*
Y7225000D01*
X17232500Y7015000D02*
Y7225000D01*
Y7015000D02*
X17612500D01*
X17232500Y7225000D02*
X17612500D01*
X17662500Y6932500D02*
X17872501D01*
X17662500Y7312500D02*
X17872501D01*
X17662500Y6932500D02*
Y7312500D01*
X17872501Y6932500D02*
Y7312500D01*
X15977499Y5547500D02*
X16187500D01*
X15977499Y5167500D02*
X16187500D01*
Y5547500D01*
X15977499Y5167500D02*
Y5547500D01*
X4900003Y6707504D02*
Y7077501D01*
Y6707504D02*
X5540001D01*
Y7077501D01*
X4900003D02*
X5540001D01*
X6785000Y5375000D02*
X7075000D01*
X6785000Y5225000D02*
Y5375000D01*
Y5225000D02*
X7075000D01*
Y5375000D01*
X6930000Y5250000D02*
Y5350000D01*
X6880000Y5300000D02*
X6980000D01*
X4620001Y7774996D02*
Y8144998D01*
Y7774996D02*
X5260000D01*
Y8144998D01*
X4620001D02*
X5260000D01*
X11362500Y8005000D02*
X11652500D01*
Y8155000D01*
X11362500D02*
X11652500D01*
X11362500Y8005000D02*
Y8155000D01*
X11507500Y8030000D02*
Y8130000D01*
X11457500Y8080000D02*
X11557500D01*
X9432500Y6780000D02*
X9722500D01*
Y6930000D01*
X9432500D02*
X9722500D01*
X9432500Y6780000D02*
Y6930000D01*
X9577500Y6805000D02*
Y6905000D01*
X9527500Y6855000D02*
X9627500D01*
X7260000Y5257500D02*
X7550000D01*
Y5407500D01*
X7260000D02*
X7550000D01*
X7260000Y5257500D02*
Y5407500D01*
X7405000Y5282500D02*
Y5382500D01*
X7355001Y5332500D02*
X7455000D01*
X5520000Y4322500D02*
X5810000D01*
X5520000Y4172500D02*
Y4322500D01*
Y4172500D02*
X5810000D01*
Y4322500D01*
X5665000Y4197500D02*
Y4297500D01*
X5615000Y4247500D02*
X5715000D01*
X10945000Y8165000D02*
X11235000D01*
Y8315000D01*
X10945000D02*
X11235000D01*
X10945000Y8165000D02*
Y8315000D01*
X11090000Y8190000D02*
Y8290000D01*
X11040000Y8240000D02*
X11140000D01*
X5243498Y3963459D02*
Y4253459D01*
Y3963459D02*
X5393498D01*
Y4253459D01*
X5243498D02*
X5393498D01*
X5268498Y4108459D02*
X5368498D01*
X5318498Y4058459D02*
Y4158459D01*
X9900000Y6645000D02*
Y6935000D01*
X9750000D02*
X9900000D01*
X9750000Y6645000D02*
Y6935000D01*
Y6645000D02*
X9900000D01*
X9775000Y6790000D02*
X9875000D01*
X9825000Y6740000D02*
Y6840000D01*
X14197334Y5682366D02*
Y6102370D01*
X14922331Y5682366D02*
Y6102370D01*
X14197334D02*
X14922331D01*
X14197334Y5682366D02*
X14922331D01*
X11145001Y4090001D02*
X11295003D01*
X11145001Y4010001D02*
X11295003D01*
X11145001D02*
Y4090001D01*
X11295003Y4010001D02*
Y4090001D01*
X6622501Y8126501D02*
X7462500D01*
X6622501Y7526503D02*
X7462500D01*
X6622501D02*
Y8126501D01*
X7462500Y7526503D02*
Y8126501D01*
X2965002Y3477500D02*
Y3557500D01*
X3115004Y3477500D02*
Y3557500D01*
X2965002D02*
X3115004D01*
X2965002Y3477500D02*
X3115004D01*
X9337503Y8080001D02*
X9547500D01*
X9337503Y8190003D02*
X9547500D01*
Y8080001D02*
Y8190003D01*
X9337503Y8080001D02*
Y8190003D01*
X7560002Y5509999D02*
X7640002D01*
X7560002Y5669999D02*
X7640002D01*
X7560002Y5509999D02*
Y5669999D01*
X7640002Y5509999D02*
Y5669999D01*
X13877499Y2600000D02*
X14182500D01*
X13877499D02*
Y2750000D01*
X14182500D01*
Y2600000D02*
Y2750000D01*
X13677499Y3225000D02*
X13982500D01*
X13677499D02*
Y3375000D01*
X13982500D01*
Y3225000D02*
Y3375000D01*
X14475000Y4007500D02*
X14780000D01*
Y3857500D02*
Y4007500D01*
X14475000Y3857500D02*
X14780000D01*
X14475000D02*
Y4007500D01*
X15292500Y2762500D02*
X15597501D01*
Y2612500D02*
Y2762500D01*
X15292500Y2612500D02*
X15597501D01*
X15292500D02*
Y2762500D01*
X15272501Y6088000D02*
X15517500D01*
X15272501D02*
Y6212000D01*
X15517500D01*
Y6088000D02*
Y6212000D01*
X15552991Y4215046D02*
Y4460046D01*
X15428992Y4215046D02*
X15552991D01*
X15428992D02*
Y4460046D01*
X15552991D01*
X8459998Y5740004D02*
X8610001D01*
X8459998Y5820004D02*
X8610001D01*
Y5740004D02*
Y5820004D01*
X8459998Y5740004D02*
Y5820004D01*
X8374998Y7250000D02*
X8525000D01*
X8374998Y7170000D02*
X8525000D01*
X8374998D02*
Y7250000D01*
X8525000Y7170000D02*
Y7250000D01*
X4715002Y4977501D02*
Y5127503D01*
X4635002Y4977501D02*
Y5127503D01*
X4715002D01*
X4635002Y4977501D02*
X4715002D01*
X8507501Y3939997D02*
X8607501D01*
X8557499Y3890000D02*
Y3990000D01*
X8412500Y3864996D02*
Y4014998D01*
X8702502D01*
Y3864996D02*
Y4014998D01*
X8412500Y3864996D02*
X8702502D01*
X6515001Y8047501D02*
X6595001D01*
X6515001Y8207501D02*
X6595001D01*
X6515001Y8047501D02*
Y8207501D01*
X6595001Y8047501D02*
Y8207501D01*
X14865997Y4084005D02*
Y4266001D01*
X14773997Y4084005D02*
X14865997D01*
X14773997D02*
Y4266001D01*
X14865997D01*
X15110999Y4350004D02*
X15381000D01*
X15110999Y4520001D02*
X15381000D01*
Y4350004D02*
Y4520001D01*
X15110999Y4350004D02*
Y4520001D01*
X15330003Y4137502D02*
X15540001D01*
X15330003Y4027500D02*
X15540001D01*
X15330003D02*
Y4137502D01*
X15540001Y4027500D02*
Y4137502D01*
X12387499Y3395000D02*
X12587498D01*
X12387499Y3064998D02*
X12587498D01*
Y3395000D01*
X12387499Y3064998D02*
Y3395000D01*
X5745000Y3889996D02*
X5855002D01*
X5745000Y3679998D02*
X5855002D01*
Y3889996D01*
X5745000Y3679998D02*
Y3889996D01*
X8327502Y2500000D02*
Y2830002D01*
X8527501Y2500000D02*
Y2830002D01*
X8327502Y2500000D02*
X8527501D01*
X8327502Y2830002D02*
X8527501D01*
X8434502Y7327499D02*
X8954501D01*
X8434502Y7997500D02*
X8954501D01*
X8434502Y7327499D02*
Y7997500D01*
X8954501Y7327499D02*
Y7997500D01*
X8462503Y5902498D02*
X8982502D01*
X8462503Y6572499D02*
X8982502D01*
X8462503Y5902498D02*
Y6572499D01*
X8982502Y5902498D02*
Y6572499D01*
X4852497Y4564502D02*
X5522498D01*
X4852497Y5084501D02*
X5522498D01*
Y4564502D02*
Y5084501D01*
X4852497Y4564502D02*
Y5084501D01*
X2772496Y2892003D02*
X3442498D01*
X2772496Y3412002D02*
X3442498D01*
Y2892003D02*
Y3412002D01*
X2772496Y2892003D02*
Y3412002D01*
X8887501Y8067503D02*
Y8277500D01*
X8777498Y8067503D02*
Y8277500D01*
X8887501D01*
X8777498Y8067503D02*
X8887501D01*
X9667499Y5412501D02*
Y5622498D01*
X9557497Y5412501D02*
Y5622498D01*
X9667499D01*
X9557497Y5412501D02*
X9667499D01*
X5582503Y4382501D02*
Y4492503D01*
X5792500Y4382501D02*
Y4492503D01*
X5582503D02*
X5792500D01*
X5582503Y4382501D02*
X5792500D01*
X3530001Y3127502D02*
X3640003D01*
X3530001Y2917500D02*
X3640003D01*
Y3127502D01*
X3530001Y2917500D02*
Y3127502D01*
X5384998Y2504999D02*
X5525003D01*
X5384998Y2765003D02*
X5525003D01*
X5384998Y2504999D02*
Y2765003D01*
X5525003Y2504999D02*
Y2765003D01*
X15212497Y5705003D02*
X15542499D01*
X15212497Y6054999D02*
X15542499D01*
X15212497Y5705003D02*
Y6054999D01*
X15542499Y5705003D02*
Y6054999D01*
X14796999Y7070004D02*
X15234996D01*
X14796999Y6885000D02*
Y7070004D01*
Y6885000D02*
X15234996D01*
Y7070004D01*
X14992502Y6464997D02*
X15102499D01*
X14992502Y6404998D02*
X15102499D01*
X14992502D02*
Y6464997D01*
X15102499Y6404998D02*
Y6464997D01*
X15687505Y6967501D02*
Y7057498D01*
X15507500Y6967501D02*
Y7057498D01*
Y6967501D02*
X15687505D01*
X15507500Y7057498D02*
X15687505D01*
X15577499Y6422502D02*
X15717505D01*
X15577499Y6682501D02*
X15717505D01*
X15577499Y6422502D02*
Y6682501D01*
X15717505Y6422502D02*
Y6682501D01*
X14525000Y6437498D02*
Y6787500D01*
Y6437498D02*
X14949998D01*
Y6787500D01*
X14525000D02*
X14949998D01*
X15447502Y6922503D02*
Y7212500D01*
X15297501D02*
X15447502D01*
X15297501Y6922503D02*
Y7212500D01*
Y6922503D02*
X15447502D01*
X15322504Y7067501D02*
X15422504D01*
X15372501Y7017499D02*
Y7117499D01*
X12167499Y2790000D02*
X12317501D01*
X12167499Y2500003D02*
X12317501D01*
Y2790000D01*
X12167499Y2500003D02*
Y2790000D01*
X17720000Y4847499D02*
Y5627502D01*
X16734998D02*
X17720000D01*
X16734998Y4847499D02*
Y5627502D01*
Y4847499D02*
X17720000D01*
X16242502Y4924999D02*
X16522502D01*
X16242502Y5545003D02*
X16522502D01*
X16242502Y4924999D02*
Y5545003D01*
X16522502Y4924999D02*
Y5545003D01*
X13943233Y6256812D02*
X14143233D01*
X13943233Y5866811D02*
X14143233D01*
Y6256812D01*
X13943233Y5866811D02*
Y6256812D01*
X12092498Y7677495D02*
Y8007497D01*
X12292498Y7677495D02*
Y8007497D01*
X12092498Y7677495D02*
X12292498D01*
X12092498Y8007497D02*
X12292498D01*
X7397501Y2592502D02*
X7597501D01*
X7397501Y2922504D02*
X7597501D01*
X7397501Y2592502D02*
Y2922504D01*
X7597501Y2592502D02*
Y2922504D01*
X6310000Y2720000D02*
Y3050002D01*
X6510000Y2720000D02*
Y3050002D01*
X6310000Y2720000D02*
X6510000D01*
X6310000Y3050002D02*
X6510000D01*
X6542502Y6287501D02*
X7382500D01*
X6542502Y6887500D02*
X7382500D01*
Y6287501D02*
Y6887500D01*
X6542502Y6287501D02*
Y6887500D01*
X3744996Y7857002D02*
X4034998D01*
X3744996Y7707000D02*
X4034998D01*
X3744996D02*
Y7857002D01*
X4034998Y7707000D02*
Y7857002D01*
X3734998Y7657002D02*
X4114998D01*
X3734998Y7447005D02*
X4114998D01*
X3734998D02*
Y7657002D01*
X4114998Y7447005D02*
Y7657002D01*
X2735503Y7467000D02*
Y8088000D01*
X3667003D01*
Y7467000D02*
Y8088000D01*
X2735503Y7467000D02*
X3667003D01*
X14200002Y4802500D02*
X14470000D01*
X14200002Y4652498D02*
X14470000D01*
X14200002D02*
Y4802500D01*
X14470000Y4652498D02*
Y4802500D01*
X11090000Y3065002D02*
Y3355004D01*
X10939998Y3065002D02*
Y3355004D01*
X11090000D01*
X10939998Y3065002D02*
X11090000D01*
X12297501Y3004998D02*
Y3295000D01*
X12147499Y3004998D02*
Y3295000D01*
X12297501D01*
X12147499Y3004998D02*
X12297501D01*
X12099503Y2636500D02*
Y3257499D01*
X11168004Y2636500D02*
X12099503D01*
X11168004D02*
Y3257499D01*
X12099503D01*
X11120004Y2567499D02*
Y2857501D01*
X10970002Y2567499D02*
Y2857501D01*
X11120004D01*
X10970002Y2567499D02*
X11120004D01*
X12955000Y4744999D02*
Y4895002D01*
X12875002Y4744999D02*
Y4895002D01*
X12955000D01*
X12875002Y4744999D02*
X12955000D01*
X11310000Y3785001D02*
Y3934998D01*
X11230000Y3785001D02*
Y3934998D01*
X11310000D01*
X11230000Y3785001D02*
X11310000D01*
X12777250Y3875254D02*
X12927248D01*
X12777250Y3795255D02*
X12927248D01*
X12777250D02*
Y3875254D01*
X12927248Y3795255D02*
Y3875254D01*
X11317502Y5925002D02*
Y6025002D01*
X11267505Y5974999D02*
X11367505D01*
X11242501Y6119998D02*
X11392504D01*
Y5830001D02*
Y6119998D01*
X11242501Y5830001D02*
X11392504D01*
X11242501D02*
Y6119998D01*
X11530001Y5917502D02*
Y6017502D01*
X11480003Y5967504D02*
X11580003D01*
X11454999Y6112503D02*
X11605002D01*
Y5822501D02*
Y6112503D01*
X11454999Y5822501D02*
X11605002D01*
X11454999D02*
Y6112503D01*
X12620000Y5960003D02*
Y6060003D01*
X12569998Y6010001D02*
X12669998D01*
X12544999Y6155004D02*
X12695001D01*
Y5865002D02*
Y6155004D01*
X12544999Y5865002D02*
X12695001D01*
X12544999D02*
Y6155004D01*
X12392503Y5952500D02*
Y6052500D01*
X12342500Y6002503D02*
X12442500D01*
X12317501Y6147501D02*
X12467504D01*
Y5857499D02*
Y6147501D01*
X12317501Y5857499D02*
X12467504D01*
X12317501D02*
Y6147501D01*
X12847498Y5964997D02*
Y6064997D01*
X12797495Y6014994D02*
X12897495D01*
X12772497Y6159998D02*
X12922499D01*
Y5869996D02*
Y6159998D01*
X12772497Y5869996D02*
X12922499D01*
X12772497D02*
Y6159998D01*
X12200002Y5947500D02*
Y6047500D01*
X12149999Y5997502D02*
X12249999D01*
X12125001Y6142501D02*
X12275003D01*
Y5852504D02*
Y6142501D01*
X12125001Y5852504D02*
X12275003D01*
X12125001D02*
Y6142501D01*
X12005001Y5962501D02*
Y6062500D01*
X11955004Y6012503D02*
X12055004D01*
X11930000Y6157502D02*
X12080003D01*
Y5867500D02*
Y6157502D01*
X11930000Y5867500D02*
X12080003D01*
X11930000D02*
Y6157502D01*
X11765001Y5937501D02*
Y6037500D01*
X11715004Y5987503D02*
X11815004D01*
X11690000Y6132502D02*
X11840002D01*
Y5842500D02*
Y6132502D01*
X11690000Y5842500D02*
X11840002D01*
X11690000D02*
Y6132502D01*
X11447501Y8197499D02*
X11657503D01*
X11447501Y8307502D02*
X11657503D01*
Y8197499D02*
Y8307502D01*
X11447501Y8197499D02*
Y8307502D01*
X12912502Y8135000D02*
Y8335000D01*
X12582500Y8135000D02*
Y8335000D01*
Y8135000D02*
X12912502D01*
X12582500Y8335000D02*
X12912502D01*
X12360097Y8007396D02*
X12560097D01*
X12360097Y7677399D02*
X12560097D01*
Y8007396D01*
X12360097Y7677399D02*
Y8007396D01*
X12650003Y8012501D02*
X12850002D01*
X12650003Y7682504D02*
X12850002D01*
Y8012501D01*
X12650003Y7682504D02*
Y8012501D01*
X11847500Y8320004D02*
X12037502D01*
X11847500Y7975006D02*
Y8320004D01*
Y7975006D02*
X12037502D01*
Y8320004D01*
X11515000Y7517498D02*
X11715000D01*
X11515000Y7847499D02*
X11715000D01*
X11515000Y7517498D02*
Y7847499D01*
X11715000Y7517498D02*
Y7847499D01*
X10307503Y5404998D02*
Y5595000D01*
X9962505D02*
X10307503D01*
X9962505Y5404998D02*
Y5595000D01*
Y5404998D02*
X10307503D01*
X9205001Y6507500D02*
X9315003D01*
X9205001Y6717502D02*
X9315003D01*
X9205001Y6507500D02*
Y6717502D01*
X9315003Y6507500D02*
Y6717502D01*
X11612498Y6312501D02*
X11822500D01*
X11612498Y6422503D02*
X11822500D01*
Y6312501D02*
Y6422503D01*
X11612498Y6312501D02*
Y6422503D01*
X8462498Y5524998D02*
Y5604998D01*
X8612500Y5524998D02*
Y5604998D01*
X8462498D02*
X8612500D01*
X8462498Y5524998D02*
X8612500D01*
X9830003Y5407503D02*
Y5617500D01*
X9720001Y5407503D02*
Y5617500D01*
X9830003D01*
X9720001Y5407503D02*
X9830003D01*
X11742505Y7515006D02*
X11942504D01*
X11742505Y7845003D02*
X11942504D01*
X11742505Y7515006D02*
Y7845003D01*
X11942504Y7515006D02*
Y7845003D01*
X11242502Y7515001D02*
X11442502D01*
X11242502Y7844998D02*
X11442502D01*
X11242502Y7515001D02*
Y7844998D01*
X11442502Y7515001D02*
Y7844998D01*
X10962498Y7522505D02*
X11162497D01*
X10962498Y7852501D02*
X11162497D01*
X10962498Y7522505D02*
Y7852501D01*
X11162497Y7522505D02*
Y7852501D01*
X11085002Y6347496D02*
Y6557498D01*
X10975000Y6347496D02*
Y6557498D01*
X11085002D01*
X10975000Y6347496D02*
X11085002D01*
X10972495Y7115002D02*
Y7375007D01*
X11112500Y7115002D02*
Y7375007D01*
X10972495Y7115002D02*
X11112500D01*
X10972495Y7375007D02*
X11112500D01*
X9107500Y6317498D02*
Y6427500D01*
X9317497Y6317498D02*
Y6427500D01*
X9107500D02*
X9317497D01*
X9107500Y6317498D02*
X9317497D01*
X15407503Y4777501D02*
Y5117506D01*
X15617500Y4777501D02*
Y5117506D01*
X15407503Y4777501D02*
X15617500D01*
X15407503Y5117506D02*
X15617500D01*
X9792498Y3557499D02*
X10082500D01*
Y3707501D01*
X9792498D02*
X10082500D01*
X9792498Y3557499D02*
Y3707501D01*
X9937496Y3582497D02*
Y3682497D01*
X9887499Y3632500D02*
X9987498D01*
X9452498Y3044998D02*
X9742500D01*
Y3195000D01*
X9452498D02*
X9742500D01*
X9452498Y3044998D02*
Y3195000D01*
X9597502Y3069996D02*
Y3169996D01*
X9547499Y3119999D02*
X9647499D01*
X9809998Y2567498D02*
Y2857500D01*
Y2567498D02*
X9960000D01*
Y2857500D01*
X9809998D02*
X9960000D01*
X9834997Y2712496D02*
X9934997D01*
X9884999Y2662499D02*
Y2762499D01*
X8962498Y8275004D02*
X9072501D01*
X8962498Y8065002D02*
X9072501D01*
Y8275004D01*
X8962498Y8065002D02*
Y8275004D01*
X9769998Y8189996D02*
X9980000D01*
X9769998Y8299999D02*
X9980000D01*
Y8189996D02*
Y8299999D01*
X9769998Y8189996D02*
Y8299999D01*
X10924999Y8009999D02*
X11185004D01*
X10924999Y8150004D02*
X11185004D01*
Y8009999D02*
Y8150004D01*
X10924999Y8009999D02*
Y8150004D01*
X7539998Y6277499D02*
Y6437498D01*
X7459999Y6277499D02*
Y6437498D01*
X7539998D01*
X7459999Y6277499D02*
X7539998D01*
X6560002Y5483499D02*
Y6083498D01*
X7400000Y5483499D02*
Y6083498D01*
X6560002D02*
X7400000D01*
X6560002Y5483499D02*
X7400000D01*
X9824999Y3845001D02*
X10115001D01*
Y3995003D01*
X9824999D02*
X10115001D01*
X9824999Y3845001D02*
Y3995003D01*
X9970003Y3870000D02*
Y3970000D01*
X9920000Y3920002D02*
X10020000D01*
X8890000Y3837498D02*
X9180002D01*
Y3987500D01*
X8890000D02*
X9180002D01*
X8890000Y3837498D02*
Y3987500D01*
X9035004Y3862497D02*
Y3962497D01*
X8985001Y3912499D02*
X9085001D01*
X9362501Y3845001D02*
X9652503D01*
Y3995003D01*
X9362501D02*
X9652503D01*
X9362501Y3845001D02*
Y3995003D01*
X9507499Y3870000D02*
Y3970000D01*
X9457502Y3920002D02*
X9557502D01*
X9492498Y2549997D02*
X9692498D01*
X9492498Y2879999D02*
X9692498D01*
X9492498Y2549997D02*
Y2879999D01*
X9692498Y2549997D02*
Y2879999D01*
X8427502Y3392495D02*
Y3722497D01*
X8627501Y3392495D02*
Y3722497D01*
X8427502Y3392495D02*
X8627501D01*
X8427502Y3722497D02*
X8627501D01*
X9437502Y3430001D02*
X9767499D01*
X9437502Y3230001D02*
X9767499D01*
X9437502D02*
Y3430001D01*
X9767499Y3230001D02*
Y3430001D01*
X9884999Y3335000D02*
X10175001D01*
Y3485002D01*
X9884999D02*
X10175001D01*
X9884999Y3335000D02*
Y3485002D01*
X10030003Y3359998D02*
Y3459998D01*
X9980000Y3410001D02*
X10080000D01*
X6294998Y5272499D02*
Y5462501D01*
Y5272499D02*
X6640001D01*
Y5462501D01*
X6294998D02*
X6640001D01*
X6405001Y5020005D02*
Y5230002D01*
X6294999Y5020005D02*
Y5230002D01*
X6405001D01*
X6294999Y5020005D02*
X6405001D01*
X7395002Y4675002D02*
X7604999D01*
X7395002Y4785004D02*
X7604999D01*
Y4675002D02*
Y4785004D01*
X7395002Y4675002D02*
Y4785004D01*
X4949998Y5257500D02*
X5100000D01*
X4949998Y5177500D02*
X5100000D01*
X4949998D02*
Y5257500D01*
X5100000Y5177500D02*
Y5257500D01*
X5607497Y4800001D02*
X5717499D01*
X5607497Y4589998D02*
X5717499D01*
Y4800001D01*
X5607497Y4589998D02*
Y4800001D01*
X7407499Y4924999D02*
Y5135001D01*
X7517501Y4924999D02*
Y5135001D01*
X7407499Y4924999D02*
X7517501D01*
X7407499Y5135001D02*
X7517501D01*
X7145000Y3759998D02*
X7404999D01*
X7145000Y3900002D02*
X7404999D01*
Y3759998D02*
Y3900002D01*
X7145000Y3759998D02*
Y3900002D01*
X5487497Y5235001D02*
X5697499D01*
X5487497Y5345003D02*
X5697499D01*
Y5235001D02*
Y5345003D01*
X5487497Y5235001D02*
Y5345003D01*
X9160000Y8019998D02*
X9270002D01*
X9160000Y7809996D02*
X9270002D01*
Y8019998D01*
X9160000Y7809996D02*
Y8019998D01*
X8382498Y6982501D02*
Y7062501D01*
X8532500Y6982501D02*
Y7062501D01*
X8382498D02*
X8532500D01*
X8382498Y6982501D02*
X8532500D01*
X7475000Y3070003D02*
X7675000D01*
X7475000Y3400000D02*
X7675000D01*
X7475000Y3070003D02*
Y3400000D01*
X7675000Y3070003D02*
Y3400000D01*
X6334999Y3472505D02*
X6534998D01*
X6334999Y3802502D02*
X6534998D01*
X6334999Y3472505D02*
Y3802502D01*
X6534998Y3472505D02*
Y3802502D01*
X5629998Y3517498D02*
Y3627501D01*
X5840000Y3517498D02*
Y3627501D01*
X5629998D02*
X5840000D01*
X5629998Y3517498D02*
X5840000D01*
X4848494Y4200962D02*
X5193497D01*
Y4010960D02*
Y4200962D01*
X4848494Y4010960D02*
X5193497D01*
X4848494D02*
Y4200962D01*
X4557500Y3132499D02*
X4767502D01*
X4557500Y3242501D02*
X4767502D01*
Y3132499D02*
Y3242501D01*
X4557500Y3132499D02*
Y3242501D01*
X3699998Y3127497D02*
X3810000D01*
X3699998Y2917500D02*
X3810000D01*
Y3127497D01*
X3699998Y2917500D02*
Y3127497D01*
X3305002Y3560004D02*
X3455004D01*
X3305002Y3480004D02*
X3455004D01*
X3305002D02*
Y3560004D01*
X3455004Y3480004D02*
Y3560004D01*
X4584502Y5428000D02*
Y6359500D01*
Y5428000D02*
X5205501D01*
Y6359500D01*
X4584502D02*
X5205501D01*
X5645003Y6094999D02*
Y6245001D01*
X5355001Y6094999D02*
Y6245001D01*
Y6094999D02*
X5645003D01*
X5355001Y6245001D02*
X5645003D01*
X5717499Y5815000D02*
Y6024997D01*
X5337500Y5815000D02*
Y6024997D01*
Y5815000D02*
X5717499D01*
X5337500Y6024997D02*
X5717499D01*
X4637496Y3877498D02*
X4747499D01*
X4637496Y4087500D02*
X4747499D01*
X4637496Y3877498D02*
Y4087500D01*
X4747499Y3877498D02*
Y4087500D01*
D220*
X6845000Y5347500D02*
X7015000D01*
X6845000Y5252500D02*
Y5347500D01*
Y5252500D02*
X7015000D01*
Y5347500D01*
X11422500Y8032500D02*
X11592500D01*
Y8127500D01*
X11422500D02*
X11592500D01*
X11422500Y8032500D02*
Y8127500D01*
X9492500Y6807500D02*
X9662500D01*
Y6902500D01*
X9492500D02*
X9662500D01*
X9492500Y6807500D02*
Y6902500D01*
X7320000Y5285000D02*
X7490001D01*
Y5380000D01*
X7320000D02*
X7490001D01*
X7320000Y5285000D02*
Y5380000D01*
X5580000Y4295000D02*
X5750000D01*
X5580000Y4200000D02*
Y4295000D01*
Y4200000D02*
X5750000D01*
Y4295000D01*
X11005000Y8192500D02*
X11175000D01*
Y8287500D01*
X11005000D02*
X11175000D01*
X11005000Y8192500D02*
Y8287500D01*
X5270998Y4023459D02*
Y4193459D01*
Y4023459D02*
X5365998D01*
Y4193459D01*
X5270998D02*
X5365998D01*
X9872500Y6705000D02*
Y6875000D01*
X9777500D02*
X9872500D01*
X9777500Y6705000D02*
Y6875000D01*
Y6705000D02*
X9872500D01*
X8472500Y3892499D02*
Y3987495D01*
X8642502D01*
Y3892499D02*
Y3987495D01*
X8472500Y3892499D02*
X8642502D01*
X15420000Y6982503D02*
Y7152500D01*
X15325003D02*
X15420000D01*
X15325003Y6982503D02*
Y7152500D01*
Y6982503D02*
X15420000D01*
X11270004Y6059998D02*
X11365000D01*
Y5890001D02*
Y6059998D01*
X11270004Y5890001D02*
X11365000D01*
X11270004D02*
Y6059998D01*
X11482503Y6052503D02*
X11577499D01*
Y5882501D02*
Y6052503D01*
X11482503Y5882501D02*
X11577499D01*
X11482503D02*
Y6052503D01*
X12572502Y6095004D02*
X12667498D01*
Y5925002D02*
Y6095004D01*
X12572502Y5925002D02*
X12667498D01*
X12572502D02*
Y6095004D01*
X12345005Y6087501D02*
X12440001D01*
Y5917499D02*
Y6087501D01*
X12345005Y5917499D02*
X12440001D01*
X12345005D02*
Y6087501D01*
X12800000Y6099998D02*
X12894997D01*
Y5929996D02*
Y6099998D01*
X12800000Y5929996D02*
X12894997D01*
X12800000D02*
Y6099998D01*
X12152504Y6082501D02*
X12247500D01*
Y5912504D02*
Y6082501D01*
X12152504Y5912504D02*
X12247500D01*
X12152504D02*
Y6082501D01*
X11957503Y6097502D02*
X12052499D01*
Y5927499D02*
Y6097502D01*
X11957503Y5927499D02*
X12052499D01*
X11957503D02*
Y6097502D01*
X11717503Y6072502D02*
X11812499D01*
Y5902499D02*
Y6072502D01*
X11717503Y5902499D02*
X11812499D01*
X11717503D02*
Y6072502D01*
X9852497Y3585002D02*
X10022500D01*
Y3679998D01*
X9852497D02*
X10022500D01*
X9852497Y3585002D02*
Y3679998D01*
X9512498Y3072501D02*
X9682500D01*
Y3167497D01*
X9512498D02*
X9682500D01*
X9512498Y3072501D02*
Y3167497D01*
X9837501Y2627498D02*
Y2797500D01*
Y2627498D02*
X9932497D01*
Y2797500D01*
X9837501D02*
X9932497D01*
X9884999Y3872504D02*
X10055001D01*
Y3967500D01*
X9884999D02*
X10055001D01*
X9884999Y3872504D02*
Y3967500D01*
X8950000Y3865001D02*
X9120002D01*
Y3959997D01*
X8950000D02*
X9120002D01*
X8950000Y3865001D02*
Y3959997D01*
X9422501Y3872504D02*
X9592503D01*
Y3967500D01*
X9422501D02*
X9592503D01*
X9422501Y3872504D02*
Y3967500D01*
X9944999Y3362503D02*
X10115001D01*
Y3457499D01*
X9944999D02*
X10115001D01*
X9944999Y3362503D02*
Y3457499D01*
%TF.MD5,743075f5212df2e64aa5235361e3af2f*%
M02*
