%TF.GenerationSoftware,Altium Limited,Altium Designer,25.7.1 (20)*%
G04 Layer_Color=65535*
%FSLAX45Y45*%
%MOMM*%
%TF.SameCoordinates,D8C98939-B5AC-4A14-9F93-74B2487226E3*%
%TF.FilePolarity,Positive*%
%TF.FileFunction,Legend,Top*%
%TF.Part,Single*%
G01*
G75*
%TA.AperFunction,NonConductor*%
%ADD120C,0.20000*%
%ADD121C,0.25000*%
%ADD122C,0.10000*%
%ADD123C,0.60000*%
%ADD124C,0.15300*%
%ADD125C,0.25400*%
%ADD126C,0.15000*%
%ADD127R,2.59999X0.77780*%
G36*
X17261652Y8232087D02*
X17287985D01*
Y8226820D01*
X17303786D01*
Y8221553D01*
X17314320D01*
Y8216286D01*
X17324854D01*
Y8211019D01*
X17335388D01*
Y8205752D01*
X17340656D01*
Y8200485D01*
X17345921D01*
Y8195218D01*
X17351189D01*
Y8189951D01*
X17345921D01*
Y8184684D01*
X17340656D01*
Y8179417D01*
X17335388D01*
Y8174150D01*
X17330121D01*
Y8168883D01*
X17324854D01*
Y8158349D01*
X17319588D01*
Y8153082D01*
X17314320D01*
Y8147815D01*
X17309053D01*
Y8142548D01*
X17303786D01*
Y8137281D01*
X17298518D01*
Y8126748D01*
X17293253D01*
Y8121481D01*
X17287985D01*
Y8116213D01*
X17282718D01*
Y8110946D01*
X17277451D01*
Y8105679D01*
X17266917D01*
Y8110946D01*
X17261652D01*
Y8116213D01*
X17256383D01*
Y8121481D01*
X17251115D01*
Y8126748D01*
X17240582D01*
Y8132014D01*
X17230049D01*
Y8137281D01*
X17214249D01*
Y8142548D01*
X17182646D01*
Y8137281D01*
X17166846D01*
Y8132014D01*
X17156311D01*
Y8126748D01*
X17145776D01*
Y8121481D01*
X17140511D01*
Y8116213D01*
X17135243D01*
Y8110946D01*
X17129976D01*
Y8100413D01*
X17124709D01*
Y8074078D01*
X17129976D01*
Y8068811D01*
X17135243D01*
Y8063544D01*
X17140511D01*
Y8058276D01*
X17156311D01*
Y8053010D01*
X17172112D01*
Y8047743D01*
X17187914D01*
Y8042476D01*
X17203714D01*
Y8037209D01*
X17214249D01*
Y8031942D01*
X17224780D01*
Y8026675D01*
X17235316D01*
Y8021408D01*
X17245850D01*
Y8016141D01*
X17251115D01*
Y8010874D01*
X17256383D01*
Y8005607D01*
X17261652D01*
Y8000340D01*
X17266917D01*
Y7979272D01*
X17272185D01*
Y7942403D01*
X17266917D01*
Y7921335D01*
X17261652D01*
Y7905534D01*
X17256383D01*
Y7895000D01*
X17251115D01*
Y7884466D01*
X17245850D01*
Y7873932D01*
X17240582D01*
Y7863398D01*
X17235316D01*
Y7858131D01*
X17230049D01*
Y7847597D01*
X17224780D01*
Y7842330D01*
X17219514D01*
Y7837063D01*
X17214249D01*
Y7831796D01*
X17208981D01*
Y7821262D01*
X17203714D01*
Y7815995D01*
X17198447D01*
Y7810728D01*
X17193179D01*
Y7805461D01*
X17187914D01*
Y7800194D01*
X17177379D01*
Y7794927D01*
X17172112D01*
Y7789660D01*
X17166846D01*
Y7784393D01*
X17156311D01*
Y7779126D01*
X17151044D01*
Y7773859D01*
X17140511D01*
Y7768592D01*
X17129976D01*
Y7763325D01*
X17119443D01*
Y7758058D01*
X17103641D01*
Y7752791D01*
X17087840D01*
Y7747524D01*
X17072038D01*
Y7742257D01*
X17040437D01*
Y7736990D01*
X16977232D01*
Y7742257D01*
X16950899D01*
Y7747524D01*
X16935097D01*
Y7752791D01*
X16919296D01*
Y7758058D01*
X16914029D01*
Y7763325D01*
X16903494D01*
Y7768592D01*
X16898228D01*
Y7773859D01*
X16892961D01*
Y7779126D01*
X16887694D01*
Y7784393D01*
X16882426D01*
Y7789660D01*
X16877161D01*
Y7794927D01*
X16871893D01*
Y7800194D01*
X16866626D01*
Y7810728D01*
X16871893D01*
Y7815995D01*
X16877161D01*
Y7821262D01*
X16882426D01*
Y7826529D01*
X16887694D01*
Y7831796D01*
X16892961D01*
Y7837063D01*
X16898228D01*
Y7842330D01*
X16903494D01*
Y7847597D01*
X16908762D01*
Y7852864D01*
X16914029D01*
Y7858131D01*
X16919296D01*
Y7863398D01*
X16924564D01*
Y7868665D01*
X16929829D01*
Y7873932D01*
X16935097D01*
Y7879199D01*
X16940364D01*
Y7884466D01*
X16945631D01*
Y7889733D01*
X16950899D01*
Y7895000D01*
X16956165D01*
Y7900267D01*
X16966699D01*
Y7889733D01*
X16971967D01*
Y7879199D01*
X16977232D01*
Y7873932D01*
X16982500D01*
Y7868665D01*
X16987767D01*
Y7863398D01*
X16993034D01*
Y7858131D01*
X16998302D01*
Y7852864D01*
X17008835D01*
Y7847597D01*
X17019370D01*
Y7842330D01*
X17035170D01*
Y7837063D01*
X17066772D01*
Y7842330D01*
X17082573D01*
Y7847597D01*
X17093108D01*
Y7852864D01*
X17103641D01*
Y7858131D01*
X17108908D01*
Y7863398D01*
X17114175D01*
Y7868665D01*
X17119443D01*
Y7873932D01*
X17124709D01*
Y7879199D01*
X17129976D01*
Y7895000D01*
X17135243D01*
Y7921335D01*
X17129976D01*
Y7926602D01*
X17124709D01*
Y7931869D01*
X17119443D01*
Y7937136D01*
X17108908D01*
Y7942403D01*
X17093108D01*
Y7947670D01*
X17077306D01*
Y7952937D01*
X17061505D01*
Y7958204D01*
X17050970D01*
Y7963471D01*
X17035170D01*
Y7968738D01*
X17024635D01*
Y7974005D01*
X17019370D01*
Y7979272D01*
X17008835D01*
Y7984539D01*
X17003568D01*
Y7989806D01*
X16998302D01*
Y8000340D01*
X16993034D01*
Y8010874D01*
X16987767D01*
Y8058276D01*
X16993034D01*
Y8074078D01*
X16998302D01*
Y8089878D01*
X17003568D01*
Y8100413D01*
X17008835D01*
Y8110946D01*
X17014102D01*
Y8121481D01*
X17019370D01*
Y8126748D01*
X17024635D01*
Y8137281D01*
X17029903D01*
Y8142548D01*
X17035170D01*
Y8147815D01*
X17040437D01*
Y8153082D01*
X17045705D01*
Y8158349D01*
X17050970D01*
Y8163616D01*
X17056238D01*
Y8168883D01*
X17061505D01*
Y8174150D01*
X17066772D01*
Y8179417D01*
X17072038D01*
Y8184684D01*
X17077306D01*
Y8189951D01*
X17082573D01*
Y8195218D01*
X17093108D01*
Y8200485D01*
X17103641D01*
Y8205752D01*
X17114175D01*
Y8211019D01*
X17124709D01*
Y8216286D01*
X17135243D01*
Y8221553D01*
X17145776D01*
Y8226820D01*
X17161578D01*
Y8232087D01*
X17193179D01*
Y8237354D01*
X17261652D01*
Y8232087D01*
D02*
G37*
G36*
X16924564Y8221553D02*
X16919296D01*
Y8200485D01*
X16914029D01*
Y8174150D01*
X16908762D01*
Y8153082D01*
X16903494D01*
Y8132014D01*
X16898228D01*
Y8110946D01*
X16892961D01*
Y8089878D01*
X16887694D01*
Y8068811D01*
X16882426D01*
Y8047743D01*
X16877161D01*
Y8021408D01*
X16871893D01*
Y8005607D01*
X16866626D01*
Y7979272D01*
X16861359D01*
Y7958204D01*
X16856091D01*
Y7937136D01*
X16850826D01*
Y7916068D01*
X16845558D01*
Y7895000D01*
X16840291D01*
Y7873932D01*
X16835023D01*
Y7852864D01*
X16829758D01*
Y7826529D01*
X16824490D01*
Y7810728D01*
X16819223D01*
Y7789660D01*
X16813956D01*
Y7763325D01*
X16808688D01*
Y7752791D01*
X16687549D01*
Y7763325D01*
X16692815D01*
Y7784393D01*
X16698082D01*
Y7805461D01*
X16703349D01*
Y7826529D01*
X16708617D01*
Y7842330D01*
X16713882D01*
Y7858131D01*
Y7863398D01*
Y7868665D01*
X16719150D01*
Y7884466D01*
X16724417D01*
Y7905534D01*
X16729684D01*
Y7926602D01*
X16734950D01*
Y7947670D01*
X16740218D01*
Y7968738D01*
X16745485D01*
Y7984539D01*
X16750752D01*
Y8000340D01*
X16756020D01*
Y8021408D01*
X16761285D01*
Y8037209D01*
X16766553D01*
Y8047743D01*
X16771820D01*
Y8058276D01*
X16766553D01*
Y8053010D01*
X16761285D01*
Y8042476D01*
X16756020D01*
Y8031942D01*
X16750752D01*
Y8021408D01*
X16745485D01*
Y8016141D01*
X16740218D01*
Y8005607D01*
X16734950D01*
Y8000340D01*
X16729684D01*
Y7989806D01*
X16724417D01*
Y7984539D01*
X16719150D01*
Y7979272D01*
X16713882D01*
Y7968738D01*
X16708617D01*
Y7963471D01*
X16703349D01*
Y7952937D01*
X16698082D01*
Y7947670D01*
X16692815D01*
Y7942403D01*
X16687549D01*
Y7931869D01*
X16682281D01*
Y7926602D01*
X16677014D01*
Y7916068D01*
X16671747D01*
Y7910801D01*
X16666481D01*
Y7900267D01*
X16661214D01*
Y7895000D01*
X16655946D01*
Y7884466D01*
X16650679D01*
Y7879199D01*
X16645412D01*
Y7873932D01*
X16640146D01*
Y7863398D01*
X16634879D01*
Y7858131D01*
X16629611D01*
Y7847597D01*
X16624344D01*
Y7842330D01*
X16619078D01*
Y7831796D01*
X16613811D01*
Y7826529D01*
X16608543D01*
Y7815995D01*
X16603278D01*
Y7810728D01*
X16598009D01*
Y7805461D01*
X16592743D01*
Y7794927D01*
X16587476D01*
Y7789660D01*
X16582208D01*
Y7779126D01*
X16576942D01*
Y7773859D01*
X16571675D01*
Y7763325D01*
X16566408D01*
Y7758058D01*
X16561140D01*
Y7752791D01*
X16555875D01*
Y7747524D01*
X16550607D01*
Y7752791D01*
X16471602D01*
Y7763325D01*
X16476869D01*
Y7810728D01*
X16482137D01*
Y7858131D01*
X16487402D01*
Y7910801D01*
X16492670D01*
Y7958204D01*
X16497937D01*
Y8005607D01*
X16503204D01*
Y8042476D01*
X16508472D01*
Y8058276D01*
X16503204D01*
Y8047743D01*
X16497937D01*
Y8031942D01*
X16492670D01*
Y8021408D01*
X16487402D01*
Y8010874D01*
X16482137D01*
Y8000340D01*
X16476869D01*
Y7989806D01*
X16471602D01*
Y7979272D01*
X16466335D01*
Y7968738D01*
X16461069D01*
Y7963471D01*
X16455801D01*
Y7952937D01*
X16450534D01*
Y7942403D01*
X16445267D01*
Y7931869D01*
X16439999D01*
Y7921335D01*
X16434734D01*
Y7916068D01*
X16429466D01*
Y7905534D01*
X16424199D01*
Y7895000D01*
X16418932D01*
Y7884466D01*
X16413664D01*
Y7873932D01*
X16408398D01*
Y7863398D01*
X16403131D01*
Y7852864D01*
X16397864D01*
Y7842330D01*
X16392596D01*
Y7837063D01*
X16387331D01*
Y7826529D01*
X16382063D01*
Y7815995D01*
X16376796D01*
Y7805461D01*
X16371529D01*
Y7794927D01*
X16366261D01*
Y7784393D01*
X16360995D01*
Y7773859D01*
X16355728D01*
Y7768592D01*
X16350461D01*
Y7758058D01*
X16345193D01*
Y7752791D01*
X16224052D01*
Y7758058D01*
X16229320D01*
Y7763325D01*
X16234587D01*
Y7773859D01*
X16239854D01*
Y7784393D01*
X16245120D01*
Y7794927D01*
X16250388D01*
Y7805461D01*
X16255655D01*
Y7810728D01*
X16260922D01*
Y7821262D01*
X16266190D01*
Y7831796D01*
X16271455D01*
Y7842330D01*
X16276723D01*
Y7852864D01*
X16281990D01*
Y7858131D01*
X16287257D01*
Y7868665D01*
X16292525D01*
Y7879199D01*
X16297791D01*
Y7889733D01*
X16303058D01*
Y7900267D01*
X16308325D01*
Y7905534D01*
X16313593D01*
Y7916068D01*
X16318858D01*
Y7926602D01*
X16324126D01*
Y7937136D01*
X16329393D01*
Y7947670D01*
X16334660D01*
Y7952937D01*
X16339928D01*
Y7963471D01*
X16345193D01*
Y7974005D01*
X16350461D01*
Y7984539D01*
X16355728D01*
Y7995073D01*
X16360995D01*
Y8000340D01*
X16366261D01*
Y8010874D01*
X16371529D01*
Y8021408D01*
X16376796D01*
Y8031942D01*
X16382063D01*
Y8042476D01*
X16387331D01*
Y8047743D01*
X16392596D01*
Y8058276D01*
X16397864D01*
Y8068811D01*
X16403131D01*
Y8079345D01*
X16408398D01*
Y8089878D01*
X16413664D01*
Y8095146D01*
X16418932D01*
Y8105679D01*
X16424199D01*
Y8116213D01*
X16429466D01*
Y8126748D01*
X16434734D01*
Y8137281D01*
X16439999D01*
Y8142548D01*
X16445267D01*
Y8153082D01*
X16450534D01*
Y8163616D01*
X16455801D01*
Y8174150D01*
X16461069D01*
Y8184684D01*
X16466335D01*
Y8195218D01*
X16471602D01*
Y8200485D01*
X16476869D01*
Y8211019D01*
X16482137D01*
Y8221553D01*
X16487402D01*
Y8226820D01*
X16613811D01*
Y8168883D01*
X16608543D01*
Y8121481D01*
X16603278D01*
Y8068811D01*
X16598009D01*
Y8021408D01*
X16592743D01*
Y7963471D01*
X16587476D01*
Y7931869D01*
X16582208D01*
Y7921335D01*
X16587476D01*
Y7926602D01*
X16592743D01*
Y7937136D01*
X16598009D01*
Y7947670D01*
X16603278D01*
Y7958204D01*
X16608543D01*
Y7963471D01*
X16613811D01*
Y7968738D01*
X16619078D01*
Y7979272D01*
X16624344D01*
Y7984539D01*
X16629611D01*
Y7995073D01*
X16634879D01*
Y8000340D01*
X16640146D01*
Y8010874D01*
X16645412D01*
Y8016141D01*
X16650679D01*
Y8026675D01*
X16655946D01*
Y8031942D01*
X16661214D01*
Y8042476D01*
X16666481D01*
Y8047743D01*
X16671747D01*
Y8053010D01*
X16677014D01*
Y8063544D01*
X16682281D01*
Y8068811D01*
X16687549D01*
Y8079345D01*
X16692815D01*
Y8084611D01*
X16698082D01*
Y8089878D01*
X16703349D01*
Y8100413D01*
X16708617D01*
Y8105679D01*
X16713882D01*
Y8116213D01*
X16719150D01*
Y8121481D01*
X16724417D01*
Y8132014D01*
X16729684D01*
Y8137281D01*
X16734950D01*
Y8147815D01*
X16740218D01*
Y8153082D01*
X16745485D01*
Y8158349D01*
X16750752D01*
Y8168883D01*
X16756020D01*
Y8174150D01*
X16761285D01*
Y8184684D01*
X16766553D01*
Y8189951D01*
X16771820D01*
Y8200485D01*
X16777087D01*
Y8205752D01*
X16782355D01*
Y8211019D01*
X16787621D01*
Y8221553D01*
X16792888D01*
Y8226820D01*
X16924564D01*
Y8221553D01*
D02*
G37*
G36*
X17767281Y8216286D02*
X17762015D01*
Y8200485D01*
X17756747D01*
Y8189951D01*
X17751482D01*
Y8174150D01*
X17746214D01*
Y8163616D01*
X17740945D01*
Y8147815D01*
X17735680D01*
Y8137281D01*
X17730412D01*
Y8121481D01*
X17725146D01*
Y8116213D01*
X17619806D01*
Y8110946D01*
X17614539D01*
Y8100413D01*
X17609271D01*
Y8089878D01*
X17604005D01*
Y8074078D01*
X17598738D01*
Y8063544D01*
X17593471D01*
Y8053010D01*
X17588203D01*
Y8037209D01*
X17582938D01*
Y8021408D01*
X17577670D01*
Y8010874D01*
X17572403D01*
Y7995073D01*
X17567136D01*
Y7984539D01*
X17561868D01*
Y7974005D01*
X17556602D01*
Y7958204D01*
X17551335D01*
Y7942403D01*
X17546068D01*
Y7931869D01*
X17540800D01*
Y7921335D01*
X17535535D01*
Y7905534D01*
X17530267D01*
Y7895000D01*
X17525000D01*
Y7879199D01*
X17519733D01*
Y7863398D01*
X17514465D01*
Y7852864D01*
X17509200D01*
Y7837063D01*
X17503932D01*
Y7826529D01*
X17498665D01*
Y7810728D01*
X17493398D01*
Y7800194D01*
X17488132D01*
Y7784393D01*
X17482864D01*
Y7773859D01*
X17477597D01*
Y7758058D01*
X17472330D01*
Y7752791D01*
X17456529D01*
Y7747524D01*
X17451262D01*
Y7752791D01*
X17340656D01*
Y7758058D01*
X17345921D01*
Y7768592D01*
X17351189D01*
Y7779126D01*
X17356456D01*
Y7794927D01*
X17361723D01*
Y7810728D01*
X17366991D01*
Y7821262D01*
X17372256D01*
Y7837063D01*
X17377524D01*
Y7847597D01*
X17382791D01*
Y7863398D01*
X17388058D01*
Y7873932D01*
X17393324D01*
Y7889733D01*
X17398592D01*
Y7900267D01*
X17403859D01*
Y7916068D01*
X17409126D01*
Y7926602D01*
X17414394D01*
Y7942403D01*
X17419659D01*
Y7952937D01*
X17424927D01*
Y7968738D01*
X17430194D01*
Y7979272D01*
X17435461D01*
Y7995073D01*
X17440729D01*
Y8005607D01*
X17445995D01*
Y8021408D01*
X17451262D01*
Y8031942D01*
X17456529D01*
Y8047743D01*
X17461797D01*
Y8058276D01*
X17467062D01*
Y8074078D01*
X17472330D01*
Y8084611D01*
X17477597D01*
Y8100413D01*
X17482864D01*
Y8116213D01*
X17377524D01*
Y8121481D01*
X17382791D01*
Y8132014D01*
X17388058D01*
Y8147815D01*
X17393324D01*
Y8158349D01*
X17398592D01*
Y8174150D01*
X17403859D01*
Y8184684D01*
X17409126D01*
Y8200485D01*
X17414394D01*
Y8211019D01*
X17419659D01*
Y8221553D01*
X17424927D01*
Y8226820D01*
X17767281D01*
Y8216286D01*
D02*
G37*
G36*
X16461069Y7673786D02*
X16598009D01*
Y7668519D01*
X16603278D01*
Y7663252D01*
X16613811D01*
Y7657985D01*
X16624344D01*
Y7652718D01*
X16634879D01*
Y7647451D01*
X16645412D01*
Y7642184D01*
X16655946D01*
Y7636917D01*
X16666481D01*
Y7631650D01*
X16677014D01*
Y7626383D01*
X16687549D01*
Y7621116D01*
X16698082D01*
Y7615849D01*
X16713882D01*
Y7610582D01*
X16724417D01*
Y7605315D01*
X16740218D01*
Y7600048D01*
X16750752D01*
Y7594781D01*
X16766553D01*
Y7589514D01*
X16782355D01*
Y7584247D01*
X16798155D01*
Y7578981D01*
X16819223D01*
Y7573713D01*
X16840291D01*
Y7568446D01*
X16861359D01*
Y7563179D01*
X16892961D01*
Y7557912D01*
X16924564D01*
Y7552646D01*
X17066772D01*
Y7557912D01*
X17098373D01*
Y7563179D01*
X17124709D01*
Y7568446D01*
X17145776D01*
Y7573713D01*
X17161578D01*
Y7578981D01*
X17182646D01*
Y7584247D01*
X17198447D01*
Y7589514D01*
X17203714D01*
Y7594781D01*
X17187914D01*
Y7589514D01*
X17145776D01*
Y7594781D01*
X17108908D01*
Y7600048D01*
X17082573D01*
Y7605315D01*
X17066772D01*
Y7610582D01*
X17050970D01*
Y7615849D01*
X17040437D01*
Y7621116D01*
X17024635D01*
Y7626383D01*
X17014102D01*
Y7631650D01*
X17003568D01*
Y7636917D01*
X16993034D01*
Y7642184D01*
X16982500D01*
Y7647451D01*
X16977232D01*
Y7652718D01*
X16966699D01*
Y7657985D01*
X16956165D01*
Y7663252D01*
X16950899D01*
Y7668519D01*
X16945631D01*
Y7673786D01*
X16950899D01*
Y7668519D01*
X17008835D01*
Y7663252D01*
X17014102D01*
Y7657985D01*
X17024635D01*
Y7652718D01*
X17040437D01*
Y7647451D01*
X17050970D01*
Y7642184D01*
X17061505D01*
Y7636917D01*
X17077306D01*
Y7631650D01*
X17093108D01*
Y7626383D01*
X17119443D01*
Y7621116D01*
X17214249D01*
Y7626383D01*
X17235316D01*
Y7631650D01*
X17251115D01*
Y7636917D01*
X17266917D01*
Y7642184D01*
X17277451D01*
Y7647451D01*
X17287985D01*
Y7652718D01*
X17293253D01*
Y7657985D01*
X17303786D01*
Y7663252D01*
X17309053D01*
Y7668519D01*
X17351189D01*
Y7673786D01*
X17467062D01*
Y7668519D01*
X17461797D01*
Y7663252D01*
X17456529D01*
Y7657985D01*
X17451262D01*
Y7652718D01*
X17445995D01*
Y7647451D01*
X17440729D01*
Y7642184D01*
X17435461D01*
Y7636917D01*
X17424927D01*
Y7631650D01*
X17419659D01*
Y7626383D01*
X17414394D01*
Y7621116D01*
X17409126D01*
Y7615849D01*
X17398592D01*
Y7610582D01*
X17393324D01*
Y7605315D01*
X17382791D01*
Y7600048D01*
X17377524D01*
Y7594781D01*
X17372256D01*
Y7589514D01*
X17361723D01*
Y7584247D01*
X17351189D01*
Y7578981D01*
X17345921D01*
Y7573713D01*
X17335388D01*
Y7568446D01*
X17324854D01*
Y7563179D01*
X17314320D01*
Y7557912D01*
X17303786D01*
Y7552646D01*
X17293253D01*
Y7547378D01*
X17282718D01*
Y7542111D01*
X17272185D01*
Y7536844D01*
X17261652D01*
Y7531578D01*
X17245850D01*
Y7526311D01*
X17235316D01*
Y7521044D01*
X17219514D01*
Y7515776D01*
X17203714D01*
Y7510509D01*
X17182646D01*
Y7505243D01*
X17166846D01*
Y7499976D01*
X17140511D01*
Y7494709D01*
X17119443D01*
Y7489441D01*
X17082573D01*
Y7484175D01*
X16908762D01*
Y7489441D01*
X16871893D01*
Y7494709D01*
X16845558D01*
Y7499976D01*
X16819223D01*
Y7505243D01*
X16798155D01*
Y7510509D01*
X16777087D01*
Y7515776D01*
X16761285D01*
Y7521044D01*
X16745485D01*
Y7526311D01*
X16729684D01*
Y7531578D01*
X16713882D01*
Y7536844D01*
X16703349D01*
Y7542111D01*
X16687549D01*
Y7547378D01*
X16677014D01*
Y7552646D01*
X16661214D01*
Y7557912D01*
X16650679D01*
Y7563179D01*
X16640146D01*
Y7568446D01*
X16629611D01*
Y7573713D01*
X16619078D01*
Y7578981D01*
X16608543D01*
Y7584247D01*
X16598009D01*
Y7589514D01*
X16587476D01*
Y7594781D01*
X16576942D01*
Y7600048D01*
X16566408D01*
Y7605315D01*
X16555875D01*
Y7610582D01*
X16550607D01*
Y7615849D01*
X16540073D01*
Y7621116D01*
X16529539D01*
Y7626383D01*
X16524272D01*
Y7631650D01*
X16513737D01*
Y7636917D01*
X16503204D01*
Y7642184D01*
X16497937D01*
Y7647451D01*
X16487402D01*
Y7652718D01*
X16482137D01*
Y7657985D01*
X16471602D01*
Y7663252D01*
X16466335D01*
Y7668519D01*
X16455801D01*
Y7679053D01*
X16461069D01*
Y7673786D01*
D02*
G37*
D120*
X2925000Y4341500D02*
G03*
X2925000Y4341500I-5000J0D01*
G01*
X15582500Y7577500D02*
G03*
X15582500Y7577500I-5000J0D01*
G01*
X3562001Y7645501D02*
G03*
X3562001Y7645501I-5000J0D01*
G01*
X11283002Y3078998D02*
G03*
X11283002Y3078998I-5000J0D01*
G01*
X4768000Y5538000D02*
G03*
X4768000Y5538000I-5000J0D01*
G01*
X7515000Y6942255D02*
Y7152875D01*
X7695000Y6942255D02*
Y7152875D01*
X7677500Y8114688D02*
Y8325308D01*
X7497500Y8114688D02*
Y8325308D01*
X15064459Y5349393D02*
X15345673D01*
X15064459Y5530607D02*
X15345673D01*
X9099393Y6952392D02*
Y7233605D01*
X9280607Y6952392D02*
Y7233605D01*
X9129393Y5684329D02*
Y5965542D01*
X9310607Y5684329D02*
Y5965542D01*
X6306893Y4064330D02*
Y4345544D01*
X6488106Y4064330D02*
Y4345544D01*
X4596893Y2759328D02*
Y3040542D01*
X4778107Y2759328D02*
Y3040542D01*
X14264999Y6619690D02*
Y6870310D01*
X14039999Y6619690D02*
Y6870310D01*
X11547003Y3993500D02*
X12476998D01*
X11547003D02*
Y4923495D01*
X12476998D01*
Y3993500D02*
Y4923495D01*
X16769580Y7388107D02*
X17050793D01*
X16769580Y7206893D02*
X17050793D01*
X10699393Y5758107D02*
X10980606D01*
X10699393Y5576893D02*
X10980606D01*
X10781893Y3706894D02*
Y3988107D01*
X10963107Y3706894D02*
Y3988107D01*
X15941893Y4799394D02*
Y5080607D01*
X16123106Y4799394D02*
Y5080607D01*
X4925001Y7047503D02*
X5070000D01*
X5105001Y6742500D02*
Y7042505D01*
Y6742500D02*
X5335003D01*
Y7042505D01*
X5105001D02*
X5335003D01*
X4645000Y8114995D02*
X4789998D01*
X4824999Y7809997D02*
Y8109996D01*
Y7809997D02*
X5055001D01*
Y8109996D01*
X4824999D02*
X5055001D01*
X17049998Y3035498D02*
X17149998D01*
X17049998Y4674499D02*
X17149998D01*
X16099998D02*
X16199998D01*
X16099998Y3035498D02*
X16199998D01*
X14820001Y4361378D02*
Y4488622D01*
X14954997Y4361378D02*
Y4488622D01*
X14952502Y5704235D02*
Y5831479D01*
X15087498Y5704235D02*
Y5831479D01*
X14474835Y5737367D02*
Y6047369D01*
X14644832Y5737367D02*
Y6047369D01*
X14474835D02*
X14644832D01*
X14474835Y5737367D02*
X14644832D01*
X15082497Y4065000D02*
X15242496D01*
X15082497Y4325005D02*
X15242496D01*
X12333879Y3610005D02*
X12461123D01*
X12333879Y3745001D02*
X12461123D01*
X7712502Y7727437D02*
Y7887437D01*
X7532502Y7727437D02*
Y7887437D01*
X7271736Y8349996D02*
X7398979D01*
X7271736Y8215000D02*
X7398979D01*
X6962501Y8076504D02*
X7122500D01*
X6962501Y7576500D02*
X7122500D01*
X6962501D02*
Y8076504D01*
X7122500Y7576500D02*
Y8076504D01*
X5583880Y7040001D02*
X5711124D01*
X5583880Y7174997D02*
X5711124D01*
X14262502Y4882500D02*
X14392503D01*
X14262502Y5092502D02*
X14392503D01*
X11399998Y6484000D02*
Y7363998D01*
X11599997Y6484000D02*
Y7363998D01*
X11399998D02*
X11599997D01*
X11399998Y6484000D02*
X11599997D01*
X17290997Y6127498D02*
Y6232502D01*
X17530499Y6372999D02*
X17548000D01*
Y5987001D02*
Y6105502D01*
Y6254498D02*
Y6372999D01*
X17530499Y5987001D02*
X17548000D01*
X17545499Y6474501D02*
X17562999D01*
Y6741998D02*
Y6860499D01*
Y6474501D02*
Y6593002D01*
X17545499Y6860499D02*
X17562999D01*
X17306001Y6614998D02*
Y6720002D01*
X17179712Y2697089D02*
X17505533D01*
X17179712Y2927914D02*
X17505533D01*
X16769247Y2761162D02*
Y2928406D01*
X16621999Y2761162D02*
Y2928406D01*
X17006126Y2776164D02*
Y2923407D01*
X16868874Y2776164D02*
Y2923407D01*
X4790609Y6918877D02*
Y7151124D01*
X4614394Y6918877D02*
Y7151124D01*
X8444499Y7502500D02*
X8944498D01*
X8444499Y7822499D02*
X8944498D01*
X8444499Y7502500D02*
Y7822499D01*
X8944498Y7502500D02*
Y7822499D01*
X9130000Y6084997D02*
X9299997D01*
X9130000Y6234999D02*
X9299997D01*
X9567499Y7009003D02*
Y7889001D01*
X9767499Y7009003D02*
Y7889001D01*
X9567499D02*
X9767499D01*
X9567499Y7009003D02*
X9767499D01*
X8472500Y6077499D02*
X8972504D01*
X8472500Y6397498D02*
X8972504D01*
X8472500Y6077499D02*
Y6397498D01*
X8972504Y6077499D02*
Y6397498D01*
X5027498Y4574499D02*
X5347498D01*
X5027498Y5074503D02*
X5347498D01*
Y4574499D02*
Y5074503D01*
X5027498Y4574499D02*
Y5074503D01*
X2947497Y2902001D02*
X3267497D01*
X2947497Y3402005D02*
X3267497D01*
Y2902001D02*
Y3402005D01*
X2947497Y2902001D02*
Y3402005D01*
X9617502Y5725003D02*
X9817501D01*
X9617502Y6605001D02*
X9817501D01*
Y5725003D02*
Y6605001D01*
X9617502Y5725003D02*
Y6605001D01*
X6849501Y4066200D02*
X7049501D01*
X6849501Y4946198D02*
X7049501D01*
Y4066200D02*
Y4946198D01*
X6849501Y4066200D02*
Y4946198D01*
X5104999Y2885003D02*
X5304998D01*
X5104999Y3765001D02*
X5304998D01*
Y2885003D02*
Y3765001D01*
X5104999Y2885003D02*
Y3765001D01*
X8937503Y7005000D02*
Y7175002D01*
X8787501Y7005000D02*
Y7175002D01*
X5770001Y2562499D02*
Y2732496D01*
X5600004Y2562499D02*
Y2732496D01*
X11603878Y5235002D02*
X11731122D01*
X11603878Y5369998D02*
X11731122D01*
X14254997Y5262499D02*
X14429999D01*
X14254997Y5602498D02*
X14429999D01*
X13950000Y5402499D02*
Y5462499D01*
X13919998Y5432501D02*
X13980003D01*
X14130411Y4709465D02*
Y5035286D01*
X13899586Y4709465D02*
Y5035286D01*
X15222499Y5845002D02*
Y5915000D01*
X15532501Y5845002D02*
Y5915000D01*
X15222499Y5845002D02*
X15532501D01*
X15222499Y5915000D02*
X15532501D01*
X14937999Y6895003D02*
Y7060001D01*
Y6895003D02*
X15093996D01*
Y7060001D01*
X14937999D02*
X15093996D01*
X15056969Y6777914D02*
X15382790D01*
X15056969Y6547089D02*
X15382790D01*
X14512500Y6919691D02*
Y7170308D01*
X14737503Y6919691D02*
Y7170308D01*
X14549998Y6762501D02*
X14664999D01*
X14700002Y6467500D02*
Y6757497D01*
Y6467500D02*
X14774997D01*
Y6757497D01*
X14700002D02*
X14774997D01*
X15602504Y5455001D02*
Y5635000D01*
X15457500Y5455001D02*
Y5635000D01*
X14006023Y5827497D02*
X14133266D01*
X14006023Y5692501D02*
X14133266D01*
X16897498Y5567502D02*
X17392497D01*
X16897498Y4907498D02*
X17669998D01*
X16252499Y5175001D02*
Y5308600D01*
Y5175001D02*
X16252505D01*
X16512505D02*
Y5308600D01*
X16252505Y5175001D02*
X16512505D01*
X16150961Y2952501D02*
X16300963D01*
X16150961Y2767503D02*
X16300963D01*
X15100000Y5913882D02*
Y6041126D01*
X14965004Y5913882D02*
Y6041126D01*
X14118234Y6026810D02*
Y6096813D01*
X13968233Y6026810D02*
Y6096813D01*
X16234000Y6890502D02*
X16251498D01*
X16234000Y6504498D02*
Y6622999D01*
Y6772001D02*
Y6890502D01*
Y6504498D02*
X16251498D01*
X16491000Y6645001D02*
Y6749999D01*
X16470499Y5986998D02*
X16487999D01*
Y6254501D02*
Y6373002D01*
Y5986998D02*
Y6105500D01*
X16470499Y6373002D02*
X16487999D01*
X16231001Y6127501D02*
Y6232500D01*
X6497503Y3160001D02*
Y3329998D01*
X6347501Y3160001D02*
Y3329998D01*
X6847347Y2734843D02*
Y3614842D01*
X7047347Y2734843D02*
Y3614842D01*
X6847347D02*
X7047347D01*
X6847347Y2734843D02*
X7047347D01*
X12866022Y3985002D02*
X12993266D01*
X12866022Y4119998D02*
X12993266D01*
X8945001Y2720000D02*
Y3599998D01*
X9145001Y2720000D02*
Y3599998D01*
X8945001D02*
X9145001D01*
X8945001Y2720000D02*
X9145001D01*
X7582499Y4440001D02*
Y4610003D01*
X7432497Y4440001D02*
Y4610003D01*
X6271158Y7688626D02*
X6438407D01*
X6271158Y7541377D02*
X6438407D01*
X7377501Y3472500D02*
Y3642497D01*
X7527503Y3472500D02*
Y3642497D01*
X5702498Y3187502D02*
Y3357504D01*
X5852500Y3187502D02*
Y3357504D01*
X6391377Y7897500D02*
X6518620D01*
X6391377Y7762504D02*
X6518620D01*
X6882501Y6337503D02*
X7042501D01*
X6882501Y6837502D02*
X7042501D01*
Y6337503D02*
Y6837502D01*
X6882501Y6337503D02*
Y6837502D01*
X6391123Y7213874D02*
Y7381123D01*
X6243879Y7213874D02*
Y7381123D01*
X7083664Y7077502D02*
X7210908D01*
X7083664Y7212498D02*
X7210908D01*
X6737502Y7217496D02*
Y7377501D01*
X6917502Y7217496D02*
Y7377501D01*
X7078878Y7282500D02*
X7206122D01*
X7078878Y7417501D02*
X7206122D01*
X7337501Y7195002D02*
Y7355002D01*
X7517501Y7195002D02*
Y7355002D01*
X6492499Y7217501D02*
Y7377501D01*
X6672499Y7217501D02*
Y7377501D01*
X3812499Y7937002D02*
X3982501D01*
X3811965Y8097733D02*
X3981968D01*
X12782499Y3375000D02*
X12952501D01*
X12782499Y3205002D02*
X12952501D01*
X4614997Y4412498D02*
Y4582495D01*
X4764999Y4412498D02*
Y4582495D01*
X15275311Y4757186D02*
Y5137810D01*
X14964690Y4757186D02*
Y5137810D01*
X14820311Y4709770D02*
Y5000391D01*
X14594688Y4709770D02*
Y5000391D01*
X11217499Y5465003D02*
X11437503D01*
X11217499Y5255006D02*
X11437503D01*
X12371024Y5215001D02*
X12498268D01*
X12371024Y5349997D02*
X12498268D01*
X12849591Y4562495D02*
X12976836D01*
X12849591Y4697491D02*
X12976836D01*
X12575002Y2664998D02*
Y2834996D01*
X12405004Y2664998D02*
Y2834996D01*
X12000001Y6629999D02*
Y6800002D01*
X12150004Y6629999D02*
Y6800002D01*
X12740000Y7257501D02*
X12909998D01*
X12740000Y7407504D02*
X12909998D01*
X12437501Y6327501D02*
X12637501D01*
X12437501Y7207499D02*
X12637501D01*
Y6327501D02*
Y7207499D01*
X12437501Y6327501D02*
Y7207499D01*
X12049999Y7154997D02*
Y7324994D01*
X11899997Y7154997D02*
Y7324994D01*
X11889999Y8147502D02*
X11995003D01*
X10337499Y5737495D02*
Y5907497D01*
X10167501Y5737495D02*
Y5907497D01*
X8512500Y6782501D02*
X8682497D01*
X8512500Y6632499D02*
X8682497D01*
X8812500Y5715000D02*
X8982497D01*
X8812500Y5865002D02*
X8982497D01*
X10292501Y6159998D02*
Y6330000D01*
X10142499Y6159998D02*
Y6330000D01*
X10135001Y5447497D02*
Y5552501D01*
X10954999Y6752502D02*
Y6922499D01*
X11105001Y6752502D02*
Y6922499D01*
X10352499Y7047504D02*
Y7217501D01*
X10182502Y7047504D02*
Y7217501D01*
X10197501Y7432502D02*
Y7602499D01*
X10047498Y7432502D02*
Y7602499D01*
X6484996Y6298524D02*
Y6425768D01*
X6350000Y6298524D02*
Y6425768D01*
X7592700Y5881599D02*
Y6008842D01*
X7457704Y5881599D02*
Y6008842D01*
X6322502Y5771378D02*
Y5898622D01*
X6457498Y5771378D02*
Y5898622D01*
X6900001Y5533502D02*
Y6033501D01*
X7060001Y5533502D02*
Y6033501D01*
X6900001D02*
X7060001D01*
X6900001Y5533502D02*
X7060001D01*
X7437501Y6649232D02*
Y6776476D01*
X7572497Y6649232D02*
Y6776476D01*
X9447500Y3510001D02*
Y3679998D01*
X9597502Y3510001D02*
Y3679998D01*
X8422498Y3085003D02*
Y3255000D01*
X8572500Y3085003D02*
Y3255000D01*
X3675001Y3190004D02*
Y3360001D01*
X3524999Y3190004D02*
Y3360001D01*
X7562499Y4002496D02*
Y4172499D01*
X7392502Y4002496D02*
Y4172499D01*
X5719999Y4875002D02*
Y5044999D01*
X5569996Y4875002D02*
Y5044999D01*
X6292499Y4609998D02*
Y4779996D01*
X6442502Y4609998D02*
Y4779996D01*
X6467500Y5314999D02*
Y5420002D01*
X8422500Y8162500D02*
X8592497D01*
X8422500Y8312502D02*
X8592497D01*
X9122501Y7447504D02*
Y7617501D01*
X9272504Y7447504D02*
Y7617501D01*
X4564998Y3345003D02*
Y3515000D01*
X4715000Y3345003D02*
Y3515000D01*
X5020996Y4053459D02*
Y4158463D01*
X2827498Y2850002D02*
X2997495D01*
X2827498Y2700000D02*
X2997495D01*
X5377505Y8066375D02*
Y8193618D01*
X5512501Y8066375D02*
Y8193618D01*
X5323881Y7767498D02*
X5451124D01*
X5323881Y7632502D02*
X5451124D01*
X5646024Y6640002D02*
X5773268D01*
X5646024Y6774998D02*
X5773268D01*
X5431203Y7995001D02*
X5558447D01*
X5431203Y7860005D02*
X5558447D01*
X5688878Y6962500D02*
X5816121D01*
X5688878Y6827504D02*
X5816121D01*
X5409468Y5733232D02*
X5579471D01*
X5410002Y5572501D02*
X5580004D01*
D121*
X12647001Y4008499D02*
G03*
X12647001Y4008499I-12500J0D01*
G01*
X16060001Y4577000D02*
G03*
X16060001Y4577000I-12500J0D01*
G01*
X14352332Y6067367D02*
G03*
X14352332Y6067367I-12500J0D01*
G01*
X15020000Y4269999D02*
G03*
X15020000Y4269999I-12500J0D01*
G01*
X7299998Y7545999D02*
G03*
X7299998Y7545999I-12500J0D01*
G01*
X14517500Y4945000D02*
G03*
X14517500Y4945000I-12500J0D01*
G01*
X11277498Y7390000D02*
G03*
X11277498Y7390000I-12500J0D01*
G01*
X8433998Y7399998D02*
G03*
X8433998Y7399998I-12500J0D01*
G01*
X9445001Y7915000D02*
G03*
X9445001Y7915000I-12500J0D01*
G01*
X8462000Y5975001D02*
G03*
X8462000Y5975001I-12500J0D01*
G01*
X4937499Y5097499D02*
G03*
X4937499Y5097499I-12500J0D01*
G01*
X2857500Y3425002D02*
G03*
X2857500Y3425002I-12500J0D01*
G01*
X9495000Y6631000D02*
G03*
X9495000Y6631000I-12500J0D01*
G01*
X6727000Y4972199D02*
G03*
X6727000Y4972199I-12500J0D01*
G01*
X4982498Y3791000D02*
G03*
X4982498Y3791000I-12500J0D01*
G01*
X15210001Y5760000D02*
G03*
X15210001Y5760000I-12500J0D01*
G01*
X14864999Y7093501D02*
G03*
X14864999Y7093501I-12500J0D01*
G01*
X16395000Y4880004D02*
G03*
X16395000Y4880004I-12500J0D01*
G01*
X6724845Y3640845D02*
G03*
X6724845Y3640845I-12500J0D01*
G01*
X8822500Y3626000D02*
G03*
X8822500Y3626000I-12500J0D01*
G01*
X6730000Y6868000D02*
G03*
X6730000Y6868000I-12500J0D01*
G01*
X12315000Y7233500D02*
G03*
X12315000Y7233500I-12500J0D01*
G01*
X6747502Y6064002D02*
G03*
X6747502Y6064002I-12500J0D01*
G01*
D122*
X14160001Y2670000D02*
G03*
X14160001Y2680000I0J5000D01*
G01*
D02*
G03*
X14160001Y2670000I0J-5000D01*
G01*
X13960001Y3295000D02*
G03*
X13960001Y3305000I0J5000D01*
G01*
D02*
G03*
X13960001Y3295000I0J-5000D01*
G01*
X14497501Y3937500D02*
G03*
X14497501Y3927500I0J-5000D01*
G01*
D02*
G03*
X14497501Y3937500I0J5000D01*
G01*
X15314999Y2692500D02*
G03*
X15314999Y2682500I0J-5000D01*
G01*
D02*
G03*
X15314999Y2692500I0J5000D01*
G01*
X12777496Y2719998D02*
G03*
X12767496Y2719998I-5000J0D01*
G01*
D02*
G03*
X12777496Y2719998I5000J0D01*
G01*
X3143500Y4463500D02*
X3651500D01*
X3143500Y3701500D02*
X3651500D01*
X14846001Y7455500D02*
X15353999D01*
X14846001Y8217500D02*
X15353999D01*
X14493001Y2746502D02*
X14996999D01*
X14488998Y3762502D02*
X14996999D01*
X14185001Y4402501D02*
X14575003D01*
X14185001Y4112499D02*
X14575003D01*
X9053500Y5255499D02*
X9557502D01*
X9053500Y4239499D02*
X9561500D01*
X3856000Y5346499D02*
Y5854499D01*
X2840000Y5346499D02*
Y5850501D01*
X3007004Y7968000D02*
X3350000D01*
X3007004Y7587000D02*
X3350000D01*
X11485006Y2756499D02*
X11828003D01*
X11485006Y3137499D02*
X11828003D01*
X4704502Y5745002D02*
Y6088004D01*
X5085502Y5745002D02*
Y6088004D01*
D123*
X8574498Y7602498D02*
G03*
X8574498Y7602498I-30000J0D01*
G01*
X8602500Y6177501D02*
G03*
X8602500Y6177501I-30000J0D01*
G01*
X5157498Y4974499D02*
G03*
X5157498Y4974499I-30000J0D01*
G01*
X3077500Y3302002D02*
G03*
X3077500Y3302002I-30000J0D01*
G01*
D124*
X15364445Y3161106D02*
X15347784Y3177768D01*
X15314461D01*
X15297800Y3161106D01*
Y3094461D01*
X15314461Y3077800D01*
X15347784D01*
X15364445Y3094461D01*
X15397768Y3177768D02*
Y3077800D01*
X15464413D01*
X15564381Y3161106D02*
X15547719Y3177768D01*
X15514397D01*
X15497736Y3161106D01*
Y3094461D01*
X15514397Y3077800D01*
X15547719D01*
X15564381Y3094461D01*
X15597704Y3177768D02*
Y3077800D01*
Y3111123D01*
X15664348Y3177768D01*
X15614365Y3127784D01*
X15664348Y3077800D01*
X8501945Y5165268D02*
X8435300D01*
Y5065300D01*
X8501945D01*
X8435300Y5115284D02*
X8468622D01*
X8535268Y5165268D02*
X8568590D01*
X8551929D01*
Y5065300D01*
X8535268D01*
X8568590D01*
X8668558D02*
Y5165268D01*
X8618574Y5115284D01*
X8685219D01*
X2554445Y7963606D02*
X2537784Y7980268D01*
X2504461D01*
X2487800Y7963606D01*
Y7896961D01*
X2504461Y7880300D01*
X2537784D01*
X2554445Y7896961D01*
Y7930284D01*
X2521122D01*
X2587768Y7963606D02*
X2604429Y7980268D01*
X2637752D01*
X2654413Y7963606D01*
Y7946945D01*
X2637752Y7930284D01*
X2621090D01*
X2637752D01*
X2654413Y7913622D01*
Y7896961D01*
X2637752Y7880300D01*
X2604429D01*
X2587768Y7896961D01*
X17061945Y6897768D02*
X17028622Y6881106D01*
X16995300Y6847784D01*
Y6814461D01*
X17011961Y6797800D01*
X17045284D01*
X17061945Y6814461D01*
Y6831122D01*
X17045284Y6847784D01*
X16995300D01*
X16895300Y6697784D02*
X16961945D01*
X17061913Y6747768D02*
X17028590Y6731106D01*
X16995268Y6697784D01*
Y6664461D01*
X17011929Y6647800D01*
X17045251D01*
X17061913Y6664461D01*
Y6681123D01*
X17045251Y6697784D01*
X16995268D01*
X16827800Y6490775D02*
X16861122D01*
X16844461D01*
Y6590743D01*
X16827800Y6574082D01*
X16911105Y6490775D02*
Y6507437D01*
X16927768D01*
Y6490775D01*
X16911105D01*
X17061058Y6590743D02*
X16994414D01*
Y6540759D01*
X17027734Y6557420D01*
X17044397D01*
X17061058Y6540759D01*
Y6507437D01*
X17044397Y6490775D01*
X17011073D01*
X16994414Y6507437D01*
X15866945Y6082768D02*
X15800301D01*
Y5982800D01*
X15866945D01*
X15800301Y6032784D02*
X15833623D01*
X15900269Y5982800D02*
X15933591D01*
X15916930D01*
Y6082768D01*
X15900269Y6066106D01*
X15859943Y6262270D02*
X15793298D01*
Y6162302D01*
X15859943D01*
X15793298Y6212286D02*
X15826620D01*
X15959911Y6162302D02*
X15893266D01*
X15959911Y6228947D01*
Y6245609D01*
X15943250Y6262270D01*
X15909927D01*
X15893266Y6245609D01*
X15901945Y6905268D02*
X15835300D01*
Y6805300D01*
X15901945D01*
X15835300Y6855284D02*
X15868623D01*
X15985252Y6805300D02*
Y6905268D01*
X15935268Y6855284D01*
X16001913D01*
X15800301Y6600268D02*
Y6500300D01*
X15850284D01*
X15866945Y6516961D01*
Y6533622D01*
X15850284Y6550284D01*
X15800301D01*
X15850284D01*
X15866945Y6566945D01*
Y6583606D01*
X15850284Y6600268D01*
X15800301D01*
X15966913Y6500300D02*
X15900269D01*
X15966913Y6566945D01*
Y6583606D01*
X15950252Y6600268D01*
X15916930D01*
X15900269Y6583606D01*
X15852800Y6755268D02*
Y6655300D01*
X15902785D01*
X15919444Y6671961D01*
Y6688622D01*
X15902785Y6705284D01*
X15852800D01*
X15902785D01*
X15919444Y6721945D01*
Y6738606D01*
X15902785Y6755268D01*
X15852800D01*
X15952768Y6655300D02*
X15986090D01*
X15969429D01*
Y6755268D01*
X15952768Y6738606D01*
X15861945Y6422768D02*
X15795300D01*
Y6322800D01*
X15861945D01*
X15795300Y6372784D02*
X15828622D01*
X15895268Y6406106D02*
X15911929Y6422768D01*
X15945251D01*
X15961913Y6406106D01*
Y6389445D01*
X15945251Y6372784D01*
X15928590D01*
X15945251D01*
X15961913Y6356122D01*
Y6339461D01*
X15945251Y6322800D01*
X15911929D01*
X15895268Y6339461D01*
X16861945Y5970300D02*
X16795300D01*
X16861945Y6036945D01*
Y6053606D01*
X16845284Y6070268D01*
X16811961D01*
X16795300Y6053606D01*
X16895268Y5970300D02*
Y5986961D01*
X16911929D01*
Y5970300D01*
X16895268D01*
X17045219Y6070268D02*
X16978574D01*
Y6020284D01*
X17011897Y6036945D01*
X17028558D01*
X17045219Y6020284D01*
Y5986961D01*
X17028558Y5970300D01*
X16995236D01*
X16978574Y5986961D01*
X16687801Y6187784D02*
X16754445D01*
X16854413Y6137800D02*
X16787769D01*
X16854413Y6204445D01*
Y6221106D01*
X16837752Y6237768D01*
X16804430D01*
X16787769Y6221106D01*
X16887737Y6137800D02*
Y6154461D01*
X16904398D01*
Y6137800D01*
X16887737D01*
X17037688Y6237768D02*
X16971042D01*
Y6187784D01*
X17004366Y6204445D01*
X17021027D01*
X17037688Y6187784D01*
Y6154461D01*
X17021027Y6137800D01*
X16987703D01*
X16971042Y6154461D01*
X16770300Y6407768D02*
Y6341122D01*
X16803622Y6307800D01*
X16836945Y6341122D01*
Y6407768D01*
X16870268D02*
Y6307800D01*
X16920251D01*
X16936913Y6324461D01*
Y6391106D01*
X16920251Y6407768D01*
X16870268D01*
X16970236D02*
Y6307800D01*
X17020219D01*
X17036880Y6324461D01*
Y6391106D01*
X17020219Y6407768D01*
X16970236D01*
X4993893Y6481945D02*
X4977232Y6465283D01*
Y6431961D01*
X4993893Y6415300D01*
X5060539D01*
X5077200Y6431961D01*
Y6465283D01*
X5060539Y6481945D01*
X5027216D01*
Y6448622D01*
X5077200Y6515267D02*
Y6548590D01*
Y6531929D01*
X4977232D01*
X4993893Y6515267D01*
X4848894Y6461945D02*
X4832232Y6445284D01*
Y6411961D01*
X4848894Y6395300D01*
X4915539D01*
X4932200Y6411961D01*
Y6445284D01*
X4915539Y6461945D01*
X4882216D01*
Y6428622D01*
X4932200Y6561913D02*
Y6495268D01*
X4865555Y6561913D01*
X4848894D01*
X4832232Y6545252D01*
Y6511929D01*
X4848894Y6495268D01*
X4683893Y6474445D02*
X4667232Y6457784D01*
Y6424462D01*
X4683893Y6407800D01*
X4750538D01*
X4767200Y6424462D01*
Y6457784D01*
X4750538Y6474445D01*
X4717216D01*
Y6441123D01*
X4683893Y6507768D02*
X4667232Y6524429D01*
Y6557752D01*
X4683893Y6574413D01*
X4700555D01*
X4717216Y6557752D01*
Y6541091D01*
Y6557752D01*
X4733877Y6574413D01*
X4750538D01*
X4767200Y6557752D01*
Y6524429D01*
X4750538Y6507768D01*
X2566945Y7613606D02*
X2550284Y7630268D01*
X2516961D01*
X2500300Y7613606D01*
Y7546961D01*
X2516961Y7530300D01*
X2550284D01*
X2566945Y7546961D01*
Y7580284D01*
X2533623D01*
X2600268Y7530300D02*
X2633590D01*
X2616929D01*
Y7630268D01*
X2600268Y7613606D01*
X2549444Y7788108D02*
X2532783Y7804769D01*
X2499461D01*
X2482799Y7788108D01*
Y7721463D01*
X2499461Y7704801D01*
X2532783D01*
X2549444Y7721463D01*
Y7754785D01*
X2516122D01*
X2649412Y7704801D02*
X2582767D01*
X2649412Y7771446D01*
Y7788108D01*
X2632751Y7804769D01*
X2599428D01*
X2582767Y7788108D01*
X12142800Y2972768D02*
Y2872800D01*
X12192784D01*
X12209445Y2889461D01*
Y2906122D01*
X12192784Y2922784D01*
X12142800D01*
X12192784D01*
X12209445Y2939445D01*
Y2956106D01*
X12192784Y2972768D01*
X12142800D01*
X12242768Y2956106D02*
X12259429Y2972768D01*
X12292752D01*
X12309413Y2956106D01*
Y2889461D01*
X12292752Y2872800D01*
X12259429D01*
X12242768Y2889461D01*
Y2956106D01*
X10972800Y3000268D02*
Y2900300D01*
X11022784D01*
X11039445Y2916961D01*
Y2933623D01*
X11022784Y2950284D01*
X10972800D01*
X11022784D01*
X11039445Y2966945D01*
Y2983606D01*
X11022784Y3000268D01*
X10972800D01*
X11072768Y2900300D02*
X11106090D01*
X11089429D01*
Y3000268D01*
X11072768Y2983606D01*
X10011945Y4647768D02*
X9945300D01*
Y4547800D01*
X10011945D01*
X9945300Y4597784D02*
X9978622D01*
X10045268Y4647768D02*
X10078590D01*
X10061929D01*
Y4547800D01*
X10045268D01*
X10078590D01*
X10128574Y4631106D02*
X10145235Y4647768D01*
X10178558D01*
X10195219Y4631106D01*
Y4614445D01*
X10178558Y4597784D01*
X10195219Y4581122D01*
Y4564461D01*
X10178558Y4547800D01*
X10145235D01*
X10128574Y4564461D01*
Y4581122D01*
X10145235Y4597784D01*
X10128574Y4614445D01*
Y4631106D01*
X10145235Y4597784D02*
X10178558D01*
X10009445Y4922768D02*
X9942800D01*
Y4822800D01*
X10009445D01*
X9942800Y4872784D02*
X9976123D01*
X10042768Y4922768D02*
X10076090D01*
X10059429D01*
Y4822800D01*
X10042768D01*
X10076090D01*
X10126074Y4922768D02*
X10192719D01*
Y4906106D01*
X10126074Y4839461D01*
Y4822800D01*
X10029445Y5190268D02*
X9962800D01*
Y5090300D01*
X10029445D01*
X9962800Y5140284D02*
X9996123D01*
X10062768Y5090300D02*
Y5190268D01*
X10112752D01*
X10129413Y5173606D01*
Y5140284D01*
X10112752Y5123622D01*
X10062768D01*
X10096090D02*
X10129413Y5090300D01*
X10162736Y5173606D02*
X10179397Y5190268D01*
X10212719D01*
X10229381Y5173606D01*
Y5156945D01*
X10212719Y5140284D01*
X10196058D01*
X10212719D01*
X10229381Y5123622D01*
Y5106961D01*
X10212719Y5090300D01*
X10179397D01*
X10162736Y5106961D01*
X14291945Y8156106D02*
X14275284Y8172768D01*
X14241962D01*
X14225301Y8156106D01*
Y8139445D01*
X14241962Y8122784D01*
X14275284D01*
X14291945Y8106122D01*
Y8089461D01*
X14275284Y8072800D01*
X14241962D01*
X14225301Y8089461D01*
X14391913Y8156106D02*
X14375252Y8172768D01*
X14341930D01*
X14325269Y8156106D01*
Y8089461D01*
X14341930Y8072800D01*
X14375252D01*
X14391913Y8089461D01*
X14425237Y8172768D02*
Y8072800D01*
X14491881D01*
X14294444Y7856106D02*
X14277785Y7872768D01*
X14244461D01*
X14227800Y7856106D01*
Y7839445D01*
X14244461Y7822784D01*
X14277785D01*
X14294444Y7806123D01*
Y7789461D01*
X14277785Y7772800D01*
X14244461D01*
X14227800Y7789461D01*
X14327768Y7872768D02*
Y7772800D01*
X14377753D01*
X14394414Y7789461D01*
Y7856106D01*
X14377753Y7872768D01*
X14327768D01*
X14427734Y7772800D02*
Y7839445D01*
X14461058Y7872768D01*
X14494380Y7839445D01*
Y7772800D01*
Y7822784D01*
X14427734D01*
X14279445Y7618606D02*
X14262784Y7635268D01*
X14229462D01*
X14212801Y7618606D01*
Y7551961D01*
X14229462Y7535300D01*
X14262784D01*
X14279445Y7551961D01*
Y7585284D01*
X14246123D01*
X14312769Y7535300D02*
Y7635268D01*
X14379413Y7535300D01*
Y7635268D01*
X14412735D02*
Y7535300D01*
X14462720D01*
X14479379Y7551961D01*
Y7618606D01*
X14462720Y7635268D01*
X14412735D01*
X15869444Y8126106D02*
X15852785Y8142768D01*
X15819461D01*
X15802800Y8126106D01*
Y8059461D01*
X15819461Y8042800D01*
X15852785D01*
X15869444Y8059461D01*
Y8092784D01*
X15836124D01*
X15902768Y8042800D02*
Y8142768D01*
X15969414Y8042800D01*
Y8142768D01*
X16002736D02*
Y8042800D01*
X16052719D01*
X16069382Y8059461D01*
Y8126106D01*
X16052719Y8142768D01*
X16002736D01*
X15770300Y7900268D02*
Y7833622D01*
X15803622Y7800300D01*
X15836945Y7833622D01*
Y7900268D01*
X15870268D02*
Y7800300D01*
X15920251D01*
X15936913Y7816961D01*
Y7883606D01*
X15920251Y7900268D01*
X15870268D01*
X15970236D02*
Y7800300D01*
X16020219D01*
X16036880Y7816961D01*
Y7883606D01*
X16020219Y7900268D01*
X15970236D01*
X15772800Y7615268D02*
Y7548622D01*
X15806123Y7515300D01*
X15839445Y7548622D01*
Y7615268D01*
X15872768D02*
Y7515300D01*
X15922752D01*
X15939413Y7531961D01*
Y7598606D01*
X15922752Y7615268D01*
X15872768D01*
X15972736D02*
Y7515300D01*
X16022720D01*
X16039381Y7531961D01*
Y7598606D01*
X16022720Y7615268D01*
X15972736D01*
X13967799Y3595300D02*
Y3695268D01*
X14017784D01*
X14034445Y3678606D01*
Y3645284D01*
X14017784Y3628622D01*
X13967799D01*
X14001122D02*
X14034445Y3595300D01*
X14067767Y3695268D02*
X14134413Y3595300D01*
Y3695268D02*
X14067767Y3595300D01*
X13955299Y3455268D02*
X14021945D01*
X13988623D01*
Y3355300D01*
X14055267Y3455268D02*
X14121913Y3355300D01*
Y3455268D02*
X14055267Y3355300D01*
X13919444Y3166106D02*
X13902785Y3182768D01*
X13869461D01*
X13852800Y3166106D01*
Y3149445D01*
X13869461Y3132784D01*
X13902785D01*
X13919444Y3116123D01*
Y3099461D01*
X13902785Y3082800D01*
X13869461D01*
X13852800Y3099461D01*
X13952768Y3182768D02*
Y3082800D01*
X13986090Y3116123D01*
X14019414Y3082800D01*
Y3182768D01*
X14102719D02*
X14069397D01*
X14052734Y3166106D01*
Y3099461D01*
X14069397Y3082800D01*
X14102719D01*
X14119380Y3099461D01*
Y3166106D01*
X14102719Y3182768D01*
X13760300Y2792800D02*
Y2892768D01*
X13826945Y2792800D01*
Y2892768D01*
X13860268Y2792800D02*
Y2892768D01*
X13910252D01*
X13926913Y2876106D01*
Y2842784D01*
X13910252Y2826122D01*
X13860268D01*
X13893590D02*
X13926913Y2792800D01*
X14026881Y2876106D02*
X14010219Y2892768D01*
X13976897D01*
X13960236Y2876106D01*
Y2859445D01*
X13976897Y2842784D01*
X14010219D01*
X14026881Y2826122D01*
Y2809461D01*
X14010219Y2792800D01*
X13976897D01*
X13960236Y2809461D01*
X14060204Y2892768D02*
X14126848D01*
X14093526D01*
Y2792800D01*
X15295300Y2887784D02*
X15361945D01*
X15328622Y2921106D02*
Y2854461D01*
X15461913Y2937768D02*
X15395268D01*
Y2887784D01*
X15428590Y2904445D01*
X15445251D01*
X15461913Y2887784D01*
Y2854461D01*
X15445251Y2837800D01*
X15411929D01*
X15395268Y2854461D01*
X15384445Y3428606D02*
X15367784Y3445268D01*
X15334460D01*
X15317799Y3428606D01*
Y3361961D01*
X15334460Y3345300D01*
X15367784D01*
X15384445Y3361961D01*
Y3395284D01*
X15351122D01*
X15417767Y3345300D02*
Y3445268D01*
X15484413Y3345300D01*
Y3445268D01*
X15517735D02*
Y3345300D01*
X15567719D01*
X15584381Y3361961D01*
Y3428606D01*
X15567719Y3445268D01*
X15517735D01*
X15379445Y3688606D02*
X15362784Y3705268D01*
X15329462D01*
X15312801Y3688606D01*
Y3671945D01*
X15329462Y3655284D01*
X15362784D01*
X15379445Y3638622D01*
Y3621961D01*
X15362784Y3605300D01*
X15329462D01*
X15312801Y3621961D01*
X15412769Y3705268D02*
Y3605300D01*
X15446091Y3638622D01*
X15479413Y3605300D01*
Y3705268D01*
X15512737D02*
Y3605300D01*
X15562720D01*
X15579381Y3621961D01*
Y3688606D01*
X15562720Y3705268D01*
X15512737D01*
X15612703D02*
X15646027D01*
X15629366D01*
Y3605300D01*
X15612703D01*
X15646027D01*
X15745995Y3705268D02*
X15712671D01*
X15696010Y3688606D01*
Y3621961D01*
X15712671Y3605300D01*
X15745995D01*
X15762656Y3621961D01*
Y3688606D01*
X15745995Y3705268D01*
X10016945Y4397768D02*
X9950300D01*
Y4297800D01*
X10016945D01*
X9950300Y4347784D02*
X9983622D01*
X10050268Y4297800D02*
Y4397768D01*
X10100252D01*
X10116913Y4381106D01*
Y4347784D01*
X10100252Y4331122D01*
X10050268D01*
X10083590D02*
X10116913Y4297800D01*
X10200219D02*
Y4397768D01*
X10150235Y4347784D01*
X10216881D01*
X8504445Y4390268D02*
X8437800D01*
Y4290300D01*
X8504445D01*
X8437800Y4340284D02*
X8471123D01*
X8537768Y4390268D02*
X8571090D01*
X8554429D01*
Y4290300D01*
X8537768D01*
X8571090D01*
X8687719Y4390268D02*
X8654397Y4373606D01*
X8621074Y4340284D01*
Y4306961D01*
X8637736Y4290300D01*
X8671058D01*
X8687719Y4306961D01*
Y4323623D01*
X8671058Y4340284D01*
X8621074D01*
X8501945Y4657768D02*
X8435300D01*
Y4557800D01*
X8501945D01*
X8435300Y4607784D02*
X8468622D01*
X8535268Y4657768D02*
X8568590D01*
X8551929D01*
Y4557800D01*
X8535268D01*
X8568590D01*
X8685219Y4657768D02*
X8618574D01*
Y4607784D01*
X8651897Y4624445D01*
X8668558D01*
X8685219Y4607784D01*
Y4574461D01*
X8668558Y4557800D01*
X8635235D01*
X8618574Y4574461D01*
X8504445Y4920268D02*
X8437800D01*
Y4820300D01*
X8504445D01*
X8437800Y4870284D02*
X8471123D01*
X8537768Y4820300D02*
Y4920268D01*
X8587752D01*
X8604413Y4903606D01*
Y4870284D01*
X8587752Y4853623D01*
X8537768D01*
X8571090D02*
X8604413Y4820300D01*
X8704381D02*
X8637736D01*
X8704381Y4886945D01*
Y4903606D01*
X8687719Y4920268D01*
X8654397D01*
X8637736Y4903606D01*
X2757200Y3706945D02*
Y3640300D01*
X2690555Y3706945D01*
X2673894D01*
X2657232Y3690284D01*
Y3656961D01*
X2673894Y3640300D01*
X2707216Y3740268D02*
Y3806913D01*
X2673894Y3773590D02*
X2740539D01*
X2673894Y3840236D02*
X2657232Y3856897D01*
Y3890220D01*
X2673894Y3906881D01*
X2690555D01*
X2707216Y3890220D01*
Y3873558D01*
Y3890220D01*
X2723877Y3906881D01*
X2740539D01*
X2757200Y3890220D01*
Y3856897D01*
X2740539Y3840236D01*
X2673894Y4106816D02*
X2657232Y4090155D01*
Y4056833D01*
X2673894Y4040171D01*
X2690555D01*
X2707216Y4056833D01*
Y4090155D01*
X2723877Y4106816D01*
X2740539D01*
X2757200Y4090155D01*
Y4056833D01*
X2740539Y4040171D01*
X2657232Y4140139D02*
X2757200D01*
X2707216D01*
X2690555Y4156800D01*
Y4190123D01*
X2707216Y4206784D01*
X2757200D01*
X2690555Y4256768D02*
Y4290091D01*
X2707216Y4306752D01*
X2757200D01*
Y4256768D01*
X2740539Y4240107D01*
X2723877Y4256768D01*
Y4306752D01*
X2690555Y4340075D02*
X2757200D01*
X2723877D01*
X2707216Y4356736D01*
X2690555Y4373397D01*
Y4390059D01*
X2757200Y4490026D02*
Y4456704D01*
X2740539Y4440042D01*
X2707216D01*
X2690555Y4456704D01*
Y4490026D01*
X2707216Y4506687D01*
X2723877D01*
Y4440042D01*
X4005300Y3765300D02*
X4038622D01*
X4021961D01*
Y3865268D01*
X4005300Y3848606D01*
X3972800Y4366106D02*
X3989461Y4382768D01*
X4022784D01*
X4039445Y4366106D01*
Y4349445D01*
X4022784Y4332784D01*
X4006123D01*
X4022784D01*
X4039445Y4316122D01*
Y4299461D01*
X4022784Y4282800D01*
X3989461D01*
X3972800Y4299461D01*
X4051945Y4042800D02*
X3985300D01*
X4051945Y4109445D01*
Y4126106D01*
X4035284Y4142768D01*
X4001961D01*
X3985300Y4126106D01*
X2597200Y3505300D02*
Y3538622D01*
Y3521961D01*
X2497232D01*
X2513893Y3505300D01*
X2547216Y3588606D02*
Y3655251D01*
X2513893Y3621929D02*
X2580538D01*
X2597200Y3755219D02*
Y3688574D01*
X2530555Y3755219D01*
X2513893D01*
X2497232Y3738558D01*
Y3705235D01*
X2513893Y3688574D01*
X2597200Y3888510D02*
X2497232D01*
X2597200Y3955155D01*
X2497232D01*
X2597200Y4005139D02*
Y4038461D01*
X2580538Y4055122D01*
X2547216D01*
X2530555Y4038461D01*
Y4005139D01*
X2547216Y3988477D01*
X2580538D01*
X2597200Y4005139D01*
Y4188413D02*
Y4238397D01*
X2580538Y4255058D01*
X2563877Y4238397D01*
Y4205074D01*
X2547216Y4188413D01*
X2530555Y4205074D01*
Y4255058D01*
X2497232Y4288381D02*
X2597200D01*
X2547216D01*
X2530555Y4305042D01*
Y4338365D01*
X2547216Y4355026D01*
X2597200D01*
X2530555Y4405010D02*
Y4438332D01*
X2547216Y4454994D01*
X2597200D01*
Y4405010D01*
X2580538Y4388349D01*
X2563877Y4405010D01*
Y4454994D01*
X2530555Y4488316D02*
X2597200D01*
X2563877D01*
X2547216Y4504978D01*
X2530555Y4521639D01*
Y4538300D01*
X2597200Y4638268D02*
Y4604946D01*
X2580538Y4588284D01*
X2547216D01*
X2530555Y4604946D01*
Y4638268D01*
X2547216Y4654929D01*
X2563877D01*
Y4588284D01*
X4463071Y5294445D02*
X4446409Y5277784D01*
Y5244462D01*
X4463071Y5227800D01*
X4529716D01*
X4546377Y5244462D01*
Y5277784D01*
X4529716Y5294445D01*
X4446409Y5327768D02*
X4546377D01*
X4496393D01*
X4479732Y5344429D01*
Y5377752D01*
X4496393Y5394413D01*
X4546377D01*
Y5444397D02*
Y5477720D01*
X4529716Y5494381D01*
X4496393D01*
X4479732Y5477720D01*
Y5444397D01*
X4496393Y5427736D01*
X4529716D01*
X4546377Y5444397D01*
Y5544365D02*
Y5577688D01*
X4529716Y5594349D01*
X4496393D01*
X4479732Y5577688D01*
Y5544365D01*
X4496393Y5527704D01*
X4529716D01*
X4546377Y5544365D01*
Y5627671D02*
Y5677655D01*
X4529716Y5694317D01*
X4513055Y5677655D01*
Y5644333D01*
X4496393Y5627671D01*
X4479732Y5644333D01*
Y5694317D01*
X4546377Y5777623D02*
Y5744301D01*
X4529716Y5727639D01*
X4496393D01*
X4479732Y5744301D01*
Y5777623D01*
X4496393Y5794284D01*
X4513055D01*
Y5727639D01*
X4579700Y5960897D02*
Y5977559D01*
X4563039Y5994220D01*
X4479732D01*
Y5944236D01*
X4496393Y5927575D01*
X4529716D01*
X4546377Y5944236D01*
Y5994220D01*
X4479732Y6044204D02*
Y6077527D01*
X4496393Y6094188D01*
X4546377D01*
Y6044204D01*
X4529716Y6027543D01*
X4513055Y6044204D01*
Y6094188D01*
X4546377Y6127510D02*
Y6160833D01*
Y6144172D01*
X4479732D01*
Y6127510D01*
X4546377Y6210817D02*
X4479732D01*
Y6260801D01*
X4496393Y6277462D01*
X4546377D01*
X2764445Y7391929D02*
X2747784Y7408590D01*
X2714461D01*
X2697800Y7391929D01*
Y7325284D01*
X2714461Y7308622D01*
X2747784D01*
X2764445Y7325284D01*
X2797768Y7408590D02*
Y7308622D01*
Y7358606D01*
X2814429Y7375267D01*
X2847752D01*
X2864413Y7358606D01*
Y7308622D01*
X2914397D02*
X2947720D01*
X2964381Y7325284D01*
Y7358606D01*
X2947720Y7375267D01*
X2914397D01*
X2897736Y7358606D01*
Y7325284D01*
X2914397Y7308622D01*
X3014365D02*
X3047687D01*
X3064348Y7325284D01*
Y7358606D01*
X3047687Y7375267D01*
X3014365D01*
X2997703Y7358606D01*
Y7325284D01*
X3014365Y7308622D01*
X3097671D02*
X3147655D01*
X3164316Y7325284D01*
X3147655Y7341945D01*
X3114333D01*
X3097671Y7358606D01*
X3114333Y7375267D01*
X3164316D01*
X3247623Y7308622D02*
X3214300D01*
X3197639Y7325284D01*
Y7358606D01*
X3214300Y7375267D01*
X3247623D01*
X3264284Y7358606D01*
Y7341945D01*
X3197639D01*
X3430897Y7275300D02*
X3447559D01*
X3464220Y7291961D01*
Y7375267D01*
X3414236D01*
X3397575Y7358606D01*
Y7325284D01*
X3414236Y7308622D01*
X3464220D01*
X3514204Y7375267D02*
X3547526D01*
X3564187Y7358606D01*
Y7308622D01*
X3514204D01*
X3497542Y7325284D01*
X3514204Y7341945D01*
X3564187D01*
X3597510Y7308622D02*
X3630833D01*
X3614172D01*
Y7375267D01*
X3597510D01*
X3680817Y7308622D02*
Y7375267D01*
X3730801D01*
X3747462Y7358606D01*
Y7308622D01*
X3182232Y6265300D02*
X3282200D01*
Y6315284D01*
X3265539Y6331945D01*
X3248878D01*
X3232216Y6315284D01*
Y6265300D01*
Y6315284D01*
X3215555Y6331945D01*
X3198894D01*
X3182232Y6315284D01*
Y6265300D01*
Y6365268D02*
Y6398590D01*
Y6381929D01*
X3282200D01*
Y6365268D01*
Y6398590D01*
X3198894Y6515219D02*
X3182232Y6498558D01*
Y6465236D01*
X3198894Y6448574D01*
X3215555D01*
X3232216Y6465236D01*
Y6498558D01*
X3248878Y6515219D01*
X3265539D01*
X3282200Y6498558D01*
Y6465236D01*
X3265539Y6448574D01*
X3282200Y6548542D02*
Y6581865D01*
Y6565204D01*
X3182232D01*
X3198894Y6548542D01*
X3684732Y4859445D02*
Y4792800D01*
X3784700D01*
Y4859445D01*
X3734716Y4792800D02*
Y4826123D01*
X3684732Y4892768D02*
Y4926090D01*
Y4909429D01*
X3784700D01*
Y4892768D01*
Y4926090D01*
X3701393Y4976074D02*
X3684732Y4992736D01*
Y5026058D01*
X3701393Y5042719D01*
X3718055D01*
X3734716Y5026058D01*
Y5009397D01*
Y5026058D01*
X3751377Y5042719D01*
X3768038D01*
X3784700Y5026058D01*
Y4992736D01*
X3768038Y4976074D01*
X3469732Y4874445D02*
Y4807800D01*
X3569700D01*
Y4874445D01*
X3519716Y4807800D02*
Y4841122D01*
X3569700Y4907768D02*
X3469732D01*
Y4957752D01*
X3486394Y4974413D01*
X3519716D01*
X3536378Y4957752D01*
Y4907768D01*
Y4941090D02*
X3569700Y4974413D01*
Y5007735D02*
Y5041058D01*
Y5024397D01*
X3469732D01*
X3486394Y5007735D01*
X3199732Y4856945D02*
Y4790300D01*
X3299700D01*
Y4856945D01*
X3249716Y4790300D02*
Y4823622D01*
X3199732Y4890268D02*
Y4923590D01*
Y4906929D01*
X3299700D01*
Y4890268D01*
Y4923590D01*
Y5040219D02*
Y4973574D01*
X3233055Y5040219D01*
X3216394D01*
X3199732Y5023558D01*
Y4990235D01*
X3216394Y4973574D01*
X2942232Y4866945D02*
Y4800300D01*
X3042200D01*
Y4866945D01*
X2992216Y4800300D02*
Y4833622D01*
X2942232Y4900268D02*
Y4933590D01*
Y4916929D01*
X3042200D01*
Y4900268D01*
Y4933590D01*
X2958894Y4983574D02*
X2942232Y5000235D01*
Y5033558D01*
X2958894Y5050219D01*
X2975555D01*
X2992216Y5033558D01*
Y5016896D01*
Y5033558D01*
X3008878Y5050219D01*
X3025539D01*
X3042200Y5033558D01*
Y5000235D01*
X3025539Y4983574D01*
X3677232Y6245300D02*
X3777200D01*
Y6295284D01*
X3760539Y6311945D01*
X3743877D01*
X3727216Y6295284D01*
Y6245300D01*
Y6295284D01*
X3710555Y6311945D01*
X3693894D01*
X3677232Y6295284D01*
Y6245300D01*
Y6345268D02*
Y6378590D01*
Y6361929D01*
X3777200D01*
Y6345268D01*
Y6378590D01*
X3693894Y6495219D02*
X3677232Y6478558D01*
Y6445236D01*
X3693894Y6428574D01*
X3710555D01*
X3727216Y6445236D01*
Y6478558D01*
X3743877Y6495219D01*
X3760539D01*
X3777200Y6478558D01*
Y6445236D01*
X3760539Y6428574D01*
X3693894Y6528542D02*
X3677232Y6545204D01*
Y6578526D01*
X3693894Y6595187D01*
X3710555D01*
X3727216Y6578526D01*
Y6561865D01*
Y6578526D01*
X3743877Y6595187D01*
X3760539D01*
X3777200Y6578526D01*
Y6545204D01*
X3760539Y6528542D01*
X3424732Y6240300D02*
X3524700D01*
Y6290284D01*
X3508038Y6306945D01*
X3491377D01*
X3474716Y6290284D01*
Y6240300D01*
Y6290284D01*
X3458055Y6306945D01*
X3441393D01*
X3424732Y6290284D01*
Y6240300D01*
Y6340268D02*
Y6373591D01*
Y6356930D01*
X3524700D01*
Y6340268D01*
Y6373591D01*
X3441393Y6490220D02*
X3424732Y6473559D01*
Y6440236D01*
X3441393Y6423575D01*
X3458055D01*
X3474716Y6440236D01*
Y6473559D01*
X3491377Y6490220D01*
X3508038D01*
X3524700Y6473559D01*
Y6440236D01*
X3508038Y6423575D01*
X3524700Y6590187D02*
Y6523542D01*
X3458055Y6590187D01*
X3441393D01*
X3424732Y6573526D01*
Y6540204D01*
X3441393Y6523542D01*
X2900571Y6247800D02*
X2967216D01*
X3000539Y6281122D01*
X2967216Y6314445D01*
X2900571D01*
X2917232Y6414413D02*
X2900571Y6397751D01*
Y6364429D01*
X2917232Y6347768D01*
X2983877D01*
X3000539Y6364429D01*
Y6397751D01*
X2983877Y6414413D01*
X2917232Y6514380D02*
X2900571Y6497719D01*
Y6464397D01*
X2917232Y6447735D01*
X2983877D01*
X3000539Y6464397D01*
Y6497719D01*
X2983877Y6514380D01*
X2917232Y6614348D02*
X2900571Y6597687D01*
Y6564365D01*
X2917232Y6547703D01*
X2933894D01*
X2950555Y6564365D01*
Y6597687D01*
X2967216Y6614348D01*
X2983877D01*
X3000539Y6597687D01*
Y6564365D01*
X2983877Y6547703D01*
X3017200Y6647671D02*
Y6714316D01*
X3000539Y6764300D02*
Y6797623D01*
X2983877Y6814284D01*
X2950555D01*
X2933894Y6797623D01*
Y6764300D01*
X2950555Y6747639D01*
X2983877D01*
X3000539Y6764300D01*
X2933894Y6847607D02*
X2983877D01*
X3000539Y6864268D01*
Y6914252D01*
X2933894D01*
X2917232Y6964236D02*
X2933894D01*
Y6947574D01*
Y6980897D01*
Y6964236D01*
X2983877D01*
X3000539Y6980897D01*
X16506694Y4839984D02*
Y4756678D01*
X16523355Y4740016D01*
X16556677D01*
X16573338Y4756678D01*
Y4839984D01*
X16673306D02*
X16606660D01*
Y4790000D01*
X16639984Y4806661D01*
X16656645D01*
X16673306Y4790000D01*
Y4756678D01*
X16656645Y4740016D01*
X16623323D01*
X16606660Y4756678D01*
X14494354Y6241798D02*
Y6158491D01*
X14511015Y6141830D01*
X14544337D01*
X14560999Y6158491D01*
Y6241798D01*
X14594322Y6141830D02*
X14627644D01*
X14610983D01*
Y6241798D01*
X14594322Y6225136D01*
X14677629D02*
X14694290Y6241798D01*
X14727612D01*
X14744273Y6225136D01*
Y6158491D01*
X14727612Y6141830D01*
X14694290D01*
X14677629Y6158491D01*
Y6225136D01*
X6660040Y8292484D02*
X6693363D01*
X6676702D01*
Y8192516D01*
X6660040D01*
X6693363D01*
X6809992Y8275822D02*
X6793331Y8292484D01*
X6760008D01*
X6743347Y8275822D01*
Y8209177D01*
X6760008Y8192516D01*
X6793331D01*
X6809992Y8209177D01*
X6909960Y8192516D02*
X6843314D01*
X6909960Y8259161D01*
Y8275822D01*
X6893298Y8292484D01*
X6859976D01*
X6843314Y8275822D01*
X11341702Y3729984D02*
X11375024D01*
X11358363D01*
Y3630016D01*
X11341702D01*
X11375024D01*
X11491653Y3713323D02*
X11474992Y3729984D01*
X11441670D01*
X11425008Y3713323D01*
Y3646677D01*
X11441670Y3630016D01*
X11474992D01*
X11491653Y3646677D01*
X11524976Y3630016D02*
X11558298D01*
X11541637D01*
Y3729984D01*
X11524976Y3713323D01*
X7011554Y2654828D02*
Y2571522D01*
X7028216Y2554861D01*
X7061538D01*
X7078199Y2571522D01*
Y2654828D01*
X7161506Y2554861D02*
Y2654828D01*
X7111522Y2604844D01*
X7178167D01*
X7211490Y2554861D02*
Y2621506D01*
X7244812Y2654828D01*
X7278135Y2621506D01*
Y2554861D01*
Y2604844D01*
X7211490D01*
X8731710Y2627484D02*
Y2544178D01*
X8748371Y2527516D01*
X8781694D01*
X8798355Y2544178D01*
Y2627484D01*
X8881661Y2527516D02*
Y2627484D01*
X8831678Y2577500D01*
X8898323D01*
X8931645Y2627484D02*
Y2527516D01*
X8981629D01*
X8998290Y2544178D01*
Y2560839D01*
X8981629Y2577500D01*
X8931645D01*
X8981629D01*
X8998290Y2594161D01*
Y2610823D01*
X8981629Y2627484D01*
X8931645D01*
X11719210Y7502484D02*
Y7419177D01*
X11735871Y7402516D01*
X11769194D01*
X11785855Y7419177D01*
Y7502484D01*
X11869161Y7402516D02*
Y7502484D01*
X11819178Y7452500D01*
X11885823D01*
X11985790Y7485822D02*
X11969129Y7502484D01*
X11935807D01*
X11919145Y7485822D01*
Y7419177D01*
X11935807Y7402516D01*
X11969129D01*
X11985790Y7419177D01*
X12952516Y6359210D02*
X13035822D01*
X13052484Y6375871D01*
Y6409194D01*
X13035822Y6425855D01*
X12952516D01*
X13052484Y6509162D02*
X12952516D01*
X13002499Y6459178D01*
Y6525823D01*
X12952516Y6559146D02*
X13052484D01*
Y6609130D01*
X13035822Y6625791D01*
X12969177D01*
X12952516Y6609130D01*
Y6559146D01*
X6470040Y7064984D02*
X6503363D01*
X6486702D01*
Y6965016D01*
X6470040D01*
X6503363D01*
X6619992Y7048322D02*
X6603331Y7064984D01*
X6570008D01*
X6553347Y7048322D01*
Y6981677D01*
X6570008Y6965016D01*
X6603331D01*
X6619992Y6981677D01*
X6653315Y7064984D02*
X6719960D01*
Y7048322D01*
X6653315Y6981677D01*
Y6965016D01*
X8257516Y7484210D02*
X8340823D01*
X8357484Y7500871D01*
Y7534193D01*
X8340823Y7550855D01*
X8257516D01*
X8274178Y7584177D02*
X8257516Y7600839D01*
Y7634161D01*
X8274178Y7650822D01*
X8290839D01*
X8307500Y7634161D01*
Y7617500D01*
Y7634161D01*
X8324161Y7650822D01*
X8340823D01*
X8357484Y7634161D01*
Y7600839D01*
X8340823Y7584177D01*
X8257516Y7684145D02*
X8357484D01*
Y7734129D01*
X8340823Y7750790D01*
X8274178D01*
X8257516Y7734129D01*
Y7684145D01*
X8290016Y6086709D02*
X8373322D01*
X8389984Y6103371D01*
Y6136693D01*
X8373322Y6153354D01*
X8290016D01*
X8306677Y6186677D02*
X8290016Y6203339D01*
Y6236661D01*
X8306677Y6253322D01*
X8323339D01*
X8340000Y6236661D01*
Y6220000D01*
Y6236661D01*
X8356661Y6253322D01*
X8373322D01*
X8389984Y6236661D01*
Y6203339D01*
X8373322Y6186677D01*
X8306677Y6353290D02*
X8290016Y6336629D01*
Y6303306D01*
X8306677Y6286645D01*
X8373322D01*
X8389984Y6303306D01*
Y6336629D01*
X8373322Y6353290D01*
X5034295Y4499374D02*
Y4416068D01*
X5050956Y4399406D01*
X5084279D01*
X5100940Y4416068D01*
Y4499374D01*
X5134263Y4482713D02*
X5150924Y4499374D01*
X5184246D01*
X5200908Y4482713D01*
Y4466051D01*
X5184246Y4449390D01*
X5167585D01*
X5184246D01*
X5200908Y4432729D01*
Y4416068D01*
X5184246Y4399406D01*
X5150924D01*
X5134263Y4416068D01*
X5234230Y4499374D02*
Y4399406D01*
X5284214D01*
X5300875Y4416068D01*
Y4432729D01*
X5284214Y4449390D01*
X5234230D01*
X5284214D01*
X5300875Y4466051D01*
Y4482713D01*
X5284214Y4499374D01*
X5234230D01*
X3171710Y2839984D02*
Y2756677D01*
X3188371Y2740016D01*
X3221694D01*
X3238355Y2756677D01*
Y2839984D01*
X3271677Y2823323D02*
X3288339Y2839984D01*
X3321661D01*
X3338323Y2823323D01*
Y2806661D01*
X3321661Y2790000D01*
X3305000D01*
X3321661D01*
X3338323Y2773339D01*
Y2756677D01*
X3321661Y2740016D01*
X3288339D01*
X3271677Y2756677D01*
X3371645Y2740016D02*
Y2806661D01*
X3404968Y2839984D01*
X3438290Y2806661D01*
Y2740016D01*
Y2790000D01*
X3371645D01*
X9039210Y6852484D02*
Y6769177D01*
X9055871Y6752516D01*
X9089194D01*
X9105855Y6769177D01*
Y6852484D01*
X9205823Y6752516D02*
X9139178D01*
X9205823Y6819161D01*
Y6835822D01*
X9189161Y6852484D01*
X9155839D01*
X9139178Y6835822D01*
X9239145Y6852484D02*
Y6752516D01*
X9289129D01*
X9305790Y6769177D01*
Y6835822D01*
X9289129Y6852484D01*
X9239145D01*
X9405016Y5421710D02*
X9488322D01*
X9504984Y5438371D01*
Y5471694D01*
X9488322Y5488355D01*
X9405016D01*
X9504984Y5588323D02*
Y5521678D01*
X9438339Y5588323D01*
X9421677D01*
X9405016Y5571661D01*
Y5538339D01*
X9421677Y5521678D01*
Y5688290D02*
X9405016Y5671629D01*
Y5638307D01*
X9421677Y5621645D01*
X9488322D01*
X9504984Y5638307D01*
Y5671629D01*
X9488322Y5688290D01*
X6611710Y3977484D02*
Y3894177D01*
X6628371Y3877516D01*
X6661694D01*
X6678355Y3894177D01*
Y3977484D01*
X6778322Y3877516D02*
X6711677D01*
X6778322Y3944161D01*
Y3960822D01*
X6761661Y3977484D01*
X6728339D01*
X6711677Y3960822D01*
X6811645Y3977484D02*
Y3877516D01*
X6861629D01*
X6878290Y3894177D01*
Y3910839D01*
X6861629Y3927500D01*
X6811645D01*
X6861629D01*
X6878290Y3944161D01*
Y3960822D01*
X6861629Y3977484D01*
X6811645D01*
X4856710Y2804984D02*
Y2721678D01*
X4873371Y2705016D01*
X4906694D01*
X4923355Y2721678D01*
Y2804984D01*
X5023322Y2705016D02*
X4956677D01*
X5023322Y2771661D01*
Y2788323D01*
X5006661Y2804984D01*
X4973339D01*
X4956677Y2788323D01*
X5056645Y2705016D02*
Y2771661D01*
X5089968Y2804984D01*
X5123290Y2771661D01*
Y2705016D01*
Y2755000D01*
X5056645D01*
X14885001Y6383323D02*
X14868340Y6399984D01*
X14835016D01*
X14818355Y6383323D01*
Y6366661D01*
X14835016Y6350000D01*
X14868340D01*
X14885001Y6333339D01*
Y6316677D01*
X14868340Y6300016D01*
X14835016D01*
X14818355Y6316677D01*
X14918323Y6300016D02*
X14951645D01*
X14934984D01*
Y6399984D01*
X14918323Y6383323D01*
X4481678Y6907548D02*
X4465016Y6890887D01*
Y6857565D01*
X4481678Y6840903D01*
X4498339D01*
X4515000Y6857565D01*
Y6890887D01*
X4531661Y6907548D01*
X4548323D01*
X4564984Y6890887D01*
Y6857565D01*
X4548323Y6840903D01*
X4465016Y6940871D02*
X4564984D01*
X4515000D01*
X4498339Y6957532D01*
Y6990855D01*
X4515000Y7007516D01*
X4564984D01*
X4498339Y7040839D02*
X4548323D01*
X4564984Y7057500D01*
Y7107484D01*
X4498339D01*
X4564984Y7140807D02*
X4498339D01*
Y7190791D01*
X4515000Y7207452D01*
X4564984D01*
X4481678Y7257436D02*
X4498339D01*
Y7240774D01*
Y7274097D01*
Y7257436D01*
X4548323D01*
X4564984Y7274097D01*
X6530040Y6244984D02*
X6563363D01*
X6546702D01*
Y6145016D01*
X6530040D01*
X6563363D01*
X6679992Y6228323D02*
X6663331Y6244984D01*
X6630008D01*
X6613347Y6228323D01*
Y6161678D01*
X6630008Y6145016D01*
X6663331D01*
X6679992Y6161678D01*
X6713314Y6228323D02*
X6729976Y6244984D01*
X6763298D01*
X6779960Y6228323D01*
Y6211661D01*
X6763298Y6195000D01*
X6779960Y6178339D01*
Y6161678D01*
X6763298Y6145016D01*
X6729976D01*
X6713314Y6161678D01*
Y6178339D01*
X6729976Y6195000D01*
X6713314Y6211661D01*
Y6228323D01*
X6729976Y6195000D02*
X6763298D01*
X15007539Y4014984D02*
X15040863D01*
X15024202D01*
Y3915016D01*
X15007539D01*
X15040863D01*
X15157492Y3998322D02*
X15140831Y4014984D01*
X15107507D01*
X15090846Y3998322D01*
Y3931677D01*
X15107507Y3915016D01*
X15140831D01*
X15157492Y3931677D01*
X15257460Y4014984D02*
X15190816D01*
Y3965000D01*
X15224136Y3981661D01*
X15240799D01*
X15257460Y3965000D01*
Y3931677D01*
X15240799Y3915016D01*
X15207475D01*
X15190816Y3931677D01*
X4865040Y7252484D02*
X4898363D01*
X4881702D01*
Y7152516D01*
X4865040D01*
X4898363D01*
X5014992Y7235822D02*
X4998331Y7252484D01*
X4965008D01*
X4948347Y7235822D01*
Y7169177D01*
X4965008Y7152516D01*
X4998331D01*
X5014992Y7169177D01*
X5098298Y7152516D02*
Y7252484D01*
X5048315Y7202500D01*
X5114960D01*
X4627540Y8329984D02*
X4660863D01*
X4644202D01*
Y8230016D01*
X4627540D01*
X4660863D01*
X4777492Y8313322D02*
X4760831Y8329984D01*
X4727508D01*
X4710847Y8313322D01*
Y8246677D01*
X4727508Y8230016D01*
X4760831D01*
X4777492Y8246677D01*
X4810815Y8313322D02*
X4827476Y8329984D01*
X4860799D01*
X4877460Y8313322D01*
Y8296661D01*
X4860799Y8280000D01*
X4844137D01*
X4860799D01*
X4877460Y8263339D01*
Y8246677D01*
X4860799Y8230016D01*
X4827476D01*
X4810815Y8246677D01*
X13852516Y4034193D02*
X13952484D01*
Y4084177D01*
X13935822Y4100838D01*
X13919160D01*
X13902499Y4084177D01*
Y4034193D01*
Y4084177D01*
X13885838Y4100838D01*
X13869177D01*
X13852516Y4084177D01*
Y4034193D01*
X13952484Y4134161D02*
X13852516D01*
Y4184145D01*
X13869177Y4200806D01*
X13902499D01*
X13919160Y4184145D01*
Y4134161D01*
D125*
X16550400Y8410368D02*
Y8310400D01*
X16600385D01*
X16617046Y8327061D01*
Y8343722D01*
X16600385Y8360384D01*
X16550400D01*
X16600385D01*
X16617046Y8377045D01*
Y8393706D01*
X16600385Y8410368D01*
X16550400D01*
X16650368D02*
X16683690D01*
X16667029D01*
Y8310400D01*
X16650368D01*
X16683690D01*
X16800319Y8393706D02*
X16783658Y8410368D01*
X16750336D01*
X16733675Y8393706D01*
Y8377045D01*
X16750336Y8360384D01*
X16783658D01*
X16800319Y8343722D01*
Y8327061D01*
X16783658Y8310400D01*
X16750336D01*
X16733675Y8327061D01*
X17000255Y8310400D02*
X16983594Y8327061D01*
X16966933Y8310400D01*
X16950272D01*
X16933611Y8327061D01*
Y8343722D01*
X16950272Y8360384D01*
X16933611Y8377045D01*
Y8393706D01*
X16950272Y8410368D01*
X16966933D01*
X16983594Y8393706D01*
Y8377045D01*
X16966933Y8360384D01*
X16983594Y8343722D01*
Y8327061D01*
X17000255Y8360384D02*
X16983594Y8343722D01*
X16950272Y8360384D02*
X16966933D01*
X17200191Y8410368D02*
X17133545D01*
Y8310400D01*
X17200191D01*
X17133545Y8360384D02*
X17166869D01*
X17233513Y8310400D02*
Y8410368D01*
X17266837Y8377045D01*
X17300159Y8410368D01*
Y8310400D01*
X17400127Y8393706D02*
X17383466Y8410368D01*
X17350142D01*
X17333481Y8393706D01*
Y8327061D01*
X17350142Y8310400D01*
X17383466D01*
X17400127Y8327061D01*
Y8360384D01*
X17366803D01*
X17533417Y8410368D02*
Y8343722D01*
X17566739Y8310400D01*
X17600063Y8343722D01*
Y8410368D01*
X17633385Y8310400D02*
X17666707D01*
X17650046D01*
Y8410368D01*
X17633385Y8393706D01*
D126*
X15580016Y5920855D02*
X15663322D01*
X15679984Y5937516D01*
Y5970839D01*
X15663322Y5987500D01*
X15580016D01*
X15679984Y6020823D02*
Y6054145D01*
Y6037484D01*
X15580016D01*
X15596677Y6020823D01*
D127*
X16382510Y5216233D02*
D03*
%TF.MD5,ee9d4043a09aa19d14c40c0feac42644*%
M02*
