%TF.GenerationSoftware,Altium Limited,Altium Designer,25.7.1 (20)*%
G04 Layer_Color=2752767*
%FSLAX45Y45*%
%MOMM*%
%TF.SameCoordinates,D8C98939-B5AC-4A14-9F93-74B2487226E3*%
%TF.FilePolarity,Positive*%
%TF.FileFunction,Drawing*%
%TF.Part,Single*%
G01*
G75*
%TA.AperFunction,NonConductor*%
%ADD225C,0.12700*%
%ADD226C,0.16933*%
D225*
X3961700Y3896700D02*
Y3998300D01*
X4063300D01*
Y3896700D01*
X3961700D01*
X4088648Y3921700D02*
Y4023300D01*
X4190248D01*
Y3921700D01*
X4088648D01*
X2691700Y3519200D02*
Y3620800D01*
X2793300D01*
Y3519200D01*
X2691700D01*
X2884200Y4654200D02*
Y4755800D01*
X2985800D01*
Y4654200D01*
X2884200D01*
X2684200Y4566700D02*
Y4668300D01*
X2785800D01*
Y4566700D01*
X2684200D01*
X3944200Y4574200D02*
Y4675800D01*
X4045800D01*
Y4574200D01*
X3944200D01*
X3069200Y4689200D02*
Y4790800D01*
X3170800D01*
Y4689200D01*
X3069200D01*
X3634200Y6781700D02*
Y6883300D01*
X3735800D01*
Y6781700D01*
X3634200D01*
X3096700Y7024200D02*
Y7125800D01*
X3198300D01*
Y7024200D01*
X3096700D01*
X7711700Y7139200D02*
Y7240800D01*
X7813300D01*
Y7139200D01*
X7711700D01*
X16656700Y6389200D02*
Y6490800D01*
X16758299D01*
Y6389200D01*
X16656700D01*
X8741700Y5506700D02*
Y5608300D01*
X8843300D01*
Y5506700D01*
X8741700D01*
X8541700Y5414200D02*
Y5515800D01*
X8643300D01*
Y5414200D01*
X8541700D01*
X9006700Y6224200D02*
Y6325800D01*
X9108300D01*
Y6224200D01*
X9006700D01*
X9104200Y6624200D02*
Y6725800D01*
X9205800D01*
Y6624200D01*
X9104200D01*
X12349200Y7261700D02*
Y7363300D01*
X12450800D01*
Y7261700D01*
X12349200D01*
X5391700Y8269200D02*
Y8370800D01*
X5493300D01*
Y8269200D01*
X5391700D01*
X14446700Y7889200D02*
Y7990800D01*
X14548300D01*
Y7889200D01*
X14446700D01*
X13924200Y7386700D02*
Y7488300D01*
X14025800D01*
Y7386700D01*
X13924200D01*
X16129201Y7619200D02*
Y7720800D01*
X16230800D01*
Y7619200D01*
X16129201D01*
X16849200Y7069200D02*
Y7170800D01*
X16950800D01*
Y7069200D01*
X16849200D01*
X16459200Y7074200D02*
Y7175800D01*
X16560800D01*
Y7074200D01*
X16459200D01*
X16539200Y6991700D02*
Y7093300D01*
X16640800D01*
Y6991700D01*
X16539200D01*
X12309793Y8389197D02*
Y8490797D01*
X12411393D01*
Y8389197D01*
X12309793D01*
X5506700Y6261700D02*
Y6363300D01*
X5608300D01*
Y6261700D01*
X5506700D01*
X5299199Y7491150D02*
Y7592750D01*
X5400799D01*
Y7491150D01*
X5299199D01*
X5741700Y7119200D02*
Y7220800D01*
X5843300D01*
Y7119200D01*
X5741700D01*
X5639810Y7399508D02*
Y7501108D01*
X5741410D01*
Y7399508D01*
X5639810D01*
X5201700Y7381700D02*
Y7483300D01*
X5303300D01*
Y7381700D01*
X5201700D01*
X5474200Y7404200D02*
Y7505800D01*
X5575800D01*
Y7404200D01*
X5474200D01*
X6236700Y3436700D02*
Y3538300D01*
X6338300D01*
Y3436700D01*
X6236700D01*
X5889200Y3426700D02*
Y3528300D01*
X5990800D01*
Y3426700D01*
X5889200D01*
X5624200Y3799200D02*
Y3900800D01*
X5725800D01*
Y3799200D01*
X5624200D01*
X7116700Y5264200D02*
Y5365800D01*
X7218300D01*
Y5264200D01*
X7116700D01*
X6410845Y6155845D02*
Y6257445D01*
X6512445D01*
Y6155845D01*
X6410845D01*
X6439402Y5984200D02*
Y6085800D01*
X6541002D01*
Y5984200D01*
X6439402D01*
X6094200Y5476700D02*
Y5578300D01*
X6195800D01*
Y5476700D01*
X6094200D01*
X5594200Y5406700D02*
Y5508300D01*
X5695800D01*
Y5406700D01*
X5594200D01*
X3804200Y4941700D02*
Y5043300D01*
X3905800D01*
Y4941700D01*
X3804200D01*
X3522252Y4659200D02*
Y4760800D01*
X3623852D01*
Y4659200D01*
X3522252D01*
X12079200Y3479200D02*
Y3580800D01*
X12180800D01*
Y3479200D01*
X12079200D01*
X12009200Y3361700D02*
Y3463300D01*
X12110800D01*
Y3361700D01*
X12009200D01*
X11959242Y3481700D02*
Y3583300D01*
X12060842D01*
Y3481700D01*
X11959242D01*
X11930849Y3600051D02*
Y3701651D01*
X12032449D01*
Y3600051D01*
X11930849D01*
X12761700Y4469200D02*
Y4570800D01*
X12863300D01*
Y4469200D01*
X12761700D01*
X16700006Y6882506D02*
Y6984106D01*
X16801607D01*
Y6882506D01*
X16700006D01*
X15626700Y4971700D02*
Y5073300D01*
X15728300D01*
Y4971700D01*
X15626700D01*
X15599200Y6788648D02*
Y6890248D01*
X15700800D01*
Y6788648D01*
X15599200D01*
X9004200Y6319200D02*
Y6420800D01*
X9105800D01*
Y6319200D01*
X9004200D01*
X8752338Y6848693D02*
Y6950293D01*
X8853938D01*
Y6848693D01*
X8752338D01*
X8868612Y6795787D02*
Y6897387D01*
X8970212D01*
Y6795787D01*
X8868612D01*
X8871700Y6634200D02*
Y6735800D01*
X8973300D01*
Y6634200D01*
X8871700D01*
X11284200Y3531700D02*
Y3633300D01*
X11385800D01*
Y3531700D01*
X11284200D01*
X11244200Y3359200D02*
Y3460800D01*
X11345800D01*
Y3359200D01*
X11244200D01*
X11644794Y3464468D02*
Y3566068D01*
X11746394D01*
Y3464468D01*
X11644794D01*
X13871700Y4334200D02*
Y4435800D01*
X13973300D01*
Y4334200D01*
X13871700D01*
X13974200Y3871700D02*
Y3973300D01*
X14075800D01*
Y3871700D01*
X13974200D01*
X12326700Y3486700D02*
Y3588300D01*
X12428300D01*
Y3486700D01*
X12326700D01*
X12546700Y3686700D02*
Y3788300D01*
X12648300D01*
Y3686700D01*
X12546700D01*
X12871700Y2511700D02*
Y2613300D01*
X12973299D01*
Y2511700D01*
X12871700D01*
X12006700D02*
Y2613300D01*
X12108300D01*
Y2511700D01*
X12006700D01*
X10779200Y2626700D02*
Y2728300D01*
X10880800D01*
Y2626700D01*
X10779200D01*
X9369201Y2576698D02*
Y2678298D01*
X9470801D01*
Y2576698D01*
X9369201D01*
X9181700Y2594200D02*
Y2695800D01*
X9283300D01*
Y2594200D01*
X9181700D01*
X10074200Y2489200D02*
Y2590800D01*
X10175800D01*
Y2489200D01*
X10074200D01*
X10799200Y3556700D02*
Y3658300D01*
X10900800D01*
Y3556700D01*
X10799200D01*
X12806700Y3536700D02*
Y3638300D01*
X12908299D01*
Y3536700D01*
X12806700D01*
X12629200Y3511700D02*
Y3613300D01*
X12730800D01*
Y3511700D01*
X12629200D01*
X11516700Y3474200D02*
Y3575800D01*
X11618300D01*
Y3474200D01*
X11516700D01*
X11799641Y3452693D02*
Y3554293D01*
X11901241D01*
Y3452693D01*
X11799641D01*
X10996700Y3639200D02*
Y3740800D01*
X11098300D01*
Y3639200D01*
X10996700D01*
X17164200Y6899200D02*
Y7000800D01*
X17265800D01*
Y6899200D01*
X17164200D01*
X17036700Y7011700D02*
Y7113300D01*
X17138300D01*
Y7011700D01*
X17036700D01*
X17381700Y6904200D02*
Y7005800D01*
X17483299D01*
Y6904200D01*
X17381700D01*
X12906700Y4389200D02*
Y4490800D01*
X13008299D01*
Y4389200D01*
X12906700D01*
X12769387Y4126887D02*
Y4228487D01*
X12870987D01*
Y4126887D01*
X12769387D01*
X12801700Y4314200D02*
Y4415800D01*
X12903300D01*
Y4314200D01*
X12801700D01*
X12853204Y4205704D02*
Y4307304D01*
X12954803D01*
Y4205704D01*
X12853204D01*
X11064200Y4441700D02*
Y4543300D01*
X11165800D01*
Y4441700D01*
X11064200D01*
X13824200Y2961700D02*
Y3063300D01*
X13925800D01*
Y2961700D01*
X13824200D01*
X16414200Y5856148D02*
Y5957748D01*
X16515800D01*
Y5856148D01*
X16414200D01*
X15212489Y5216474D02*
Y5318074D01*
X15314090D01*
Y5216474D01*
X15212489D01*
X14044794Y5151968D02*
Y5253568D01*
X14146394D01*
Y5151968D01*
X14044794D01*
X12934200Y4126700D02*
Y4228300D01*
X13035800D01*
Y4126700D01*
X12934200D01*
X14759299Y5272440D02*
Y5374040D01*
X14860898D01*
Y5272440D01*
X14759299D01*
X14831700Y5046700D02*
Y5148300D01*
X14933299D01*
Y5046700D01*
X14831700D01*
X16111891Y5744009D02*
Y5845609D01*
X16213490D01*
Y5744009D01*
X16111891D01*
X15925841Y6073049D02*
Y6174649D01*
X16027441D01*
Y6073049D01*
X15925841D01*
X13016701Y4522698D02*
Y4624298D01*
X13118300D01*
Y4522698D01*
X13016701D01*
X15474200Y6389200D02*
Y6490800D01*
X15575800D01*
Y6389200D01*
X15474200D01*
X15629201Y6114752D02*
Y6216352D01*
X15730800D01*
Y6114752D01*
X15629201D01*
X13741701Y4524200D02*
Y4625800D01*
X13843300D01*
Y4524200D01*
X13741701D01*
X14014201Y4531700D02*
Y4633300D01*
X14115800D01*
Y4531700D01*
X14014201D01*
X14711700Y4401700D02*
Y4503300D01*
X14813300D01*
Y4401700D01*
X14711700D01*
X15856700Y4661700D02*
Y4763300D01*
X15958299D01*
Y4661700D01*
X15856700D01*
X12696700Y4541700D02*
Y4643300D01*
X12798300D01*
Y4541700D01*
X12696700D01*
X13081700Y4834200D02*
Y4935800D01*
X13183299D01*
Y4834200D01*
X13081700D01*
X16119200Y4794200D02*
Y4895800D01*
X16220799D01*
Y4794200D01*
X16119200D01*
X16611700Y5724200D02*
Y5825800D01*
X16713300D01*
Y5724200D01*
X16611700D01*
X16609200Y5521700D02*
Y5623300D01*
X16710800D01*
Y5521700D01*
X16609200D01*
X16051700Y5536700D02*
Y5638300D01*
X16153300D01*
Y5536700D01*
X16051700D01*
X17251700Y5851700D02*
Y5953300D01*
X17353300D01*
Y5851700D01*
X17251700D01*
X14784203Y5389199D02*
Y5490799D01*
X14885802D01*
Y5389199D01*
X14784203D01*
X13824200Y5134200D02*
Y5235800D01*
X13925800D01*
Y5134200D01*
X13824200D01*
X13836700Y5326700D02*
Y5428300D01*
X13938301D01*
Y5326700D01*
X13836700D01*
X13724200Y5224200D02*
Y5325800D01*
X13825800D01*
Y5224200D01*
X13724200D01*
X12144200Y5299200D02*
Y5400800D01*
X12245800D01*
Y5299200D01*
X12144200D01*
X10864200Y5484200D02*
Y5585800D01*
X10965800D01*
Y5484200D01*
X10864200D01*
X11824200Y5486700D02*
Y5588300D01*
X11925800D01*
Y5486700D01*
X11824200D01*
X11769200Y5281700D02*
Y5383300D01*
X11870800D01*
Y5281700D01*
X11769200D01*
X10656700Y5464200D02*
Y5565800D01*
X10758300D01*
Y5464200D01*
X10656700D01*
X11934200Y6449202D02*
Y6550802D01*
X12035800D01*
Y6449202D01*
X11934200D01*
X12049200Y6339200D02*
Y6440800D01*
X12150800D01*
Y6339200D01*
X12049200D01*
X11001700Y5186700D02*
Y5288300D01*
X11103300D01*
Y5186700D01*
X11001700D01*
X15331700Y5549200D02*
Y5650800D01*
X15433299D01*
Y5549200D01*
X15331700D01*
X15364200Y5194200D02*
Y5295800D01*
X15465800D01*
Y5194200D01*
X15364200D01*
X15044202Y6151702D02*
Y6253302D01*
X15145802D01*
Y6151702D01*
X15044202D01*
X12941701Y6223822D02*
Y6325422D01*
X13043300D01*
Y6223822D01*
X12941701D01*
X13851700Y7134200D02*
Y7235800D01*
X13953300D01*
Y7134200D01*
X13851700D01*
X15716701Y6946700D02*
Y7048300D01*
X15818300D01*
Y6946700D01*
X15716701D01*
X12884200Y5386700D02*
Y5488300D01*
X12985800D01*
Y5386700D01*
X12884200D01*
Y4939200D02*
Y5040800D01*
X12985800D01*
Y4939200D01*
X12884200D01*
X12999200Y5199156D02*
Y5300756D01*
X13100800D01*
Y5199156D01*
X12999200D01*
X13124165Y6239200D02*
Y6340800D01*
X13225764D01*
Y6239200D01*
X13124165D01*
X11218309Y8049931D02*
Y8151531D01*
X11319909D01*
Y8049931D01*
X11218309D01*
X10224200Y7286700D02*
Y7388300D01*
X10325800D01*
Y7286700D01*
X10224200D01*
X16086700Y7381700D02*
Y7483300D01*
X16188300D01*
Y7381700D01*
X16086700D01*
X5786699Y6278519D02*
Y6380119D01*
X5888299D01*
Y6278519D01*
X5786699D01*
X6364200Y6514200D02*
Y6615800D01*
X6465800D01*
Y6514200D01*
X6364200D01*
X7786700Y4096700D02*
Y4198300D01*
X7888300D01*
Y4096700D01*
X7786700D01*
X7759202Y2684201D02*
Y2785801D01*
X7860802D01*
Y2684201D01*
X7759202D01*
X7876703Y3934201D02*
Y4035801D01*
X7978303D01*
Y3934201D01*
X7876703D01*
X5584200Y6514201D02*
Y6615801D01*
X5685800D01*
Y6514201D01*
X5584200D01*
X7006702Y8189199D02*
Y8290799D01*
X7108302D01*
Y8189199D01*
X7006702D01*
X16554999Y3305002D02*
Y3389642D01*
X16597318Y3431961D01*
X16639638Y3389642D01*
Y3305002D01*
Y3368482D01*
X16554999D01*
Y3405002D02*
Y3489641D01*
X16597318Y3531961D01*
X16639638Y3489641D01*
Y3405002D01*
Y3468482D01*
X16554999D01*
X16625002Y3405002D02*
Y3489641D01*
X16667320Y3531961D01*
X16709641Y3489641D01*
Y3405002D01*
Y3468482D01*
X16625002D01*
Y3505002D02*
Y3589641D01*
X16667320Y3631961D01*
X16709641Y3589641D01*
Y3505002D01*
Y3568481D01*
X16625002D01*
X16554999Y3505002D02*
Y3589641D01*
X16597318Y3631961D01*
X16639638Y3589641D01*
Y3505002D01*
Y3568481D01*
X16554999D01*
Y3605002D02*
Y3689641D01*
X16597318Y3731961D01*
X16639638Y3689641D01*
Y3605002D01*
Y3668481D01*
X16554999D01*
X16625002Y3605002D02*
Y3689641D01*
X16667320Y3731961D01*
X16709641Y3689641D01*
Y3605002D01*
Y3668481D01*
X16625002D01*
Y3305002D02*
Y3389642D01*
X16667320Y3431961D01*
X16709641Y3389642D01*
Y3305002D01*
Y3368482D01*
X16625002D01*
X16694998Y3305002D02*
Y3389642D01*
X16737318Y3431961D01*
X16779639Y3389642D01*
Y3305002D01*
Y3368482D01*
X16694998D01*
Y3605002D02*
Y3689641D01*
X16737318Y3731961D01*
X16779639Y3689641D01*
Y3605002D01*
Y3668481D01*
X16694998D01*
Y3405002D02*
Y3489641D01*
X16737318Y3531961D01*
X16779639Y3489641D01*
Y3405002D01*
Y3468482D01*
X16694998D01*
Y3505002D02*
Y3589641D01*
X16737318Y3631961D01*
X16779639Y3589641D01*
Y3505002D01*
Y3568481D01*
X16694998D01*
X17005000Y3617498D02*
Y3702138D01*
X17047321Y3744457D01*
X17089639Y3702138D01*
Y3617498D01*
Y3680978D01*
X17005000D01*
X16794998Y3617498D02*
Y3702138D01*
X16837318Y3744457D01*
X16879639Y3702138D01*
Y3617498D01*
Y3680978D01*
X16794998D01*
Y3694999D02*
Y3779638D01*
X16837318Y3821958D01*
X16879639Y3779638D01*
Y3694999D01*
Y3758478D01*
X16794998D01*
X16934998Y3617498D02*
Y3702138D01*
X16977318Y3744457D01*
X17019637Y3702138D01*
Y3617498D01*
Y3680978D01*
X16934998D01*
X16865001Y3617498D02*
Y3702138D01*
X16907320Y3744457D01*
X16949640Y3702138D01*
Y3617498D01*
Y3680978D01*
X16865001D01*
X17123000Y3654999D02*
Y3739638D01*
X17165318Y3781958D01*
X17207639Y3739638D01*
Y3654999D01*
Y3718478D01*
X17123000D01*
X16554999Y3905001D02*
Y3989640D01*
X16597318Y4031960D01*
X16639638Y3989640D01*
Y3905001D01*
Y3968481D01*
X16554999D01*
Y3705001D02*
Y3789641D01*
X16597318Y3831960D01*
X16639638Y3789641D01*
Y3705001D01*
Y3768481D01*
X16554999D01*
Y3805001D02*
Y3889641D01*
X16597318Y3931960D01*
X16639638Y3889641D01*
Y3805001D01*
Y3868481D01*
X16554999D01*
Y4105001D02*
Y4189640D01*
X16597318Y4231960D01*
X16639638Y4189640D01*
Y4105001D01*
Y4168480D01*
X16554999D01*
Y4205000D02*
Y4289640D01*
X16597318Y4331959D01*
X16639638Y4289640D01*
Y4205000D01*
Y4268480D01*
X16554999D01*
Y4005001D02*
Y4089640D01*
X16597318Y4131960D01*
X16639638Y4089640D01*
Y4005001D01*
Y4068480D01*
X16554999D01*
X16625002Y4305000D02*
Y4389640D01*
X16667320Y4431959D01*
X16709641Y4389640D01*
Y4305000D01*
Y4368480D01*
X16625002D01*
Y3805001D02*
Y3889641D01*
X16667320Y3931960D01*
X16709641Y3889641D01*
Y3805001D01*
Y3868481D01*
X16625002D01*
Y3905001D02*
Y3989640D01*
X16667320Y4031960D01*
X16709641Y3989640D01*
Y3905001D01*
Y3968481D01*
X16625002D01*
Y3705001D02*
Y3789641D01*
X16667320Y3831960D01*
X16709641Y3789641D01*
Y3705001D01*
Y3768481D01*
X16625002D01*
X16694998Y3905001D02*
Y3989640D01*
X16737318Y4031960D01*
X16779639Y3989640D01*
Y3905001D01*
Y3968481D01*
X16694998D01*
X16625002Y4105001D02*
Y4189640D01*
X16667320Y4231960D01*
X16709641Y4189640D01*
Y4105001D01*
Y4168480D01*
X16625002D01*
Y4205000D02*
Y4289640D01*
X16667320Y4331959D01*
X16709641Y4289640D01*
Y4205000D01*
Y4268480D01*
X16625002D01*
Y4005001D02*
Y4089640D01*
X16667320Y4131960D01*
X16709641Y4089640D01*
Y4005001D01*
Y4068480D01*
X16625002D01*
X16694998Y4205000D02*
Y4289640D01*
X16737318Y4331959D01*
X16779639Y4289640D01*
Y4205000D01*
Y4268480D01*
X16694998D01*
X16554999Y4405000D02*
Y4489639D01*
X16597318Y4531959D01*
X16639638Y4489639D01*
Y4405000D01*
Y4468480D01*
X16554999D01*
Y4505000D02*
Y4589639D01*
X16597318Y4631959D01*
X16639638Y4589639D01*
Y4505000D01*
Y4568479D01*
X16554999D01*
Y4305000D02*
Y4389640D01*
X16597318Y4431959D01*
X16639638Y4389640D01*
Y4305000D01*
Y4368480D01*
X16554999D01*
X16625002Y4405000D02*
Y4489639D01*
X16667320Y4531959D01*
X16709641Y4489639D01*
Y4405000D01*
Y4468480D01*
X16625002D01*
Y4505000D02*
Y4589639D01*
X16667320Y4631959D01*
X16709641Y4589639D01*
Y4505000D01*
Y4568479D01*
X16625002D01*
X16665001Y4650999D02*
Y4735638D01*
X16707321Y4777958D01*
X16749640Y4735638D01*
Y4650999D01*
Y4714479D01*
X16665001D01*
X16585001Y4650999D02*
Y4735638D01*
X16627321Y4777958D01*
X16669641Y4735638D01*
Y4650999D01*
Y4714479D01*
X16585001D01*
X16694998Y4005001D02*
Y4089640D01*
X16737318Y4131960D01*
X16779639Y4089640D01*
Y4005001D01*
Y4068480D01*
X16694998D01*
Y3705001D02*
Y3789641D01*
X16737318Y3831960D01*
X16779639Y3789641D01*
Y3705001D01*
Y3768481D01*
X16694998D01*
Y3805001D02*
Y3889641D01*
X16737318Y3931960D01*
X16779639Y3889641D01*
Y3805001D01*
Y3868481D01*
X16694998D01*
Y4405000D02*
Y4489639D01*
X16737318Y4531959D01*
X16779639Y4489639D01*
Y4405000D01*
Y4468480D01*
X16694998D01*
Y4105001D02*
Y4189640D01*
X16737318Y4231960D01*
X16779639Y4189640D01*
Y4105001D01*
Y4168480D01*
X16694998D01*
X16934998Y3694999D02*
Y3779638D01*
X16977318Y3821958D01*
X17019637Y3779638D01*
Y3694999D01*
Y3758478D01*
X16934998D01*
X16865001Y3694999D02*
Y3779638D01*
X16907320Y3821958D01*
X16949640Y3779638D01*
Y3694999D01*
Y3758478D01*
X16865001D01*
X17005000Y3694999D02*
Y3779638D01*
X17047321Y3821958D01*
X17089639Y3779638D01*
Y3694999D01*
Y3758478D01*
X17005000D01*
X17123000Y3734999D02*
Y3819638D01*
X17165318Y3861958D01*
X17207639Y3819638D01*
Y3734999D01*
Y3798478D01*
X17123000D01*
X16865001Y3772499D02*
Y3857139D01*
X16907320Y3899458D01*
X16949640Y3857139D01*
Y3772499D01*
Y3835979D01*
X16865001D01*
X16794998Y3772499D02*
Y3857139D01*
X16837318Y3899458D01*
X16879639Y3857139D01*
Y3772499D01*
Y3835979D01*
X16794998D01*
X17005000Y3772499D02*
Y3857139D01*
X17047321Y3899458D01*
X17089639Y3857139D01*
Y3772499D01*
Y3835979D01*
X17005000D01*
X16934998Y3772499D02*
Y3857139D01*
X16977318Y3899458D01*
X17019637Y3857139D01*
Y3772499D01*
Y3835979D01*
X16934998D01*
X16694998Y4305000D02*
Y4389640D01*
X16737318Y4431959D01*
X16779639Y4389640D01*
Y4305000D01*
Y4368480D01*
X16694998D01*
Y4505000D02*
Y4589639D01*
X16737318Y4631959D01*
X16779639Y4589639D01*
Y4505000D01*
Y4568479D01*
X16694998D01*
X12969926Y8002427D02*
Y8104027D01*
X13071526D01*
Y8002427D01*
X12969926D01*
X14821703Y4616699D02*
Y4718299D01*
X14923303D01*
Y4616699D01*
X14821703D01*
X16466701Y5761700D02*
Y5863300D01*
X16568300D01*
Y5761700D01*
X16466701D01*
X13256702Y7821701D02*
Y7923301D01*
X13358302D01*
Y7821701D01*
X13256702D01*
X5311700Y7776700D02*
Y7878300D01*
X5413300D01*
Y7776700D01*
X5311700D01*
X8176700Y8324200D02*
Y8425800D01*
X8278300D01*
Y8324200D01*
X8176700D01*
X16889200Y6874200D02*
Y6975800D01*
X16990800D01*
Y6874200D01*
X16889200D01*
X8649200Y8266700D02*
Y8368300D01*
X8750800D01*
Y8266700D01*
X8649200D01*
X13079202Y8251698D02*
Y8353298D01*
X13180801D01*
Y8251698D01*
X13079202D01*
X7486700Y6101700D02*
Y6203300D01*
X7588300D01*
Y6101700D01*
X7486700D01*
X7714644Y6673756D02*
Y6775356D01*
X7816244D01*
Y6673756D01*
X7714644D01*
X7246701Y6958838D02*
Y7060438D01*
X7348301D01*
Y6958838D01*
X7246701D01*
X5754202Y8046700D02*
Y8148300D01*
X5855802D01*
Y8046700D01*
X5754202D01*
X7234199Y7406701D02*
Y7508301D01*
X7335799D01*
Y7406701D01*
X7234199D01*
X14881703Y7111700D02*
Y7213300D01*
X14983302D01*
Y7111700D01*
X14881703D01*
X17005000Y3439998D02*
Y3524638D01*
X17047321Y3566957D01*
X17089639Y3524638D01*
Y3439998D01*
Y3503478D01*
X17005000D01*
X16865001Y3439998D02*
Y3524638D01*
X16907320Y3566957D01*
X16949640Y3524638D01*
Y3439998D01*
Y3503478D01*
X16865001D01*
X16934998Y3439998D02*
Y3524638D01*
X16977318Y3566957D01*
X17019637Y3524638D01*
Y3439998D01*
Y3503478D01*
X16934998D01*
X17123000Y3474999D02*
Y3559639D01*
X17165318Y3601958D01*
X17207639Y3559639D01*
Y3474999D01*
Y3538479D01*
X17123000D01*
X17005000Y3510001D02*
Y3594640D01*
X17047321Y3636959D01*
X17089639Y3594640D01*
Y3510001D01*
Y3573480D01*
X17005000D01*
X16865001Y3510001D02*
Y3594640D01*
X16907320Y3636959D01*
X16949640Y3594640D01*
Y3510001D01*
Y3573480D01*
X16865001D01*
X16934998Y3510001D02*
Y3594640D01*
X16977318Y3636959D01*
X17019637Y3594640D01*
Y3510001D01*
Y3573480D01*
X16934998D01*
X6444198Y5636702D02*
Y5738302D01*
X6545798D01*
Y5636702D01*
X6444198D01*
X5536700Y6896700D02*
Y6998300D01*
X5638300D01*
Y6896700D01*
X5536700D01*
X4856700Y6576700D02*
Y6678300D01*
X4958300D01*
Y6576700D01*
X4856700D01*
X9931700Y6844200D02*
Y6945800D01*
X10033300D01*
Y6844200D01*
X9931700D01*
X7541700Y5154200D02*
Y5255800D01*
X7643300D01*
Y5154200D01*
X7541700D01*
X8689198Y4724202D02*
Y4825802D01*
X8790798D01*
Y4724202D01*
X8689198D01*
X6831700Y4961739D02*
Y5063339D01*
X6933300D01*
Y4961739D01*
X6831700D01*
X7231700Y4994200D02*
Y5095800D01*
X7333300D01*
Y4994200D01*
X7231700D01*
X4606486Y7667881D02*
Y7769481D01*
X4708086D01*
Y7667881D01*
X4606486D01*
X16794998Y4005001D02*
Y4089640D01*
X16837318Y4131960D01*
X16879639Y4089640D01*
Y4005001D01*
Y4068480D01*
X16794998D01*
Y3905001D02*
Y3989640D01*
X16837318Y4031960D01*
X16879639Y3989640D01*
Y3905001D01*
Y3968481D01*
X16794998D01*
Y4105001D02*
Y4189640D01*
X16837318Y4231960D01*
X16879639Y4189640D01*
Y4105001D01*
Y4168480D01*
X16794998D01*
Y4205000D02*
Y4289640D01*
X16837318Y4331959D01*
X16879639Y4289640D01*
Y4205000D01*
Y4268480D01*
X16794998D01*
X16934998Y3905001D02*
Y3989640D01*
X16977318Y4031960D01*
X17019637Y3989640D01*
Y3905001D01*
Y3968481D01*
X16934998D01*
X16865001Y3905001D02*
Y3989640D01*
X16907320Y4031960D01*
X16949640Y3989640D01*
Y3905001D01*
Y3968481D01*
X16865001D01*
Y4005001D02*
Y4089640D01*
X16907320Y4131960D01*
X16949640Y4089640D01*
Y4005001D01*
Y4068480D01*
X16865001D01*
Y4105001D02*
Y4189640D01*
X16907320Y4231960D01*
X16949640Y4189640D01*
Y4105001D01*
Y4168480D01*
X16865001D01*
Y4205000D02*
Y4289640D01*
X16907320Y4331959D01*
X16949640Y4289640D01*
Y4205000D01*
Y4268480D01*
X16865001D01*
X16934998Y4005001D02*
Y4089640D01*
X16977318Y4131960D01*
X17019637Y4089640D01*
Y4005001D01*
Y4068480D01*
X16934998D01*
Y4205000D02*
Y4289640D01*
X16977318Y4331959D01*
X17019637Y4289640D01*
Y4205000D01*
Y4268480D01*
X16934998D01*
Y4105001D02*
Y4189640D01*
X16977318Y4231960D01*
X17019637Y4189640D01*
Y4105001D01*
Y4168480D01*
X16934998D01*
X16794998Y4305000D02*
Y4389640D01*
X16837318Y4431959D01*
X16879639Y4389640D01*
Y4305000D01*
Y4368480D01*
X16794998D01*
X16865001Y4305000D02*
Y4389640D01*
X16907320Y4431959D01*
X16949640Y4389640D01*
Y4305000D01*
Y4368480D01*
X16865001D01*
X16794998Y4405000D02*
Y4489639D01*
X16837318Y4531959D01*
X16879639Y4489639D01*
Y4405000D01*
Y4468480D01*
X16794998D01*
X16865001Y4405000D02*
Y4489639D01*
X16907320Y4531959D01*
X16949640Y4489639D01*
Y4405000D01*
Y4468480D01*
X16865001D01*
X16794998Y4505000D02*
Y4589639D01*
X16837318Y4631959D01*
X16879639Y4589639D01*
Y4505000D01*
Y4568479D01*
X16794998D01*
X16865001Y4505000D02*
Y4589639D01*
X16907320Y4631959D01*
X16949640Y4589639D01*
Y4505000D01*
Y4568479D01*
X16865001D01*
X16825002Y4650999D02*
Y4735638D01*
X16867320Y4777958D01*
X16909641Y4735638D01*
Y4650999D01*
Y4714479D01*
X16825002D01*
X16934998Y4305000D02*
Y4389640D01*
X16977318Y4431959D01*
X17019637Y4389640D01*
Y4305000D01*
Y4368480D01*
X16934998D01*
Y4405000D02*
Y4489639D01*
X16977318Y4531959D01*
X17019637Y4489639D01*
Y4405000D01*
Y4468480D01*
X16934998D01*
Y4505000D02*
Y4589639D01*
X16977318Y4631959D01*
X17019637Y4589639D01*
Y4505000D01*
Y4568479D01*
X16934998D01*
X16905000Y4650999D02*
Y4735638D01*
X16947321Y4777958D01*
X16989639Y4735638D01*
Y4650999D01*
Y4714479D01*
X16905000D01*
X14734200Y7101698D02*
Y7203298D01*
X14835800D01*
Y7101698D01*
X14734200D01*
X13117419Y7661702D02*
Y7763302D01*
X13219019D01*
Y7661702D01*
X13117419D01*
X12863972Y7803972D02*
Y7905572D01*
X12965572D01*
Y7803972D01*
X12863972D01*
X13121700Y7196700D02*
Y7298300D01*
X13223300D01*
Y7196700D01*
X13121700D01*
X14436700Y6334200D02*
Y6435800D01*
X14538300D01*
Y6334200D01*
X14436700D01*
X12951700Y6894200D02*
Y6995800D01*
X13053300D01*
Y6894200D01*
X12951700D01*
X12911700Y7146700D02*
Y7248300D01*
X13013300D01*
Y7146700D01*
X12911700D01*
X15089200Y5809198D02*
Y5910798D01*
X15190800D01*
Y5809198D01*
X15089200D01*
X14301698Y6206698D02*
Y6308298D01*
X14403299D01*
Y6206698D01*
X14301698D01*
X13801700Y5876700D02*
Y5978300D01*
X13903300D01*
Y5876700D01*
X13801700D01*
X12076700Y8201700D02*
Y8303300D01*
X12178300D01*
Y8201700D01*
X12076700D01*
X12286701Y7524201D02*
Y7625801D01*
X12388301D01*
Y7524201D01*
X12286701D01*
X11989200Y7006700D02*
Y7108300D01*
X12090800D01*
Y7006700D01*
X11989200D01*
X11564200Y7399200D02*
Y7500800D01*
X11665800D01*
Y7399200D01*
X11564200D01*
X11404199Y7396698D02*
Y7498298D01*
X11505799D01*
Y7396698D01*
X11404199D01*
X12666701Y6204199D02*
Y6305799D01*
X12768301D01*
Y6204199D01*
X12666701D01*
X12099199Y6176701D02*
Y6278301D01*
X12200799D01*
Y6176701D01*
X12099199D01*
X12584200Y5139200D02*
Y5240800D01*
X12685800D01*
Y5139200D01*
X12584200D01*
X11692141Y6159200D02*
Y6260800D01*
X11793741D01*
Y6159200D01*
X11692141D01*
X17194200Y4516699D02*
Y4618299D01*
X17295799D01*
Y4516699D01*
X17194200D01*
X17581702Y3384200D02*
Y3485800D01*
X17683302D01*
Y3384200D01*
X17581702D01*
X15566701Y4171700D02*
Y4273300D01*
X15668300D01*
Y4171700D01*
X15566701D01*
X15269200Y3231700D02*
Y3333300D01*
X15370799D01*
Y3231700D01*
X15269200D01*
X16374200Y2531699D02*
Y2633299D01*
X16475801D01*
Y2531699D01*
X16374200D01*
X14906700Y4106700D02*
Y4208300D01*
X15008299D01*
Y4106700D01*
X14906700D01*
X12739340Y4674059D02*
Y4775659D01*
X12840939D01*
Y4674059D01*
X12739340D01*
X13019200Y4106700D02*
Y4208300D01*
X13120799D01*
Y4106700D01*
X13019200D01*
X12796698Y3089199D02*
Y3190799D01*
X12898299D01*
Y3089199D01*
X12796698D01*
X9586700Y8181700D02*
Y8283300D01*
X9688300D01*
Y8181700D01*
X9586700D01*
X10450177Y6975722D02*
Y7077322D01*
X10551777D01*
Y6975722D01*
X10450177D01*
X10186700Y6724200D02*
Y6825800D01*
X10288300D01*
Y6724200D01*
X10186700D01*
X8249200Y7951700D02*
Y8053300D01*
X8350800D01*
Y7951700D01*
X8249200D01*
X8344200Y6499200D02*
Y6600800D01*
X8445800D01*
Y6499200D01*
X8344200D01*
X7609200Y6568312D02*
Y6669912D01*
X7710800D01*
Y6568312D01*
X7609200D01*
X8154793Y6447293D02*
Y6548893D01*
X8256393D01*
Y6447293D01*
X8154793D01*
X7571700Y5706700D02*
Y5808300D01*
X7673300D01*
Y5706700D01*
X7571700D01*
X6491702Y7649200D02*
Y7750800D01*
X6593302D01*
Y7649200D01*
X6491702D01*
X5589199Y7944195D02*
Y8045795D01*
X5690799D01*
Y7944195D01*
X5589199D01*
X7469200Y7434200D02*
Y7535800D01*
X7570800D01*
Y7434200D01*
X7469200D01*
X6696700Y6891701D02*
Y6993301D01*
X6798300D01*
Y6891701D01*
X6696700D01*
X7101698Y6879199D02*
Y6980799D01*
X7203298D01*
Y6879199D01*
X7101698D01*
X5874200Y6856700D02*
Y6958300D01*
X5975800D01*
Y6856700D01*
X5874200D01*
X4606698Y6758745D02*
Y6860345D01*
X4708298D01*
Y6758745D01*
X4606698D01*
X5716700Y6501700D02*
Y6603300D01*
X5818300D01*
Y6501700D01*
X5716700D01*
X10316700Y5289200D02*
Y5390800D01*
X10418300D01*
Y5289200D01*
X10316700D01*
X9634200Y3621700D02*
Y3723300D01*
X9735800D01*
Y3621700D01*
X9634200D01*
X8316702Y3609198D02*
Y3710798D01*
X8418302D01*
Y3609198D01*
X8316702D01*
X7554199Y3404199D02*
Y3505799D01*
X7655799D01*
Y3404199D01*
X7554199D01*
X8509198Y2866700D02*
Y2968300D01*
X8610798D01*
Y2866700D01*
X8509198D01*
X8326699Y2874198D02*
Y2975798D01*
X8428299D01*
Y2874198D01*
X8326699D01*
X7619200Y2636700D02*
Y2738300D01*
X7720800D01*
Y2636700D01*
X7619200D01*
X6654200Y5011700D02*
Y5113300D01*
X6755800D01*
Y5011700D01*
X6654200D01*
X7318670Y4391701D02*
Y4493301D01*
X7420270D01*
Y4391701D01*
X7318670D01*
X4774199Y4321698D02*
Y4423298D01*
X4875799D01*
Y4321698D01*
X4774199D01*
X4821700Y3839200D02*
Y3940800D01*
X4923300D01*
Y3839200D01*
X4821700D01*
X4529200Y3626700D02*
Y3728300D01*
X4630800D01*
Y3626700D01*
X4529200D01*
X4431076Y3232325D02*
Y3333925D01*
X4532676D01*
Y3232325D01*
X4431076D01*
X3706700Y3296704D02*
Y3398304D01*
X3808300D01*
Y3296704D01*
X3706700D01*
X6199200Y2909199D02*
Y3010799D01*
X6300800D01*
Y2909199D01*
X6199200D01*
X5771700Y3004200D02*
Y3105800D01*
X5873300D01*
Y3004200D01*
X5771700D01*
X3051698Y2721701D02*
Y2823301D01*
X3153298D01*
Y2721701D01*
X3051698D01*
X14144199Y3864199D02*
Y3965799D01*
X14245798D01*
Y3864199D01*
X14144199D01*
X15431700Y4509200D02*
Y4610800D01*
X15533299D01*
Y4509200D01*
X15431700D01*
X12291700Y5396700D02*
Y5498300D01*
X12393300D01*
Y5396700D01*
X12291700D01*
X11136700Y3339200D02*
Y3440800D01*
X11238300D01*
Y3339200D01*
X11136700D01*
X11006699Y3514202D02*
Y3615802D01*
X11108299D01*
Y3514202D01*
X11006699D01*
X11204200Y4425432D02*
Y4527032D01*
X11305800D01*
Y4425432D01*
X11204200D01*
X11881202Y5181700D02*
Y5283300D01*
X11982802D01*
Y5181700D01*
X11881202D01*
X11476700Y6159200D02*
Y6260800D01*
X11578300D01*
Y6159200D01*
X11476700D01*
X11469200Y6324200D02*
Y6425800D01*
X11570800D01*
Y6324200D01*
X11469200D01*
X8549340Y6819341D02*
Y6920941D01*
X8650940D01*
Y6819341D01*
X8549340D01*
X8856700Y3686700D02*
Y3788300D01*
X8958300D01*
Y3686700D01*
X8856700D01*
X6551700Y2624200D02*
Y2725800D01*
X6653300D01*
Y2624200D01*
X6551700D01*
X7509200Y7953917D02*
Y8055517D01*
X7610800D01*
Y7953917D01*
X7509200D01*
X7435855Y5679985D02*
Y5781585D01*
X7537455D01*
Y5679985D01*
X7435855D01*
X7668693Y4644047D02*
Y4745647D01*
X7770293D01*
Y4644047D01*
X7668693D01*
X5284201Y7944195D02*
Y8045795D01*
X5385801D01*
Y7944195D01*
X5284201D01*
X7555197Y4922697D02*
Y5024297D01*
X7656797D01*
Y4922697D01*
X7555197D01*
X9534200Y7919200D02*
Y8020800D01*
X9635800D01*
Y7919200D01*
X9534200D01*
X4511700Y3764200D02*
Y3865800D01*
X4613300D01*
Y3764200D01*
X4511700D01*
X3159200Y3464200D02*
Y3565800D01*
X3260800D01*
Y3464200D01*
X3159200D01*
X6451700Y4919202D02*
Y5020802D01*
X6553300D01*
Y4919202D01*
X6451700D01*
X5226700Y5089200D02*
Y5190800D01*
X5328300D01*
Y5089200D01*
X5226700D01*
X8591700Y7056700D02*
Y7158300D01*
X8693300D01*
Y7056700D01*
X8591700D01*
X9066700Y7664200D02*
Y7765800D01*
X9168300D01*
Y7664200D01*
X9066700D01*
X11301700Y8204200D02*
Y8305800D01*
X11403300D01*
Y8204200D01*
X11301700D01*
X8694200Y4996700D02*
Y5098300D01*
X8795800D01*
Y4996700D01*
X8694200D01*
X9829200Y4349200D02*
Y4450800D01*
X9930800D01*
Y4349200D01*
X9829200D01*
X9831700Y4789200D02*
Y4890800D01*
X9933300D01*
Y4789200D01*
X9831700D01*
X12736700Y3924200D02*
Y4025800D01*
X12838300D01*
Y3924200D01*
X12736700D01*
X10226700Y7821700D02*
Y7923300D01*
X10328300D01*
Y7821700D01*
X10226700D01*
X13749197Y5436702D02*
Y5538302D01*
X13850798D01*
Y5436702D01*
X13749197D01*
X15574200Y2719200D02*
Y2820800D01*
X15675800D01*
Y2719200D01*
X15574200D01*
X15139203Y2514199D02*
Y2615799D01*
X15240804D01*
Y2514199D01*
X15139203D01*
X15301701Y2971698D02*
Y3073298D01*
X15403302D01*
Y2971698D01*
X15301701D01*
X12234200Y7364200D02*
Y7465800D01*
X12335800D01*
Y7364200D01*
X12234200D01*
X9469200Y2911700D02*
Y3013300D01*
X9570800D01*
Y2911700D01*
X9469200D01*
X11054200Y4111700D02*
Y4213300D01*
X11155800D01*
Y4111700D01*
X11054200D01*
X11041700Y4609200D02*
Y4710800D01*
X11143300D01*
Y4609200D01*
X11041700D01*
X11176700Y4591700D02*
Y4693300D01*
X11278300D01*
Y4591700D01*
X11176700D01*
X11250000Y4232500D02*
Y4317139D01*
X11292320Y4359459D01*
X11334640Y4317139D01*
Y4232500D01*
Y4295979D01*
X11250000D01*
X10991700Y6986700D02*
Y7088300D01*
X11093300D01*
Y6986700D01*
X10991700D01*
X10369200Y7284200D02*
Y7385800D01*
X10470800D01*
Y7284200D01*
X10369200D01*
X10459200Y6629200D02*
Y6730800D01*
X10560800D01*
Y6629200D01*
X10459200D01*
X10341700Y6716700D02*
Y6818300D01*
X10443300D01*
Y6716700D01*
X10341700D01*
X13129201Y7031700D02*
Y7133300D01*
X13230800D01*
Y7031700D01*
X13129201D01*
X12539200Y7341700D02*
Y7443300D01*
X12640800D01*
Y7341700D01*
X12539200D01*
X11949199Y7773900D02*
Y7875500D01*
X12050799D01*
Y7773900D01*
X11949199D01*
X12279200Y8014197D02*
Y8115797D01*
X12380800D01*
Y8014197D01*
X12279200D01*
X10916700Y7866700D02*
Y7968300D01*
X11018300D01*
Y7866700D01*
X10916700D01*
X11899200Y6919200D02*
Y7020800D01*
X12000800D01*
Y6919200D01*
X11899200D01*
X11886700Y6686700D02*
Y6788300D01*
X11988300D01*
Y6686700D01*
X11886700D01*
X11071700Y6171700D02*
Y6273300D01*
X11173300D01*
Y6171700D01*
X11071700D01*
X10301700Y6449200D02*
Y6550800D01*
X10403300D01*
Y6449200D01*
X10301700D01*
X10101700Y6431700D02*
Y6533300D01*
X10203300D01*
Y6431700D01*
X10101700D01*
X10341700Y6029200D02*
Y6130800D01*
X10443300D01*
Y6029200D01*
X10341700D01*
X10109200Y5986700D02*
Y6088300D01*
X10210800D01*
Y5986700D01*
X10109200D01*
X10249200Y6594200D02*
Y6695800D01*
X10350800D01*
Y6594200D01*
X10249200D01*
X7474200Y2949200D02*
Y3050800D01*
X7575800D01*
Y2949200D01*
X7474200D01*
X5216700Y5981700D02*
Y6083300D01*
X5318300D01*
Y5981700D01*
X5216700D01*
X3871700Y2896700D02*
Y2998300D01*
X3973300D01*
Y2896700D01*
X3871700D01*
X5589200Y3149200D02*
Y3250800D01*
X5690800D01*
Y3149200D01*
X5589200D01*
X5621700Y2974200D02*
Y3075800D01*
X5723300D01*
Y2974200D01*
X5621700D01*
X7346700Y2956700D02*
Y3058300D01*
X7448300D01*
Y2956700D01*
X7346700D01*
X8574200Y3054200D02*
Y3155800D01*
X8675800D01*
Y3054200D01*
X8574200D01*
X8556700Y3739200D02*
Y3840800D01*
X8658300D01*
Y3739200D01*
X8556700D01*
X7221700Y3926700D02*
Y4028300D01*
X7323300D01*
Y3926700D01*
X7221700D01*
X6461700Y4556700D02*
Y4658300D01*
X6563300D01*
Y4556700D01*
X6461700D01*
X7429200Y6476700D02*
Y6578300D01*
X7530800D01*
Y6476700D01*
X7429200D01*
X8996701Y7851700D02*
Y7953300D01*
X9098301D01*
Y7851700D01*
X8996701D01*
X11579200Y5401700D02*
Y5503300D01*
X11680800D01*
Y5401700D01*
X11579200D01*
X10054200Y7256700D02*
Y7358300D01*
X10155800D01*
Y7256700D01*
X10054200D01*
X9109200Y8104200D02*
Y8205800D01*
X9210800D01*
Y8104200D01*
X9109200D01*
X8339200Y6769200D02*
Y6870800D01*
X8440800D01*
Y6769200D01*
X8339200D01*
X9156700Y7266700D02*
Y7368300D01*
X9258300D01*
Y7266700D01*
X9156700D01*
X8579200Y8041700D02*
Y8143300D01*
X8680800D01*
Y8041700D01*
X8579200D01*
X9911700Y3169200D02*
Y3270800D01*
X10013300D01*
Y3169200D01*
X9911700D01*
X7346700Y3129200D02*
Y3230800D01*
X7448300D01*
Y3129200D01*
X7346700D01*
X6194200Y3061700D02*
Y3163300D01*
X6295800D01*
Y3061700D01*
X6194200D01*
X5794200Y4564200D02*
Y4665800D01*
X5895800D01*
Y4564200D01*
X5794200D01*
X4704200Y6639200D02*
Y6740800D01*
X4805800D01*
Y6639200D01*
X4704200D01*
X4724200Y3304200D02*
Y3405800D01*
X4825800D01*
Y3304200D01*
X4724200D01*
X10106700Y3719200D02*
Y3820800D01*
X10208300D01*
Y3719200D01*
X10106700D01*
X14784200Y6156700D02*
Y6258300D01*
X14885800D01*
Y6156700D01*
X14784200D01*
X11851803Y3291211D02*
Y3392811D01*
X11953403D01*
Y3291211D01*
X11851803D01*
X12289007Y2854007D02*
Y2955607D01*
X12390607D01*
Y2854007D01*
X12289007D01*
X11641700Y3639200D02*
Y3740800D01*
X11743300D01*
Y3639200D01*
X11641700D01*
X12911700Y6759200D02*
Y6860800D01*
X13013300D01*
Y6759200D01*
X12911700D01*
X9321700Y3691700D02*
Y3793300D01*
X9423300D01*
Y3691700D01*
X9321700D01*
X6324200Y2526700D02*
Y2628300D01*
X6425800D01*
Y2526700D01*
X6324200D01*
X7396700Y4259200D02*
Y4360800D01*
X7498300D01*
Y4259200D01*
X7396700D01*
X7594200Y3924200D02*
Y4025800D01*
X7695800D01*
Y3924200D01*
X7594200D01*
X7694200Y2506700D02*
Y2608300D01*
X7795800D01*
Y2506700D01*
X7694200D01*
X10044200Y7831700D02*
Y7933300D01*
X10145800D01*
Y7831700D01*
X10044200D01*
X11716700Y7846700D02*
Y7948300D01*
X11818300D01*
Y7846700D01*
X11716700D01*
X10774200Y7119200D02*
Y7220800D01*
X10875800D01*
Y7119200D01*
X10774200D01*
X10831700Y7269200D02*
Y7370800D01*
X10933300D01*
Y7269200D01*
X10831700D01*
X14864200Y3891700D02*
Y3993300D01*
X14965800D01*
Y3891700D01*
X14864200D01*
X10704200Y2901700D02*
Y3003300D01*
X10805800D01*
Y2901700D01*
X10704200D01*
X13191701Y2751700D02*
Y2853300D01*
X13293300D01*
Y2751700D01*
X13191701D01*
X11049200Y5014200D02*
Y5115800D01*
X11150800D01*
Y5014200D01*
X11049200D01*
X10039200Y8179200D02*
Y8280800D01*
X10140800D01*
Y8179200D01*
X10039200D01*
X10176700Y7651700D02*
Y7753300D01*
X10278300D01*
Y7651700D01*
X10176700D01*
X9996700Y8031700D02*
Y8133300D01*
X10098300D01*
Y8031700D01*
X9996700D01*
X6494200Y7904200D02*
Y8005800D01*
X6595800D01*
Y7904200D01*
X6494200D01*
X5399200Y4004200D02*
Y4105800D01*
X5500800D01*
Y4004200D01*
X5399200D01*
X6476700Y3036700D02*
Y3138300D01*
X6578300D01*
Y3036700D01*
X6476700D01*
X6819200Y2514200D02*
Y2615800D01*
X6920800D01*
Y2514200D01*
X6819200D01*
X7639200Y4769200D02*
Y4870800D01*
X7740800D01*
Y4769200D01*
X7639200D01*
X7726700Y4929200D02*
Y5030800D01*
X7828300D01*
Y4929200D01*
X7726700D01*
X7329200Y4534200D02*
Y4635800D01*
X7430800D01*
Y4534200D01*
X7329200D01*
X7611700Y4074200D02*
Y4175800D01*
X7713300D01*
Y4074200D01*
X7611700D01*
X7556700Y4264200D02*
Y4365800D01*
X7658300D01*
Y4264200D01*
X7556700D01*
X8482289Y4104792D02*
Y4206392D01*
X8583889D01*
Y4104792D01*
X8482289D01*
X10189200Y5244200D02*
Y5345800D01*
X10290800D01*
Y5244200D01*
X10189200D01*
X9786700Y3149200D02*
Y3250800D01*
X9888300D01*
Y3149200D01*
X9786700D01*
X9619200Y3436701D02*
Y3538301D01*
X9720800D01*
Y3436701D01*
X9619200D01*
X7014200Y3881700D02*
Y3983300D01*
X7115800D01*
Y3881700D01*
X7014200D01*
X4639200Y4636700D02*
Y4738300D01*
X4740800D01*
Y4636700D01*
X4639200D01*
X4696700Y4761700D02*
Y4863300D01*
X4798300D01*
Y4761700D01*
X4696700D01*
X4584200Y4839200D02*
Y4940800D01*
X4685800D01*
Y4839200D01*
X4584200D01*
X4876700Y4401700D02*
Y4503300D01*
X4978300D01*
Y4401700D01*
X4876700D01*
X6156700Y7424200D02*
Y7525800D01*
X6258300D01*
Y7424200D01*
X6156700D01*
X6499200Y7514199D02*
Y7615799D01*
X6600800D01*
Y7514199D01*
X6499200D01*
X6104200Y7584200D02*
Y7685800D01*
X6205800D01*
Y7584200D01*
X6104200D01*
X2596698Y2916702D02*
Y3018302D01*
X2698298D01*
Y2916702D01*
X2596698D01*
X5579491Y3356412D02*
Y3458012D01*
X5681091D01*
Y3356412D01*
X5579491D01*
X15124200Y5551698D02*
Y5653298D01*
X15225801D01*
Y5551698D01*
X15124200D01*
X12024203Y6859199D02*
Y6960799D01*
X12125803D01*
Y6859199D01*
X12024203D01*
X12049201Y7139198D02*
Y7240798D01*
X12150801D01*
Y7139198D01*
X12049201D01*
X12609200Y7479198D02*
Y7580798D01*
X12710800D01*
Y7479198D01*
X12609200D01*
X13771703Y7079198D02*
Y7180798D01*
X13873302D01*
Y7079198D01*
X13771703D01*
X13594202Y7211700D02*
Y7313300D01*
X13695802D01*
Y7211700D01*
X13594202D01*
X13251698Y7146701D02*
Y7248301D01*
X13353297D01*
Y7146701D01*
X13251698D01*
X16246700Y5656700D02*
Y5758300D01*
X16348300D01*
Y5656700D01*
X16246700D01*
X8999200Y7339198D02*
Y7440798D01*
X9100800D01*
Y7339198D01*
X8999200D01*
X6179200Y4776699D02*
Y4878299D01*
X6280800D01*
Y4776699D01*
X6179200D01*
X7501702Y3769197D02*
Y3870797D01*
X7603302D01*
Y3769197D01*
X7501702D01*
X5364201Y4441698D02*
Y4543298D01*
X5465801D01*
Y4441698D01*
X5364201D01*
X14621700Y6329200D02*
Y6430800D01*
X14723300D01*
Y6329200D01*
X14621700D01*
X15554201Y5774200D02*
Y5875800D01*
X15655800D01*
Y5774200D01*
X15554201D01*
X12329200Y5529200D02*
Y5630800D01*
X12430800D01*
Y5529200D01*
X12329200D01*
X11821700Y5629200D02*
Y5730800D01*
X11923300D01*
Y5629200D01*
X11821700D01*
X10311700Y7649200D02*
Y7750800D01*
X10413300D01*
Y7649200D01*
X10311700D01*
X11141700Y7837684D02*
Y7939284D01*
X11243300D01*
Y7837684D01*
X11141700D01*
X11436700Y7841700D02*
Y7943300D01*
X11538300D01*
Y7841700D01*
X11436700D01*
X12724201Y5724200D02*
Y5825800D01*
X12825801D01*
Y5724200D01*
X12724201D01*
X8736700Y6626700D02*
Y6728300D01*
X8838300D01*
Y6626700D01*
X8736700D01*
X11686700Y8061700D02*
Y8163300D01*
X11788300D01*
Y8061700D01*
X11686700D01*
X5401700Y4219200D02*
Y4320800D01*
X5503300D01*
Y4219200D01*
X5401700D01*
X9211701Y5389199D02*
Y5490799D01*
X9313301D01*
Y5389199D01*
X9211701D01*
X6436700Y6636700D02*
Y6738300D01*
X6538300D01*
Y6636700D01*
X6436700D01*
X5251699Y5716702D02*
Y5818302D01*
X5353299D01*
Y5716702D01*
X5251699D01*
X10095448Y4944201D02*
Y5045801D01*
X10197048D01*
Y4944201D01*
X10095448D01*
X9806701Y4961702D02*
Y5063302D01*
X9908301D01*
Y4961702D01*
X9806701D01*
X9261699Y5519202D02*
Y5620802D01*
X9363299D01*
Y5519202D01*
X9261699D01*
X4821702Y5331699D02*
Y5433299D01*
X4923302D01*
Y5331699D01*
X4821702D01*
X8256702Y3759200D02*
Y3860800D01*
X8358302D01*
Y3759200D01*
X8256702D01*
X7696698Y3701699D02*
Y3803299D01*
X7798298D01*
Y3701699D01*
X7696698D01*
X4706701Y5256703D02*
Y5358303D01*
X4808301D01*
Y5256703D01*
X4706701D01*
X2791699Y8181701D02*
Y8283301D01*
X2893299D01*
Y8181701D01*
X2791699D01*
X11016701Y4756699D02*
Y4858299D01*
X11118301D01*
Y4756699D01*
X11016701D01*
X11146699Y4796699D02*
Y4898299D01*
X11248299D01*
Y4796699D01*
X11146699D01*
X12544201Y7586701D02*
Y7688301D01*
X12645801D01*
Y7586701D01*
X12544201D01*
X8334009Y3271891D02*
Y3373491D01*
X8435609D01*
Y3271891D01*
X8334009D01*
X8176702Y3356701D02*
Y3458301D01*
X8278302D01*
Y3356701D01*
X8176702D01*
X7616698Y3591702D02*
Y3693302D01*
X7718298D01*
Y3591702D01*
X7616698D01*
X10036698Y5229200D02*
Y5330800D01*
X10138298D01*
Y5229200D01*
X10036698D01*
X10344201Y5689199D02*
Y5790799D01*
X10445801D01*
Y5689199D01*
X10344201D01*
X12176699Y7236699D02*
Y7338299D01*
X12278299D01*
Y7236699D01*
X12176699D01*
X10056698Y2961701D02*
Y3063301D01*
X10158298D01*
Y2961701D01*
X10056698D01*
X13865642Y5623143D02*
Y5724743D01*
X13967242D01*
Y5623143D01*
X13865642D01*
X6544198Y3711702D02*
Y3813302D01*
X6645798D01*
Y3711702D01*
X6544198D01*
X5516702Y7726700D02*
Y7828300D01*
X5618302D01*
Y7726700D01*
X5516702D01*
X14021700Y3774201D02*
Y3875801D01*
X14123299D01*
Y3774201D01*
X14021700D01*
X11206698Y5084201D02*
Y5185801D01*
X11308298D01*
Y5084201D01*
X11206698D01*
X8441700Y5291699D02*
Y5393299D01*
X8543300D01*
Y5291699D01*
X8441700D01*
X9824791Y5142291D02*
Y5243891D01*
X9926391D01*
Y5142291D01*
X9824791D01*
X8476701Y4456699D02*
Y4558299D01*
X8578301D01*
Y4456699D01*
X8476701D01*
X13229199Y5261701D02*
Y5363301D01*
X13330798D01*
Y5261701D01*
X13229199D01*
X13064200Y5106700D02*
Y5208300D01*
X13165800D01*
Y5106700D01*
X13064200D01*
X12346701Y6189198D02*
Y6290798D01*
X12448301D01*
Y6189198D01*
X12346701D01*
X10980420Y5916701D02*
Y6018301D01*
X11082020D01*
Y5916701D01*
X10980420D01*
X9696699Y3774201D02*
Y3875801D01*
X9798299D01*
Y3774201D01*
X9696699D01*
X7374203Y3256703D02*
Y3358303D01*
X7475803D01*
Y3256703D01*
X7374203D01*
X8636701Y3609198D02*
Y3710798D01*
X8738301D01*
Y3609198D01*
X8636701D01*
X9679198Y2866700D02*
Y2968300D01*
X9780798D01*
Y2866700D01*
X9679198D01*
X8226699Y2724201D02*
Y2825801D01*
X8328299D01*
Y2724201D01*
X8226699D01*
X6649202Y7416698D02*
Y7518298D01*
X6750802D01*
Y7416698D01*
X6649202D01*
X5161702Y3769203D02*
Y3870803D01*
X5263302D01*
Y3769203D01*
X5161702D01*
D226*
X10215800Y4127500D02*
G03*
X10215800Y4127500I-50800J0D01*
G01*
%TF.MD5,2a53e51eb103c35a3c4eaf234ff5f1ca*%
M02*
