%TF.GenerationSoftware,Altium Limited,Altium Designer,25.7.1 (20)*%
G04 Layer_Physical_Order=1*
G04 Layer_Color=255*
%FSLAX45Y45*%
%MOMM*%
%TF.SameCoordinates,D8C98939-B5AC-4A14-9F93-74B2487226E3*%
%TF.FilePolarity,Positive*%
%TF.FileFunction,Copper,L1,Top,Signal*%
%TF.Part,Single*%
G01*
G75*
%TA.AperFunction,SMDPad,CuDef*%
%ADD10R,3.68000X1.27000*%
%ADD11R,0.49000X0.55000*%
%ADD12R,0.90620X0.85490*%
%ADD13R,1.20840X1.01213*%
%ADD14R,1.01213X1.20840*%
%ADD15R,1.40000X1.50000*%
%ADD16R,1.35620X1.05500*%
%ADD17R,0.70000X0.90000*%
%ADD18R,0.22000X1.47500*%
%ADD19R,1.47500X0.22000*%
%ADD20R,1.47500X0.20000*%
%ADD21R,0.20000X1.47500*%
%ADD22R,1.00000X1.00000*%
%ADD23R,0.65000X0.90000*%
%ADD24R,1.05000X1.15000*%
%ADD25R,3.73000X0.74000*%
%ADD26R,1.00000X1.00000*%
%ADD27R,1.15000X1.05000*%
%ADD28R,1.45000X0.36000*%
%ADD29R,0.47500X0.47247*%
%ADD30O,2.50000X0.70000*%
%ADD31R,0.47247X0.47500*%
%ADD32R,0.93504X0.96213*%
%ADD33R,2.00000X2.00000*%
%ADD34R,0.47500X0.50000*%
%ADD35R,0.57247X0.56818*%
%ADD36R,1.40574X1.50822*%
%ADD37R,3.55000X1.85000*%
%TA.AperFunction,SMDPad,SMDef*%
G04:AMPARAMS|DCode=38|XSize=1.5mm|YSize=1.27mm|CornerRadius=0.0508mm|HoleSize=0mm|Usage=FLASHONLY|Rotation=0.000|XOffset=0mm|YOffset=0mm|HoleType=Round|Shape=RoundedRectangle|*
%AMROUNDEDRECTD38*
21,1,1.50000,1.16840,0,0,0.0*
21,1,1.39840,1.27000,0,0,0.0*
1,1,0.10160,0.69920,-0.58420*
1,1,0.10160,-0.69920,-0.58420*
1,1,0.10160,-0.69920,0.58420*
1,1,0.10160,0.69920,0.58420*
%
%ADD38ROUNDEDRECTD38*%
G04:AMPARAMS|DCode=39|XSize=0.8mm|YSize=1.3mm|CornerRadius=0.052mm|HoleSize=0mm|Usage=FLASHONLY|Rotation=0.000|XOffset=0mm|YOffset=0mm|HoleType=Round|Shape=RoundedRectangle|*
%AMROUNDEDRECTD39*
21,1,0.80000,1.19600,0,0,0.0*
21,1,0.69600,1.30000,0,0,0.0*
1,1,0.10400,0.34800,-0.59800*
1,1,0.10400,-0.34800,-0.59800*
1,1,0.10400,-0.34800,0.59800*
1,1,0.10400,0.34800,0.59800*
%
%ADD39ROUNDEDRECTD39*%
G04:AMPARAMS|DCode=40|XSize=0.8mm|YSize=0.5mm|CornerRadius=0.05mm|HoleSize=0mm|Usage=FLASHONLY|Rotation=0.000|XOffset=0mm|YOffset=0mm|HoleType=Round|Shape=RoundedRectangle|*
%AMROUNDEDRECTD40*
21,1,0.80000,0.40000,0,0,0.0*
21,1,0.70000,0.50000,0,0,0.0*
1,1,0.10000,0.35000,-0.20000*
1,1,0.10000,-0.35000,-0.20000*
1,1,0.10000,-0.35000,0.20000*
1,1,0.10000,0.35000,0.20000*
%
%ADD40ROUNDEDRECTD40*%
%ADD41C,2.39203*%
G04:AMPARAMS|DCode=42|XSize=2.1mm|YSize=0.8mm|CornerRadius=0.052mm|HoleSize=0mm|Usage=FLASHONLY|Rotation=0.000|XOffset=0mm|YOffset=0mm|HoleType=Round|Shape=RoundedRectangle|*
%AMROUNDEDRECTD42*
21,1,2.10000,0.69600,0,0,0.0*
21,1,1.99600,0.80000,0,0,0.0*
1,1,0.10400,0.99800,-0.34800*
1,1,0.10400,-0.99800,-0.34800*
1,1,0.10400,-0.99800,0.34800*
1,1,0.10400,0.99800,0.34800*
%
%ADD42ROUNDEDRECTD42*%
%TA.AperFunction,SMDPad,CuDef*%
%ADD43R,1.45000X0.35000*%
%ADD44R,0.74000X2.79000*%
%ADD45R,0.80000X0.95000*%
%ADD46R,1.45620X1.25464*%
%ADD47R,2.30620X1.55490*%
%ADD48R,0.52000X0.45000*%
%ADD49R,0.52000X0.48000*%
%ADD50R,1.35620X1.05464*%
%ADD51R,0.91000X1.22000*%
%TA.AperFunction,SMDPad,SMDef*%
%ADD52C,1.17000*%
%TA.AperFunction,SMDPad,CuDef*%
%ADD53R,0.96213X0.91340*%
%ADD54R,1.27000X3.68000*%
%ADD55R,1.05000X1.40000*%
%ADD56O,1.90000X0.60000*%
%TA.AperFunction,SMDPad,SMDef*%
G04:AMPARAMS|DCode=57|XSize=1.1mm|YSize=4.74mm|CornerRadius=0.0495mm|HoleSize=0mm|Usage=FLASHONLY|Rotation=0.000|XOffset=0mm|YOffset=0mm|HoleType=Round|Shape=RoundedRectangle|*
%AMROUNDEDRECTD57*
21,1,1.10000,4.64100,0,0,0.0*
21,1,1.00100,4.74000,0,0,0.0*
1,1,0.09900,0.50050,-2.32050*
1,1,0.09900,-0.50050,-2.32050*
1,1,0.09900,-0.50050,2.32050*
1,1,0.09900,0.50050,2.32050*
%
%ADD57ROUNDEDRECTD57*%
G04:AMPARAMS|DCode=58|XSize=0.5mm|YSize=0.8mm|CornerRadius=0.05mm|HoleSize=0mm|Usage=FLASHONLY|Rotation=0.000|XOffset=0mm|YOffset=0mm|HoleType=Round|Shape=RoundedRectangle|*
%AMROUNDEDRECTD58*
21,1,0.50000,0.70000,0,0,0.0*
21,1,0.40000,0.80000,0,0,0.0*
1,1,0.10000,0.20000,-0.35000*
1,1,0.10000,-0.20000,-0.35000*
1,1,0.10000,-0.20000,0.35000*
1,1,0.10000,0.20000,0.35000*
%
%ADD58ROUNDEDRECTD58*%
%ADD59C,1.89000*%
%TA.AperFunction,SMDPad,CuDef*%
G04:AMPARAMS|DCode=60|XSize=0.57mm|YSize=0.22mm|CornerRadius=0.0363mm|HoleSize=0mm|Usage=FLASHONLY|Rotation=180.000|XOffset=0mm|YOffset=0mm|HoleType=Round|Shape=RoundedRectangle|*
%AMROUNDEDRECTD60*
21,1,0.57000,0.14740,0,0,180.0*
21,1,0.49740,0.22000,0,0,180.0*
1,1,0.07260,-0.24870,0.07370*
1,1,0.07260,0.24870,0.07370*
1,1,0.07260,0.24870,-0.07370*
1,1,0.07260,-0.24870,-0.07370*
%
%ADD60ROUNDEDRECTD60*%
%ADD61R,0.46500X0.46000*%
%ADD62R,0.46000X0.47247*%
%ADD63R,0.47247X0.46000*%
%ADD64O,1.90000X0.35000*%
%ADD65R,1.15000X0.57000*%
%ADD66R,0.90000X0.70000*%
%ADD67R,0.65000X0.70000*%
%ADD68R,0.80000X1.00000*%
%ADD69R,1.00000X0.80000*%
%ADD70R,0.60000X0.90000*%
%ADD71R,0.70000X0.70000*%
%ADD72R,1.70000X1.10000*%
%ADD73R,2.00000X2.80000*%
%ADD74R,1.40000X1.05000*%
%ADD75R,0.60000X0.80000*%
%ADD76R,0.70000X0.65000*%
%ADD77R,0.95000X1.35000*%
%ADD78R,1.05000X0.90000*%
%ADD79R,0.94000X0.75000*%
%ADD80R,0.67248X0.66817*%
%ADD81R,0.62000X0.65000*%
G04:AMPARAMS|DCode=82|XSize=0.6mm|YSize=0.22mm|CornerRadius=0.044mm|HoleSize=0mm|Usage=FLASHONLY|Rotation=0.000|XOffset=0mm|YOffset=0mm|HoleType=Round|Shape=RoundedRectangle|*
%AMROUNDEDRECTD82*
21,1,0.60000,0.13200,0,0,0.0*
21,1,0.51200,0.22000,0,0,0.0*
1,1,0.08800,0.25600,-0.06600*
1,1,0.08800,-0.25600,-0.06600*
1,1,0.08800,-0.25600,0.06600*
1,1,0.08800,0.25600,0.06600*
%
%ADD82ROUNDEDRECTD82*%
G04:AMPARAMS|DCode=83|XSize=0.6mm|YSize=0.215mm|CornerRadius=0.043mm|HoleSize=0mm|Usage=FLASHONLY|Rotation=0.000|XOffset=0mm|YOffset=0mm|HoleType=Round|Shape=RoundedRectangle|*
%AMROUNDEDRECTD83*
21,1,0.60000,0.12900,0,0,0.0*
21,1,0.51400,0.21500,0,0,0.0*
1,1,0.08600,0.25700,-0.06450*
1,1,0.08600,-0.25700,-0.06450*
1,1,0.08600,-0.25700,0.06450*
1,1,0.08600,0.25700,0.06450*
%
%ADD83ROUNDEDRECTD83*%
%ADD84R,0.62000X0.58000*%
%ADD85R,1.50822X1.40574*%
%ADD86R,0.80000X2.00000*%
%ADD87R,0.80000X0.90000*%
%ADD88R,0.95000X0.75000*%
%ADD89R,0.90000X0.80000*%
%ADD90R,0.35000X0.42000*%
%ADD91R,0.95000X0.95000*%
%ADD92R,0.80000X0.60000*%
%ADD93R,0.93000X1.37000*%
%ADD94R,0.45000X0.42000*%
%ADD95R,0.43000X0.45000*%
G04:AMPARAMS|DCode=96|XSize=0.57mm|YSize=0.2mm|CornerRadius=0.033mm|HoleSize=0mm|Usage=FLASHONLY|Rotation=180.000|XOffset=0mm|YOffset=0mm|HoleType=Round|Shape=RoundedRectangle|*
%AMROUNDEDRECTD96*
21,1,0.57000,0.13400,0,0,180.0*
21,1,0.50400,0.20000,0,0,180.0*
1,1,0.06600,-0.25200,0.06700*
1,1,0.06600,0.25200,0.06700*
1,1,0.06600,0.25200,-0.06700*
1,1,0.06600,-0.25200,-0.06700*
%
%ADD96ROUNDEDRECTD96*%
%ADD97R,1.00000X0.75000*%
%ADD98R,0.47000X0.45000*%
%ADD99R,0.75000X0.94000*%
%ADD100R,0.45000X0.47000*%
G04:AMPARAMS|DCode=101|XSize=0.55mm|YSize=1.25mm|CornerRadius=0.0495mm|HoleSize=0mm|Usage=FLASHONLY|Rotation=90.000|XOffset=0mm|YOffset=0mm|HoleType=Round|Shape=RoundedRectangle|*
%AMROUNDEDRECTD101*
21,1,0.55000,1.15100,0,0,90.0*
21,1,0.45100,1.25000,0,0,90.0*
1,1,0.09900,0.57550,0.22550*
1,1,0.09900,0.57550,-0.22550*
1,1,0.09900,-0.57550,-0.22550*
1,1,0.09900,-0.57550,0.22550*
%
%ADD101ROUNDEDRECTD101*%
G04:AMPARAMS|DCode=102|XSize=0.55mm|YSize=1.25mm|CornerRadius=0.0495mm|HoleSize=0mm|Usage=FLASHONLY|Rotation=180.000|XOffset=0mm|YOffset=0mm|HoleType=Round|Shape=RoundedRectangle|*
%AMROUNDEDRECTD102*
21,1,0.55000,1.15100,0,0,180.0*
21,1,0.45100,1.25000,0,0,180.0*
1,1,0.09900,-0.22550,0.57550*
1,1,0.09900,0.22550,0.57550*
1,1,0.09900,0.22550,-0.57550*
1,1,0.09900,-0.22550,-0.57550*
%
%ADD102ROUNDEDRECTD102*%
%ADD103R,2.79000X0.74000*%
%ADD104R,0.25000X0.28000*%
%ADD105R,1.15000X0.60000*%
%ADD106R,0.53000X0.55000*%
%ADD107R,0.66817X0.67248*%
%ADD108R,0.46818X0.47247*%
%ADD109R,0.90000X0.80000*%
%ADD110R,0.95000X0.95000*%
%TA.AperFunction,Conductor*%
%ADD111C,0.20000*%
%ADD112C,0.35000*%
%ADD113C,0.30000*%
%ADD114C,0.10000*%
%ADD115C,0.15000*%
%ADD116C,0.12500*%
%ADD117C,0.25000*%
%TA.AperFunction,ViaPad*%
%ADD118C,0.55000*%
%ADD119C,0.50000*%
G36*
X16964999Y4679999D02*
X16965994D01*
X16967831Y4679238D01*
X16969238Y4677832D01*
X16970000Y4675994D01*
Y4674999D01*
X16970000Y4675000D01*
X16970000Y3854999D01*
Y3854005D01*
X16969238Y3852167D01*
X16967831Y3850761D01*
X16965994Y3850000D01*
X16964999D01*
X16764999Y3850000D01*
X16764005D01*
X16762167Y3850761D01*
X16760760Y3852167D01*
X16760001Y3854005D01*
Y3854999D01*
Y3855000D01*
X16760001Y4675000D01*
Y4675994D01*
X16760760Y4677832D01*
X16762167Y4679238D01*
X16764006Y4679999D01*
X16764999D01*
Y4680000D01*
X16964999Y4679999D01*
D02*
G37*
G36*
X17145000Y3540000D02*
X17145995D01*
X17147832Y3539239D01*
X17149239Y3537832D01*
X17149998Y3535994D01*
Y3535000D01*
X17150000Y3535000D01*
X17149998Y3415000D01*
Y3414005D01*
X17149239Y3412168D01*
X17147832Y3410761D01*
X17145995Y3410000D01*
X17145000D01*
X17145000Y3410000D01*
X16806000D01*
X16805005Y3410000D01*
X16803168Y3410761D01*
X16801761Y3412167D01*
X16800999Y3414005D01*
X16800999Y3415000D01*
Y3415000D01*
X16800999Y3535000D01*
X16800999Y3535994D01*
X16801761Y3537832D01*
X16803168Y3539239D01*
X16805005Y3540000D01*
X16806000Y3540000D01*
X16806000Y3540000D01*
X17145000Y3540000D01*
D02*
G37*
G36*
X16725000Y4680000D02*
X16725993D01*
X16727832Y4679238D01*
X16729237Y4677832D01*
X16729999Y4675994D01*
Y4675000D01*
X16730000Y4675000D01*
X16730000Y3805000D01*
X16730096Y3804024D01*
X16730843Y3802222D01*
X16732222Y3800842D01*
X16734024Y3800096D01*
X16735001Y3800000D01*
Y3800000D01*
X17145000Y3800000D01*
X17145995Y3800000D01*
X17147832Y3799239D01*
X17149239Y3797832D01*
X17150000Y3795994D01*
X17150000Y3795000D01*
X17150000Y3795000D01*
X17150000Y3595000D01*
Y3594005D01*
X17149239Y3592168D01*
X17147832Y3590761D01*
X17145995Y3590000D01*
X17145000D01*
X16756000Y3590000D01*
X16755025Y3589904D01*
X16753223Y3589157D01*
X16751842Y3587778D01*
X16751096Y3585975D01*
X16750999Y3585000D01*
X16750999Y3585000D01*
X16750999Y3248000D01*
Y3247005D01*
X16750240Y3245168D01*
X16748833Y3243761D01*
X16746994Y3243000D01*
X16746001D01*
X16746001Y3243000D01*
X16525000Y3243000D01*
X16524007D01*
X16522168Y3243761D01*
X16520761Y3245168D01*
X16520000Y3247005D01*
Y3248000D01*
X16520000D01*
X16520000Y4675000D01*
Y4675994D01*
X16520761Y4677832D01*
X16522168Y4679239D01*
X16524007Y4680000D01*
X16525000D01*
Y4680000D01*
X16725000Y4680000D01*
D02*
G37*
D10*
X3150000Y4336500D02*
D03*
X3645000D02*
D03*
X3150000Y4082500D02*
D03*
X3645000D02*
D03*
X3150000Y3828500D02*
D03*
X3645000D02*
D03*
X15347501Y7582500D02*
D03*
X14852499D02*
D03*
X15347501Y7836500D02*
D03*
X14852499D02*
D03*
X15347501Y8090500D02*
D03*
X14852499D02*
D03*
X9085499Y4874499D02*
D03*
X14964999Y3381502D02*
D03*
Y3127502D02*
D03*
Y2873502D02*
D03*
X14521002Y3127502D02*
D03*
X14964999Y3635502D02*
D03*
X14521002Y3381502D02*
D03*
Y3635502D02*
D03*
Y2873502D02*
D03*
X9529501Y4874499D02*
D03*
X9085499Y4620499D02*
D03*
X9529501D02*
D03*
X9085499Y4366499D02*
D03*
X9529501Y5128499D02*
D03*
Y4366499D02*
D03*
X9085499Y5128499D02*
D03*
D11*
X15350000Y6395000D02*
D03*
X15264999D02*
D03*
D12*
X7605000Y7110130D02*
D03*
Y6985000D02*
D03*
X7587500Y8157433D02*
D03*
Y8282563D02*
D03*
D13*
X15124878Y5440000D02*
D03*
X15285252D02*
D03*
X16990373Y7297500D02*
D03*
X16830000D02*
D03*
X10920187Y5667500D02*
D03*
X10759813D02*
D03*
D14*
X9190000Y7173186D02*
D03*
Y7012812D02*
D03*
X9220000Y5905122D02*
D03*
Y5744749D02*
D03*
X6397500Y4285124D02*
D03*
Y4124750D02*
D03*
X4687500Y2980122D02*
D03*
Y2819748D02*
D03*
X10872500Y3927687D02*
D03*
Y3767314D02*
D03*
X16032500Y5020187D02*
D03*
Y4859813D02*
D03*
D15*
X5245000Y8322500D02*
D03*
X5055000D02*
D03*
X17345000Y3252500D02*
D03*
X17535001D02*
D03*
X17342500Y3610000D02*
D03*
X17532500D02*
D03*
X17337500Y4332500D02*
D03*
X17527499D02*
D03*
X17332500Y3942500D02*
D03*
X17522501D02*
D03*
X5265000Y7270000D02*
D03*
X5455000D02*
D03*
X5415000Y6535000D02*
D03*
X5225000D02*
D03*
X5175000Y7597500D02*
D03*
X4985000D02*
D03*
D16*
X14152499Y6677411D02*
D03*
Y6812588D02*
D03*
D17*
X9835000Y8067500D02*
D03*
X9695000D02*
D03*
X11222498Y6372500D02*
D03*
X11362498D02*
D03*
X7157500Y5100000D02*
D03*
X7017500D02*
D03*
X5472500Y3900000D02*
D03*
X5332500D02*
D03*
X10984999Y8080001D02*
D03*
X7344999Y3830000D02*
D03*
X11125004Y8080001D02*
D03*
X7205000Y3830000D02*
D03*
D18*
X12287001Y5032299D02*
D03*
X11637000D02*
D03*
X12387001Y3884696D02*
D03*
X11936999Y5032299D02*
D03*
X11687002Y3884696D02*
D03*
X11787002D02*
D03*
X12087001D02*
D03*
X12036999Y5032299D02*
D03*
X12387001D02*
D03*
X11987002Y3884696D02*
D03*
X11936999D02*
D03*
X12236999Y5032299D02*
D03*
X12136999D02*
D03*
X11836999D02*
D03*
X12287001Y3884696D02*
D03*
X12236999D02*
D03*
X11637000D02*
D03*
X11687002Y5032299D02*
D03*
D19*
X12585802Y4283497D02*
D03*
Y4433499D02*
D03*
Y4183497D02*
D03*
X11438199Y4283497D02*
D03*
Y4483496D02*
D03*
X12585802Y4683496D02*
D03*
X11438199Y4383496D02*
D03*
X12585802Y4783496D02*
D03*
Y4083497D02*
D03*
Y4833498D02*
D03*
Y4333499D02*
D03*
X11438199Y4083497D02*
D03*
Y4183497D02*
D03*
Y4683496D02*
D03*
Y4583496D02*
D03*
Y4783496D02*
D03*
Y4833498D02*
D03*
X12585802Y4533499D02*
D03*
D20*
X11438199Y4633498D02*
D03*
X12585802Y4133499D02*
D03*
Y4233499D02*
D03*
X11438199D02*
D03*
X12585802Y4483496D02*
D03*
X11438199Y4333499D02*
D03*
X12585802Y4733498D02*
D03*
Y4583496D02*
D03*
X11438199Y4533499D02*
D03*
Y4433499D02*
D03*
X12585802Y4383496D02*
D03*
X11438199Y4733498D02*
D03*
Y4133499D02*
D03*
X12585802Y4633498D02*
D03*
D21*
X12187001Y5032299D02*
D03*
X11887002D02*
D03*
X11787002D02*
D03*
X11737000D02*
D03*
Y3884696D02*
D03*
X11836999D02*
D03*
X11887002D02*
D03*
X12036999D02*
D03*
X12136999D02*
D03*
X12087001Y5032299D02*
D03*
X12187001Y3884696D02*
D03*
X11987002Y5032299D02*
D03*
X12336998D02*
D03*
Y3884696D02*
D03*
D22*
X9662500Y3119999D02*
D03*
X6995000Y5300000D02*
D03*
X6865000D02*
D03*
X7470001Y5332500D02*
D03*
X11442500Y8080000D02*
D03*
X11572500D02*
D03*
X9512500Y6855000D02*
D03*
X9642500D02*
D03*
X7340000Y5332500D02*
D03*
X5730000Y4247500D02*
D03*
X5600000D02*
D03*
X11025000Y8240000D02*
D03*
X11155000D02*
D03*
X8492500Y3939997D02*
D03*
X8622502D02*
D03*
X10095001Y3410001D02*
D03*
X9100002Y3912499D02*
D03*
X10035002Y3920002D02*
D03*
X10002500Y3632500D02*
D03*
X9572503Y3920002D02*
D03*
X9442501D02*
D03*
X9964999Y3410001D02*
D03*
X9532498Y3119999D02*
D03*
X9872497Y3632500D02*
D03*
X9904999Y3920002D02*
D03*
X8970000Y3912499D02*
D03*
D23*
X13957500Y2675000D02*
D03*
X14102499D02*
D03*
X13902499Y3300000D02*
D03*
X13757500D02*
D03*
X14555000Y3932500D02*
D03*
X14700000D02*
D03*
X15372501Y2687500D02*
D03*
X15517500D02*
D03*
D24*
X17767500Y7040000D02*
D03*
Y7205000D02*
D03*
X16082500Y5440000D02*
D03*
Y5275000D02*
D03*
D25*
X16472499Y6179998D02*
D03*
X17547501Y6667500D02*
D03*
X17321501Y6540500D02*
D03*
Y6794500D02*
D03*
X17306496Y6307000D02*
D03*
X16246500Y6052998D02*
D03*
X17532500Y6180000D02*
D03*
X17306496Y6053000D02*
D03*
X16246500Y6306998D02*
D03*
X16475502Y6570502D02*
D03*
Y6824502D02*
D03*
X16249498Y6697502D02*
D03*
D26*
X12620000Y5945002D02*
D03*
X15372501Y7132500D02*
D03*
X5318498Y4173459D02*
D03*
Y4043459D02*
D03*
X9825000Y6725000D02*
D03*
Y6855000D02*
D03*
X12005001Y6077502D02*
D03*
X11530001Y5902501D02*
D03*
X11317502Y5910001D02*
D03*
X9884999Y2647498D02*
D03*
X12392503Y5937499D02*
D03*
X12200002Y5932504D02*
D03*
X12005001Y5947499D02*
D03*
X11765001Y5922499D02*
D03*
X12847498Y5949996D02*
D03*
X15372501Y7002503D02*
D03*
X9884999Y2777500D02*
D03*
X11317502Y6039998D02*
D03*
X11530001Y6032503D02*
D03*
X12620000Y6075004D02*
D03*
X12392503Y6067501D02*
D03*
X12847498Y6079998D02*
D03*
X12200002Y6062501D02*
D03*
X11765001Y6052502D02*
D03*
D27*
X17302499Y7382500D02*
D03*
X17467500D02*
D03*
X17505000Y7120000D02*
D03*
X17339999D02*
D03*
X4007500Y7552004D02*
D03*
X3842496D02*
D03*
X5610001Y5919998D02*
D03*
X5445003D02*
D03*
D28*
X4997503Y6925004D02*
D03*
X5442501D02*
D03*
X4997503Y6860001D02*
D03*
X5442501D02*
D03*
Y6795002D02*
D03*
X4997503D02*
D03*
X5442501Y6990003D02*
D03*
X4997503D02*
D03*
D29*
X7297501Y8282498D02*
D03*
X5349646Y7700000D02*
D03*
X5456969Y7927503D02*
D03*
X6417142Y7830002D02*
D03*
X7373214Y8282498D02*
D03*
X6492855Y7830002D02*
D03*
X5532681Y7927503D02*
D03*
X5425359Y7700000D02*
D03*
D30*
X7287499Y8017002D02*
D03*
X6735003Y5592999D02*
D03*
X6717502Y6397000D02*
D03*
X6797502Y7763002D02*
D03*
X7225000Y5846999D02*
D03*
X7207499Y6651000D02*
D03*
X6735003Y5719999D02*
D03*
X7287499Y7636002D02*
D03*
X6717502Y6778000D02*
D03*
X6735003Y5973999D02*
D03*
X6797502Y7890002D02*
D03*
X7287499D02*
D03*
X6797502Y7636002D02*
D03*
X7287499Y7763002D02*
D03*
X6797502Y8017002D02*
D03*
X7225000Y5592999D02*
D03*
X6717502Y6651000D02*
D03*
X7207499Y6524000D02*
D03*
X6735003Y5846999D02*
D03*
X7225000Y5719999D02*
D03*
X7207499Y6397000D02*
D03*
Y6778000D02*
D03*
X6717502Y6524000D02*
D03*
X7225000Y5973999D02*
D03*
D31*
X6390000Y5797144D02*
D03*
X6417498Y6400002D02*
D03*
X7525202Y5983077D02*
D03*
X7504999Y6674998D02*
D03*
X5445003Y8092140D02*
D03*
Y8167853D02*
D03*
X7504999Y6750710D02*
D03*
X7525202Y5907364D02*
D03*
X6417498Y6324290D02*
D03*
X6390000Y5872856D02*
D03*
D32*
X16154420Y2862499D02*
D03*
X16297499D02*
D03*
D33*
X16382503Y5435001D02*
D03*
Y5035001D02*
D03*
D34*
X5671790Y6707500D02*
D03*
X5714643Y6895002D02*
D03*
X5609646Y7107499D02*
D03*
X5685358D02*
D03*
X5790356Y6895002D02*
D03*
X5747502Y6707500D02*
D03*
D35*
X16937500Y2804571D02*
D03*
Y2895000D02*
D03*
D36*
X17249998Y2812501D02*
D03*
X17435246D02*
D03*
X15312502Y6662501D02*
D03*
X15127254D02*
D03*
D37*
X16962502Y5237500D02*
D03*
X17492497D02*
D03*
D38*
X16174998Y3136499D02*
D03*
X17075003D02*
D03*
X16174998Y4573499D02*
D03*
X17075003D02*
D03*
D39*
X16139998Y3295000D02*
D03*
Y3734999D02*
D03*
Y3934998D02*
D03*
Y4094998D02*
D03*
Y4254998D02*
D03*
Y4414998D02*
D03*
X17109999Y3934998D02*
D03*
Y4094998D02*
D03*
Y4254998D02*
D03*
Y4414998D02*
D03*
D40*
X16139998Y3514999D02*
D03*
X17109999Y3335000D02*
D03*
Y3255000D02*
D03*
X16139998Y3434999D02*
D03*
Y3614999D02*
D03*
D41*
X16652890Y3681049D02*
D03*
D42*
X16705000Y3070001D02*
D03*
X16385002Y4640001D02*
D03*
D43*
X5162499Y7862494D02*
D03*
Y7927497D02*
D03*
Y8057495D02*
D03*
X4717501Y7862494D02*
D03*
Y8057495D02*
D03*
X5162499Y7992496D02*
D03*
X4717501Y7927497D02*
D03*
Y7992496D02*
D03*
D44*
X5022002Y6120003D02*
D03*
X4895002D02*
D03*
X4768002D02*
D03*
X5022002Y5713004D02*
D03*
X4895002D02*
D03*
X4768002D02*
D03*
D45*
X14267500Y4727499D02*
D03*
X14402501D02*
D03*
D46*
X14707500Y4772503D02*
D03*
Y4937658D02*
D03*
D47*
X15120000Y4834936D02*
D03*
Y5060061D02*
D03*
D48*
X7600002Y5628998D02*
D03*
X6555001Y8166500D02*
D03*
X7600002Y5551000D02*
D03*
X6555001Y8088502D02*
D03*
D49*
X7499998Y6396498D02*
D03*
Y6318499D02*
D03*
D50*
X14625002Y6972422D02*
D03*
Y7117578D02*
D03*
D51*
X14852498Y6977502D02*
D03*
X15179497D02*
D03*
D52*
X16975500Y3474999D02*
D03*
D53*
X4702501Y7105455D02*
D03*
Y6964546D02*
D03*
D54*
X3729000Y5822500D02*
D03*
Y5378503D02*
D03*
X3475000Y5822500D02*
D03*
Y5378503D02*
D03*
X3221000D02*
D03*
X2967000Y5822500D02*
D03*
Y5378503D02*
D03*
X3221000Y5822500D02*
D03*
D55*
X6562501Y5367500D02*
D03*
X10230002Y5499999D02*
D03*
X6372499Y5367500D02*
D03*
X4925995Y4105961D02*
D03*
X10040000Y5499999D02*
D03*
X5115997Y4105961D02*
D03*
D56*
X7184502Y4887199D02*
D03*
X12772502Y7021500D02*
D03*
Y6386500D02*
D03*
X11734998Y7177999D02*
D03*
X11264997Y6796999D02*
D03*
X12302500Y6640500D02*
D03*
Y6513500D02*
D03*
X11734998Y6542999D02*
D03*
X11264997Y6669999D02*
D03*
X9280002Y3413999D02*
D03*
X8810000Y2905999D02*
D03*
Y3032999D02*
D03*
X9280002Y2778999D02*
D03*
X7182348Y3428843D02*
D03*
X6712346Y3047843D02*
D03*
X7182348Y2793843D02*
D03*
X6712346Y2920843D02*
D03*
X7184502Y4760199D02*
D03*
X4969998Y3452002D02*
D03*
X6714500Y4633199D02*
D03*
X9482501Y6292002D02*
D03*
X9432498Y7576002D02*
D03*
X5439999Y2944002D02*
D03*
X11264997Y6542999D02*
D03*
X11734998Y7050999D02*
D03*
X11264997Y7304999D02*
D03*
X11734998Y6923999D02*
D03*
Y6669999D02*
D03*
Y6796999D02*
D03*
X11264997Y7177999D02*
D03*
Y7050999D02*
D03*
X11734998Y7304999D02*
D03*
X11264997Y6923999D02*
D03*
X5439999Y3325002D02*
D03*
X6712346Y3174843D02*
D03*
X8810000Y3159999D02*
D03*
X7184502Y4506199D02*
D03*
X9952502Y6165002D02*
D03*
X9902500Y7449002D02*
D03*
X12302500Y6767500D02*
D03*
X12772502Y7148500D02*
D03*
X9432498Y7449002D02*
D03*
X9482501Y6165002D02*
D03*
X9280002Y3540999D02*
D03*
X6714500Y4506199D02*
D03*
X7182348Y3555843D02*
D03*
X4969998Y3325002D02*
D03*
X9432498Y7068002D02*
D03*
X9902500Y7576002D02*
D03*
Y7703002D02*
D03*
Y7195002D02*
D03*
X9432498Y7830002D02*
D03*
Y7703002D02*
D03*
Y7322002D02*
D03*
Y7195002D02*
D03*
X9902500Y7830002D02*
D03*
Y7322002D02*
D03*
Y7068002D02*
D03*
X12302500Y6894500D02*
D03*
Y7021500D02*
D03*
X9952502Y5911002D02*
D03*
Y6038002D02*
D03*
Y6292002D02*
D03*
Y6419002D02*
D03*
Y6546002D02*
D03*
X9482501Y6038002D02*
D03*
Y6419002D02*
D03*
Y6546002D02*
D03*
Y5911002D02*
D03*
Y5784002D02*
D03*
X9952502D02*
D03*
X6714500Y4760199D02*
D03*
Y4887199D02*
D03*
X7184502Y4379199D02*
D03*
Y4633199D02*
D03*
X6714500Y4379199D02*
D03*
Y4252199D02*
D03*
X7184502D02*
D03*
Y4125199D02*
D03*
X6714500D02*
D03*
X5439999Y3198002D02*
D03*
X4969998Y3071002D02*
D03*
Y2944002D02*
D03*
X5439999Y3452002D02*
D03*
Y3579002D02*
D03*
Y3706002D02*
D03*
X4969998Y3198002D02*
D03*
Y3579002D02*
D03*
Y3706002D02*
D03*
X5439999Y3071002D02*
D03*
X6712346Y3301843D02*
D03*
Y3428843D02*
D03*
X7182348Y2920843D02*
D03*
Y3301843D02*
D03*
Y3174843D02*
D03*
Y3047843D02*
D03*
X6712346Y3555843D02*
D03*
Y2793843D02*
D03*
X8810000Y2778999D02*
D03*
X9280002Y3286999D02*
D03*
X8810000Y3540999D02*
D03*
X9280002Y2905999D02*
D03*
Y3159999D02*
D03*
Y3032999D02*
D03*
X8810000Y3286999D02*
D03*
Y3413999D02*
D03*
X12772502Y6513500D02*
D03*
Y6894500D02*
D03*
Y6767500D02*
D03*
Y6640500D02*
D03*
X12302500Y6386500D02*
D03*
Y7148500D02*
D03*
D57*
X16385002Y4254998D02*
D03*
D58*
X16945000Y3070001D02*
D03*
X16865001D02*
D03*
X16545001D02*
D03*
X16465001D02*
D03*
X16385002D02*
D03*
X16305002D02*
D03*
D59*
X16865001Y4265000D02*
D03*
D60*
X14401500Y4987503D02*
D03*
Y4937501D02*
D03*
X14253500Y5037501D02*
D03*
Y4937501D02*
D03*
D61*
X14887498Y4462856D02*
D03*
Y4387144D02*
D03*
D62*
X14031789Y5759999D02*
D03*
X12472502Y5282499D02*
D03*
X11705356Y5302500D02*
D03*
X12875357Y4629993D02*
D03*
X12967500Y4052500D02*
D03*
X12359645Y3677503D02*
D03*
X11629644Y5302500D02*
D03*
X12396790Y5282499D02*
D03*
X12951070Y4629993D02*
D03*
X12891788Y4052500D02*
D03*
X12435357Y3677503D02*
D03*
X14107500Y5759999D02*
D03*
D63*
X15032503Y5939648D02*
D03*
X15020000Y5805714D02*
D03*
Y5730001D02*
D03*
X15032503Y6015360D02*
D03*
D64*
X14779832Y5859866D02*
D03*
X14339835D02*
D03*
X14779832Y5794868D02*
D03*
Y5989869D02*
D03*
Y5924870D02*
D03*
X14339835D02*
D03*
Y5989869D02*
D03*
Y5794868D02*
D03*
D65*
X14607500Y6612499D02*
D03*
Y6517498D02*
D03*
Y6707500D02*
D03*
D66*
X15647502Y6482502D02*
D03*
X5455001Y2705003D02*
D03*
Y2564999D02*
D03*
X11042498Y7175002D02*
D03*
X15647502Y6622501D02*
D03*
X11042498Y7315007D02*
D03*
D67*
X12892496Y7332502D02*
D03*
X8440001Y8237501D02*
D03*
X9147500Y6159998D02*
D03*
X8530001Y6707500D02*
D03*
X8964996Y5790001D02*
D03*
X2979994Y2775001D02*
D03*
X2844998D02*
D03*
X8830000Y5790001D02*
D03*
X12757501Y7332502D02*
D03*
X9282496Y6159998D02*
D03*
X8664997Y6707500D02*
D03*
X8574997Y8237501D02*
D03*
D68*
X12822499Y8235000D02*
D03*
X9677502Y3330001D02*
D03*
X9527499D02*
D03*
X12672502Y8235000D02*
D03*
D69*
X12750002Y7922504D02*
D03*
X12460097Y7917398D02*
D03*
X12192498Y7917500D02*
D03*
X11842504Y7605003D02*
D03*
X11615000Y7607500D02*
D03*
X11342502Y7604999D02*
D03*
X11062498Y7612502D02*
D03*
X8527501Y3632500D02*
D03*
X9592498Y2640000D02*
D03*
X7575000Y3160000D02*
D03*
X8427502Y2740000D02*
D03*
X7497501Y2682499D02*
D03*
X6410000Y2960004D02*
D03*
X12487499Y3304997D02*
D03*
X11615000Y7757497D02*
D03*
X12487499Y3155000D02*
D03*
X8427502Y2589997D02*
D03*
X12192498Y7767498D02*
D03*
X7575000Y3310002D02*
D03*
X9592498Y2789997D02*
D03*
X8527501Y3482497D02*
D03*
X7497501Y2832501D02*
D03*
X6434999Y3712505D02*
D03*
X6410000Y2810002D02*
D03*
X12460097Y7767396D02*
D03*
X12750002Y7772502D02*
D03*
X11842504Y7755005D02*
D03*
X11342502Y7755001D02*
D03*
X11062498Y7762504D02*
D03*
X6434999Y3562502D02*
D03*
D70*
X15377499Y5759999D02*
D03*
X15282500D02*
D03*
X15377499Y5999998D02*
D03*
X15472501Y5759999D02*
D03*
Y5999998D02*
D03*
X15282500D02*
D03*
D71*
X15530002Y5475000D02*
D03*
Y5615000D02*
D03*
D72*
X14043233Y5931809D02*
D03*
Y6191814D02*
D03*
D73*
X14567499Y5432501D02*
D03*
X14117497D02*
D03*
D74*
X11942501Y8242503D02*
D03*
Y8052501D02*
D03*
D75*
X11617503Y8252501D02*
D03*
X11782500Y6367502D02*
D03*
X9147500Y6372499D02*
D03*
X7564999Y4730003D02*
D03*
X5527497Y5290002D02*
D03*
X5800000Y3572500D02*
D03*
X4597500Y3187500D02*
D03*
X9507500Y8135002D02*
D03*
X9377502D02*
D03*
X5752501Y4437502D02*
D03*
X5622503D02*
D03*
X11652498Y6367502D02*
D03*
X9277497Y6372499D02*
D03*
X9809998Y8244997D02*
D03*
X11487501Y8252501D02*
D03*
X5657499Y5290002D02*
D03*
X7435002Y4730003D02*
D03*
X9940000Y8244997D02*
D03*
X5669998Y3572500D02*
D03*
X4727502Y3187500D02*
D03*
D76*
X11974998Y7172498D02*
D03*
X12075003Y6647500D02*
D03*
X11030000Y6770003D02*
D03*
X10122499Y7584999D02*
D03*
X9197503Y7600000D02*
D03*
X8862502Y7022501D02*
D03*
X10217500Y6312499D02*
D03*
X9522501Y3527501D02*
D03*
X7507498Y4457502D02*
D03*
X7452502Y3490001D02*
D03*
X8497499Y3102503D02*
D03*
X6367501Y4627499D02*
D03*
X5644998Y5027498D02*
D03*
X4689998Y4429999D02*
D03*
X4639999Y3497499D02*
D03*
X6422502Y3312498D02*
D03*
X3600000Y3342500D02*
D03*
X5777499Y3205002D02*
D03*
X6422502Y3177502D02*
D03*
X5777499Y3340003D02*
D03*
X8497499Y3237499D02*
D03*
X4689998Y4564995D02*
D03*
X7507498Y4592503D02*
D03*
X8862502Y7157502D02*
D03*
X10217500Y6177498D02*
D03*
X11030000Y6904999D02*
D03*
X10122499Y7450003D02*
D03*
X12075003Y6782501D02*
D03*
X9197503Y7465004D02*
D03*
X11974998Y7307494D02*
D03*
X9522501Y3662497D02*
D03*
X5644998Y4892502D02*
D03*
X6367501Y4762495D02*
D03*
X7452502Y3624997D02*
D03*
X4639999Y3362504D02*
D03*
X3600000Y3207504D02*
D03*
D77*
X11252500Y5360005D02*
D03*
X11402502D02*
D03*
D78*
X15512502Y5020005D02*
D03*
Y4875002D02*
D03*
D79*
X15490991Y4407546D02*
D03*
Y4267546D02*
D03*
D80*
X16695624Y2794568D02*
D03*
Y2895000D02*
D03*
X6317498Y7247285D02*
D03*
Y7347717D02*
D03*
D81*
X15485005Y4082501D02*
D03*
X15385001D02*
D03*
D82*
X15097498Y4270004D02*
D03*
Y4120001D02*
D03*
X15227495D02*
D03*
Y4270004D02*
D03*
D83*
X15097498Y4170004D02*
D03*
X15227495D02*
D03*
Y4220001D02*
D03*
X15097498D02*
D03*
D84*
X14819998Y4221002D02*
D03*
Y4129003D02*
D03*
D85*
X14014999Y4779752D02*
D03*
Y4964999D02*
D03*
D86*
X14170000Y4257502D02*
D03*
X14589999D02*
D03*
D87*
X12792502Y3290001D02*
D03*
X12942499D02*
D03*
D88*
X12939999Y2822499D02*
D03*
X12794996Y2937500D02*
D03*
Y2822499D02*
D03*
X12939999Y2937500D02*
D03*
D89*
X12490003Y2674996D02*
D03*
X5685003Y2722499D02*
D03*
X10267500Y7207504D02*
D03*
X5685003Y2572497D02*
D03*
X7477501Y4012499D02*
D03*
X10252500Y5747498D02*
D03*
X10267500Y7057502D02*
D03*
X10252500Y5897500D02*
D03*
X7477501Y4162501D02*
D03*
X12490003Y2824998D02*
D03*
D90*
X11253001Y4050001D02*
D03*
X11187002D02*
D03*
D91*
X12242500Y2572500D02*
D03*
X11045003Y2640000D02*
D03*
X12222500Y3222498D02*
D03*
X11014999Y3282502D02*
D03*
X12242500Y2717504D02*
D03*
X11014999Y3137504D02*
D03*
X12222500Y3077500D02*
D03*
X11045003Y2784999D02*
D03*
D92*
X9215001Y7979999D02*
D03*
X6350000Y5190002D02*
D03*
X5800001Y3849996D02*
D03*
Y3719998D02*
D03*
X8832499Y8107503D02*
D03*
X9017500Y8235004D02*
D03*
X8832499Y8237500D02*
D03*
X9612498Y5452501D02*
D03*
Y5582498D02*
D03*
X3585002Y3087502D02*
D03*
Y2957500D02*
D03*
X5662498Y4760001D02*
D03*
X9260002Y6547500D02*
D03*
Y6677503D02*
D03*
X11030001Y6387495D02*
D03*
X5662498Y4629998D02*
D03*
X7462500Y4964999D02*
D03*
X9215001Y7849996D02*
D03*
X7462500Y5095001D02*
D03*
X9017500Y8105002D02*
D03*
X9775002Y5447502D02*
D03*
Y5577500D02*
D03*
X11030001Y6517498D02*
D03*
X3754999Y3087497D02*
D03*
X6350000Y5060005D02*
D03*
X3754999Y2957500D02*
D03*
X4692498Y3917498D02*
D03*
Y4047500D02*
D03*
D93*
X15167497Y4435003D02*
D03*
X15324501D02*
D03*
D94*
X12915001Y4780001D02*
D03*
X11270000Y3820003D02*
D03*
X12915001Y4860000D02*
D03*
X11270000Y3900002D02*
D03*
D95*
X12892245Y3835254D02*
D03*
X12812247D02*
D03*
D96*
X14401500Y5037501D02*
D03*
X14253500Y4987503D02*
D03*
D97*
X7622499Y7882438D02*
D03*
Y7732436D02*
D03*
X6582501Y7372497D02*
D03*
X6827500Y7222500D02*
D03*
Y7372497D02*
D03*
X7427498Y7200001D02*
D03*
Y7350003D02*
D03*
X6582501Y7222500D02*
D03*
D98*
X3002502Y3517500D02*
D03*
X3077503D02*
D03*
X8497499Y5780004D02*
D03*
X8572500D02*
D03*
X8412499Y7210000D02*
D03*
X8487500D02*
D03*
X3342502Y3520004D02*
D03*
X4987498Y5217500D02*
D03*
X8574999Y5564998D02*
D03*
X8494999Y7022501D02*
D03*
X8499998Y5564998D02*
D03*
X5062499Y5217500D02*
D03*
X8419998Y7022501D02*
D03*
X3417503Y3520004D02*
D03*
D99*
X15464999Y6150000D02*
D03*
X15325000D02*
D03*
D100*
X4675002Y5090003D02*
D03*
Y5015001D02*
D03*
D101*
X2844998Y3342503D02*
D03*
X4924999Y5015001D02*
D03*
X2844998Y2961503D02*
D03*
X4924999Y4634001D02*
D03*
X5449997Y4888001D02*
D03*
X3369996Y3215503D02*
D03*
X5449997Y4761001D02*
D03*
Y4634001D02*
D03*
Y5015001D02*
D03*
X4924999Y4761001D02*
D03*
Y4888001D02*
D03*
X3369996Y3342503D02*
D03*
X2844998Y3088503D02*
D03*
X3369996Y2961503D02*
D03*
Y3088503D02*
D03*
X2844998Y3215503D02*
D03*
D102*
X8532002Y5974999D02*
D03*
X8504001Y7400000D02*
D03*
X8913002Y5974999D02*
D03*
X8885001Y7400000D02*
D03*
X8659002Y6499997D02*
D03*
X8631001Y7924998D02*
D03*
Y7400000D02*
D03*
X8758001D02*
D03*
X8504001Y7924998D02*
D03*
X8758001D02*
D03*
X8885001D02*
D03*
X8786002Y6499997D02*
D03*
X8659002Y5974999D02*
D03*
X8532002Y6499997D02*
D03*
X8786002Y5974999D02*
D03*
X8913002Y6499997D02*
D03*
D103*
X11860002Y2946999D02*
D03*
X11453002D02*
D03*
X3382004Y7904500D02*
D03*
Y7777500D02*
D03*
Y7650500D02*
D03*
X2975000D02*
D03*
Y7777500D02*
D03*
Y7904500D02*
D03*
X11453002Y3073999D02*
D03*
X11860002D02*
D03*
X11453002Y2819999D02*
D03*
X11860002D02*
D03*
D104*
X15075002Y6435000D02*
D03*
X15020000D02*
D03*
D105*
X14867499Y6707500D02*
D03*
Y6517498D02*
D03*
D106*
X15555002Y7012500D02*
D03*
X15639999D02*
D03*
D107*
X6405001Y7615001D02*
D03*
X6304570D02*
D03*
D108*
X7107072Y7145000D02*
D03*
X7187499D02*
D03*
X7102287Y7349998D02*
D03*
X7182714D02*
D03*
D109*
X5410002Y5652501D02*
D03*
X3982501Y8017002D02*
D03*
X3812499D02*
D03*
X5580004Y5652501D02*
D03*
D110*
X3962496Y7782001D02*
D03*
X3817498D02*
D03*
X5572501Y6170000D02*
D03*
X5427502D02*
D03*
D111*
X3435000Y5880689D02*
Y6582500D01*
X3685000Y6832500D01*
X3951943Y3890000D02*
X4056949D01*
X3931659Y3910284D02*
X3951943Y3890000D01*
X3765500Y3828500D02*
X3847284Y3910284D01*
X3931659D01*
X4056949Y3890000D02*
X4139448Y3972500D01*
X3029500Y4082500D02*
X3150000D01*
X2602500Y3655500D02*
X3029500Y4082500D01*
X2602500Y3216330D02*
Y3655500D01*
Y3216330D02*
X2650828Y3168003D01*
X2732905D01*
X2778080Y3122827D01*
Y3120421D02*
Y3122827D01*
Y3120421D02*
X2809998Y3088503D01*
X2844998D01*
X3645000Y3828500D02*
X3765500D01*
X2935000Y4705000D02*
Y4705072D01*
X2902500Y4737572D02*
X2935000Y4705072D01*
X3400000Y3958000D02*
Y4689661D01*
X3270500Y3828500D02*
X3400000Y3958000D01*
X2735000Y4617500D02*
X2741697Y4610803D01*
X2755197D01*
X3029500Y4336500D01*
X3150000D01*
X2842704Y3090797D02*
X2844998Y3088503D01*
X3645000Y4336500D02*
X3765500D01*
X3819000Y4390000D01*
Y4449000D01*
X3995000Y4625000D01*
X3118691Y4741309D02*
X3120000Y4740000D01*
X3096250Y4741309D02*
X3118691D01*
X2902500Y5193503D02*
X2967000Y5258003D01*
Y5378503D01*
X2902500Y4737572D02*
Y5193503D01*
X3150000Y3828500D02*
X3270500D01*
X3222500Y4867161D02*
Y5409507D01*
Y4867161D02*
X3400000Y4689661D01*
X3096250Y4741309D02*
Y5577250D01*
X2967000Y6894500D02*
X3147500Y7075000D01*
X2967000Y5822500D02*
Y6894500D01*
X7897500Y6995000D02*
X8265003Y6627498D01*
X3962496Y7594504D02*
Y7782001D01*
X4004996Y7552004D02*
X4007500D01*
X3962496Y7594504D02*
X4004996Y7552004D01*
X3962496Y7782001D02*
X3999996Y7819501D01*
X16621999Y6179998D02*
X16648999Y6206998D01*
X16472499Y6179998D02*
X16621999D01*
X16648999Y6381500D02*
X16707500Y6440000D01*
X16648999Y6206998D02*
Y6381500D01*
X8886394Y5651394D02*
X8939139D01*
X9082500Y5794754D01*
X8312501Y5627500D02*
Y6602501D01*
X8585002Y4216969D02*
Y5354998D01*
X8312501Y5627500D02*
X8585002Y5354998D01*
X8792500Y5557500D02*
X8886394Y5651394D01*
X8574999Y5489266D02*
Y5564998D01*
X8682502Y4502638D02*
X8818641Y4366499D01*
X8682502Y4502638D02*
Y5162525D01*
X8727496Y5207518D01*
Y5867400D01*
X9082500Y5794754D02*
Y5991568D01*
X9042500Y6008137D02*
X9125000Y6090637D01*
X9082500Y5991568D02*
X9185930Y6094998D01*
X9042500Y5974971D02*
Y6008137D01*
X8964996Y5897467D02*
X9042500Y5974971D01*
X9250000Y6102500D02*
X9260034Y6112534D01*
Y6137536D02*
X9282496Y6159998D01*
X9208995Y6054998D02*
X9250000Y6096003D01*
X9202498Y6054998D02*
X9208995D01*
X9282496Y6159998D02*
X9321423D01*
X9377680D01*
X9210000Y6112571D02*
Y6192500D01*
X9185930Y6094998D02*
X9192426D01*
X8930502Y6022550D02*
X9000345D01*
X9260034Y6112534D02*
Y6137536D01*
X9300710Y6139284D02*
X9321423Y6159998D01*
X9000345Y6022550D02*
X9057500Y6079705D01*
Y6275000D01*
X9139393Y5949254D02*
Y5991893D01*
X9125000Y6090637D02*
Y6137498D01*
X9192426Y6094998D02*
X9210000Y6112571D01*
X9139393Y5991893D02*
X9202498Y6054998D01*
X9125000Y6137498D02*
X9147500Y6159998D01*
X9250000Y6096003D02*
Y6102500D01*
X9210000Y6192500D02*
X9219997Y6202497D01*
X9377680Y6159998D02*
X9382684Y6165002D01*
X9385529D01*
X9482501D01*
X8964996Y5790001D02*
Y5897467D01*
X9139002Y5948863D02*
X9139393Y5949254D01*
X8997500Y6517500D02*
X9155000Y6675000D01*
X8997500Y6335000D02*
X9057500Y6275000D01*
X9155000Y6675000D02*
Y6775001D01*
X8997500Y6335000D02*
Y6517500D01*
X9002502Y6927499D02*
X9155000Y6775001D01*
X9002502Y6927499D02*
Y7042501D01*
X12402081Y7312500D02*
X12518725Y7195856D01*
X12400000Y7312500D02*
X12402081D01*
X12518725Y7195856D02*
Y7195856D01*
X5700308Y7092549D02*
Y7108013D01*
X5603321Y7205000D02*
X5700308Y7108013D01*
X5515000Y7205000D02*
X5603321D01*
X5455000Y7265000D02*
X5515000Y7205000D01*
X5455000Y7265000D02*
Y7270000D01*
X17632503Y3428688D02*
Y3435000D01*
X17595000Y3391185D02*
X17632503Y3428688D01*
X17595000Y3312500D02*
Y3391185D01*
X17535001Y3252500D02*
X17595000Y3312500D01*
X5250000Y8320000D02*
X5442500D01*
Y8242500D02*
Y8320000D01*
X5182499Y8315000D02*
X5245000D01*
X5250000Y8320000D01*
X5442500Y8242500D02*
X5445003Y8239997D01*
X14497501Y7940000D02*
Y8042500D01*
X14545500Y8090500D01*
X14852499D01*
X13975000Y7437500D02*
X14374001Y7836500D01*
X14852499D01*
X14838499Y7582500D02*
X14852499D01*
X14785001Y7529000D02*
X14838499Y7582500D01*
X14785001Y7152498D02*
Y7529000D01*
X14852499Y7582500D02*
X14973000D01*
X15100000Y7709499D01*
Y7878926D01*
X15173500Y7952426D01*
Y8037000D01*
X15227000Y8090500D01*
X15347501D01*
Y7582500D02*
Y7836500D01*
X16900000Y7120000D02*
X16992874Y7212874D01*
Y7295000D01*
X16801109Y7326391D02*
Y7366391D01*
X12439413Y8437500D02*
X15730000D01*
X16801109Y7326391D02*
X16830000Y7297500D01*
X15730000Y8437500D02*
X16801109Y7366391D01*
X16202499Y7125000D02*
X16510001D01*
X16589999Y7042500D02*
X16664600Y6967901D01*
X16510001Y6851503D02*
Y7125000D01*
X16475502Y6824502D02*
X16483000D01*
X16510001Y6851503D01*
X10503098Y8395310D02*
X12323963D01*
X10337789Y8230000D02*
X10503098Y8395310D01*
X12323963D02*
X12336776Y8382497D01*
X12384410D01*
X12439413Y8437500D01*
X7533077Y5144126D02*
X7676464Y4990762D01*
X7676465Y4982868D01*
Y4936713D02*
Y4982868D01*
X7635333Y4895581D02*
X7676465Y4936713D01*
X5000000Y6535000D02*
X5259628D01*
X4907500Y6627500D02*
X5000000Y6535000D01*
X5557500Y6185001D02*
X5572501Y6170000D01*
X5557500Y6185001D02*
Y6312500D01*
X5415000Y6535000D02*
X5445001Y6565001D01*
X5635000D01*
X5442501Y6795002D02*
X5582144D01*
X5368432Y6727499D02*
X5519923D01*
X5356717Y6739215D02*
Y6782502D01*
X5537497Y6660004D02*
X5632501Y6565001D01*
X5356717Y6739215D02*
X5368432Y6727499D01*
X5519923D02*
X5537497Y6709925D01*
Y6660004D02*
Y6709925D01*
X5632501Y6565001D02*
X5635000D01*
X5425359Y7490359D02*
Y7668363D01*
X5369231Y7434231D02*
X5425359Y7490359D01*
X5263702Y7434231D02*
X5369231D01*
X5261971Y7432500D02*
X5263702Y7434231D01*
X5212500Y7472500D02*
X5252500Y7432500D01*
X5095004Y7472500D02*
X5212500D01*
X5010003Y7557501D02*
X5095004Y7472500D01*
X6296252Y6790251D02*
Y6793527D01*
X6030001Y7059778D02*
Y7337500D01*
X6296252Y6790251D02*
X6562502Y6524000D01*
X6717502D01*
X5982500Y6883683D02*
Y6980000D01*
X5792500Y7170000D02*
X5982500Y6980000D01*
X6030001Y7059778D02*
X6296252Y6793527D01*
X5010003Y7557501D02*
Y7577501D01*
X12075003Y6909999D02*
Y6919470D01*
Y6782501D02*
Y6909999D01*
X10202499Y6154999D02*
X10317501D01*
X8913002Y5974999D02*
Y6005049D01*
X8903694Y5930692D02*
X8913002D01*
X4889998Y4634001D02*
X4907498Y4651502D01*
X6427498Y3182498D02*
X6720002D01*
X5630291Y3410001D02*
X5704997D01*
X6442502Y3160002D02*
Y3177502D01*
X6245000Y3112500D02*
Y3121971D01*
X6230000Y3136971D02*
Y3511317D01*
Y3136971D02*
X6245000Y3121971D01*
X5940000Y3472500D02*
Y3477500D01*
X5875000Y3542499D02*
X5940000Y3477500D01*
X5820000Y3542499D02*
X5875000D01*
X5800000Y3562499D02*
X5820000Y3542499D01*
X5800000Y3562499D02*
Y3572500D01*
X5820001Y3699998D02*
X5857502D01*
X6055000Y2920938D02*
X6368303Y2607635D01*
X5857502Y3699998D02*
X6055000Y3502500D01*
Y2920938D02*
Y3502500D01*
X5800001Y3719998D02*
X5820001Y3699998D01*
X5617500Y3665002D02*
Y3955000D01*
X5577500Y3717718D02*
Y4017503D01*
X5675000Y3850000D02*
X5799996D01*
X5439999Y3706002D02*
X5565784D01*
X5577500Y3717718D01*
X5617500Y3955000D02*
X5707502Y4045002D01*
X5539156Y3586658D02*
X5617500Y3665002D01*
X5446542Y4148460D02*
X5577500Y4017503D01*
X5467502Y3900002D02*
X5470007Y3902507D01*
X5467502Y3890000D02*
Y3900002D01*
X5537200Y3452002D02*
X5660000Y3574802D01*
X5777499Y3100001D02*
X5822500Y3055000D01*
X5777499Y3100001D02*
Y3205002D01*
X6765000Y5367500D02*
X6824999Y5427499D01*
X7407501D01*
X6632501Y5297500D02*
X6865000D01*
X6359998Y5200000D02*
X7210729D01*
X6350000Y5190002D02*
X6359998Y5200000D01*
X6622501Y5307500D02*
X6632501Y5297500D01*
X6605001Y5307500D02*
X6622501D01*
X6562501Y5350000D02*
X6605001Y5307500D01*
X6562501Y5350000D02*
Y5367500D01*
X6765000D01*
X6490202Y6035000D02*
X6496899Y6028303D01*
X6245000Y5427500D02*
X6329999D01*
X6392702Y6137702D02*
X6461645Y6206645D01*
X6452500D02*
Y6206971D01*
X6496899Y5995352D02*
Y6028303D01*
X6372499Y5367500D02*
Y5385000D01*
X6461645Y6197500D02*
X6610000D01*
X6645252Y5846999D02*
X6735003D01*
X6145000Y5527500D02*
X6245000Y5427500D01*
X6496899Y5995352D02*
X6645252Y5846999D01*
X6329999Y5427500D02*
X6372499Y5385000D01*
X5638303Y5450803D02*
X5645000Y5457500D01*
X5638303Y5410808D02*
Y5450803D01*
X5527497Y5300002D02*
X5638303Y5410808D01*
X5527497Y5290002D02*
Y5300002D01*
X3227500Y5829000D02*
Y6462500D01*
X3221000Y5822500D02*
X3227500Y5829000D01*
Y6462500D02*
X4312500Y7547500D01*
X3729000Y6134390D02*
X4700065Y7105455D01*
X3729000Y5822500D02*
Y6134390D01*
X3757505Y4992500D02*
X3855000D01*
X3698001Y5052004D02*
X3757505Y4992500D01*
X3698001Y5052004D02*
Y5347504D01*
X3472500Y4810552D02*
Y5376003D01*
Y4810552D02*
X3573052Y4710000D01*
X3698001Y5347504D02*
X3729000Y5378503D01*
X3472500Y5376003D02*
X3475000Y5378503D01*
X3221000Y5702000D02*
Y5822500D01*
X3096250Y5577250D02*
X3221000Y5702000D01*
X4312500Y7547500D02*
Y7825935D01*
X12136999Y3687056D02*
Y3884696D01*
X12130000Y3680058D02*
X12136999Y3687056D01*
X12130000Y3530000D02*
Y3680058D01*
X12087001Y3568318D02*
Y3884696D01*
X12067542Y3548859D02*
X12087001Y3568318D01*
X12067542Y3508683D02*
Y3548859D01*
X12060000Y3501141D02*
X12067542Y3508683D01*
X12060000Y3412500D02*
Y3501141D01*
X11982500Y3589068D02*
Y3650000D01*
X11981649Y3650851D02*
X11982500Y3650000D01*
X12000571Y3532500D02*
X12010042D01*
X11959657Y3509656D02*
X11977727D01*
X12000571Y3532500D01*
X12336998Y3807522D02*
X12359645Y3784876D01*
X12336998Y3807522D02*
Y3884696D01*
X12359645Y3677503D02*
Y3784876D01*
X11947941Y3497941D02*
X11959657Y3509656D01*
X11319998Y6688475D02*
Y6826006D01*
X12789530Y4533499D02*
X12803029Y4520000D01*
X12585802Y4533499D02*
X12789530D01*
X12803029Y4520000D02*
X12812500D01*
X12522051Y4483496D02*
X12708619D01*
X12712115Y4480000D02*
X12771183D01*
X12708619Y4483496D02*
X12712115Y4480000D01*
X12771183D02*
X12811183Y4440000D01*
X12957500D01*
X12787958Y4406656D02*
X12787958D01*
X12761116Y4433499D02*
X12787958Y4406656D01*
X12845802Y4371697D02*
X12852499Y4365000D01*
X12822919Y4371697D02*
X12845802D01*
X12787958Y4406656D02*
X12822919Y4371697D01*
X12585802Y4433499D02*
X12761116D01*
X7472001Y5592999D02*
X7514000Y5551000D01*
X7225000Y5592999D02*
X7472001D01*
X16664600Y6938196D02*
X16732500Y6870295D01*
X16664600Y6938196D02*
Y6967901D01*
X16732500Y6678002D02*
Y6870295D01*
X15512502Y5020005D02*
X15514996Y5022500D01*
X15677499D01*
X15855000Y4637500D02*
X15928284D01*
X16032500Y4741716D02*
Y4859813D01*
X15928284Y4637500D02*
X16032500Y4741716D01*
X15555002Y6663099D02*
X15595599Y6622501D01*
X15555002Y6663099D02*
Y6935786D01*
X15595599Y6622501D02*
X15647502D01*
X15643303Y6846145D02*
Y6870514D01*
X15639999Y6873816D02*
X15643303Y6870514D01*
Y6846145D02*
X15650000Y6839448D01*
X10051070Y6232002D02*
X10111567Y6292499D01*
X9147500Y6372499D02*
Y6472500D01*
X9712498Y6350000D02*
Y6465854D01*
X9570857Y6607500D02*
X9712498Y6465854D01*
X9147500Y6472500D02*
X9187536Y6512536D01*
X9830501Y6232002D02*
X10051070D01*
X9712498Y6350000D02*
X9830501Y6232002D01*
X9145001Y6370000D02*
X9147500Y6372499D01*
X9055000Y6370000D02*
X9145001D01*
X8803138Y6899493D02*
Y6908965D01*
X8837502Y6943328D02*
Y7000000D01*
X8803138Y6908965D02*
X8837502Y6943328D01*
Y7000000D02*
X8860002Y7022501D01*
X8913002Y5930692D02*
Y5974999D01*
X8872896Y6800071D02*
X8919412Y6846587D01*
X8917751Y6680251D02*
X8922500Y6685000D01*
X8917751Y6504746D02*
Y6680251D01*
X8895502Y5904962D02*
Y5922499D01*
X8903694Y5930692D01*
X8715781Y6800071D02*
X8872896D01*
X11335000Y3582500D02*
Y3730000D01*
X11565000Y3960000D02*
Y4097500D01*
X11335000Y3730000D02*
X11565000Y3960000D01*
X11295000Y3410000D02*
X11584075D01*
X12982500Y4120000D02*
X13032500D01*
X13070000Y4157500D01*
X13864999Y3933400D02*
Y4600000D01*
Y3933400D02*
X14162898Y3635502D01*
X13922501Y4385000D02*
X13989999Y4452500D01*
X13825000Y4640000D02*
X13864999Y4600000D01*
X13989999Y4452500D02*
X14762500D01*
X14170000Y4067500D02*
Y4257502D01*
X14025000Y3922500D02*
X14170000Y4067500D01*
X12443052Y4027446D02*
Y4417926D01*
Y4027446D02*
X12597500Y3872998D01*
Y3737500D02*
Y3872998D01*
X12513054Y4474499D02*
X12522051Y4483496D01*
X12499625Y4474499D02*
X12513054D01*
X12443052Y4417926D02*
X12499625Y4474499D01*
X12370803Y3544197D02*
X12377500Y3537500D01*
X12370803Y3544197D02*
Y3666345D01*
X12359645Y3677503D02*
X12370803Y3666345D01*
X12435357Y3677503D02*
Y3774216D01*
X12437501Y3677503D02*
X12467500Y3647505D01*
X12435357Y3677503D02*
X12437501D01*
X9232500Y2645000D02*
X9326907D01*
X9366905Y2684998D01*
X9451842D01*
X9496840Y2640000D01*
X9592498D01*
X9232500Y2645000D02*
X9280002Y2692502D01*
Y2778999D01*
X8559998Y2917500D02*
X8569469D01*
X8580970Y2905999D01*
X8810000D01*
X8497499Y2979999D02*
X8559998Y2917500D01*
X8497499Y2979999D02*
Y3102503D01*
X8569504Y3032999D02*
X8810000D01*
X8499999Y3102503D02*
X8569504Y3032999D01*
X8367502Y3659998D02*
X8500003D01*
X8527501Y3632500D01*
X12922499Y2562500D02*
Y2571971D01*
X12939999Y2589472D01*
Y2822499D01*
X12222500Y2562500D02*
X12227500Y2557500D01*
X12057500Y2562500D02*
X12222500D01*
X10850000Y3744813D02*
X10872500Y3767314D01*
X10850000Y3607500D02*
Y3744813D01*
X11007503Y2677500D02*
X11045003Y2640000D01*
X10830000Y2677500D02*
X11007503D01*
X9416110Y2627498D02*
X9420001D01*
X9366108Y2577501D02*
X9416110Y2627498D01*
X10959999Y3605387D02*
X11044612Y3690000D01*
X9662500Y3119999D02*
X10477499D01*
X10959999Y3602499D01*
Y3605387D01*
X5352501Y2500000D02*
X9960000D01*
X10842500Y3383817D02*
X10876183Y3417500D01*
X10842500Y3382500D02*
Y3383817D01*
X9960000Y2500000D02*
X10842500Y3382500D01*
X10876183Y3417500D02*
X10877500D01*
X10927500Y3467500D02*
X11583143D01*
X10877500Y3417500D02*
X10927500Y3467500D01*
X7387260Y4012499D02*
X7472501D01*
X12750002Y7922504D02*
X12780005Y7892501D01*
X12242500Y2572500D02*
X12344996Y2674996D01*
X12490003D01*
X12227500Y2557500D02*
X12242500Y2572500D01*
X12794996Y3087497D02*
X12847498Y3139999D01*
X12794996Y2937500D02*
Y3087497D01*
X12804996Y2937500D02*
X12852496Y2889999D01*
X12854922D01*
X12874921Y2870000D01*
X12882498D01*
X12930000Y2822499D01*
X12939999D01*
X12792502Y3194995D02*
X12847498Y3139999D01*
X12792502Y3194995D02*
Y3290001D01*
X12942499D02*
Y3502501D01*
X12857500Y3587500D02*
X12942499Y3502501D01*
X12478283Y3432739D02*
X12608045Y3562500D01*
X12680000D01*
X11558029Y3525000D02*
X11567500D01*
X11540531Y3507502D02*
X11558029Y3525000D01*
X11033682Y3507502D02*
X11540531D01*
X10999999Y3541185D02*
X11033682Y3507502D01*
X10999999Y3541185D02*
Y3588819D01*
X11038681Y3627501D01*
X11066318D01*
X11105000Y3666183D01*
Y3713817D01*
X10941550Y3877267D02*
X11105000Y3713817D01*
X10913107Y3877267D02*
X10941550D01*
X10872500Y3917874D02*
X10913107Y3877267D01*
X10872500Y3917874D02*
Y3927687D01*
X11907941Y3479676D02*
Y3514509D01*
X11855993Y3405993D02*
X11890826D01*
X11839425Y3445993D02*
X11874258D01*
X11890826Y3405993D02*
X11947941Y3463108D01*
X11810932Y3417500D02*
X11839425Y3445993D01*
X11874258D02*
X11907941Y3479676D01*
X11827500Y3377500D02*
X11855993Y3405993D01*
X11947941Y3463108D02*
Y3497941D01*
X11907941Y3514509D02*
X11982500Y3589068D01*
X11183391Y3673177D02*
X11223285Y3633284D01*
X11223284D02*
X11270000Y3679998D01*
X11154999Y3565002D02*
X11223284Y3633284D01*
X11143498Y3731887D02*
X11183391Y3691994D01*
Y3673177D02*
Y3691994D01*
X11143498Y3731887D02*
Y4014500D01*
X11044612Y3690000D02*
X11047500D01*
X11583143Y3467500D02*
X11633144Y3417500D01*
X11173501Y4044503D02*
Y4050001D01*
X11143498Y4014500D02*
X11173501Y4044503D01*
X12478283Y3304997D02*
Y3432739D01*
X11530001Y4132499D02*
X11565000Y4097500D01*
X17487500Y6882500D02*
X17597501Y6992500D01*
X17282500Y6882500D02*
X17487500D01*
X17597501Y6992500D02*
X17725000D01*
X17214999Y6950000D02*
X17282500Y6882500D01*
X17500000Y7115000D02*
X17505000Y7120000D01*
X17500000Y7022500D02*
Y7115000D01*
X17432500Y6955000D02*
X17500000Y7022500D01*
X5432501Y6865000D02*
X5577500D01*
X17075374Y7382500D02*
X17334065D01*
X16990373Y7297500D02*
X17075374Y7382500D01*
X13067500Y4573498D02*
X13072501Y4568498D01*
Y4392832D02*
Y4568498D01*
X12908578Y4261079D02*
X12940747D01*
X12950191Y4270523D02*
X13072501Y4392832D01*
X12950191Y4270523D02*
X12950191D01*
X12904004Y4256504D02*
X12908578Y4261079D01*
X12940747D02*
X12950191Y4270523D01*
X11437965Y4533732D02*
X11438199Y4533499D01*
X11156232Y4533732D02*
X11437965D01*
X11115000Y4492500D02*
X11156232Y4533732D01*
X13974998Y2675001D02*
X13980003Y2680005D01*
X13875000Y3012500D02*
X13980003Y2907497D01*
Y2680005D02*
Y2907497D01*
X17767500Y7035000D02*
Y7040000D01*
X17725000Y6992500D02*
X17767500Y7035000D01*
X16464999Y5906948D02*
Y6172498D01*
X16472499Y6179998D01*
X15261755Y5265740D02*
X15263290Y5267274D01*
X14821758Y5265740D02*
X15261755D01*
X14757449Y5201434D02*
X14821758Y5265740D01*
X14096928Y5201434D02*
X14757449D01*
X14095593Y5202768D02*
X14096928Y5201434D01*
X12087001Y5412003D02*
X12620000Y5945002D01*
X12957500Y4095000D02*
X12982500Y4120000D01*
X13993683Y5185000D02*
X14068951Y5260268D01*
X14747125D01*
X14810098Y5323240D01*
X14272000Y5056001D02*
X14370999Y5155000D01*
X15002974D01*
X14272000Y5038501D02*
Y5056001D01*
X14271001Y5037501D02*
X14272000Y5038501D01*
X14253500Y5037501D02*
X14271001D01*
X14772504Y4987503D02*
X14882500Y5097500D01*
X16147501Y5862309D02*
X16157501Y5852309D01*
X16147501Y5862309D02*
Y6025998D01*
X16157501Y5799999D02*
X16162691Y5794809D01*
X16157501Y5799999D02*
Y5852309D01*
X16070000Y6212500D02*
Y6279998D01*
X16097002Y6306998D02*
X16246500D01*
X15981349Y6123849D02*
X16070000Y6212500D01*
X15976640Y6123849D02*
X15981349D01*
X16070000Y6279998D02*
X16097002Y6306998D01*
X12624188Y4930381D02*
X12983220Y5289413D01*
X13792500Y3887500D02*
Y4575000D01*
Y3887500D02*
X14298499Y3381502D01*
X14521002D01*
X15305000Y6260000D02*
X15481926D01*
X15789999Y5951926D01*
Y4702500D02*
Y5951926D01*
X15145000Y6100000D02*
X15305000Y6260000D01*
X15567502Y6482502D02*
X15647502D01*
X15647502Y6482502D01*
X15525000Y6440000D02*
X15567502Y6482502D01*
X15392491Y6440000D02*
X15525000D01*
X15357410Y6404918D02*
X15392491Y6440000D01*
X15789999Y4702500D02*
X15855000Y4637500D01*
X15935001Y5287500D02*
X16082500Y5435000D01*
X13377499Y4640000D02*
X13825000D01*
X14065001Y4582500D02*
Y4729749D01*
X13132500Y4885000D02*
X13377499Y4640000D01*
X15907500Y4712500D02*
Y4888266D01*
X15969467Y4950233D01*
X15972360D01*
X16032500Y5010374D01*
Y5020187D01*
X12729025Y4583496D02*
X12738029Y4592500D01*
X12747500D01*
X12585802Y4583496D02*
X12729025D01*
X14196060Y4668432D02*
X14296992Y4567500D01*
X14511140D01*
X14196060Y4668432D02*
Y4785985D01*
X14014999Y4779752D02*
X14065001Y4729749D01*
X14548640Y4605000D02*
X15372502D01*
X15991893Y5060794D02*
X16032500Y5020187D01*
X15991893Y5060794D02*
Y5125606D01*
X15935001Y5182500D02*
X15991893Y5125606D01*
X15935001Y5182500D02*
Y5287500D01*
X16082500Y5435000D02*
Y5440000D01*
X16102499Y5460000D01*
Y5587500D01*
X16147501Y6025998D02*
X16174500Y6052998D01*
X16246500D01*
X14867500Y6300000D02*
X15619997D01*
X13795000Y5951317D02*
X13943683Y6100000D01*
X15619997Y6300000D02*
X16017499Y6697502D01*
X13943683Y6100000D02*
X15145000D01*
X15002974Y5155000D02*
X15014690Y5143284D01*
Y5127806D02*
X15082436Y5060061D01*
X15014690Y5127806D02*
Y5143284D01*
X15082436Y5060061D02*
X15120000D01*
X13875000Y5185000D02*
X13993683D01*
X13050000Y5249956D02*
X13740485D01*
X13887502Y5377500D02*
Y5644728D01*
X13740485Y5249956D02*
X13765529Y5275000D01*
X13775000D01*
X12195000Y5245529D02*
Y5350000D01*
Y5245529D02*
X12236999Y5203530D01*
X10915000Y5535000D02*
Y5662313D01*
X10920187Y5667500D01*
X11658159Y5465659D02*
X11872500Y5680000D01*
X11652630Y5465659D02*
X11658159D01*
X11601568Y5510002D02*
X11970820Y5879254D01*
X11630000Y5452500D02*
X11639471D01*
X11652630Y5465659D01*
X11970820Y5879254D02*
Y5913318D01*
X12005001Y5947499D01*
X11187214Y5510002D02*
X11601568D01*
X10759813Y5567313D02*
Y5667500D01*
X10707500Y5515000D02*
X10759813Y5567313D01*
X11505000Y5697500D02*
Y5946150D01*
X11178232Y5614157D02*
X11421657D01*
X11505000Y5697500D01*
X11987002Y5565140D02*
X12200002Y5778140D01*
Y5932504D01*
X11912500Y6170003D02*
X12005001Y6077502D01*
X11912500Y6703029D02*
X11937500Y6728029D01*
X11912500Y6170003D02*
Y6703029D01*
X11932041Y6737500D02*
X11937500D01*
Y6728029D02*
Y6732353D01*
X11980382Y6495379D02*
X11985000Y6500002D01*
X12065502Y6640500D02*
X12302500D01*
X11980382Y6397117D02*
Y6495379D01*
X12011718Y6586716D02*
X12065502Y6640500D01*
X11980382Y6397117D02*
X12149999Y6227501D01*
X12005002Y6715001D02*
Y6751315D01*
X11985000Y6559997D02*
X12011718Y6586715D01*
X12005002Y6715001D02*
X12072502Y6647500D01*
X12011718Y6586715D02*
Y6586716D01*
X11985000Y6500002D02*
Y6559997D01*
X12101750Y6388250D02*
X12300750D01*
X12100000Y6390000D02*
X12101750Y6388250D01*
X12300750D02*
X12302500Y6386500D01*
X11529157Y5574157D02*
X11775000Y5820000D01*
Y5953626D01*
X11725001Y6092502D02*
Y6093816D01*
X11778792Y6038711D02*
X11780000D01*
X11725001Y6092502D02*
X11778792Y6038711D01*
X11551317Y6267500D02*
X11725001Y6093816D01*
X11123611Y6221388D02*
X11162706D01*
X11279586Y6077914D02*
X11317502Y6039998D01*
X11279586Y6077914D02*
Y6104508D01*
X11162706Y6221388D02*
X11279586Y6104508D01*
X11122500Y6222500D02*
X11123611Y6221388D01*
X11520803Y6023305D02*
Y6203303D01*
X10630002Y5122501D02*
X11317502Y5810001D01*
Y5894999D01*
X10895000Y5217788D02*
X11187214Y5510002D01*
X10895000Y4631183D02*
Y5217788D01*
X10805003Y4664612D02*
Y5184359D01*
X11194801Y5574157D01*
X11529157D01*
X10630002Y4640001D02*
Y5122501D01*
X10696590Y5132515D02*
X11178232Y5614157D01*
X10696590Y4670913D02*
Y5132515D01*
X11052500Y5237500D02*
X11175004Y5360005D01*
X11252500D01*
X14692342Y4922500D02*
X14707500Y4937658D01*
X14717577D02*
X14769963Y4990044D01*
X14707500Y4937658D02*
X14717577D01*
X12992500Y6274622D02*
X13419530Y6701650D01*
X13475471D01*
X13901321Y7127500D01*
Y7183821D01*
X13902499Y7185000D01*
X15767500Y6997500D02*
X16075000D01*
X16202499Y7125000D01*
X12939999Y5327508D02*
Y5432500D01*
X12935001Y5437500D02*
X12939999Y5432500D01*
X12911183Y5047500D02*
X12937502D01*
X12724552Y4834550D02*
X12877499Y4987498D01*
Y5013817D01*
X12937502Y5047500D02*
X13047502Y5157500D01*
X12877499Y5013817D02*
X12911183Y5047500D01*
X14496301Y4922500D02*
X14692342D01*
X14428003Y4978501D02*
X14440300D01*
X14401500Y4987503D02*
X14419000D01*
X14428003Y4978501D01*
X14440300D02*
X14496301Y4922500D01*
X10277046Y7337500D02*
X10333595Y7394049D01*
X10257000Y7068002D02*
X10267500Y7057502D01*
X9902500Y7068002D02*
X10257000D01*
X10337503Y7057502D02*
X10501549Y7221548D01*
Y7360366D01*
X10333595Y7394049D02*
X10467866D01*
X10501549Y7360366D01*
X10267500Y7057502D02*
X10337503D01*
X10275000Y7337500D02*
X10290000Y7352500D01*
X10275000Y7337500D02*
X10277046D01*
X4700065Y7105455D02*
X4702501D01*
X5356717Y6782502D02*
X5369217Y6795002D01*
X5442501D01*
X6360831Y5805988D02*
X6379078D01*
X5837499Y6329319D02*
X6360831Y5805988D01*
X5669646Y6707500D02*
X5671790D01*
X7057502Y8239999D02*
X7100001Y8282498D01*
X7206026Y8040101D02*
X7229124Y8017002D01*
X7287499D01*
X7206026Y8040101D02*
Y8091475D01*
X7057502Y8239999D02*
X7206026Y8091475D01*
X7100001Y8282498D02*
X7297501D01*
X4892497Y6122507D02*
X4895002Y6120003D01*
X4892497Y6122507D02*
Y6167501D01*
X4995001D02*
X5022002Y6140501D01*
Y6120003D02*
Y6140501D01*
X4768002Y6120003D02*
Y6167501D01*
Y6553002D01*
X4892497Y6167501D02*
X4995001D01*
X4768002D02*
X4892497D01*
X4768002Y6553002D02*
X4842500Y6627500D01*
X4892497Y6167501D02*
X4995001D01*
X4768002D02*
X4892497D01*
X4842500Y6627500D02*
Y6822496D01*
X4885004Y6865000D01*
X4987503D01*
X5577500D02*
X5632501Y6809999D01*
X5577500Y6865000D02*
X5607147D01*
X5162499Y7927497D02*
X5175001Y7914996D01*
X5456963Y7927497D02*
X5456969Y7927503D01*
X5607147Y6865000D02*
X5637148Y6895002D01*
X5908816Y6809999D02*
X5982500Y6883683D01*
X5632501Y6809999D02*
X5908816D01*
X8227500Y8375000D02*
X8234197Y8368303D01*
X8700000Y8317500D02*
Y8323647D01*
X8234197Y8368303D02*
X8655343D01*
X8700000Y8323647D01*
X5275004Y7914996D02*
X5362500Y7827500D01*
X5175001Y7914996D02*
X5275004D01*
X7537500Y6152500D02*
Y6161971D01*
Y6143029D02*
Y6152500D01*
Y6161971D02*
X7577500Y6201971D01*
Y6352500D01*
X7525202Y5983077D02*
Y6130731D01*
Y5980933D02*
Y5983077D01*
X7594216Y5634785D02*
X7600002Y5628998D01*
X7547500Y5716498D02*
X7594216Y5669783D01*
X7547500Y5716498D02*
Y5768816D01*
X7685658Y5678655D02*
Y5838731D01*
X7525202Y6130731D02*
X7537500Y6143029D01*
X7660000Y5864389D02*
X7685658Y5838731D01*
X7469317Y5846999D02*
X7547500Y5768816D01*
X7225000Y5846999D02*
X7469317D01*
X7538827Y5967308D02*
X7557074D01*
X7525202Y5980933D02*
X7538827Y5967308D01*
X7557074D02*
X7660000Y5864389D01*
X5072053Y7105455D02*
X5135003Y7042505D01*
X4702501Y7105455D02*
X5072053D01*
X5135003Y6864575D02*
Y7042505D01*
X5073431Y6803002D02*
X5135003Y6864575D01*
X5005503Y6803002D02*
X5073431D01*
X4997503Y6795002D02*
X5005503Y6803002D01*
X6494998Y5687502D02*
X6504473D01*
X6536969Y5719999D02*
X6735003D01*
X6504473Y5687502D02*
X6536969Y5719999D01*
X5578029Y6947500D02*
X5587500D01*
X5435003Y6927502D02*
X5558031D01*
X5578029Y6947500D01*
X4832034Y6990003D02*
X4952503D01*
X4806577Y6964546D02*
X4832034Y6990003D01*
X4702501Y6964546D02*
X4806577D01*
X7184214Y5045000D02*
X7282500D01*
X7152498Y5100003D02*
X7172498Y5080003D01*
Y5056716D02*
X7184214Y5045000D01*
X7172498Y5056716D02*
Y5080003D01*
X7145781Y5113286D02*
X7444215D01*
X7132498Y5100003D02*
X7145781Y5113286D01*
X9987500Y6890000D02*
X10227425D01*
X9982500Y6895000D02*
X9987500Y6890000D01*
X10227425D02*
X10397433Y7060008D01*
X10470332Y7448152D02*
X11307848D01*
X9847500Y6832500D02*
X10327500D01*
X9825000Y6855000D02*
X9847500Y6832500D01*
X9642500Y6855000D02*
X9825000D01*
X9260002Y6677503D02*
X9330002D01*
X9507500Y6855000D01*
X9512500D01*
X10335001Y7939999D02*
X10553232Y8158231D01*
X11311384D01*
X11349614Y8120000D02*
X11402500D01*
X11145733Y8100731D02*
X11269109D01*
X11402500Y8120000D02*
X11442500Y8080000D01*
X11311384Y8158231D02*
X11349614Y8120000D01*
X11125004Y8080001D02*
X11145733Y8100731D01*
X11405348Y8173720D02*
X11557000D01*
X10055997Y7979999D02*
X10318433D01*
X11333683Y8192500D02*
X11386568D01*
X11296183Y8230000D02*
X11333683Y8192500D01*
X11167501Y8230000D02*
X11296183D01*
X11166079Y8231422D02*
X11167501Y8230000D01*
X10608434Y8270001D02*
X10608437D01*
X11413279Y8036560D02*
X11426556D01*
X11166079Y8231422D02*
Y8270001D01*
X11386568Y8192500D02*
X11405348Y8173720D01*
X10318433Y7979999D02*
X10608434Y8270001D01*
X7407501Y5427499D02*
X7439215Y5395785D01*
X7495002Y5332501D02*
X7586843Y5240660D01*
Y5210657D02*
X7592500Y5205000D01*
X7586843Y5210657D02*
Y5240660D01*
X7439215Y5340785D02*
X7447498Y5332501D01*
X8883213Y4845715D02*
X9056715D01*
X9085499Y4874499D01*
X8812500Y4775002D02*
X8883213Y4845715D01*
X8739998Y4775002D02*
X8812500D01*
X6882500Y5012539D02*
X6887461Y5017500D01*
X6990552D01*
X7120853Y4887199D02*
X7184502D01*
X6990552Y5017500D02*
X7120853Y4887199D01*
X6987466Y5070039D02*
X7005001Y5087574D01*
X6731937Y5055037D02*
X6746939Y5070039D01*
X7005001Y5087574D02*
Y5112503D01*
X6746939Y5070039D02*
X6987466D01*
X7005001Y5112503D02*
X7025001Y5132503D01*
X7282500Y5045000D02*
X7282500Y5045000D01*
X4615002Y7760965D02*
X4657286Y7718681D01*
X4615002Y7760965D02*
Y7897419D01*
X5679926Y4315000D02*
X5687500D01*
X5503321Y4347500D02*
X5523321Y4327500D01*
X5667426D01*
X6399672Y4125199D02*
X6714500D01*
X5687500Y4315000D02*
X5709216Y4293284D01*
X5770961Y4367500D02*
X6011088Y4127373D01*
X5503321Y4404258D02*
X5540080Y4367500D01*
X5770961D01*
X5667426Y4327500D02*
X5679926Y4315000D01*
X6397498Y4127373D02*
X6399672Y4125199D01*
X6011088Y4127373D02*
X6397498D01*
X16305002Y2870002D02*
Y3070001D01*
X16297499Y2862499D02*
X16305002Y2870002D01*
X16139998Y4254998D02*
Y4414998D01*
X16385002Y4254998D02*
Y4369999D01*
X16339998Y4414998D02*
X16385002Y4369999D01*
X16139998Y4414998D02*
X16339998D01*
X16239998Y4628286D02*
X16251718Y4640001D01*
X16174998Y4573499D02*
X16186501D01*
X16251718Y4640001D02*
X16385002D01*
X16239998Y4627001D02*
Y4628286D01*
X16186501Y4573499D02*
X16239998Y4627001D01*
X16139998Y4414998D02*
Y4538502D01*
X16174998Y4573499D01*
X16139998Y4094998D02*
Y4254998D01*
Y3934998D02*
Y4094998D01*
Y3759998D02*
Y3934998D01*
X11439199Y4132499D02*
X11530001D01*
X11438199Y4133499D02*
X11439199Y4132499D01*
X11292926Y4069400D02*
X11356026Y4132499D01*
X11437199D02*
X11438199Y4133499D01*
X11356026Y4132499D02*
X11437199D01*
X12336998Y5032299D02*
X12337998Y5033299D01*
Y5114472D02*
X12464739Y5241213D01*
X12337998Y5033299D02*
Y5114472D01*
X12464739Y5274735D02*
X12472502Y5282499D01*
X12464739Y5241213D02*
Y5274735D01*
X15312502Y6557091D02*
Y6662501D01*
X14647342Y7152498D02*
X14785001D01*
X14609999Y7115155D02*
X14647342Y7152498D01*
X15354997Y6412498D02*
Y6514595D01*
X15312502Y6557091D02*
X15354997Y6514595D01*
X13159999Y7712502D02*
X13168219D01*
X13059999Y7812502D02*
X13159999Y7712502D01*
X12914772Y7854772D02*
X12957043Y7812502D01*
X13059999D01*
X12907520Y7232481D02*
X12918048D01*
X12822499Y7985003D02*
Y8235000D01*
X12760005Y7922504D02*
X12822499Y7985003D01*
X12908920Y7854772D02*
X12914772D01*
X12892496Y7247504D02*
Y7332502D01*
Y7247504D02*
X12907520Y7232481D01*
X12780005Y7892501D02*
X12871185D01*
X12908920Y7854772D01*
X13122501Y7197500D02*
X13172501Y7247500D01*
X12962500Y7197500D02*
X13122501D01*
X12953029D02*
X12962500D01*
X12918048Y7232481D02*
X12953029Y7197500D01*
X12772502Y7021500D02*
X12925999D01*
X12696678D02*
X12772502D01*
X12925999D02*
X13002499Y6945000D01*
X15032503Y5883880D02*
Y5939648D01*
X15138518Y5861482D02*
X15139999Y5859998D01*
X15032503Y5883880D02*
X15054900Y5861482D01*
X15138518D01*
X14024651Y5927501D02*
X14031789Y5920364D01*
X14781448Y5861482D02*
X15054900D01*
X14779832Y5859866D02*
X14781448Y5861482D01*
X12549998Y7944998D02*
X12727508D01*
X12547600Y7947401D02*
X12549998Y7944998D01*
X12727508D02*
X12750002Y7922504D01*
X12490099Y7947401D02*
X12547600D01*
X12467387Y7924688D02*
X12490099Y7947401D01*
X12457389Y7924688D02*
X12467387D01*
X12455099Y7922398D02*
X12457389Y7924688D01*
X12455098Y7922397D02*
X12455099Y7922398D01*
X12336186Y7852501D02*
X12385197D01*
X12455098Y7922397D01*
X12174244Y8203784D02*
X12192498Y8185531D01*
X12174244Y8203784D02*
Y8205755D01*
X12192498Y7917500D02*
Y8185531D01*
X12127500Y8252500D02*
X12174244Y8205755D01*
X12257116Y7575001D02*
X12337501D01*
X12271284Y7917398D02*
X12336186Y7852501D01*
X12192498Y7917500D02*
X12192599Y7917398D01*
X12271284D01*
X12666081Y7048500D02*
X12669677D01*
X12518725Y7195856D02*
X12666081Y7048500D01*
X12669677D02*
X12696678Y7021500D01*
X12127499Y7350069D02*
Y7445385D01*
X12257116Y7575001D01*
X12044339Y7053161D02*
Y7103156D01*
Y7053161D02*
X12045000Y7052500D01*
Y6975267D02*
Y7052500D01*
X11952498Y8252500D02*
X12127500D01*
X11932503Y8252501D02*
X11942501Y8242503D01*
X11952498Y8252500D01*
X11617503Y8252501D02*
X11932503D01*
X11840008Y7607500D02*
X11842504Y7605003D01*
X11615000Y7607500D02*
X11840008D01*
X11062498Y7612502D02*
X11072498D01*
X11190001Y7494999D01*
X11615000Y7450000D02*
Y7607500D01*
X11612499Y7604999D02*
X11615000Y7607500D01*
X11342502Y7604999D02*
X11612499D01*
X11190001Y7494999D02*
X11407498D01*
X11955429Y7177999D02*
X12127499Y7350069D01*
X11974998Y7172498D02*
X11977498D01*
X11999998Y7149998D01*
X11734998Y7177999D02*
X11955429D01*
X11999998Y7147498D02*
X12044339Y7103156D01*
X11999998Y7147498D02*
Y7149998D01*
X11960001Y6796316D02*
X12005002Y6751315D01*
X11960001Y6890268D02*
X12045000Y6975267D01*
X11960001Y6796316D02*
Y6890268D01*
X11407498Y7494999D02*
X11454999Y7447498D01*
X11319998Y6826006D02*
X11454999Y6961012D01*
Y7447498D01*
X11046998Y6796999D02*
X11264997D01*
X12735977Y6386500D02*
X12772502D01*
X12717501Y6368024D02*
X12735977Y6386500D01*
X12717501Y6254999D02*
Y6368024D01*
X12072502Y6647500D02*
X12072503D01*
X12472502Y5282499D02*
X12474646D01*
X12567145Y5190000D02*
X12635000D01*
X12474646Y5282499D02*
X12567145Y5190000D01*
X11746523Y6542999D02*
X11765000Y6524522D01*
Y6367502D02*
Y6524522D01*
X11762500Y6365002D02*
X11765000Y6367502D01*
X11762500Y6239030D02*
Y6365002D01*
X11742941Y6219471D02*
X11762500Y6239030D01*
X11734998Y6542999D02*
X11746523D01*
X11301522Y6669999D02*
X11319998Y6688475D01*
X11264997Y6669999D02*
X11301522D01*
X11567885Y6307500D02*
X11604603Y6270782D01*
X11412497Y6307500D02*
X11567885D01*
X11604603Y6270782D02*
X11680100D01*
X11357498Y6362499D02*
Y6372499D01*
Y6362499D02*
X11412497Y6307500D01*
X11740883Y6210000D02*
X11742941D01*
X11680100Y6270782D02*
X11740883Y6210000D01*
X11742941D02*
Y6219471D01*
X15506982Y4405092D02*
Y4424055D01*
Y4431555D01*
X15500990Y4430046D02*
X15506982Y4424055D01*
X15548463Y4409037D02*
X15620000Y4337500D01*
Y4225000D02*
Y4337500D01*
X15506982Y4424055D02*
X15522000Y4409037D01*
X15548463D01*
X15617500Y4222500D02*
X15620000Y4225000D01*
X15572508Y4170004D02*
X15617500Y4214996D01*
Y4222500D01*
X16697284Y2804785D02*
X16697504D01*
X16691347Y2798845D02*
X16697284Y2804785D01*
X16673875Y2781158D02*
Y2781371D01*
X16691347Y2798845D01*
X16475217Y2582499D02*
X16673875Y2781158D01*
X16425002Y2582499D02*
X16475217D01*
X14887880Y4463237D02*
X14941377D01*
X15061967Y4270004D02*
X15097498D01*
X15048730Y4253232D02*
Y4256767D01*
X14957500Y4162001D02*
X15048730Y4253232D01*
X15227495Y4170004D02*
X15317496D01*
X15061967D02*
X15097498D01*
X14941377Y4463237D02*
X14957500Y4447113D01*
X14887498Y4462856D02*
X14887880Y4463237D01*
X14957500Y4162001D02*
Y4447113D01*
Y4157500D02*
Y4162001D01*
X14893999Y4221002D02*
X14957500Y4157500D01*
X12957500Y4047839D02*
Y4095000D01*
X14969002Y3377499D02*
X15225002D01*
X14964999Y3381502D02*
X14969002Y3377499D01*
X15225002D02*
X15320000Y3282500D01*
X11262898Y4069400D02*
X11292926D01*
X11253500Y4060002D02*
X11262898Y4069400D01*
X9637500Y8232500D02*
X9680001Y8189999D01*
Y8087502D02*
Y8189999D01*
X9362574Y8232500D02*
X9637500D01*
X9303788Y8173714D02*
X9362574Y8232500D01*
X10122499Y7584999D02*
X11034994D01*
X9680001Y8087502D02*
X9700001Y8067502D01*
X11034994Y7584999D02*
X11062498Y7612502D01*
X9303788Y8058785D02*
Y8173714D01*
X9225001Y7999998D02*
X9245001D01*
X9303788Y8058785D01*
X9145001Y7919999D02*
X9225001Y7999998D01*
X9145001Y7838684D02*
Y7919999D01*
X9089216Y7650785D02*
X9144218D01*
X9047500Y7692500D02*
X9089216Y7650785D01*
X9144218D02*
X9182501Y7612501D01*
X9047500Y7741183D02*
X9145001Y7838684D01*
X9047500Y7692500D02*
Y7741183D01*
X10494933Y6897567D02*
X10609999Y6782501D01*
X10494933Y7020478D02*
X10500977Y7026522D01*
X11032500Y6782501D02*
X11046998Y6796999D01*
X11030001Y6782501D02*
X11032500D01*
X10609999D02*
X11030001D01*
X10929198Y6681699D02*
X11030001Y6782501D01*
X10494933Y6897567D02*
Y7020478D01*
X8440001Y8235001D02*
Y8237501D01*
X8373216Y8075716D02*
Y8168217D01*
X8440001Y8235001D01*
X8044108Y8257499D02*
X8299107Y8002500D01*
X8300000D02*
X8373216Y8075716D01*
X8300000Y8002500D02*
Y8002500D01*
X8299107D02*
X8300000D01*
Y7993029D02*
Y8002241D01*
X8287774Y7980803D02*
X8300000Y7993029D01*
X8287774Y7973408D02*
Y7980803D01*
X7740000Y7870012D02*
Y8170000D01*
X8860002Y7022501D02*
X8862502D01*
X7979303Y7664938D02*
X8287774Y7973408D01*
X7856126Y7664938D02*
X7979303D01*
X7584999Y7227575D02*
Y7393810D01*
X7856126Y7664938D01*
X7442424Y7085000D02*
X7584999Y7227575D01*
X10929198Y6671696D02*
Y6681699D01*
X10922498Y6665001D02*
X10929198Y6671696D01*
X10237500Y6332499D02*
Y6775000D01*
X10225000Y6319999D02*
X10237500Y6332499D01*
X10225000Y6315000D02*
Y6319999D01*
X10202500Y6292499D02*
X10225000Y6315000D01*
X10111567Y6292499D02*
X10202500D01*
X10922498Y6001075D02*
Y6665001D01*
X10290007Y5560004D02*
X10481427D01*
X10922498Y6001075D01*
X10290002Y5559999D02*
X10290007Y5560004D01*
X10230002Y5517500D02*
X10272502Y5559999D01*
X10230002Y5482499D02*
X10367500Y5345002D01*
X10272502Y5559999D02*
X10290002D01*
X10367500Y5340000D02*
Y5345002D01*
X10230002Y5499999D02*
Y5517500D01*
Y5482499D02*
Y5499999D01*
X9147500Y6159998D02*
Y6372499D01*
X8530001Y6705000D02*
Y6705001D01*
Y6707500D01*
Y6717500D01*
X8401695Y6576695D02*
X8530001Y6705001D01*
X8395000Y6550000D02*
X8401695Y6556695D01*
X7659153Y6641653D02*
X7660000Y6640806D01*
X7639153Y6641653D02*
X7659153D01*
X7660000Y6619112D02*
Y6640806D01*
X7518623Y6734943D02*
X7544169D01*
X7638306Y6640806D01*
X8401695Y6556695D02*
Y6576695D01*
X8066698Y6640806D02*
X8205593Y6501912D01*
X7660000Y6640806D02*
X8066698D01*
X8205593Y6498093D02*
Y6501912D01*
X7525202Y5854798D02*
X7622500Y5757500D01*
X6535801Y7706695D02*
X6542502Y7700000D01*
X7520000Y7485000D02*
Y7759862D01*
X6535801Y7706695D02*
Y7724196D01*
X6534998Y7724999D02*
X6535801Y7724196D01*
X7396390Y7602970D02*
Y7603580D01*
X7363969Y7636002D02*
X7396390Y7603580D01*
X7514360Y7485000D02*
X7520000D01*
X7287499Y7636002D02*
X7363969D01*
X5843337Y7994995D02*
X5863331Y7975001D01*
X5639999Y7994995D02*
X5843337D01*
X5863331Y7975001D02*
X6097500Y7740827D01*
X6492855Y7767147D02*
Y7830002D01*
Y7767147D02*
X6534998Y7724999D01*
X6097500Y7740827D02*
X6113328Y7724999D01*
X6534998D01*
X7396390Y7602970D02*
X7514360Y7485000D01*
X7251715Y7085000D02*
X7442424D01*
X6097500Y7255933D02*
X6333432Y7020001D01*
X6097500Y7255933D02*
Y7740827D01*
X7152498Y6985782D02*
X7251715Y7085000D01*
X7152498Y6929999D02*
Y6985782D01*
X6333432Y7020001D02*
X6669999D01*
X6747500Y6942501D01*
X5721126Y7009882D02*
Y7071731D01*
Y7009882D02*
X5790356Y6940652D01*
X5572507Y7927503D02*
X5639999Y7994995D01*
X4697503Y6850866D02*
Y6959547D01*
X4702501Y6964546D01*
X7459823Y6783675D02*
X7474179D01*
X7313498Y6929999D02*
X7459823Y6783675D01*
X7474179D02*
X7491374Y6766479D01*
X7152498Y6929999D02*
X7313498D01*
X6812501D02*
X7152498D01*
X6970000Y6397500D02*
Y6772500D01*
X7504999Y6748567D02*
Y6750710D01*
Y6766479D01*
Y6748567D02*
X7518623Y6734943D01*
X7491374Y6766479D02*
X7504999D01*
X6756969Y6942501D02*
X6769471Y6929999D01*
X6747500Y6942501D02*
X6756969D01*
X6769471Y6929999D02*
X6812501D01*
X6747500Y6933027D02*
Y6942501D01*
X6717502Y6903029D02*
X6747500Y6933027D01*
X6812501Y6929999D02*
X6970000Y6772500D01*
X6717502Y6778000D02*
Y6903029D01*
X6417498Y6322146D02*
Y6324290D01*
Y6322146D02*
X6431122Y6308523D01*
X6865000Y6292500D02*
X6970000Y6397500D01*
X6735003Y5973999D02*
Y6072497D01*
X6449288Y6292500D02*
X6865000D01*
X6610000Y6197500D02*
X6735003Y6072497D01*
X7525202Y5854798D02*
Y5907364D01*
X6433266Y6308523D02*
X6449288Y6292500D01*
X6431122Y6308523D02*
X6433266D01*
X6417498Y6241973D02*
X6452500Y6206971D01*
X6417498Y6241973D02*
Y6322146D01*
X6392702Y5868076D02*
Y6137702D01*
X5915529Y6907500D02*
X5925000D01*
X5903031Y6895002D02*
X5915529Y6907500D01*
X5746252Y6706250D02*
X5747502Y6707500D01*
X4657498Y6810861D02*
X4697503Y6850866D01*
X4657498Y6809545D02*
Y6810861D01*
X5746252Y6583219D02*
X5767500Y6561971D01*
Y6552500D02*
Y6561971D01*
X10367500Y4105074D02*
Y5340000D01*
X10280000Y4017574D02*
X10367500Y4105074D01*
X10082423Y3820003D02*
X10280000Y4017574D01*
X9865002Y3820003D02*
X10082423D01*
X9747730Y3702730D02*
X9865002Y3820003D01*
X9722201Y3702730D02*
X9747730D01*
X9691971Y3672500D02*
X9722201Y3702730D01*
X9685000Y3672500D02*
X9691971D01*
X9685000Y3670529D02*
Y3672500D01*
X9727500Y3624998D02*
Y3628029D01*
X9685000Y3670529D02*
X9727500Y3628029D01*
X9652503Y3550001D02*
X9727500Y3624998D01*
X9545000Y3550001D02*
X9652503D01*
X9522501Y3527501D02*
X9545000Y3550001D01*
X9727500Y3390002D02*
Y3624998D01*
X9520001Y3527501D02*
X9522501D01*
X9406499Y3413999D02*
X9520001Y3527501D01*
X7597461Y4687539D02*
X7624964Y4660036D01*
Y4461754D02*
Y4660036D01*
X7514962Y4450039D02*
X7613248D01*
X7624964Y4461754D01*
X7584999Y4700003D02*
X7585745D01*
X7564999Y4720003D02*
X7584999Y4700003D01*
X7585745D02*
X7597461Y4688287D01*
X7564999Y4720003D02*
Y4730003D01*
X7597461Y4687539D02*
Y4688287D01*
X7500035Y4450039D02*
X7507498Y4457502D01*
X7514962Y4450039D01*
X7386479D02*
X7500035D01*
X7604999Y3454999D02*
X7611695Y3448303D01*
X7505786Y3474212D02*
X7506330Y3473668D01*
X7481255D02*
X7506330D01*
X7481255D02*
X7482464Y3472459D01*
X7480711Y3474212D02*
X7505786D01*
X7598303Y3461695D02*
X7604999Y3454999D01*
X7580645Y3461695D02*
X7598303D01*
X7506330Y3473668D02*
X7568672D01*
X7580645Y3461695D01*
X9707502Y3370004D02*
X9727500Y3390002D01*
X9707502Y3370001D02*
Y3370004D01*
X9677504Y3340003D02*
X9707502Y3370001D01*
X9280002Y3413999D02*
X9406499D01*
X9677502Y3340003D02*
X9677504D01*
X9677502Y3330001D02*
Y3340003D01*
X7611695Y3405733D02*
X7655000Y3362429D01*
Y3257576D02*
Y3362429D01*
X7611695Y3405733D02*
Y3448303D01*
X7615000Y3217576D02*
X7655000Y3257576D01*
X7615000Y3190000D02*
Y3217576D01*
X7585000Y3160000D02*
X7615000Y3190000D01*
X7575000Y3160000D02*
X7585000D01*
X7502502Y2687500D02*
X7659998D01*
X7497501Y2682499D02*
X7502502Y2687500D01*
X7664999Y2682499D02*
X7670000Y2687500D01*
X7659998D02*
X7664999Y2682499D01*
X7540000Y2557501D02*
X7664999Y2682499D01*
X7384222D02*
X7497501D01*
X7392497Y2557501D02*
X7540000D01*
X6727201Y5050301D02*
X6917500Y4860002D01*
Y4557501D02*
Y4860002D01*
X6714471Y5062500D02*
X6726670Y5050301D01*
X6727201D01*
X6705000Y5062500D02*
X6714471D01*
X6384966Y4535037D02*
Y4610033D01*
X6367501Y4627499D02*
X6384966Y4610033D01*
X7477501Y3474212D02*
X7480711D01*
X7464923Y3490001D02*
X7480711Y3474212D01*
X7458410Y3475909D02*
X7460645Y3473668D01*
X7452502Y3490001D02*
X7464923D01*
X7430002Y3467501D02*
X7452502Y3490001D01*
X7480711Y3474212D02*
X7481255Y3473668D01*
X7464740Y3469574D02*
X7466813Y3467501D01*
X7477501D01*
X7460645Y3473668D02*
X7481255D01*
X7387664Y3427669D02*
X7427496Y3467501D01*
X7369470Y4442501D02*
X7378941D01*
X6917500Y4557501D02*
X7032501Y4442501D01*
X7378941D02*
X7386479Y4450039D01*
X6917500Y4347500D02*
Y4557501D01*
X6384966Y4535037D02*
X6602503Y4317500D01*
X6887500D02*
X6917500Y4347500D01*
X5527497Y5142499D02*
X5642498Y5027498D01*
X5527497Y5142499D02*
Y5290002D01*
X5642498Y5027498D02*
X5644998D01*
X4891973Y3900002D02*
X5337500D01*
X4882502D02*
X4925995Y3943495D01*
X4767499Y4429999D02*
X4824999Y4372498D01*
X4689998Y4429999D02*
X4767499D01*
X4925995Y3943495D02*
Y4105961D01*
X4885808Y3896697D02*
X4888668D01*
X4891973Y3900002D01*
X4882502D02*
X4885808Y3896697D01*
X4879154Y3896654D02*
X4882502Y3900002D01*
X4639999Y3497499D02*
Y3617501D01*
X4580000Y3677500D02*
X4639999Y3617501D01*
X7427496Y3467501D02*
X7430002D01*
X7285543Y3428843D02*
X7286722Y3427669D01*
X7387664D01*
X7197659Y3428843D02*
X7285543D01*
X7190003Y3436498D02*
X7197659Y3428843D01*
X6655003Y3055498D02*
X6720002D01*
X6559509Y2960004D02*
X6655003Y3055498D01*
X6420002Y3312498D02*
X6422502D01*
X6397502Y3289998D02*
X6420002Y3312498D01*
X6397502Y3287498D02*
Y3289998D01*
X6322502Y3085003D02*
X6370000Y3037500D01*
X6322502Y3212498D02*
X6397502Y3287498D01*
X6322502Y3085003D02*
Y3212498D01*
X6389995Y2990007D02*
X6394999Y2984998D01*
X6389995Y2979994D02*
Y2990007D01*
X6394999Y2984998D02*
X6410000Y2970002D01*
X6370000Y2990007D02*
Y3037500D01*
Y2990007D02*
X6389213D01*
X7190003Y2801498D02*
X7265223D01*
X6654792Y2928498D02*
X6720002D01*
X6623286Y2960004D02*
X6654792Y2928498D01*
X6559509Y2960004D02*
X6623286D01*
X7265223Y2801498D02*
X7384222Y2682499D01*
X6754753Y2622500D02*
X7327498D01*
X7392497Y2557501D01*
X6584216Y2592500D02*
X6724753D01*
X6754753Y2622500D01*
X6410000Y2960004D02*
X6420002D01*
X6410000D02*
Y2970002D01*
X6420002Y2960004D02*
X6450000Y2930002D01*
X6370000Y2959999D02*
X6389995Y2979994D01*
X6545000Y2631716D02*
Y2807427D01*
X6450000Y2902428D02*
X6545000Y2807427D01*
Y2631716D02*
X6584216Y2592500D01*
X6420002Y2960004D02*
X6559509D01*
X6450000Y2902428D02*
Y2930002D01*
X4508572Y3276428D02*
X4567500Y3217500D01*
X4488573Y3276428D02*
X4508572D01*
X4481876Y3283125D02*
X4488573Y3276428D01*
X4597500Y3187500D02*
Y3197500D01*
X4567500Y3217500D02*
X4577500D01*
X4597500Y3197500D01*
X6250000Y2959999D02*
X6370000D01*
X2982493Y2772501D02*
X3102498D01*
X2979994Y2775001D02*
X2982493Y2772501D01*
X16545001Y3055000D02*
Y3070001D01*
Y3055000D02*
X16570000Y3030002D01*
Y3020619D02*
Y3030002D01*
X16661993Y2928625D02*
X16662000D01*
X16695624Y2895000D02*
X16937500D01*
X16570000Y3020619D02*
X16661993Y2928625D01*
X16662000D02*
X16695624Y2895000D01*
X12586802Y4734498D02*
X12667980D01*
X12724552Y4791070D01*
X12585802Y4733498D02*
X12586802Y4734498D01*
X11245973Y4633498D02*
X11438199D01*
X11227500Y4642500D02*
X11236971D01*
X11245973Y4633498D01*
X11322501Y4483496D02*
X11438199D01*
X11322501D02*
Y4485498D01*
X10805003Y4664612D02*
X11086118Y4383496D01*
X14400616Y5036618D02*
X14401500Y5037501D01*
X14313469Y4987503D02*
X14362582Y5036618D01*
X14400616D01*
X15213747Y4283753D02*
X15288000Y4358008D01*
X15227495Y4083748D02*
X15227495Y4083748D01*
X15227495Y4083748D02*
Y4120001D01*
X15195496Y4220001D02*
X15227495D01*
X15157497Y4258000D02*
X15195496Y4220001D01*
X15157497Y4258000D02*
Y4435003D01*
X15227495Y4270004D02*
X15263025D01*
X15129497Y4220001D02*
X15157497Y4192000D01*
X15097498Y4220001D02*
X15129497D01*
X15157497Y4148007D02*
Y4192000D01*
X15097498Y4120001D02*
X15129491D01*
X15157497Y4148007D01*
X14477502Y3845001D02*
X14564999Y3932499D01*
X14101973Y3845001D02*
X14477502D01*
X14559996Y4149999D02*
Y4223751D01*
X14194998Y3914999D02*
X14325002D01*
X14559996Y4223751D02*
X14593753Y4257502D01*
X14559996Y4223751D02*
X14591876Y4255625D01*
X14593753Y4257502D01*
X14081973Y3825001D02*
X14101973Y3845001D01*
X14325002Y3914999D02*
X14559996Y4149999D01*
X11633144Y3417500D02*
X11810932D01*
X11616575Y3377500D02*
X11827500D01*
X11597498Y5071801D02*
X11637000Y5032299D01*
X12387001Y3884696D02*
X12435302D01*
X12387001Y3822573D02*
X12435357Y3774216D01*
X12467500Y3548340D02*
Y3647505D01*
X11057499Y3565002D02*
X11154999D01*
X15288000Y4358008D02*
Y4376503D01*
X15293506Y4382008D01*
X15312001D01*
X11255000Y4476232D02*
X11313235D01*
X11322501Y4485498D01*
X11884126Y5184916D02*
X11931710Y5232500D01*
X11870387Y5184916D02*
X11884126D01*
X11931710Y5232500D02*
X11932002D01*
X11645145Y7364999D02*
X11645148D01*
X11609998Y7329849D02*
Y7329852D01*
X11645148Y7364999D02*
X11715577Y7435428D01*
X11609998Y7153147D02*
Y7153150D01*
X11590000Y7173148D02*
Y7309851D01*
Y7173148D02*
X11609998Y7153150D01*
X11645145Y7117999D02*
X11645148D01*
X11609998Y7153147D02*
X11645145Y7117999D01*
X11609998Y7329852D02*
X11645145Y7364999D01*
X11590000Y7309851D02*
X11609998Y7329849D01*
X11645148Y7117999D02*
X11648648Y7114499D01*
X11867500Y7033652D02*
Y7068346D01*
X11821353Y7114499D02*
X11867500Y7068346D01*
X11821353Y6987499D02*
X11867500Y7033652D01*
X11592500Y6837699D02*
X11629370Y6800830D01*
X11592500Y6940004D02*
X11639996Y6987499D01*
X11592500Y6837699D02*
Y6940004D01*
X11639996Y6987499D02*
X11821353D01*
X11520803Y6203303D02*
X11527500Y6210000D01*
X11324540Y6267500D02*
X11551317D01*
X11295380Y6296660D02*
X11324540Y6267500D01*
X11529471Y6375000D02*
X11541969Y6362502D01*
X11520000Y6375000D02*
X11529471D01*
X11541969Y6362502D02*
X11672498D01*
X11295380Y6296660D02*
Y6432484D01*
X8715781Y6760784D02*
Y6800071D01*
X8510071D02*
X8715781D01*
X8312501Y6602501D02*
X8510071Y6800071D01*
X8600140Y6870141D02*
X8758001Y7028002D01*
X8146839Y4042501D02*
X8209343Y3979997D01*
X7804998Y3943817D02*
X7903682Y4042501D01*
X8146839D01*
X8452500Y3979997D02*
X8492500Y3939997D01*
X8209343Y3979997D02*
X8452500D01*
X9315501Y4521999D02*
X9352500Y4485000D01*
X9900001D01*
X9970135Y4414865D01*
X9139002Y5430997D02*
X9315501Y5254498D01*
X8533089Y4155592D02*
X9073591D01*
X9197340Y4031844D01*
X9314180Y3719503D02*
Y4011509D01*
X9468271Y4165600D02*
X9737441D01*
X9314180Y4011509D02*
X9468271Y4165600D01*
X9672320Y3767320D02*
Y3905489D01*
X9627500Y3722500D02*
X9672320Y3767320D01*
X9627500Y3612780D02*
Y3722500D01*
X8970000Y3800000D02*
Y3912499D01*
X8622502Y3939997D02*
X9082700Y3479800D01*
X8907500Y3737500D02*
X8970000Y3800000D01*
X9082700Y3479800D02*
X9144000D01*
X9953284Y2680784D02*
X10020000Y2747500D01*
X9884999Y2647498D02*
X9918285Y2680784D01*
X9953284D01*
X10020000Y2747500D02*
Y2924998D01*
X6602500Y2675000D02*
X6693031D01*
X6720002Y2701971D01*
Y2801498D01*
X6870000Y2565000D02*
X6871328D01*
X6753822D02*
X6870000D01*
X4969998Y3579002D02*
Y3706002D01*
X4903993D02*
X4969998D01*
X4840361D02*
X4903993D01*
X4832496Y7992496D02*
X4867500Y8027500D01*
X4824780Y8110220D02*
X4867500Y8067500D01*
Y8027500D02*
Y8067500D01*
X4366260Y8110220D02*
X4824780D01*
X4717501Y7992496D02*
X4832496D01*
X4755000Y6690000D02*
Y6830000D01*
X4850004Y6925004D01*
X7473567Y7859070D02*
Y7918285D01*
X7559998Y8004717D02*
X7560000D01*
X7473567Y7918285D02*
X7559998Y8004717D01*
X7363963Y7889997D02*
X7538967Y8065000D01*
X7588816D01*
X7617500Y7887437D02*
Y8031317D01*
X7287504Y7889997D02*
X7363963D01*
X7588816Y8065000D02*
X7622499Y8031317D01*
X7418028Y5719999D02*
X7428814Y5730785D01*
X7486655D01*
X7225000Y5719999D02*
X7418028D01*
X7598976Y4379199D02*
X7664964Y4445186D01*
X7661993Y4679575D02*
X7664964Y4676604D01*
X7184502Y4379199D02*
X7598976D01*
X7664964Y4445186D02*
Y4676604D01*
X7661993Y4679575D02*
Y4728309D01*
X7690000Y4756317D01*
X7777500Y3991620D02*
Y4980000D01*
X7760880Y3975000D02*
X7777500Y3991620D01*
X4850004Y6925004D02*
X4952503D01*
X6150000Y7630000D02*
X6155000Y7635000D01*
X6150000Y7260001D02*
Y7630000D01*
X7615001Y8182498D02*
X7622499Y8175000D01*
X6150000Y7260001D02*
X6347501Y7062500D01*
X7024781D01*
X7107072Y7144786D01*
X6207500Y7475000D02*
X6293874Y7388626D01*
Y7371126D02*
Y7388626D01*
X6317283Y7347717D02*
X6317498D01*
X6293874Y7371126D02*
X6317283Y7347717D01*
X3982501Y8017002D02*
X4000000Y7999503D01*
X2842499Y8232501D02*
X2965236Y8109763D01*
Y7914264D02*
Y8109763D01*
X3999996Y7819501D02*
Y7831213D01*
X4000000Y7831217D02*
Y7999503D01*
X3999996Y7831213D02*
X4000000Y7831217D01*
X5332498Y7997497D02*
X5335001Y7994995D01*
X12483749Y3151251D02*
X12490003Y3144998D01*
X14607500Y6454472D02*
X14672501Y6389471D01*
X6603921Y8091000D02*
X6677919Y8017002D01*
X8265003Y5569996D02*
Y6627498D01*
X9727504Y6579001D02*
X9887504Y6419002D01*
X7347000Y5323354D02*
X7354477Y5327767D01*
X7362500Y5332501D01*
X7431437Y4895581D02*
X7635333D01*
X7291585Y4755728D02*
X7431437Y4895581D01*
X7188972Y4755728D02*
X7291585D01*
X7462501Y4965000D02*
X7538496D01*
X7341412Y5323354D02*
X7347000D01*
X7184502Y4760199D02*
X7188972Y4755728D01*
X7555066Y4965000D02*
X7605997Y4973497D01*
X7538496Y4965000D02*
X7555066Y4965000D01*
X5799996Y3850000D02*
X5800001Y3849996D01*
X5503321Y4404258D02*
Y4528322D01*
X4692498Y4047500D02*
Y4115918D01*
X5439999Y3579002D02*
X5447655Y3586658D01*
X4692498Y4115918D02*
X4924080Y4347500D01*
X5707502Y4247500D02*
X5709216Y4249213D01*
X4924080Y4347500D02*
X5503321D01*
X5447655Y3586658D02*
X5539156D01*
X5318496Y4150959D02*
X5320995Y4148460D01*
X5013500Y5165000D02*
X5013500D01*
X5038500Y5140000D02*
X5277500D01*
X5013500Y5165000D02*
X5038500Y5140000D01*
X4998462Y5180038D02*
X5013500Y5165000D01*
X4987498Y5217500D02*
X4998462Y5206536D01*
Y5180038D02*
Y5206536D01*
X3207500Y3517500D02*
X3210000Y3515000D01*
X6676763Y7907212D02*
X6693972Y7890002D01*
X6545000Y7955000D02*
X6625000D01*
X6693972Y7890002D02*
X6797502D01*
X6672788Y7907212D02*
X6676763D01*
X6625000Y7955000D02*
X6672788Y7907212D01*
X9556022Y8008449D02*
Y8036482D01*
Y8008449D02*
X9585000Y7979471D01*
X9490000Y8102500D02*
Y8112502D01*
Y8102500D02*
X9490005D01*
X9556022Y8036482D01*
X9585000Y7970000D02*
Y7979471D01*
X14972861Y6015360D02*
X15032503D01*
X14779832Y5924870D02*
X14781938Y5926975D01*
X14884476D01*
X14972861Y6015360D01*
X14835001Y6267500D02*
X14867500Y6300000D01*
X15464999Y6007500D02*
X15472501Y5999998D01*
X15282500Y6074998D02*
X15297501Y6089999D01*
Y6122500D01*
X15325000Y6150000D01*
X14196060Y4785985D02*
X14247575Y4837501D01*
X14377502D02*
X14402501Y4862500D01*
X14247575Y4837501D02*
X14377502D01*
X14511140Y4567500D02*
X14548640Y4605000D01*
X2844998Y3457499D02*
X2905003Y3517504D01*
X2844998Y3342503D02*
Y3457499D01*
X4562500Y3815000D02*
X4569197Y3808303D01*
X4891932Y3465068D02*
X4956932D01*
X4969998Y3452002D01*
X4569197Y3787803D02*
Y3808303D01*
Y3787803D02*
X4891932Y3465068D01*
X3342495Y3517500D02*
X3342499Y3517504D01*
X3210000Y3515000D02*
X3212500Y3517500D01*
X6502500Y4780200D02*
Y4970002D01*
X6649502Y4633199D02*
X6714500D01*
X4775357Y5090003D02*
X4902855Y5217500D01*
X6502500Y4780200D02*
X6649502Y4633199D01*
X8532002Y5896823D02*
Y5974999D01*
X8497499Y5862320D02*
X8532002Y5896823D01*
X9219997Y6202497D02*
Y6207425D01*
X9237569Y6224996D01*
X9242496D01*
X9309501Y6292002D01*
X9482501D01*
X8499500Y7395500D02*
X8504001Y7400000D01*
X8487500Y7210000D02*
X8499500Y7222001D01*
X9329674Y7603002D02*
X9356674Y7576002D01*
X9432498D01*
X9117500Y7715000D02*
X9192429D01*
X9304427Y7603002D02*
X9329674D01*
X9192429Y7715000D02*
X9304427Y7603002D01*
X8557501Y7022501D02*
X8641971Y7106971D01*
X8412499Y7150001D02*
X8487498Y7075001D01*
Y7030002D02*
X8494999Y7022501D01*
X5567502Y7777500D02*
X5574199Y7770804D01*
X5596697D01*
X6030001Y7337500D01*
X12672502Y8296082D02*
X12708920Y8332500D01*
X9940000Y8234995D02*
X10002500Y8172501D01*
X12995880Y8332500D02*
X13439999Y7888381D01*
X12672502Y8235000D02*
Y8296082D01*
X12330000Y8064997D02*
X12332503Y8067500D01*
X12708920Y8332500D02*
X12995880D01*
X9940000Y8234995D02*
Y8244997D01*
X10609367Y8338576D02*
X12238878D01*
X10002500Y8172501D02*
X10443286D01*
X11485001Y8255000D02*
X11487501Y8252501D01*
X12238878Y8338576D02*
X12332503Y8244957D01*
Y8067500D02*
Y8244957D01*
X10443286Y8172501D02*
X10609367Y8338576D01*
X11352500Y8255000D02*
X11485001D01*
X6662202Y4887199D02*
X6682802D01*
X6350000Y5060005D02*
X6509995D01*
X6643725Y4905676D02*
X6662202Y4887199D01*
X6509995Y5060005D02*
X6643725Y4926276D01*
X6666620Y4887199D02*
X6682802D01*
X6643725Y4905676D02*
Y4926276D01*
X12757501Y7148500D02*
Y7332502D01*
X9197340Y3540999D02*
Y4031844D01*
X5204100Y4270000D02*
X5459215D01*
X5481716Y4247500D01*
X7437502Y3977500D02*
X7472501Y4012499D01*
X7477501D01*
X7272500Y3977500D02*
X7437502D01*
X7462500Y4964999D02*
X7462501Y4965000D01*
X8787464Y5089964D02*
Y5089964D01*
X8825999Y5128499D01*
X9085499D01*
X8745000Y5047500D02*
X8787464Y5089964D01*
X8642502Y5320304D02*
X8659002Y5336809D01*
X8642502Y4418178D02*
X8788400Y4272280D01*
X8642502Y4418178D02*
Y5320304D01*
X9204960Y4539539D02*
Y4620499D01*
X9837028Y4366499D02*
X9870529Y4400000D01*
X9880000D01*
X9529501Y4366499D02*
X9837028D01*
X9875804Y4833303D02*
X9882500Y4840000D01*
X9703501Y4638949D02*
Y4673999D01*
X9862806Y4833303D02*
X9875804D01*
X9703501Y4673999D02*
X9862806Y4833303D01*
X9737441Y4165600D02*
X9970135Y4398294D01*
Y4414865D01*
X10035002Y3990000D02*
X10165000Y4119998D01*
Y4127500D01*
X10035002Y3920002D02*
Y3990000D01*
X9572503Y3920002D02*
X9595788Y3943288D01*
X9645787D02*
X10142499Y4440000D01*
X10201250Y4434418D02*
Y4733752D01*
X10142499Y4440000D02*
Y4991252D01*
X9595788Y3943288D02*
X9645787D01*
X9672320Y3905489D02*
X10201250Y4434418D01*
X13887502Y5644728D02*
X13916441Y5673668D01*
Y5673943D01*
X10277500Y7785000D02*
Y7872500D01*
Y7785000D02*
X10362500Y7700000D01*
X5403479Y2944002D02*
X5439999D01*
X5384998Y2925526D02*
X5403479Y2944002D01*
X5384998Y2827498D02*
Y2925526D01*
X5302499Y2744998D02*
X5384998Y2827498D01*
X5302499Y2550003D02*
Y2744998D01*
X5455001Y2705003D02*
X5667507D01*
X5439999Y2720005D02*
Y2944002D01*
Y2720005D02*
X5455001Y2705003D01*
X5667507D02*
X5685003Y2722499D01*
X5302499Y2550003D02*
X5352501Y2500000D01*
X13795000Y5492500D02*
X13799998Y5487502D01*
X13795000Y5492500D02*
Y5951317D01*
X15507500Y2687498D02*
X15583305Y2763303D01*
X15260001Y2564999D02*
X15382500Y2687498D01*
X15499998D02*
X15507500D01*
X15382500D02*
X15390002D01*
X15190002Y2564999D02*
X15260001D01*
X15583305Y2763303D02*
X15618303D01*
X15625000Y2770000D01*
X15247498Y3127502D02*
X15352502Y3022498D01*
X14964999Y3127502D02*
X15247498D01*
X12285000Y7415000D02*
X12446317D01*
X6368303Y2584197D02*
X6375000Y2577500D01*
X6368303Y2584197D02*
Y2607635D01*
X3369996Y3342503D02*
X3375000D01*
X3392500Y3455000D02*
X3416716Y3479216D01*
Y3519216D02*
X3417500Y3520000D01*
X3375000Y3342503D02*
X3392500Y3360003D01*
Y3455000D01*
X9449501Y3032999D02*
X9520000Y2962500D01*
X9280002Y3032999D02*
X9449501D01*
X8357499Y7132498D02*
X8419998Y7069999D01*
X8357499Y7132498D02*
Y7820000D01*
X11247499Y4229999D02*
X11250000Y4232500D01*
X10915000Y4229999D02*
X11247499D01*
X11105000Y4162500D02*
X11105804Y4163304D01*
X11307120D01*
X11032500Y6917497D02*
X11042500Y6927497D01*
X11032500Y6917497D02*
X11142980D01*
X11042500Y6927497D02*
Y7037500D01*
X10413303Y7328303D02*
X10420000Y7335000D01*
X10270000Y7205004D02*
X10393300Y7328303D01*
X10413303D01*
X10254999Y7195002D02*
X10267500Y7207504D01*
X9902500Y7195002D02*
X10254999D01*
X10397433Y7060863D02*
X10541549Y7204980D01*
X10470332Y7448152D02*
X10541549Y7376935D01*
Y7204980D02*
Y7376935D01*
X10251130Y7448152D02*
X10470332D01*
X10249317Y7450003D02*
X10251130Y7448190D01*
X10122499Y7450003D02*
X10249317D01*
X10774378Y7381240D02*
X11158220D01*
X10437433Y6810260D02*
Y7044295D01*
X10774378Y7381240D01*
X10397433Y7060008D02*
Y7060863D01*
X10510000Y6680000D02*
X10570000Y6620000D01*
X10450000Y6551568D02*
X10530000Y6471568D01*
X10450000Y6551568D02*
Y6797693D01*
X10437433Y6810260D02*
X10450000Y6797693D01*
X10327500Y6832500D02*
X10392500Y6767500D01*
X10570000Y5705148D02*
Y6620000D01*
X12922580Y7082500D02*
X13180000D01*
X12674600Y6894500D02*
X12961398D01*
X12968398Y6887500D02*
X13073817D01*
X12961398Y6894500D02*
X12968398Y6887500D01*
X13073817D02*
X13359999Y7173681D01*
X12583303Y7399197D02*
Y7449197D01*
Y7399197D02*
X12590000Y7392500D01*
X12545002Y7487498D02*
X12583303Y7449197D01*
X13128815Y7372502D02*
X13230000Y7271317D01*
Y7270000D02*
Y7271317D01*
X13127496Y7372502D02*
X13128815D01*
X13230000Y7270000D02*
X13302498Y7197501D01*
X11999999Y7824700D02*
X12005000Y7819700D01*
Y7370602D02*
Y7819700D01*
X11974998Y7340600D02*
X12005000Y7370602D01*
X11974998Y7307494D02*
Y7340600D01*
X10967500Y7926971D02*
X10984999Y7944471D01*
X10967500Y7917500D02*
Y7926971D01*
X10984999Y7944471D02*
Y8080001D01*
X11734998Y6923999D02*
X11903999D01*
X11950000Y6970000D01*
X12075003Y6919470D02*
X12102500Y6946968D01*
Y7187499D01*
X12100001Y7189998D02*
X12102500Y7187499D01*
X11864540Y6669999D02*
X11932041Y6737500D01*
X11734998Y6669999D02*
X11864540D01*
X10450000Y6015000D02*
Y6402500D01*
X10352500Y6500000D02*
X10450000Y6402500D01*
X10490000Y5979998D02*
Y6455000D01*
X10300000Y6645000D02*
X10490000Y6455000D01*
X10530000Y5773682D02*
Y6471568D01*
X10464856Y5600004D02*
X10570000Y5705148D01*
X10277504Y5767502D02*
X10490000Y5979998D01*
X10401315Y5644998D02*
X10530000Y5773682D01*
X10150501Y6480501D02*
X10152500Y6482500D01*
X10150501Y6425000D02*
Y6480501D01*
X10017502Y6292002D02*
X10150501Y6425000D01*
X9952502Y6292002D02*
X10017502D01*
X10332500Y5897500D02*
X10450000Y6015000D01*
X10255001Y5767502D02*
X10277504D01*
X10252500Y5897500D02*
X10332500D01*
X10317501Y6154999D02*
X10392500Y6080000D01*
X9953004Y6037500D02*
X10160000D01*
X9952502Y6038002D02*
X9953004Y6037500D01*
X9139002Y5430997D02*
Y5948863D01*
X8913002Y6005049D02*
X8930502Y6022550D01*
X8913002Y6499997D02*
X8917751Y6504746D01*
X8883502Y5892962D02*
X8895502Y5904962D01*
X8847031Y5842897D02*
X8883502Y5879368D01*
X8847031Y5807032D02*
Y5842897D01*
X8830000Y5790001D02*
X8847031Y5807032D01*
X8883502Y5879368D02*
Y5892962D01*
X6682802Y4887199D02*
X6714500D01*
X7444215Y5113286D02*
X7462500Y5095001D01*
X7520000Y3005000D02*
Y3057500D01*
Y3005000D02*
X7525000Y3000000D01*
X7667498Y3061181D02*
Y3213505D01*
X7548817Y2942500D02*
X7667498Y3061181D01*
X7396251Y3181249D02*
X7520000Y3057500D01*
X7397500Y3002960D02*
X7457960Y2942500D01*
X7548817D01*
X7507501Y2832501D02*
X7724999Y3049999D01*
X7397500Y3002960D02*
Y3007500D01*
X7349502Y3055498D02*
X7397500Y3007500D01*
X5390002Y6132500D02*
X5427502Y6170000D01*
X5370423Y6132500D02*
X5390002D01*
X5270422Y6032500D02*
X5370423Y6132500D01*
X5267500Y6032500D02*
X5270422D01*
X2962498Y7663002D02*
Y7777500D01*
X2965236Y7914264D02*
X2975000Y7904500D01*
X2962498Y7777500D02*
Y7911526D01*
X3754999Y2957500D02*
X3764999Y2947500D01*
X3922500D01*
X5439999Y3198002D02*
X5440998Y3199001D01*
X5639001D01*
X5640000Y3200000D01*
X5626498Y3071002D02*
X5825531Y2871969D01*
X5439999Y3071002D02*
X5626498D01*
X5825531Y2713025D02*
Y2871969D01*
X7190003Y3055498D02*
X7349502D01*
X8634216Y3105000D02*
X8689215Y3159999D01*
X8810000D01*
X8625000Y3105000D02*
X8634216D01*
X8625000D02*
X8626109Y3106109D01*
X8615208Y3172514D02*
X8622037Y3165684D01*
X8626109Y3122678D01*
Y3106109D02*
Y3122678D01*
X8529417Y3237499D02*
X8615208Y3172514D01*
X8708028Y3725791D02*
X8765540Y3668278D01*
X8671709Y3725791D02*
X8708028D01*
X8607500Y3790000D02*
X8671709Y3725791D01*
X7190252Y3309747D02*
X7425003D01*
X6365000Y4762495D02*
X6367500D01*
X6230000Y4827499D02*
X6302497D01*
X6342500Y4784995D02*
X6365000Y4762495D01*
X6342500Y4784995D02*
Y4787495D01*
X6302497Y4827499D02*
X6342500Y4787495D01*
X6606146Y4513854D02*
X6631021D01*
X6638676Y4506199D01*
X6455000Y4573700D02*
X6649502Y4379199D01*
X6638676Y4506199D02*
X6714500D01*
X6512500Y4607500D02*
X6606146Y4513854D01*
X6455000Y4573700D02*
Y4830002D01*
X5994999Y5290002D02*
X6455000Y4830002D01*
X7207499Y6524000D02*
X7209249Y6525750D01*
X7478250D02*
X7480000Y6527500D01*
X7209249Y6525750D02*
X7478250D01*
X7345680Y6397000D02*
X7424181Y6318499D01*
X7377499Y7763002D02*
X7473567Y7859070D01*
X7617500Y7887437D02*
X7622499Y7882438D01*
X7287499Y7763002D02*
X7377499D01*
X7622499Y7732436D02*
X7695000Y7659935D01*
X7427498Y7347504D02*
X7482124D01*
X7695000Y7560380D02*
Y7659935D01*
X7482124Y7347504D02*
X7695000Y7560380D01*
X8827497Y8092500D02*
X8884997Y8150000D01*
X8932496D02*
X9017500Y8235004D01*
X8884997Y8150000D02*
X8932496D01*
X8809994Y8092500D02*
X8827497D01*
X8802497Y8085003D02*
X8809994Y8092500D01*
X8957503Y8330000D02*
X9072500D01*
X9227500Y8175000D01*
X8860000Y8232497D02*
X8957503Y8330000D01*
X8952500Y7806954D02*
X9047501Y7901955D01*
X8952500Y7626961D02*
Y7806954D01*
Y7626961D02*
X9050000Y7529461D01*
X8997500Y7771182D02*
X9105001Y7878683D01*
X8997500Y7645233D02*
Y7771182D01*
Y7645233D02*
X9090000Y7552733D01*
X9307500Y7678148D02*
Y7782504D01*
Y7678148D02*
X9342646Y7643002D01*
X9561998D01*
X9105001Y7985001D02*
X9227500Y8107500D01*
X9105001Y7878683D02*
Y7985001D01*
X9047501Y7901955D02*
Y7902500D01*
X9227500Y8107500D02*
Y8175000D01*
X10095529Y7307500D02*
X10105000D01*
X9903998Y7323501D02*
X10079528D01*
X10095529Y7307500D01*
X9902500Y7322002D02*
X9903998Y7323501D01*
X10011141Y7450003D02*
X10122499D01*
X11307848Y7448152D02*
X11390000Y7366000D01*
X11192500Y7622575D02*
X11280076Y7534999D01*
X11448816D01*
X11192500Y7622575D02*
Y7817368D01*
X9160000Y8151317D02*
Y8155000D01*
X9103681Y8094998D02*
X9160000Y8151317D01*
X9015000Y8094998D02*
X9103681D01*
X8860000Y8222497D02*
Y8232497D01*
X8447500Y6825005D02*
X8700000Y7077506D01*
Y7296002D01*
X8631001Y7365001D02*
X8700000Y7296002D01*
X8631001Y7365001D02*
Y7400000D01*
X8395005Y6825005D02*
X8447500D01*
X8390000Y6820000D02*
X8395005Y6825005D01*
X8265003Y5569996D02*
X8492500Y5342499D01*
X8664997Y6505992D02*
Y6707500D01*
Y6709999D01*
X8715781Y6760784D01*
X9197503Y7465004D02*
X9207500Y7455007D01*
Y7317500D02*
Y7455007D01*
X9213911Y7323911D02*
X9242407D01*
X9367498Y7449002D01*
X9207500Y7317500D02*
X9213911Y7323911D01*
X9146499Y7203500D02*
X9155998Y7194001D01*
X9090000Y7462581D02*
X9146499Y7406081D01*
Y7203500D02*
Y7406081D01*
X9155998Y7194001D02*
X9187500D01*
X9190000Y7160000D02*
X9225002Y7195002D01*
X9432498D01*
X9367498Y7449002D02*
X9432498D01*
X9190749Y7063252D02*
X9195499Y7068002D01*
X9432498D01*
X8885001Y7560085D02*
X8992499Y7452587D01*
X8885001Y7560085D02*
Y7924998D01*
X8992499Y7140174D02*
Y7452587D01*
X9050000Y7389998D02*
Y7529461D01*
X9090000Y7462581D02*
Y7552733D01*
X8992499Y7140174D02*
X9072672Y7060001D01*
X8995000Y8074998D02*
X9015000Y8094998D01*
X8574997Y8147503D02*
Y8237501D01*
Y8147503D02*
X8630000Y8092500D01*
X8630501Y8091999D01*
Y7925499D02*
X8631001Y7924998D01*
X8630501Y7925499D02*
Y8091999D01*
X6677919Y8017002D02*
X6797502D01*
X9962500Y3407502D02*
X9964999Y3410001D01*
X9962500Y3220000D02*
Y3407502D01*
X7775000Y3207871D02*
Y3412134D01*
X7735000Y3224439D02*
Y3395565D01*
X7724999Y3049999D02*
Y3214438D01*
Y3405567D02*
Y3666317D01*
X7667498Y3213505D02*
X7695000Y3241007D01*
X7764998Y3422135D02*
X7775000Y3412134D01*
X7724999Y3214438D02*
X7735000Y3224439D01*
X7764998Y3422135D02*
Y3698641D01*
X7724999Y3405567D02*
X7735000Y3395565D01*
X7667498Y3406499D02*
Y3642502D01*
X7764998Y3197869D02*
X7775000Y3207871D01*
X7667498Y3406499D02*
X7695000Y3378997D01*
Y3241007D02*
Y3378997D01*
X7764998Y3033431D02*
Y3197869D01*
X7191252Y3181249D02*
X7396251D01*
X7190003Y3182498D02*
X7191252Y3181249D01*
X6287500Y3487500D02*
X6338502Y3436498D01*
X6720002D01*
X6230000Y3511317D02*
X6263683Y3545000D01*
X6368817Y3487500D02*
X6565000D01*
X6263683Y3545000D02*
X6311317D01*
X6368817Y3487500D01*
X5781316Y4760001D02*
X5902500Y4638817D01*
X5662498Y4760001D02*
X5781316D01*
X5833816Y4512498D02*
X5902500Y4581182D01*
Y4638817D01*
X5677497Y4615000D02*
X5845000D01*
X5662498Y4629998D02*
X5677497Y4615000D01*
X5687497Y4512498D02*
X5833816D01*
X12708539Y5096048D02*
X12939999Y5327508D01*
X11836999Y5151528D02*
X11870387Y5184916D01*
X10060000Y3672500D02*
X10157500Y3770000D01*
X10042500Y3672500D02*
X10060000D01*
X10002500Y3632500D02*
X10042500Y3672500D01*
X14835001Y6207500D02*
Y6267500D01*
X12315144Y2919999D02*
X12330336Y2904807D01*
X11860002Y2946999D02*
X11887002Y2919999D01*
X12330336Y2904807D02*
X12339807D01*
X11887002Y2919999D02*
X12315144D01*
X11584075Y3410000D02*
X11616575Y3377500D01*
X12920000Y6767500D02*
X12962500Y6810000D01*
X12719802Y6767500D02*
X12920000D01*
X11737500Y8112500D02*
X11794181D01*
X11854180Y8052501D01*
X10200000Y6157498D02*
X10202499Y6154999D01*
X9960005Y6157498D02*
X10200000D01*
X9442501Y3812501D02*
Y3920002D01*
X9371186Y3662497D02*
X9456080D01*
X9372500Y3742500D02*
X9442501Y3812501D01*
X9314180Y3719503D02*
X9371186Y3662497D01*
X6410000Y2710148D02*
X6572648Y2547500D01*
X6736322D02*
X6753822Y2565000D01*
X6572648Y2547500D02*
X6736322D01*
X6410000Y2710148D02*
Y2810002D01*
X7249500Y4252199D02*
X7382805D01*
X7386252Y4248752D02*
X7447500Y4310000D01*
X7184502Y4252199D02*
X7249500D01*
X7382805D02*
X7472502Y4162501D01*
X7645000Y3975000D02*
X7760880D01*
X7742499Y2560001D02*
Y3010931D01*
Y2560001D02*
X7745000Y2557500D01*
X7487498Y2832501D02*
X7507501D01*
X9975505Y7711007D02*
X10089498Y7825000D01*
X9975505Y7703002D02*
Y7711007D01*
X10089498Y7876998D02*
X10095000Y7882500D01*
X10089498Y7825000D02*
Y7876998D01*
X11615000Y7757497D02*
X11625000D01*
X11765003Y7897500D01*
X11767500D01*
X12446317Y7415000D02*
X12647503Y7213813D01*
X12226181Y7487498D02*
X12545002D01*
X12167499Y7428816D02*
X12226181Y7487498D01*
X12167499Y7069999D02*
Y7428816D01*
X10825000Y7170000D02*
X11037495D01*
X11042498Y7175002D01*
X11037504Y7320000D02*
X11042498Y7315007D01*
X10882500Y7320000D02*
X11037504D01*
X11158220Y7381240D02*
X11198860Y7340600D01*
Y7304999D02*
Y7340600D01*
X15012500Y3960000D02*
X15097498Y4044997D01*
Y4120001D01*
X11447502Y2952500D02*
X11453002Y2946999D01*
X10755000Y2952500D02*
X11447502D01*
X11325865Y3101000D02*
X11352865Y3073999D01*
X11453002D01*
X11014999Y3137504D02*
X11314149D01*
X11325865Y3101000D02*
Y3125788D01*
X11314149Y3137504D02*
X11325865Y3125788D01*
X13249197Y2859197D02*
X13690002Y3300003D01*
X13242500Y2802500D02*
X13249197Y2809197D01*
Y2859197D01*
X12142504Y2817500D02*
X12242500Y2717504D01*
X10895000Y4631183D02*
X11098684Y4427499D01*
X11162218D01*
X12647503Y7123648D02*
X12682647Y7088500D01*
X12916582D01*
X12647503Y7123648D02*
Y7213813D01*
X9357502Y8115002D02*
X9377502Y8135002D01*
X9357502Y8087502D02*
Y8115002D01*
X9357502Y8087502D02*
X9357502Y8087502D01*
X10090000Y8230000D02*
X10337789D01*
X10170527Y7710002D02*
X10171332Y7709197D01*
X10220803D01*
X10139995Y7710002D02*
X10170527D01*
X10220803Y7709197D02*
X10227500Y7702500D01*
X10263682Y7939999D02*
X10335001D01*
X10142878Y7819195D02*
X10263682Y7939999D01*
X10032073Y7703002D02*
X10142878Y7813807D01*
X9975505Y7703002D02*
X10032073D01*
X10142878Y7813807D02*
Y7819195D01*
X9930531Y8097502D02*
X9945534Y8082500D01*
X10047500D01*
X9849996Y8097502D02*
X9930531D01*
X5470007Y3902507D02*
Y4025522D01*
X5450000Y4045529D02*
X5470007Y4025522D01*
X5450000Y4045529D02*
Y4055000D01*
X6442502Y3160002D02*
X6508307Y3094197D01*
X6520803D01*
X6527500Y3087500D01*
X6422502Y3177502D02*
X6427498Y3182498D01*
X7690000Y4756317D02*
Y4820000D01*
X7499995Y4585000D02*
X7507498Y4592503D01*
X7301199Y4506199D02*
X7380000Y4585000D01*
X7499995D01*
X7184502Y4506199D02*
X7301199D01*
X7472502Y4162501D02*
X7618685D01*
X7656186Y4125000D01*
X7662500D01*
X8475594Y4084528D02*
Y4214398D01*
X8522503Y4261307D01*
X8998290Y4063401D02*
X9004092Y4057843D01*
X8496717Y4063401D02*
X8998290D01*
X8475594Y4084528D02*
X8496717Y4063401D01*
X9837500Y3200000D02*
Y3597502D01*
X9872497Y3632500D01*
X9527499Y3340003D02*
X9670000Y3482504D01*
Y3487501D01*
X9527499Y3320004D02*
Y3340003D01*
X7205000Y3830000D02*
Y3840000D01*
X7071697Y3925803D02*
X7119196D01*
X7205000Y3840000D01*
X7065000Y3932500D02*
X7071697Y3925803D01*
X4690000Y4564996D02*
Y4687500D01*
X4776972D01*
X4830470Y4634001D01*
X4798999Y4761001D02*
X4924999D01*
X4747500Y4812500D02*
X4798999Y4761001D01*
X4924000Y4889001D02*
X4924999Y4888001D01*
X4635000Y4890000D02*
X4635999Y4889001D01*
X4924000D01*
X5162499Y7992496D02*
X5167500Y7997497D01*
X6499997Y7615001D02*
X6550000Y7564999D01*
X3982501Y8017002D02*
X3984502Y8015000D01*
X4271040D01*
X4312500Y7825935D02*
X4544060Y8057495D01*
X15372502Y4605000D02*
X15473680Y4706178D01*
X13690002Y3300003D02*
X13775000D01*
X14228008Y3300000D02*
X14400505Y3127502D01*
X13876093Y3300000D02*
X14228008D01*
X2647498Y2967502D02*
X2650500Y2964500D01*
X2842001D02*
X2844998Y2961503D01*
X2650500Y2964500D02*
X2842001D01*
X2844998Y2775001D02*
Y2961503D01*
X5440883Y3325886D02*
X5548970D01*
X5439999Y3325002D02*
X5440883Y3325886D01*
X5775000Y3340003D02*
X5777499D01*
X5548970Y3325886D02*
X5630291Y3407212D01*
X5704997Y3410001D02*
X5775000Y3340003D01*
X8497499Y3237499D02*
X8529417D01*
X4830470Y4634001D02*
X4889998D01*
X4907498Y4651502D02*
X4924999Y4634001D01*
X8862502Y7157502D02*
X8884961Y7135038D01*
X8909964D01*
X8862502Y7157502D02*
Y7342500D01*
X8885001Y7364999D02*
Y7400000D01*
X8862502Y7342500D02*
X8885001Y7364999D01*
X8909964Y7135038D02*
X9002502Y7042501D01*
X9952502Y6165002D02*
X9960005Y6157498D01*
X11142980Y6917497D02*
X11149482Y6923999D01*
X11264997D01*
X11361420D01*
X11390000Y6952579D01*
X10010140Y7449002D02*
X10011141Y7450003D01*
X9902500Y7449002D02*
X10010140D01*
X12075003Y6782501D02*
X12179300D01*
X12194301Y6767500D02*
X12302500D01*
X12179300Y6782501D02*
X12194301Y6767500D01*
X12916582Y7088500D02*
X12922580Y7082500D01*
X11390000Y6952579D02*
Y7366000D01*
X6422502Y3177502D02*
X6442502D01*
X12697501Y7540000D02*
X12959999D01*
X12694199Y7536698D02*
X12697501Y7540000D01*
X12666696Y7536698D02*
X12694199D01*
X12959999Y7540000D02*
X13127496Y7372502D01*
X12757501Y7332502D02*
Y7425533D01*
X12660000Y7523033D02*
X12757501Y7425533D01*
X12660000Y7529998D02*
X12666696Y7536698D01*
X12660000Y7523033D02*
Y7529998D01*
X13690001Y7262500D02*
X13822502Y7129998D01*
X13645003Y7262500D02*
X13690001D01*
X11972503Y7304999D02*
X11974998Y7307494D01*
X11734998Y7304999D02*
X11972503D01*
X9456080Y3662497D02*
X9522501D01*
X9334581Y3540999D02*
X9456080Y3662497D01*
X9280002Y3540999D02*
X9334581D01*
X9197340D02*
X9280002D01*
X8659002Y6499997D02*
X8664997Y6505992D01*
X5644998Y4892502D02*
X5646613Y4894118D01*
X6163381D01*
X6230000Y4827499D01*
X5449997Y4888001D02*
X5454498Y4892502D01*
X5644998D01*
X8545002Y4176969D02*
X8585002Y4216969D01*
X8545002Y4167500D02*
Y4176969D01*
X16625002Y6570502D02*
X16732500Y6678002D01*
X16475502Y6570502D02*
X16625002D01*
X14672501Y6380000D02*
Y6389471D01*
X15473680Y4706178D02*
Y4875002D01*
X15512502D01*
X14402501Y4862500D02*
Y4936500D01*
Y4727499D02*
Y4862500D01*
X11836999Y5044999D02*
Y5151528D01*
X10038994Y7647498D02*
X10077491D01*
X10139995Y7710002D01*
X11192500Y7817368D02*
Y7888484D01*
X11937210Y7488217D02*
Y7670300D01*
X11852504Y7755005D02*
X11937210Y7670300D01*
X11842504Y7755005D02*
X11852504D01*
X11448816Y7534999D02*
X11522500Y7461314D01*
Y7176939D02*
X11648440Y7050999D01*
X11522500Y7176939D02*
Y7461314D01*
X11352502Y7755001D02*
X11487500Y7889999D01*
X11342502Y7755001D02*
X11352502D01*
X11487500Y7889999D02*
Y7892500D01*
X11884421Y7435428D02*
X11937210Y7488217D01*
X11715577Y7435428D02*
X11884421D01*
X12775001Y5775000D02*
Y5782503D01*
X12844998Y5852500D01*
Y5947496D01*
X8786002Y6499997D02*
X8786751Y6500746D01*
Y6676751D02*
X8787500Y6677500D01*
X8786751Y6500746D02*
Y6676751D01*
X9829998Y8077505D02*
Y8145780D01*
Y8067502D02*
Y8077505D01*
X9849996Y8097502D01*
X4676282Y2955717D02*
X4687499Y2966933D01*
X5115997Y4181897D02*
X5204100Y4270000D01*
X6720002Y3309498D02*
Y3436498D01*
X6565000Y3487500D02*
X6633342Y3555843D01*
X12686980Y6594490D02*
Y6640500D01*
X8765540Y3540999D02*
Y3668278D01*
X9277497Y6352540D02*
X9580880D01*
X9277497D02*
X9580880D01*
X9277497D02*
X9580880D01*
X9277497D02*
X9580880D01*
X5622503Y4447499D02*
Y4447504D01*
Y4437502D02*
Y4447499D01*
X5450840Y5015001D02*
Y5086660D01*
X14605000Y6707500D02*
Y6756400D01*
Y6707500D02*
Y6756400D01*
Y6707500D02*
Y6756400D01*
X9220002Y5747375D02*
X9256629Y5784002D01*
X6073140Y4282501D02*
X6397498D01*
X3545129Y2822372D02*
X4687499D01*
X4797669D01*
X9867499Y5784002D02*
X10233503D01*
X10277505Y5739999D01*
X9204960Y4539539D02*
Y4620499D01*
X5115997Y4065961D02*
X5318496D01*
X3545129Y2822372D02*
X4797669D01*
X6073140Y4282501D02*
X6397498D01*
X9220002Y5747375D02*
X9256629Y5784002D01*
X14605000Y6707500D02*
Y6756400D01*
X6660932Y4778675D02*
Y4887199D01*
X5450840Y5015001D02*
Y5086660D01*
X9277497Y6352540D02*
X9580880D01*
X12686980Y6594490D02*
Y6640500D01*
X8465002Y2577501D02*
X9366108D01*
X14400505Y2873502D02*
X14521002D01*
X14341998Y2815001D02*
X14400505Y2873502D01*
X14112498Y2702499D02*
X14225002Y2815001D01*
X14341998D01*
X14112498Y2695001D02*
Y2702499D01*
X14092499Y2675001D02*
X14112498Y2695001D01*
X14085001Y2675001D02*
X14092499D01*
X14400505Y3127502D02*
X14521002D01*
X14072499Y3825001D02*
X14081973D01*
X9599996Y5439999D02*
X9612498Y5452501D01*
X9262501Y5439999D02*
X9599996D01*
X9612498Y5452501D02*
X9617502Y5447502D01*
X6495816Y6687500D02*
X6532316Y6651000D01*
X6717502D01*
X6487500Y6687500D02*
X6495816D01*
X6679408Y4760199D02*
X6714500D01*
X6660932Y4778675D02*
X6679408Y4760199D01*
X3387496Y2944002D02*
X3423498D01*
X3545129Y2822372D01*
X3369996Y2961503D02*
X3387496Y2944002D01*
X5449997Y4581647D02*
X5503321Y4528322D01*
X5449997Y4581647D02*
Y4634001D01*
X6397498Y4271940D02*
X6417239Y4252199D01*
X6714500D01*
X6649502Y4379199D02*
X6714500D01*
X6397498Y4282501D02*
X6400800Y4279199D01*
X5302499Y5767502D02*
X5309194Y5774197D01*
Y5789193D02*
X5440004Y5919998D01*
X5445003D01*
X5309194Y5774197D02*
Y5789193D01*
X5375001Y5622498D02*
X5405003Y5652501D01*
X5049002Y5595000D02*
X5352501D01*
X5375001Y5617500D01*
X5049002Y5595000D02*
Y5686003D01*
X5022002Y5713004D02*
X5049002Y5686003D01*
X5375001Y5617500D02*
Y5622498D01*
X11295380Y6432484D02*
X11301237Y6438341D01*
X11303168Y6440267D02*
X11342502Y6462502D01*
X11301237Y6438341D02*
X11303168Y6440267D01*
X11342502Y6462502D02*
X11534140Y6654140D01*
Y6705600D01*
X10142499Y4991252D02*
X10146248Y4995001D01*
X9773001Y4928001D02*
X9857501Y5012502D01*
X8659002Y5336809D02*
Y5974999D01*
X8727496Y5867400D02*
X8755101Y5895005D01*
X4687499Y2966933D02*
X4771928D01*
X4962342Y3063347D02*
X4969998Y3071002D01*
X4771928Y2966933D02*
X4868342Y3063347D01*
X4962342D01*
X4618218Y2955717D02*
X4676282D01*
X3705860Y2885440D02*
X4547941D01*
X4618218Y2955717D01*
X8802497Y8004495D02*
Y8085003D01*
X8758001Y7959999D02*
X8802497Y8004495D01*
X8758001Y7924998D02*
Y7959999D01*
X9072672Y7060001D02*
X9187500D01*
X5760242Y4429760D02*
X5925881D01*
X5752501Y4437502D02*
X5760242Y4429760D01*
X5925881D02*
X6073140Y4282501D01*
X12302500Y6894500D02*
Y7021500D01*
X12226676D02*
X12302500D01*
X12210674Y7037502D02*
X12226676Y7021500D01*
X12167499Y7069999D02*
X12200001Y7037502D01*
X12210674D01*
X9228501Y5911002D02*
X9482501D01*
X9220002Y5902503D02*
X9228501Y5911002D01*
X9612498Y5582498D02*
Y5846003D01*
X9547499Y5911002D02*
X9612498Y5846003D01*
X9482501Y5911002D02*
X9547499D01*
X3585002Y2957500D02*
X3633800D01*
X3705860Y2885440D01*
X9256629Y5784002D02*
X9482501D01*
X9220002Y5747375D02*
X9247053Y5720324D01*
Y5635447D02*
Y5720324D01*
Y5635447D02*
X9312499Y5570002D01*
X4797669Y2822372D02*
X4889724Y2914426D01*
Y2917901D01*
X4915819Y2944002D01*
X4969998D01*
X13439999Y7075698D02*
Y7888381D01*
X4872502Y5382499D02*
Y5690499D01*
X4895002Y5713004D01*
X10140000Y3454999D02*
X10915000Y4229999D01*
X8307502Y3399749D02*
X8317499Y3389752D01*
X8307502Y3399749D02*
Y3810000D01*
X7747498Y3752499D02*
X7754198Y3745804D01*
Y3709441D02*
X7764998Y3698641D01*
X7754198Y3709441D02*
Y3745804D01*
X7690002Y3717072D02*
Y3828816D01*
Y3717072D02*
X7723683Y3683386D01*
Y3667633D02*
X7724999Y3666317D01*
X7723683Y3667633D02*
Y3683386D01*
X5405003Y5652501D02*
X5410002D01*
X5720004Y2607498D02*
X5825531Y2713025D01*
X5720004Y2602499D02*
Y2607498D01*
X5685003Y2572497D02*
X5690001D01*
X5455001Y2564999D02*
X5677505D01*
X5685003Y2572497D01*
X5690001D02*
X5720004Y2602499D01*
X5554980Y4761001D02*
X5555981Y4760001D01*
X5662498D01*
X5449997Y4761001D02*
X5554980D01*
X5622503Y4447504D02*
X5687497Y4512498D01*
X5320000Y5217500D02*
X5450840Y5086660D01*
X2962498Y7663002D02*
X2975000Y7650500D01*
Y7777500D02*
Y7904500D01*
X11112002Y4762998D02*
X11225433D01*
X11067501Y4807499D02*
X11112002Y4762998D01*
X11296721Y4693498D02*
X11306724Y4683496D01*
X11294933Y4693498D02*
X11296721D01*
X11225433Y4762998D02*
X11294933Y4693498D01*
X11311504Y4733498D02*
X11438199D01*
X11197499Y4847499D02*
X11311504Y4733498D01*
X11306724Y4683496D02*
X11438199D01*
X12972501Y7617501D02*
X13359999Y7229998D01*
X12595001Y7637501D02*
Y7642494D01*
X12470100Y7767396D02*
X12595001Y7642494D01*
X12656317Y7617501D02*
X12972501D01*
X12447499Y7580000D02*
X12618817D01*
X12656317Y7617501D01*
X13006264Y5312501D02*
X13279999D01*
X12392000Y5096048D02*
X12708539D01*
X12983220Y5289413D02*
Y5289459D01*
X13006264Y5312501D01*
X7690002Y3828816D02*
X7804998Y3943817D01*
X8384809Y3322691D02*
X8391505Y3329391D01*
Y3356498D02*
X8517504Y3482497D01*
X8391505Y3329391D02*
Y3356498D01*
X8317499Y3108289D02*
X8418286Y3007502D01*
X8317499Y3108289D02*
Y3389752D01*
X8227502Y3398027D02*
Y3407501D01*
X8277499Y2775001D02*
Y3348030D01*
X8227502Y3398027D02*
X8277499Y3348030D01*
X7742499Y3010931D02*
X7764998Y3033431D01*
X10020000Y2924998D02*
X10107498Y3012501D01*
X9962500Y5280000D02*
X10087498D01*
X9875591Y5193091D02*
X9962500Y5280000D01*
X10696590Y4670913D02*
X10946872Y4420626D01*
X10630002Y4640001D02*
X10985002Y4285000D01*
X12236999Y5032299D02*
Y5203530D01*
X12392503Y5807502D02*
Y5937499D01*
X12036999Y5451998D02*
X12392503Y5807502D01*
X8415000Y5744119D02*
Y6382995D01*
X8487237Y6455232D01*
X8415000Y5744119D02*
X8499998Y5659120D01*
X8514502Y6455232D02*
X8532002Y6472733D01*
Y6499997D01*
X8487237Y6455232D02*
X8514502D01*
X9784999Y5577500D02*
X9852503Y5644998D01*
X10401315D01*
X10277505Y5739999D02*
X10395001D01*
X9887504Y6419002D02*
X9952502D01*
X10058400Y5600004D02*
X10464856D01*
X12227499Y7287499D02*
X12234194Y7280803D01*
Y7166976D02*
Y7280803D01*
X8430001Y2955000D02*
X8570001Y2815001D01*
X8690000D01*
X8430001Y2955000D02*
Y2995783D01*
X9809998Y8165780D02*
X9829998Y8145780D01*
X9880001Y2782504D02*
X9884999Y2777500D01*
X9599996Y2782504D02*
X9880001D01*
X14245590Y6042370D02*
X14483350D01*
X14205000Y6001781D02*
X14245590Y6042370D01*
X14205000Y5912957D02*
Y6001781D01*
Y5912957D02*
X14245590Y5872368D01*
X14483350Y6042370D02*
X14610258Y5915462D01*
X7107072Y7144786D02*
Y7145000D01*
X6420002D02*
X7107072D01*
X5657499Y5290002D02*
X5994999D01*
X6545001Y3712505D02*
X6594998Y3762502D01*
X6434999Y3712505D02*
X6545001D01*
X6633342Y3555843D02*
X6712346D01*
X6720002Y3563498D01*
X16017499Y6697502D02*
X16249498D01*
X11648648Y7114499D02*
X11821353D01*
X11137636Y7762504D02*
X11192500Y7817368D01*
X11062498Y7762504D02*
X11137636D01*
X12724552Y4791070D02*
Y4834550D01*
X10140000Y3450001D02*
Y3454999D01*
X10100000Y3410001D02*
X10140000Y3450001D01*
X10095001Y3410001D02*
X10100000D01*
X12387001Y5091049D02*
X12392000Y5096048D01*
X12387001Y5032299D02*
Y5091049D01*
X14162898Y3635502D02*
X14521002D01*
X9098280Y3952499D02*
X9100002Y3912499D01*
X9097609Y3968029D02*
X9098280Y3952499D01*
X9091945Y3973693D02*
X9097609Y3968029D01*
X9004092Y4057843D02*
X9091945Y3973693D01*
X8522503Y4502501D02*
X8527501Y4507499D01*
X8522503Y4261307D02*
Y4502501D01*
X14589999Y4257502D02*
Y4317502D01*
X14593753Y4321256D02*
X14659641Y4387144D01*
X14887498D01*
X7340001Y3834999D02*
X7344999Y3830000D01*
X7379492Y3887673D02*
X7477501Y3985682D01*
X7344999Y3830000D02*
X7379492Y3887673D01*
X7477501Y3985682D02*
Y4002496D01*
X7274560Y4125199D02*
X7387260Y4012499D01*
X7184502Y4125199D02*
X7274560D01*
X11327313Y4183497D02*
X11438199D01*
X11307120Y4163304D02*
X11327313Y4183497D01*
X13047502Y5157500D02*
X13114999D01*
X12844998Y5947496D02*
X12847498Y5949996D01*
X12490003Y2824998D02*
Y3144998D01*
X12197502Y6121319D02*
X12542500Y6466317D01*
X12157502Y6054999D02*
X12197502Y6094999D01*
Y6121319D01*
X12542500Y6466317D02*
Y6640002D01*
X12447773Y6285291D02*
X12597501Y6415806D01*
X12399071Y6240003D02*
X12409216Y6250148D01*
X12397501Y6239998D02*
X12399071Y6240003D01*
X12409216Y6250148D02*
X12447773Y6285291D01*
X12397501Y6072500D02*
Y6239998D01*
X12392503Y6067501D02*
X12397501Y6072500D01*
X12877800Y6513500D02*
X13439999Y7075698D01*
X13359999Y7173681D02*
Y7229998D01*
X13399998Y7129998D02*
Y7364999D01*
X12992496Y7772502D02*
X13399998Y7364999D01*
X12910500Y6640500D02*
X13399998Y7129998D01*
X14610258Y5817697D02*
X14697954Y5730001D01*
X15020000D01*
X14610258Y5817697D02*
Y5915462D01*
X14779832Y5794868D02*
X15009155D01*
X15020000Y5805714D01*
X14260571Y5859866D02*
X14339835D01*
X14248064Y5872368D02*
X14260571Y5859866D01*
X14245590Y5872368D02*
X14248064D01*
X14605000Y6756400D02*
X14658340Y6809740D01*
X15087601D01*
X15179497Y6901637D01*
Y6977502D01*
X14152499Y6654800D02*
X14205199Y6707500D01*
X14605000D02*
X14607500D01*
X8758001Y7028002D02*
Y7400000D01*
X12252676Y7148500D02*
X12302500D01*
X12234194Y7166976D02*
X12252676Y7148500D01*
X12772502Y6640500D02*
X12910500D01*
X12597501Y6415806D02*
Y6625001D01*
X12647498Y6745000D02*
Y6867398D01*
X12542500Y6640002D02*
X12647498Y6745000D01*
X12701326Y6749024D02*
X12719802Y6767500D01*
X12701326Y6728826D02*
Y6749024D01*
X12597501Y6625001D02*
X12701326Y6728826D01*
X12620000Y6075004D02*
X12646350Y6101354D01*
Y6553860D01*
X12647498Y6867398D02*
X12674600Y6894500D01*
X9906000Y7830002D02*
X10055997Y7979999D01*
X12285000Y7742499D02*
X12447499Y7580000D01*
X12750002Y7772502D02*
X12992496D01*
X9967498Y7576002D02*
X10038994Y7647498D01*
X8357499Y7820000D02*
X8458215Y7920716D01*
X10233497Y5911002D02*
X10240000Y5917504D01*
X10078720Y5911002D02*
X10233497D01*
X9952502D02*
X10078720D01*
X10040000Y5499999D02*
Y5581604D01*
Y5482499D02*
Y5499999D01*
X11030001Y5968721D02*
Y6387495D01*
Y5968721D02*
X11031220Y5967501D01*
X8685002Y3474217D02*
X8745220Y3413999D01*
X8685002Y3657498D02*
X8687501Y3659998D01*
X8685002Y3474217D02*
Y3657498D01*
X6582501Y7222500D02*
X6594998D01*
X6745000Y7372497D01*
X6317717Y7247285D02*
X6420002Y7145000D01*
X5212502Y3820003D02*
X5397500D01*
X5467502Y3890000D01*
X9254998Y7835001D02*
X9307500Y7782504D01*
X9245001Y7835001D02*
X9254998D01*
X9561998Y7643002D02*
X9609999Y7595001D01*
Y7434504D02*
Y7595001D01*
X9497497Y7322002D02*
X9609999Y7434504D01*
X9432498Y7322002D02*
X9497497D01*
X8517504Y3482497D02*
X8527501D01*
X9894214Y3909217D02*
X9904999Y3920002D01*
X9831715Y3909217D02*
X9894214D01*
X9747499Y3825001D02*
X9831715Y3909217D01*
X12847498Y6079998D02*
Y6084997D01*
X12898120Y6135619D01*
Y6493180D01*
X12192498Y7767498D02*
X12203902Y7756093D01*
X12273285D01*
X12285000Y7742499D02*
Y7744379D01*
X12273285Y7756093D02*
X12285000Y7744379D01*
X9529501Y5128499D02*
X9583003Y5182001D01*
X9722002D01*
X9980000Y5439999D01*
X9997501D01*
X10040000Y5482499D01*
X9371559Y6546002D02*
X9482501D01*
X9370060Y6547500D02*
X9371559Y6546002D01*
X9260002Y6547500D02*
X9370060D01*
X9482501Y6419002D02*
Y6546002D01*
Y6038002D02*
X9588922D01*
X9608820Y6057900D01*
Y6324600D01*
X9580880Y6352540D02*
X9608820Y6324600D01*
X9277497Y6352540D02*
Y6372499D01*
X11042498Y7315007D02*
X11099800D01*
Y7241540D02*
Y7315007D01*
Y7241540D02*
X11163341Y7177999D01*
X11264997D01*
Y7050999D02*
Y7177999D01*
X11135116Y6372499D02*
X11227496D01*
X11120120Y6387495D02*
X11135116Y6372499D01*
X11030001Y6387495D02*
X11120120D01*
X7190003Y3309498D02*
X7190252Y3309747D01*
X7425003Y3307503D02*
X7529996D01*
X7535000Y3312507D01*
X9529501Y4874499D02*
X9583003Y4928001D01*
X9773001D01*
X8786002Y5895005D02*
Y5974999D01*
X8755101Y5895005D02*
X8786002D01*
X8818641Y4366499D02*
X9085499D01*
X10040000Y5581604D02*
X10058400Y5600004D01*
X9529501Y4620499D02*
X9703501Y4638949D01*
X8678845Y3321655D02*
Y3394629D01*
Y3321655D02*
X8706825Y3293674D01*
X8678845Y3394629D02*
X8690559Y3406343D01*
X8737564D01*
X8745220Y3413999D01*
X8810000D01*
X8706825Y3293674D02*
X8803325D01*
X8810000Y3286999D01*
X9592498Y2789997D02*
X9599996Y2782504D01*
X9582501Y2789997D02*
X9592498D01*
X9466499Y2905999D02*
X9582501Y2789997D01*
X9280002Y2905999D02*
X9466499D01*
X9494495Y3286999D02*
X9527499Y3320004D01*
X9280002Y3286999D02*
X9494495D01*
X8765540Y3540999D02*
X8810000D01*
X9389857Y3119999D02*
X9532498D01*
X9537502D02*
X9577502Y3079999D01*
X9532498Y3119999D02*
X9537502D01*
X9349857Y3159999D02*
X9389857Y3119999D01*
X9280002Y3159999D02*
X9349857D01*
X9723303Y2924195D02*
X9729998Y2917500D01*
X9577502Y3057576D02*
X9710877Y2924195D01*
X9577502Y3057576D02*
Y3079999D01*
X9710877Y2924195D02*
X9723303D01*
X8418286Y3007502D02*
X8430001Y2995783D01*
X8690000Y2815001D02*
X8718347Y2786654D01*
X8802345D01*
X8810000Y2778999D01*
X9617502Y5447502D02*
X9775002D01*
Y5577500D02*
X9784999D01*
X8458215Y7920716D02*
X8499719D01*
X8504001Y7924998D01*
X9902500Y7830002D02*
X9906000D01*
X9809998Y8165780D02*
Y8244997D01*
X9902500Y7576002D02*
X9967498D01*
X9432498Y7703002D02*
Y7830002D01*
X9357502Y7904998D02*
X9432498Y7830002D01*
X9357502Y7904998D02*
Y8087502D01*
X9902500Y7703002D02*
X9975505D01*
X7251700Y4633199D02*
X7358502Y4740001D01*
X7429998D01*
X7184502Y4633199D02*
X7251700D01*
X6862425Y7467498D02*
X6979925Y7349998D01*
X6700002Y7467498D02*
X6862425D01*
X6979925Y7349998D02*
X7102287D01*
X6555003Y7399995D02*
X6582501Y7372497D01*
X6510543Y7399995D02*
X6555003D01*
X6341593Y7568951D02*
X6510543Y7399995D01*
X6341593Y7568951D02*
Y7577765D01*
X6304570Y7614783D02*
X6341593Y7577765D01*
X6304570Y7614783D02*
Y7615001D01*
X6405001D02*
X6499997D01*
X7391502Y2928498D02*
X7487498Y2832501D01*
X7190003Y2928498D02*
X7391502D01*
X6317498Y7247285D02*
X6317717D01*
X7174093Y7158411D02*
X7187499Y7145000D01*
X7174093Y7158411D02*
Y7167438D01*
X7119031Y7222500D02*
X7174093Y7167438D01*
X6827500Y7222500D02*
X7119031D01*
X6745000Y7372497D02*
X6827500D01*
X4615002Y7897419D02*
X4632579Y7914996D01*
X4704999D02*
X4717501Y7927497D01*
X4692498Y3853866D02*
Y3917498D01*
Y3853866D02*
X4840361Y3706002D01*
X7415002Y7200001D02*
X7427498D01*
X7264999Y7349998D02*
X7415002Y7200001D01*
X7182714Y7349998D02*
X7264999D01*
X4757501Y5307503D02*
Y5702503D01*
X4768002Y5713004D01*
X5580004Y5890001D02*
X5610001Y5919998D01*
X5580004Y5652501D02*
Y5890001D01*
X5572501Y5957499D02*
X5610001Y5919998D01*
X5572501Y5957499D02*
Y6170000D01*
X3382004Y7777500D02*
X3812997D01*
X3817498Y7782001D01*
X11629370Y6800830D02*
X11633200Y6796999D01*
X12772502Y6513500D02*
X12877800D01*
X9085499Y4620499D02*
X9204960D01*
Y4539539D02*
X9299499Y4445000D01*
Y4288079D02*
Y4445000D01*
X9283700Y4272280D02*
X9299499Y4288079D01*
X8788400Y4272280D02*
X9283700D01*
X11854180Y8052501D02*
X11942501D01*
X11198860Y7304999D02*
X11264997D01*
X11648440Y7050999D02*
X11734998D01*
X11633200Y6796999D02*
X11734998D01*
X11534140Y6705600D02*
X11629370Y6800830D01*
X5115997Y4105961D02*
Y4181897D01*
X4271040Y8015000D02*
X4366260Y8110220D01*
X5439999Y3452002D02*
X5537200D01*
X12686980Y6640500D02*
X12772502D01*
X12646350Y6553860D02*
X12686980Y6594490D01*
X5449997Y5015001D02*
X5450840D01*
X12173280Y3077500D02*
X12222500D01*
X12169780Y3073999D02*
X12173280Y3077500D01*
X11860002Y3073999D02*
X12169780D01*
X5115997Y4065961D02*
Y4105961D01*
X12877800Y6513500D02*
X12898120Y6493180D01*
X12599035Y2824998D02*
X12601534Y2822499D01*
X12490003Y2824998D02*
X12599035D01*
X4864562Y3198002D02*
X4969998D01*
X4861560Y3195000D02*
X4864562Y3198002D01*
X4757501Y3195000D02*
X4861560D01*
X11158322Y6542999D02*
X11264997D01*
X11132820Y6517498D02*
X11158322Y6542999D01*
X11030001Y6517498D02*
X11132820D01*
X7207499Y6397000D02*
X7345680D01*
X3660195Y7552004D02*
X3842496D01*
X3561699Y7650500D02*
X3660195Y7552004D01*
X3382004Y7650500D02*
X3561699D01*
X3651341Y8017002D02*
X3812499D01*
X3538839Y7904500D02*
X3651341Y8017002D01*
X3382004Y7904500D02*
X3538839D01*
X11005002Y2819999D02*
X11453002D01*
X12039559Y2817500D02*
X12142504D01*
X12037060Y2819999D02*
X12039559Y2817500D01*
X11860002Y2819999D02*
X12037060D01*
X3369996Y3088503D02*
X3370499Y3088000D01*
X3584499D01*
X3585002Y3087502D01*
X3754999Y3087497D01*
D112*
X3954395Y4075193D02*
X4008673Y4020915D01*
Y3951327D02*
X4012500Y3947500D01*
X4008673Y3951327D02*
Y4020915D01*
X3912307Y4075193D02*
X3954395D01*
X3905000Y4082500D02*
X3912307Y4075193D01*
X3645000Y4082500D02*
X3905000D01*
X2670503Y3215503D02*
X2844998D01*
X2650000Y3236005D02*
X2670503Y3215503D01*
X2650000Y3236005D02*
Y3475000D01*
X2742500Y3567500D02*
Y3570000D01*
X2650000Y3475000D02*
X2742500Y3567500D01*
D113*
X7632500Y7085064D02*
Y7126765D01*
X7635310Y7129575D01*
X7702075D01*
X7762500Y7190000D01*
X7603836Y6995000D02*
X7897500D01*
X8592500Y5465000D02*
Y5471765D01*
X8574999Y5489266D02*
X8592500Y5471765D01*
X15347501Y7836500D02*
X15467999D01*
X15634500Y7670000D01*
X16180000D01*
X16185001D01*
X16875000Y6980000D01*
Y6504501D02*
Y6980000D01*
X6831002Y8440310D02*
X12360280D01*
X12360593Y8439997D01*
X6556501Y8168309D02*
X6558501Y8166309D01*
X6533426Y8168309D02*
X6556501D01*
X6558501Y8166309D02*
X6901191D01*
X7385000Y5268002D02*
X7405503Y5247500D01*
X7516997Y5160001D01*
X7362500Y5332501D02*
X7375000Y5305512D01*
X7378910Y5301603D01*
X7532872Y5144126D02*
X7533077Y5144126D01*
X7516997Y5160001D02*
X7532872Y5144126D01*
X7378910Y5301603D02*
X7385000Y5268002D01*
X17109999Y3255000D02*
X17342500D01*
Y3610000D01*
X17512502Y3589996D02*
X17625807Y3476697D01*
X17512502Y3589996D02*
Y3609996D01*
X5349646Y7700000D02*
X5349823Y7699824D01*
Y7542126D02*
X5349999Y7541950D01*
X5195584Y7541922D02*
X5349970D01*
X5349823Y7542126D02*
Y7699824D01*
X5349970Y7541922D02*
X5349999Y7541950D01*
X5160005Y7577501D02*
X5195584Y7541922D01*
X5985001Y7041139D02*
X6027500Y6998639D01*
Y6815865D02*
Y6998639D01*
X5985001Y7041139D02*
Y7155917D01*
X5690610Y7450308D02*
X5985001Y7155917D01*
X5947122Y6735488D02*
X6027500Y6815865D01*
X5947122Y6567121D02*
Y6735488D01*
X5862861Y6482860D02*
X5947122Y6567121D01*
X5255000Y7127432D02*
X5392429Y6990003D01*
X5255000Y7127432D02*
Y7309157D01*
X5285001Y7250001D02*
Y7295001D01*
X5380108Y7390108D01*
X5392429Y6990003D02*
X5397501D01*
X6797502Y7763002D02*
X6928002D01*
X14937329Y7157674D02*
X15414828D01*
X17321501Y6794500D02*
X17708000D01*
X17172002D02*
X17321501D01*
X14609999Y6969999D02*
X14844994D01*
X17247849Y3590342D02*
X17342847D01*
X17164999Y3255000D02*
X17435246Y2984754D01*
X17130080Y3509923D02*
X17167432D01*
X7276426Y7459309D02*
X7284999D01*
X5024303Y8304997D02*
X5044429Y8284871D01*
X5159616Y8059995D02*
X5162308Y8057303D01*
X5405001Y6997503D02*
X5485004D01*
X5460108Y7390108D02*
X5525000Y7455000D01*
X5380108Y7390108D02*
X5460108D01*
X14043233Y6191814D02*
X14619315D01*
X14042500D02*
X14043233D01*
X14002499Y6231814D02*
Y6750000D01*
X14144676Y6804764D02*
X14152499Y6812588D01*
X14002499Y6750000D02*
X14057265Y6804764D01*
X14144676D01*
X5707502Y4045002D02*
Y4247500D01*
X7879349Y4625883D02*
Y5077648D01*
X7436998Y5520000D02*
X7879349Y5077648D01*
X6898004Y5520000D02*
X7436998D01*
X6980000Y5315000D02*
X7167500D01*
X6977500Y5312500D02*
X6980000Y5315000D01*
X7210729Y5200000D02*
X7341412Y5323354D01*
X7447498Y5332501D02*
X7495002D01*
X7615001Y8257499D02*
X8044108D01*
X3475000Y5822500D02*
Y6242500D01*
X4752500Y7520000D01*
X14002499Y6231814D02*
X14042500Y6191814D01*
X11042984Y3279511D02*
X12165487D01*
X12222500Y3222498D01*
X11027496Y3294999D02*
X11042984Y3279511D01*
X4927500Y4452500D02*
X4934265D01*
X4956765Y4475000D01*
X5390738D02*
X5408236Y4492498D01*
X5415001D01*
X4956765Y4475000D02*
X5390738D01*
X7514000Y5551000D02*
X7600002D01*
X16750806Y6926541D02*
Y6933306D01*
Y6926541D02*
X16777499Y6899847D01*
Y6510475D02*
Y6899847D01*
X15410072Y2869926D02*
X15739999Y3199852D01*
Y5690000D01*
X15605000Y5825000D02*
X15739999Y5690000D01*
X12537500Y3765888D02*
Y3782498D01*
X12535000Y3711612D02*
Y3763388D01*
X12537500Y3765888D01*
Y3688861D02*
Y3709112D01*
X12535000Y3711612D02*
X12537500Y3709112D01*
X12614114Y3662500D02*
X12710830Y3759216D01*
X12435302Y3884696D02*
X12537500Y3782498D01*
Y3688861D02*
X12563861Y3662500D01*
X12614114D01*
X10175000Y2490000D02*
X12304497D01*
X10125000Y2540000D02*
X10175000Y2490000D01*
X15527000Y2500000D02*
X16163498Y3136499D01*
X12314497Y2500000D02*
X15527000D01*
X12304497Y2490000D02*
X12314497Y2500000D01*
X12289998Y3361610D02*
X12467500Y3539112D01*
X12830705Y3759216D02*
X12885745Y3814257D01*
X12710830Y3759216D02*
X12830705D01*
X17137500Y6829001D02*
Y7009970D01*
Y6829001D02*
X17172002Y6794500D01*
X17087500Y7059970D02*
X17137500Y7009970D01*
X17087500Y7059970D02*
Y7062500D01*
X17462500Y7382500D02*
X17467500D01*
X17339999Y7260000D02*
X17462500Y7382500D01*
X17339999Y7120000D02*
Y7260000D01*
X5162499Y7927497D02*
X5456963D01*
X17675000Y7382500D02*
X17767500Y7290000D01*
X17467500Y7382500D02*
X17675000D01*
X17767500Y7205000D02*
Y7290000D01*
X16939999Y6925000D02*
Y7020000D01*
X17060001Y7140000D01*
X17377499D01*
X16939999Y6827501D02*
Y6925000D01*
X14703526Y4730410D02*
X14726559Y4753442D01*
X13132500Y3970000D02*
Y4596886D01*
X13051947Y4677438D02*
X13132500Y4596886D01*
X15853642Y5923858D02*
Y5991910D01*
X15680000Y6165552D02*
X15853642Y5991910D01*
X12992502Y4969998D02*
X14010001D01*
X13051947Y4677438D02*
Y4900554D01*
X13001788Y4950714D02*
X13051947Y4900554D01*
X13030002Y4757502D02*
Y4913031D01*
X14140408Y4646302D02*
Y4849541D01*
Y4646302D02*
X14264211Y4522500D01*
X14834113D01*
X14861612Y4550000D01*
X15395284D01*
X15405283Y4560000D01*
X15482500D01*
X16169994Y4845000D02*
X16170000D01*
X16170000D02*
X16275002Y4950001D01*
X16662500Y5775000D02*
X16984198Y6096697D01*
X16988506Y5707500D02*
X17252498Y5971491D01*
X17102998Y6306500D02*
X17252498D01*
X16297501Y5707500D02*
X16988506D01*
X16070000D02*
X16297501D01*
X17023570Y6227073D02*
X17102998Y6306500D01*
X16984198Y6096697D02*
Y6187699D01*
X16082500Y5280000D02*
X16202499Y5400000D01*
Y5504496D01*
X16310504Y5612500D01*
X16620000D01*
X16660001Y5572500D01*
X16082500Y5275000D02*
Y5280000D01*
X17522498Y5902500D02*
X17600000Y5980003D01*
X17302499Y5902500D02*
X17522498D01*
X15853642Y5923858D02*
X16070000Y5707500D01*
X14574998Y5439999D02*
X14835002D01*
X14567499Y5432501D02*
X14574998Y5439999D01*
X14835002D02*
X15127498D01*
X13182001Y5994613D02*
X13861613Y5315001D01*
X13177338Y5999277D02*
Y6287628D01*
X13861613Y5315001D02*
X14032500D01*
X14117497Y5399999D02*
Y5432501D01*
X14032500Y5315001D02*
X14117497Y5399999D01*
X11752501Y5415001D02*
X11875000Y5537500D01*
X11640409Y5337912D02*
X11717498Y5415001D01*
X11752501D01*
X11640409Y5306121D02*
Y5337912D01*
X15414999Y5245000D02*
Y5333239D01*
X15380000Y5602500D02*
Y5757499D01*
X15289999Y5575003D02*
Y5752499D01*
X15272066Y5439999D02*
Y5749564D01*
X15282500Y5759999D02*
X15289999Y5752499D01*
X15414999Y5333239D02*
X15415219Y5333457D01*
X15037498Y6145000D02*
X15095003Y6202502D01*
X15018298Y6662501D02*
X15127254D01*
X13000000Y3837500D02*
X13132500Y3970000D01*
X12935001Y4990000D02*
X12939783Y4985217D01*
X12977283D02*
X12992502Y4969998D01*
X12939783Y4985217D02*
X12977283D01*
X13174965Y6290000D02*
X13177338Y6287628D01*
X13990930Y7267499D02*
X14254500D01*
X14487500Y6385000D02*
Y6574999D01*
X14522572Y6610072D01*
X14605072D01*
X12953296Y4680797D02*
X13030002Y4757502D01*
X16137500Y7260000D02*
Y7432500D01*
X16035001Y7157502D02*
X16137500Y7260000D01*
X15415001Y7157502D02*
X16035001D01*
X4717501Y7862494D02*
X4750000D01*
X4752500Y7520000D02*
Y7859994D01*
X4750000Y7862494D02*
X4752500Y7859994D01*
X7820000Y3430774D02*
Y3877498D01*
Y3430774D02*
X7820000Y3430773D01*
X7820000Y3877498D02*
X7927503Y3985001D01*
X7810002Y3179233D02*
X7820000Y3189231D01*
Y3430773D01*
X5582144Y6795002D02*
X5669646Y6707500D01*
X7810002Y2735001D02*
Y3179233D01*
X5837499Y6457498D02*
X5860740Y6480738D01*
X5949244Y6565000D02*
X6415000D01*
X5837499Y6329319D02*
Y6457498D01*
X6415000Y6565000D02*
X6416249Y6563751D01*
Y6401251D02*
X6419002Y6398499D01*
X6416249Y6401251D02*
Y6563751D01*
X16960324Y2791162D02*
X16961487Y2790000D01*
X16939999Y2802285D02*
X16951122Y2791162D01*
X16960324D01*
X7837500Y4147500D02*
Y4584034D01*
X7879349Y4625883D01*
X16574998Y4666414D02*
Y5242498D01*
X16585001Y4650999D02*
Y4656411D01*
X16382503Y5435001D02*
X16574998Y5242498D01*
Y4666414D02*
X16585001Y4656411D01*
X16920073Y5180000D02*
X16962502D01*
X17795000Y5987500D02*
Y6475000D01*
X16900073Y5160000D02*
X16920073Y5180000D01*
X17125000Y5317500D02*
X17795000Y5987500D01*
X17624501Y6645499D02*
X17795000Y6475000D01*
X17453000Y6667500D02*
X17475002Y6645499D01*
X17624501D01*
X16805000Y3018429D02*
X16853433Y2970002D01*
X16967500D01*
X17029999Y3032501D01*
X16961487Y2790000D02*
X17075003Y2903516D01*
Y3136499D01*
X6735003Y5592999D02*
X6825005D01*
X6489502D02*
X6735003D01*
X6392702Y5689798D02*
Y5792363D01*
Y5689798D02*
X6489502Y5592999D01*
X6716004Y6398499D02*
X6717502Y6397000D01*
X6419002Y6398499D02*
X6716004D01*
X16175105Y2883184D02*
Y3136397D01*
X16174998Y3136499D02*
X16175105Y3136397D01*
X16154420Y2862499D02*
X16175105Y2883184D01*
X16180363Y3136499D02*
X16203606Y3159740D01*
X16163498Y3136499D02*
X16174998D01*
X16139998Y3171500D02*
X16174998Y3136499D01*
X16203606Y3159740D02*
X16595105D01*
X16139998Y3171500D02*
Y3294791D01*
Y3514999D02*
X16154999D01*
X16140105Y3320105D02*
X16165002Y3345002D01*
X16140105Y3295106D02*
Y3320105D01*
X16165002Y3345002D02*
X16192651D01*
X16214999Y3367349D01*
Y3471570D01*
X16174998Y3494999D02*
X16191570D01*
X16154999Y3514999D02*
X16174998Y3494999D01*
X16191570D02*
X16214999Y3471570D01*
X5160005Y7577501D02*
Y7860000D01*
X5162499Y7862494D01*
X16622125Y3095000D02*
Y3132719D01*
X16647124Y3070001D02*
X16705000D01*
X16622125Y3095000D02*
X16647124Y3070001D01*
X16595105Y3159740D02*
X16622125Y3132719D01*
X16691173Y3308828D02*
X16694998Y3305002D01*
Y3299587D02*
Y3305002D01*
X16698830Y3308828D01*
X16705000Y3070001D02*
X16710365Y3075366D01*
Y3284225D01*
X16794998Y3030113D02*
Y3044998D01*
X16705000Y3070001D02*
X16770000D01*
X16694998Y3299587D02*
X16710365Y3284225D01*
X16698830Y3308828D02*
X16712306D01*
X16691173D02*
Y3325429D01*
X16712306Y3308828D02*
X16729720Y3326242D01*
X16690366D02*
X16691173Y3325429D01*
X16794998Y3030113D02*
X16805000Y3020111D01*
X16770000Y3070001D02*
X16794998Y3044998D01*
X16805000Y3018429D02*
Y3020111D01*
X17250105Y2812603D02*
Y2960426D01*
X17029999Y3032501D02*
Y3091500D01*
X17135004Y3075529D02*
X17250105Y2960426D01*
X17135004Y3075529D02*
Y3088000D01*
X16729720Y3326242D02*
X17101241D01*
X17029999Y3091500D02*
X17075003Y3136499D01*
X17086499D02*
X17135004Y3088000D01*
X17101241Y3326242D02*
X17109999Y3335000D01*
X16666997Y4652996D02*
X16700784D01*
X16665001Y4650999D02*
X16666997Y4652996D01*
X16700784D02*
X16712498Y4664715D01*
Y4735002D01*
X16962502Y4984999D02*
Y5180000D01*
X16712498Y4735002D02*
X16962502Y4984999D01*
Y5237500D02*
X17047501D01*
X16962502Y5180000D02*
Y5237500D01*
X17047501D02*
X17125000Y5315001D01*
Y5317500D01*
X16139998Y3294791D02*
X16140105Y3294893D01*
X6379078Y5805988D02*
X6392702Y5792363D01*
X6825005Y5592999D02*
X6898004Y5520000D01*
X14356558Y4630938D02*
X14510939D01*
X14267500Y4720001D02*
Y4727499D01*
Y4720001D02*
X14356558Y4630938D01*
X14872504Y4667499D02*
X14877283Y4672284D01*
X14919781D01*
X14510939Y4630938D02*
X14610410Y4730410D01*
X14703526D01*
X14707500Y4772503D02*
X14726559Y4753442D01*
X14915373D01*
X14977261Y4815337D01*
X14919781Y4672284D02*
X15062836Y4815337D01*
X15100401D02*
X15120000Y4834936D01*
X14977261Y4815337D02*
X15062836D01*
X15100401D01*
X15062836D02*
X15082434Y4834936D01*
X15120000D01*
X16517500Y5812500D02*
X16812500Y6107500D01*
Y6475475D01*
X16777499Y6510475D02*
X16812500Y6475475D01*
X16939999Y6827501D02*
X17162575Y6604926D01*
Y6562500D02*
X17184575Y6540500D01*
X17227000D01*
X17162575Y6562500D02*
Y6604926D01*
X5637148Y6895002D02*
X5714643D01*
X13138226Y8053227D02*
X13257919Y7933534D01*
X13020726Y8053227D02*
X13138226D01*
X13257919Y7922084D02*
X13307503Y7872501D01*
X13257919Y7922084D02*
Y7933534D01*
X6928002Y7763002D02*
X7027500Y7862500D01*
Y8040000D01*
X6901191Y8166309D02*
X7027500Y8040000D01*
X6928002Y7762810D02*
X6969504D01*
X5807194Y8097500D02*
X5878194Y8168500D01*
X5151888Y8059995D02*
X5159616D01*
X6419142Y7832002D02*
Y8053949D01*
X5217308Y8057303D02*
X5219999Y8059995D01*
X6566001Y8175309D02*
X6831002Y8440310D01*
X6558501Y8166500D02*
X6566001Y8174000D01*
X5798046Y8097308D02*
X5804811D01*
X5445321Y8091823D02*
X5792560D01*
X5044429Y8209880D02*
Y8284871D01*
X5219999Y8059995D02*
Y8072375D01*
X5162691Y8057303D02*
X5217308D01*
X6516504Y8151310D02*
X6528427D01*
X5044429Y8209880D02*
X5151888Y8102421D01*
X5219999Y8072375D02*
X5239573Y8091949D01*
X7262314Y7470001D02*
X7265734D01*
X6419142Y8053949D02*
X6516504Y8151310D01*
X5151888Y8059995D02*
Y8102421D01*
X7265734Y7470001D02*
X7276426Y7459309D01*
X5239573Y8091949D02*
X5444812D01*
X6528427Y8151310D02*
X6533426Y8156309D01*
X5878194Y8168500D02*
X6531426D01*
X5792560Y8091823D02*
X5798046Y8097308D01*
X6566001Y8174000D02*
Y8175309D01*
X6969504Y7762810D02*
X7262314Y7470001D01*
X17482500Y3806658D02*
Y3990000D01*
X5485004Y6997503D02*
X5586400Y7098899D01*
X5397501Y6990003D02*
X5405001Y6997503D01*
X5586400Y7098899D02*
X5601046D01*
X5609646Y7107499D01*
X7499998Y6394498D02*
Y6396498D01*
X7540496Y6381499D02*
X7569495Y6352500D01*
X7510998Y6383498D02*
X7526574D01*
X7528572Y6381499D02*
X7540496D01*
X7499998Y6394498D02*
X7510998Y6383498D01*
X7526574D02*
X7528572Y6381499D01*
X7560000Y6497500D02*
Y6619997D01*
X7506818Y6444318D02*
X7560000Y6497500D01*
X7499998Y6396498D02*
X7506818Y6403317D01*
Y6444318D01*
X7594216Y5634785D02*
Y5669783D01*
X7600002Y5628999D02*
X7607502Y5636499D01*
X7643502D02*
X7685658Y5678655D01*
X7607502Y5636499D02*
X7643502D01*
X13130002Y8302498D02*
X13560466Y7872034D01*
X17342847Y3590342D02*
X17352496Y3599992D01*
X17167432Y3509923D02*
X17247849Y3590342D01*
X17125005Y3527497D02*
X17130080Y3522422D01*
Y3509923D02*
Y3522422D01*
X17315421Y3639575D02*
X17482500Y3806658D01*
X17475002Y3982502D02*
X17482500Y3990000D01*
X7706954Y6783045D02*
X7765444Y6724556D01*
X7654557Y6828678D02*
X7700190Y6783045D01*
X7706954D01*
X7504999Y6672854D02*
Y6674998D01*
Y6672854D02*
X7513623Y6664231D01*
X7515767D02*
X7560000Y6619997D01*
X7513623Y6664231D02*
X7515767D01*
X7478461Y6828678D02*
X7654557D01*
X17852499Y4729996D02*
Y6650000D01*
X17708000Y6794500D02*
X17852499Y6650000D01*
X17475002Y4352498D02*
X17852499Y4729996D01*
X7207499Y6651000D02*
X7311029D01*
X7335027Y6674998D01*
X7297501Y7009638D02*
X7478461Y6828678D01*
X7335027Y6674998D02*
X7504999D01*
X17435246Y2812501D02*
Y2984754D01*
X14514265Y7007733D02*
X14572270D01*
X14844994Y6969999D02*
X14852498Y6977502D01*
X14572270Y7007733D02*
X14609999Y6969999D01*
X14852498Y6977502D02*
Y7093285D01*
X14254500Y7267499D02*
X14514265Y7007733D01*
X14864212Y7105005D02*
X14865533D01*
X14852498Y7093285D02*
X14864212Y7105005D01*
X13560466Y7697968D02*
Y7872034D01*
Y7697968D02*
X13990930Y7267499D01*
X17475002Y3982502D02*
Y4332498D01*
X14865533Y7105005D02*
X14923029Y7162500D01*
X14932503D01*
X14937329Y7157674D01*
X9896970Y6559860D02*
X9910828Y6546002D01*
X9896970Y6559860D02*
Y6601534D01*
X9853572Y6644932D02*
X9896970Y6601534D01*
X9825000Y6725000D02*
X9853572Y6696428D01*
X9910828Y6546002D02*
X9952502D01*
X9853572Y6644932D02*
Y6696428D01*
X11587494Y8112500D02*
X11732502D01*
X11737500Y8107502D01*
X11582497D02*
X11587494Y8112500D01*
X11413279Y8050779D02*
X11442500Y8080000D01*
X7439215Y5340785D02*
Y5395785D01*
X17109999Y4094998D02*
Y4254998D01*
X17140001Y4304802D02*
X17297302D01*
X17109999Y4274800D02*
Y4414998D01*
X14605072Y6610072D02*
X14607500Y6612499D01*
X14483749Y6385000D02*
X14487500D01*
X14356248Y6257498D02*
X14483749Y6385000D01*
X15377499Y5759999D02*
X15380000Y5757499D01*
X17489998Y5235006D02*
X17492497Y5237500D01*
X17407500D02*
X17492497D01*
X17324995Y5155001D02*
X17407500Y5237500D01*
X15382500Y5600000D02*
X15487498Y5495001D01*
X15380000Y5602500D02*
X15382500Y5600000D01*
X15510002Y5495001D02*
X15530002Y5475000D01*
X15487498Y5495001D02*
X15510002D01*
X14352499Y6257498D02*
X14356248D01*
X14024649Y5927500D02*
X14024651Y5927501D01*
X13852499Y5927500D02*
X14024649D01*
X14031789Y5759999D02*
Y5920364D01*
X12302500Y6513500D02*
Y6640500D01*
X17324995Y5007498D02*
Y5155001D01*
X16918748Y4601248D02*
X17324995Y5007498D01*
X16927499Y4592498D02*
X16946500Y4573499D01*
X17075003D01*
X17081001Y4567499D02*
X17245000D01*
X17075003Y4573499D02*
X17081001Y4567499D01*
X17109999Y4538502D01*
X16899260Y4645259D02*
X16905000Y4650999D01*
X16899260Y4610826D02*
Y4645259D01*
X16909999Y4592498D02*
X16927499D01*
X16909999D02*
X16918748Y4601248D01*
X16892499Y4592498D02*
Y4604070D01*
Y4592498D02*
X16909999D01*
X17297302Y4304802D02*
X17325000Y4332498D01*
X17109999Y4414998D02*
Y4538502D01*
Y4254998D02*
Y4274800D01*
X17140001Y4304802D01*
X16892499Y4604070D02*
X16899260Y4610826D01*
X16297502Y4950001D02*
X16382503Y5035001D01*
X16275002Y4950001D02*
X16297502D01*
X17109999Y3934998D02*
Y4094998D01*
X17320000Y3957500D02*
X17332498Y3970000D01*
X17320000Y3957500D02*
X17332498Y3970000D01*
X17320000Y3957500D02*
X17320000Y3957500D01*
X17297502Y3934998D02*
X17320000Y3957500D01*
X17625807Y3441696D02*
Y3476697D01*
Y3441696D02*
X17632503Y3435000D01*
X17297502Y3934998D02*
X17320000Y3957500D01*
X17109999Y3934998D02*
X17297502D01*
X15485005Y4082501D02*
X15572508Y4170004D01*
X14819998Y4221002D02*
X14893999D01*
X7656215Y8253785D02*
X7656215D01*
X7375357Y8282498D02*
X7590003D01*
X7615001Y8257499D01*
X7656215Y8253785D02*
X7740000Y8170000D01*
X5700308Y7092549D02*
X5721126Y7071731D01*
X5445003Y8167853D02*
Y8239997D01*
X5532681Y7927503D02*
X5572507D01*
X5425359Y7668363D02*
Y7700000D01*
X5790356Y6895002D02*
Y6940652D01*
Y6895002D02*
X5903031D01*
X5746252Y6583219D02*
Y6706250D01*
X8377499Y2922468D02*
Y2924998D01*
Y2922468D02*
X8427502Y2872471D01*
Y2740000D02*
Y2872471D01*
X3754998Y3345002D02*
X3757500Y3347504D01*
X3602502Y3345002D02*
X3754998D01*
X3600005Y3342505D02*
X3602502Y3345002D01*
X12972501Y4803575D02*
X13001788Y4832861D01*
Y4950714D01*
X14964999Y2873502D02*
X15406497D01*
X15410072Y2869926D01*
X15074593Y3942500D02*
X15547499Y3469594D01*
X14995000Y3942500D02*
X15074593D01*
X12389287Y5283620D02*
X12396790Y5291123D01*
X12389287Y5275001D02*
Y5283620D01*
X11631788Y5297500D02*
X11640409Y5306121D01*
X11627500Y5297500D02*
X11631788D01*
X11626073Y5298927D02*
X11627500Y5297500D01*
X11618874Y5306121D02*
X11626073Y5298927D01*
X14080235Y4909713D02*
X14140408Y4849541D01*
X15227495Y4083748D02*
X15382501D01*
X12951070Y4629993D02*
Y4636390D01*
X12953296Y4638617D02*
Y4680797D01*
X12951070Y4636390D02*
X12953296Y4638617D01*
X12972501Y4803574D02*
Y4803575D01*
X12954927Y4786001D02*
X12972501Y4803574D01*
X12921001Y4786001D02*
X12954927D01*
X12915001Y4780001D02*
X12921001Y4786001D01*
X12902554Y3837500D02*
X13000000D01*
X12902554Y3845564D02*
Y4043876D01*
X16875000Y6504501D02*
X17049786Y6329716D01*
X17199284D01*
X17219498Y6309502D01*
X17023570Y6227073D02*
Y6227073D01*
X16984198Y6187699D02*
X17023570Y6227073D01*
X14010001Y4969998D02*
X14014999Y4964999D01*
X13001788Y4950714D02*
Y4960712D01*
X12992502Y4969998D02*
X13001788Y4960712D01*
X15402347Y4540001D02*
X15417561Y4555217D01*
X15345000Y4477497D02*
X15402347Y4534845D01*
X12893932Y4052500D02*
X12902554Y4043876D01*
X12891788Y4052500D02*
X12893932D01*
X12342500Y5447500D02*
X12396790Y5393210D01*
Y5291123D02*
Y5393210D01*
X11405001Y5330002D02*
X11596781D01*
X11618874Y5307909D01*
Y5306121D02*
Y5307909D01*
Y5288874D02*
X11627500Y5297500D01*
X11618874Y5257089D02*
Y5288874D01*
X11597498Y5235717D02*
X11618874Y5257089D01*
X11597498Y5071801D02*
Y5235717D01*
X12467500Y3539112D02*
Y3548340D01*
X12222500Y3222498D02*
X12289998Y3289996D01*
Y3361610D01*
X11270000Y3679998D02*
Y3820003D01*
X11089925Y3366209D02*
X11113716Y3390000D01*
X11187500D01*
X11089925Y3357429D02*
Y3366209D01*
X11027496Y3294999D02*
X11089925Y3357429D01*
X11014999Y3282502D02*
X11027496Y3294999D01*
X15312001Y4422502D02*
X15324501Y4435003D01*
X14014999Y4964999D02*
X14070284Y4909713D01*
X14080235D01*
X15312001Y4382008D02*
Y4422502D01*
X12885745Y3814257D02*
Y3828754D01*
X12892245Y3835254D01*
X9722504Y6692502D02*
X9727504Y6697502D01*
X9275002Y6692502D02*
X9722504D01*
X9260002Y6677503D02*
X9275002Y6692502D01*
X7622499Y8031317D02*
Y8175000D01*
Y7889997D02*
Y8031317D01*
X7607500Y4315000D02*
X7719493Y4426993D01*
Y4694847D01*
X12842500Y4855000D02*
X12854424D01*
X12859425Y4860000D01*
X12805733Y4818231D02*
X12842500Y4855000D01*
X12859425Y4860000D02*
X12915001D01*
X6555001Y8091000D02*
X6603921D01*
X5167500Y7997497D02*
X5332498D01*
X11273573Y3903575D02*
Y3943569D01*
X11329995Y3999992D01*
X11270000Y3900002D02*
X11273573Y3903575D01*
X12799749Y3822758D02*
X12812247Y3835254D01*
Y3875254D01*
X12939999Y2937500D02*
Y3290001D01*
Y2915000D02*
Y2937500D01*
X12794996Y2822499D02*
X12822501D01*
X12601534D02*
X12794996D01*
X15545004Y7002503D02*
X15555002Y7012500D01*
X15372501Y7002503D02*
X15545004D01*
X15555002Y6935786D02*
Y7012500D01*
X15639999D02*
Y7029995D01*
Y6873816D02*
Y7012500D01*
Y7029995D02*
X15650003Y7039998D01*
X14607500Y6454472D02*
Y6517498D01*
X9727504Y6579001D02*
Y6697502D01*
X5709216Y4249213D02*
Y4293284D01*
X5320995Y4148460D02*
X5446542D01*
X8572025Y5567973D02*
Y5779528D01*
X4902855Y5217500D02*
X4987498D01*
X3077503Y3517500D02*
X3207500D01*
X2905003Y3517504D02*
X3012505D01*
X15464999Y6007500D02*
Y6150000D01*
X15282500Y5999998D02*
Y6074998D01*
X3212500Y3517500D02*
X3342495D01*
X4675002Y5015001D02*
X4924999D01*
X4675002Y5090003D02*
X4775357D01*
X8497499Y5787502D02*
Y5862320D01*
X8499500Y7222001D02*
Y7395500D01*
X8494999Y7022501D02*
X8557501D01*
X8412499Y7150001D02*
Y7210000D01*
X8487498Y7030002D02*
Y7075001D01*
X4639999Y3368236D02*
X4649483Y3358752D01*
X4409999Y3377499D02*
X4639999D01*
X5481716Y4247500D02*
X5622503D01*
X15605000Y5689998D02*
Y5825000D01*
X15530002Y5615000D02*
X15605000Y5689998D01*
X15272066Y5749564D02*
X15282500Y5759999D01*
X15289999Y5575003D02*
X15415219Y5449784D01*
X12939999Y3290001D02*
X12942499D01*
X15363998Y2918998D02*
X15559999Y3115000D01*
X15010497Y2918998D02*
X15363998D01*
X14964999Y2873502D02*
X15010497Y2918998D01*
X3416716Y3479216D02*
Y3519216D01*
X8419998Y7022501D02*
Y7069999D01*
X7424181Y6318499D02*
X7499998D01*
X4649483Y3358752D02*
X4771248D01*
X4811763Y3325002D02*
X4969998D01*
X4775000Y3355000D02*
X4781765D01*
X4811763Y3325002D01*
X4771248Y3358752D02*
X4775000Y3355000D01*
X14973300Y6707500D02*
X15018298Y6662501D01*
X14619315Y6191814D02*
X14666129Y6145000D01*
X15037498D01*
X14819998Y4037502D02*
X14914999Y3942500D01*
X14819998Y4037502D02*
Y4129003D01*
X14995000Y3942500D02*
X15012500Y3960000D01*
X14914999Y3942500D02*
X14995000D01*
X4639999Y3368236D02*
Y3377499D01*
X15547499Y3397500D02*
X15559999Y3385000D01*
X15547499Y3397500D02*
Y3469594D01*
X17600000Y5980003D02*
Y6112500D01*
X17574927Y6180000D02*
X17596925Y6158000D01*
X17532500Y6180000D02*
X17574927D01*
X17596925Y6115574D02*
Y6158000D01*
Y6115574D02*
X17600000Y6112500D01*
X14107500Y5442499D02*
Y5759999D01*
Y5442499D02*
X14117497Y5432501D01*
X14107500Y5759999D02*
X14206219D01*
X15152319Y5607502D02*
X15152538Y5607284D01*
X14627499Y5607502D02*
X15152319D01*
X15170216Y5607284D02*
X15175002Y5602498D01*
X15152538Y5607284D02*
X15170216D01*
X14206219Y5759999D02*
X14241089Y5794868D01*
X14443004Y5791998D02*
X14627499Y5607502D01*
X14339835Y5794868D02*
X14342703Y5791998D01*
X14241089Y5794868D02*
X14339835D01*
X14342703Y5791998D02*
X14443004D01*
X17252498Y5971491D02*
Y6052500D01*
X15415219Y5333457D02*
Y5449784D01*
X7550003Y3817498D02*
X7552502Y3819997D01*
X7494168Y3817498D02*
X7550003D01*
X7452502Y3775832D02*
X7494168Y3817498D01*
X7452502Y3624997D02*
Y3775832D01*
X7351298Y3624997D02*
X7452502D01*
X7289800Y3563498D02*
X7351298Y3624997D01*
X7190003Y3563498D02*
X7289800D01*
X4249999Y3217499D02*
X4409999Y3377499D01*
X3597499Y3217499D02*
X4249999D01*
X3369996Y3215503D02*
X3595502D01*
X3597499Y3217499D01*
X14737502Y6310002D02*
Y6639982D01*
X14619315Y6191814D02*
X14737502Y6310002D01*
X11557000Y8173720D02*
X11582497Y8148223D01*
X14605000Y6707500D02*
Y6756400D01*
X15559999Y3115000D02*
Y3385000D01*
X14844502Y3635502D02*
X14961002D01*
X14795998Y3684001D02*
X14844502Y3635502D01*
X14795998Y3684001D02*
Y3819002D01*
X14705000Y3910000D02*
X14795998Y3819002D01*
X14705000Y3910000D02*
Y3917498D01*
X14689999Y3932499D02*
X14705000Y3917498D01*
X14682500Y3932499D02*
X14689999D01*
X15256387Y5867502D02*
X15404495D01*
X15471918Y5800080D02*
X15472501Y5799496D01*
X15471918Y5800080D02*
Y5832424D01*
X15472501Y5759999D02*
Y5799496D01*
X15377499Y5926841D02*
X15471918Y5832424D01*
X15404495Y5867502D02*
X15471918Y5800080D01*
X15377499Y5926841D02*
Y5999998D01*
X15052496Y5669234D02*
X15058121D01*
X15256387Y5867502D01*
X14696017Y5657499D02*
X15040762D01*
X14436151Y5917367D02*
X14696017Y5657499D01*
X15040762D02*
X15052496Y5669234D01*
X5062499Y5217500D02*
X5320000D01*
X11122500Y8247500D02*
X11151078Y8247501D01*
X8499998Y5564998D02*
Y5659120D01*
X10608437Y8270001D02*
X11015005D01*
X14737502Y6639982D02*
X14805020Y6707500D01*
X14867499D01*
X14430441Y5917372D02*
X14430446Y5917367D01*
X14423894Y5917372D02*
X14430441D01*
X14339835Y5924870D02*
X14416396D01*
X14423894Y5917372D01*
X14430446Y5917367D02*
X14436151D01*
X15472501Y5672501D02*
Y5759999D01*
Y5672501D02*
X15530002Y5615000D01*
X14867499Y6707500D02*
X14973300D01*
X14339835Y5924870D02*
Y5989869D01*
X14205199Y6707500D02*
X14605000D01*
X4632579Y7914996D02*
X4704999D01*
X4544060Y8057495D02*
X4717501D01*
X11582497Y8107502D02*
Y8148223D01*
D114*
X9195002Y6520002D02*
Y6594926D01*
X9207576Y6607500D01*
X9187536Y6512536D02*
X9195002Y6520002D01*
X9207576Y6607500D02*
X9570857D01*
X7677424Y7807437D02*
X7740000Y7870012D01*
X7567574Y7807437D02*
X7677424D01*
X7520000Y7759862D02*
X7567574Y7807437D01*
X7032501Y4442501D02*
X7369470D01*
X6602503Y4317500D02*
X6887500D01*
X9315501Y4521999D02*
Y5254498D01*
D115*
X12187001Y3429501D02*
Y3884696D01*
X12099511Y3342011D02*
X12187001Y3429501D01*
X11902603Y3342011D02*
X12099511D01*
X11655903Y3544135D02*
X11684770Y3515268D01*
X11653365Y3544135D02*
X11655903D01*
X11684770Y3515268D02*
X11695594D01*
X11637000Y3560500D02*
X11653365Y3544135D01*
X11637000Y3560500D02*
Y3884696D01*
X11827500Y3584879D02*
X11850441Y3561938D01*
X11827500Y3584879D02*
Y3632500D01*
X11850441Y3503493D02*
Y3561938D01*
X12752597Y4245278D02*
X12820187Y4177687D01*
X11827500Y3632500D02*
X11987002Y3792002D01*
Y3884696D01*
X12087001Y5032299D02*
Y5412003D01*
X12752597Y4245278D02*
Y4273562D01*
X12692660Y4333499D02*
X12752597Y4273562D01*
X12692157Y4383499D02*
X12898157Y4177500D01*
X12985001D01*
X12585802Y4833498D02*
X12624188Y4871884D01*
Y4930381D01*
X12585802Y4683496D02*
X12588072Y4685767D01*
X12673264D02*
X12805733Y4818231D01*
X12588072Y4685767D02*
X12673264D01*
X12378395Y5578395D02*
X12380000Y5580000D01*
X12340895Y5578395D02*
X12378395D01*
X12136999Y5374499D02*
X12340895Y5578395D01*
X12136999Y5032299D02*
Y5374499D01*
X12286001Y5033299D02*
Y5391000D01*
X12342500Y5447500D01*
X12286001Y5033299D02*
X12287001Y5032299D01*
X12687051Y4922053D02*
X13007301Y5242303D01*
X13042348D02*
X13050000Y5249956D01*
X13007301Y5242303D02*
X13042348D01*
X11100000Y5065000D02*
X11107653Y5057347D01*
Y5033627D02*
X11354707Y4786573D01*
X11107653Y5033627D02*
Y5057347D01*
X12585804Y4383499D02*
X12692157D01*
X12585802Y4383496D02*
X12585804Y4383499D01*
X12666939Y4786996D02*
X12687051Y4807107D01*
X12585802Y4783496D02*
X12589301Y4786996D01*
X12666939D01*
X11438199Y4833498D02*
X11459412D01*
X11462912Y4836998D02*
Y4858211D01*
X11257498Y5135001D02*
X11465000Y4927500D01*
X11462912Y4858211D02*
X11465000Y4860299D01*
Y4927500D01*
X11459412Y4833498D02*
X11462912Y4836998D01*
X11354707Y4786573D02*
X11435121D01*
X11438199Y4783496D01*
X11086118Y4383496D02*
X11438199D01*
X10946872Y4420626D02*
X11033999Y4333499D01*
X11438199D01*
X12389287Y5275001D02*
X12396790Y5282499D01*
X11299700Y4421232D02*
X11311967Y4433499D01*
X11169823Y4427499D02*
X11176090Y4421232D01*
X11311967Y4433499D02*
X11438199D01*
X11176090Y4421232D02*
X11299700D01*
X12036999Y5032299D02*
Y5451998D01*
X11987002Y5032299D02*
Y5565140D01*
X9604980Y3590260D02*
X9627500Y3612780D01*
X11329995Y3999992D02*
Y4047998D01*
X9442420Y3590260D02*
X9604980D01*
X12674600Y4283497D02*
X12687300Y4270797D01*
X12585802Y4283497D02*
X12674600D01*
X12687300Y4075200D02*
Y4270797D01*
Y4075200D02*
X12787500Y3975000D01*
X12585802Y4333499D02*
X12692660D01*
X12644552Y4083497D02*
X12652052Y4075997D01*
X12585802Y4083497D02*
X12644552D01*
X12652052Y4032667D02*
X12764718Y3920000D01*
X12652052Y4032667D02*
Y4075997D01*
X12767500Y3920000D02*
X12812247Y3875254D01*
X12764718Y3920000D02*
X12767500D01*
X11168597Y4583902D02*
X11437793D01*
X11092500Y4660000D02*
X11168597Y4583902D01*
X11113150Y4287500D02*
X11434196D01*
X11438199Y4283497D01*
X11110650Y4285000D02*
X11113150Y4287500D01*
X10985002Y4285000D02*
X11110650D01*
X11834998Y3690000D02*
X11936999Y3792002D01*
X11692500Y3690000D02*
X11834998D01*
X11936999Y3792002D02*
Y3884696D01*
X11162218Y4427499D02*
X11169823D01*
X10234228Y5289228D02*
X10240000Y5295000D01*
X10201250Y4733752D02*
Y5227084D01*
X10234228Y5260062D02*
Y5289228D01*
X10201250Y5227084D02*
X10234228Y5260062D01*
X12687051Y4807107D02*
Y4922053D01*
X11329995Y4047998D02*
X11365494Y4083497D01*
X11438199D01*
X9379605Y3479800D02*
X9405005Y3505200D01*
Y3552845D01*
X9144000Y3479800D02*
X9379605D01*
X9405005Y3552845D02*
X9442420Y3590260D01*
D116*
X11700750Y4914251D02*
X11720000Y4895000D01*
X12297500D01*
X11700750Y4914251D02*
Y4955801D01*
X11687002Y5032299D02*
Y5154502D01*
Y4969549D02*
Y5032299D01*
X11707500Y5297500D02*
Y5302500D01*
X12336998Y4931821D02*
Y5032299D01*
X12327677Y4922500D02*
X12336998Y4931821D01*
X12325000Y4922500D02*
X12327677D01*
X12297500Y4895000D02*
X12325000Y4922500D01*
X11687002Y4969549D02*
X11700750Y4955801D01*
X12766333Y4712552D02*
X12778640Y4724859D01*
X12682987Y4633498D02*
X12762041Y4712552D01*
X12766333D01*
X12778640Y4724859D02*
X12790140D01*
X12776390Y4711109D02*
X12790140Y4724859D01*
X12585802Y4633498D02*
X12682987D01*
X12581052Y4628749D02*
X12585802Y4633498D01*
X12821370Y4681841D02*
Y4690681D01*
X12800941Y4711109D02*
X12821370Y4690681D01*
Y4681841D02*
X12873213Y4629998D01*
X12776390Y4711109D02*
X12800941D01*
X12873213Y4629993D02*
X12875357D01*
X12873213D02*
Y4629998D01*
X11818750Y5286250D02*
Y5331250D01*
X11808500Y5332500D02*
X11820000D01*
X11818750Y5331250D02*
X11820000Y5332500D01*
X11795874Y5319874D02*
X11808500Y5332500D01*
X11724874Y5319874D02*
X11795874D01*
X11687002Y5154502D02*
X11818750Y5286250D01*
X11707500Y5302500D02*
X11724874Y5319874D01*
X15031252Y6403572D02*
X15051804Y6383020D01*
X15260518D01*
X15031252Y6403572D02*
Y6418751D01*
X15031250Y6418752D02*
Y6428750D01*
Y6418752D02*
X15031252Y6418751D01*
X15014999Y6435000D02*
X15025000D01*
X14936426Y6513576D02*
X15008749Y6441252D01*
Y6441250D02*
X15014999Y6435000D01*
X15025000D02*
X15031250Y6428750D01*
X14867499Y6517498D02*
X14871420Y6513576D01*
X14936426D01*
X15008749Y6441250D02*
Y6441252D01*
D117*
X15317496Y4170004D02*
X15572508D01*
X15048730Y4256767D02*
X15061967Y4270004D01*
X14957500Y4157500D02*
X15049463D01*
X15061967Y4170004D01*
X15265483Y4267546D02*
X15490991D01*
X15263025Y4270004D02*
X15265483Y4267546D01*
X15213747Y4272504D02*
X15224995D01*
X15213747D02*
Y4283753D01*
X14262502Y4987503D02*
X14313469D01*
X14014999Y4964999D02*
X14037503Y4987503D01*
X14253500D01*
X15080000Y6435000D02*
X15124998Y6479999D01*
Y6660246D01*
D118*
X4012500Y3947500D02*
D03*
X4139448Y3972500D02*
D03*
X2742500Y3570000D02*
D03*
X2935000Y4705000D02*
D03*
X2735000Y4617500D02*
D03*
X3995000Y4625000D02*
D03*
X3120000Y4740000D02*
D03*
X3685000Y6832500D02*
D03*
X3147500Y7075000D02*
D03*
X7762500Y7190000D02*
D03*
X16707500Y6440000D02*
D03*
X8792500Y5557500D02*
D03*
X8592500Y5465000D02*
D03*
X9057500Y6275000D02*
D03*
X9155000Y6675000D02*
D03*
X12400000Y7312500D02*
D03*
X5442500Y8320000D02*
D03*
X14497501Y7940000D02*
D03*
X13975000Y7437500D02*
D03*
X16180000Y7670000D02*
D03*
X16900000Y7120000D02*
D03*
X16510001Y7125000D02*
D03*
X16589999Y7042500D02*
D03*
X12360593Y8439997D02*
D03*
X5557500Y6312500D02*
D03*
X5349999Y7541950D02*
D03*
X5792500Y7170000D02*
D03*
X5690610Y7450308D02*
D03*
X5252500Y7432500D02*
D03*
X5525000Y7455000D02*
D03*
X6287500Y3487500D02*
D03*
X5940000Y3477500D02*
D03*
X5675000Y3850000D02*
D03*
X7167500Y5315000D02*
D03*
X6461645Y6206645D02*
D03*
X6490202Y6035000D02*
D03*
X6145000Y5527500D02*
D03*
X5645000Y5457500D02*
D03*
X3855000Y4992500D02*
D03*
X3573052Y4710000D02*
D03*
X12130000Y3530000D02*
D03*
X12060000Y3412500D02*
D03*
X12010042Y3532500D02*
D03*
X11981649Y3650851D02*
D03*
X12812500Y4520000D02*
D03*
X16750806Y6933306D02*
D03*
X15677499Y5022500D02*
D03*
X15650000Y6839448D02*
D03*
X9055000Y6370000D02*
D03*
X8803138Y6899493D02*
D03*
X8919412Y6846587D02*
D03*
X8922500Y6685000D02*
D03*
X11335000Y3582500D02*
D03*
X11295000Y3410000D02*
D03*
X11695594Y3515268D02*
D03*
X13922501Y4385000D02*
D03*
X14025000Y3922500D02*
D03*
X12377500Y3537500D02*
D03*
X12597500Y3737500D02*
D03*
X12922499Y2562500D02*
D03*
X12057500D02*
D03*
X10830000Y2677500D02*
D03*
X9420001Y2627498D02*
D03*
X9232500Y2645000D02*
D03*
X10125000Y2540000D02*
D03*
X10850000Y3607500D02*
D03*
X12857500Y3587500D02*
D03*
X12680000Y3562500D02*
D03*
X11567500Y3525000D02*
D03*
X11850441Y3503493D02*
D03*
X11047500Y3690000D02*
D03*
X17214999Y6950000D02*
D03*
X17087500Y7062500D02*
D03*
X17432500Y6955000D02*
D03*
X12957500Y4440000D02*
D03*
X12820187Y4177687D02*
D03*
X12852499Y4365000D02*
D03*
X12904004Y4256504D02*
D03*
X11115000Y4492500D02*
D03*
X13875000Y3012500D02*
D03*
X16464999Y5906948D02*
D03*
X15263290Y5267274D02*
D03*
X14095593Y5202768D02*
D03*
X12985001Y4177500D02*
D03*
X14810098Y5323240D02*
D03*
X14882500Y5097500D02*
D03*
X16162691Y5794809D02*
D03*
X15976640Y6123849D02*
D03*
X13067500Y4573498D02*
D03*
X15525000Y6440000D02*
D03*
X15680000Y6165552D02*
D03*
X13792500Y4575000D02*
D03*
X14065001Y4582500D02*
D03*
X14762500Y4452500D02*
D03*
X15907500Y4712500D02*
D03*
X12747500Y4592500D02*
D03*
X13132500Y4885000D02*
D03*
X16170000Y4845000D02*
D03*
X16662500Y5775000D02*
D03*
X16660001Y5572500D02*
D03*
X16102499Y5587500D02*
D03*
X17302499Y5902500D02*
D03*
X14835002Y5439999D02*
D03*
X13875000Y5185000D02*
D03*
X13887502Y5377500D02*
D03*
X13775000Y5275000D02*
D03*
X12195000Y5350000D02*
D03*
X10915000Y5535000D02*
D03*
X11875000Y5537500D02*
D03*
X11820000Y5332500D02*
D03*
X10707500Y5515000D02*
D03*
X11985000Y6500002D02*
D03*
X12100000Y6390000D02*
D03*
X11052500Y5237500D02*
D03*
X15382500Y5600000D02*
D03*
X15414999Y5245000D02*
D03*
X15095003Y6202502D02*
D03*
X12992500Y6274622D02*
D03*
X13902499Y7185000D02*
D03*
X15767500Y6997500D02*
D03*
X12935001Y5437500D02*
D03*
Y4990000D02*
D03*
X13050000Y5249956D02*
D03*
X13174965Y6290000D02*
D03*
X11269109Y8100731D02*
D03*
X10275000Y7337500D02*
D03*
X16137500Y7432500D02*
D03*
X5837499Y6329319D02*
D03*
X6415000Y6565000D02*
D03*
X7837500Y4147500D02*
D03*
X7810002Y2735001D02*
D03*
X7927503Y3985001D02*
D03*
X5635000Y6565001D02*
D03*
X7057502Y8239999D02*
D03*
X13020726Y8053227D02*
D03*
X14872504Y4667499D02*
D03*
X16517500Y5812500D02*
D03*
X13307503Y7872501D02*
D03*
X5362500Y7827500D02*
D03*
X8227500Y8375000D02*
D03*
X16939999Y6925000D02*
D03*
X8700000Y8317500D02*
D03*
X13130002Y8302498D02*
D03*
X7537500Y6152500D02*
D03*
X7765444Y6724556D02*
D03*
X7297501Y7009638D02*
D03*
X5805002Y8097500D02*
D03*
X7284999Y7457501D02*
D03*
X14932503Y7162500D02*
D03*
X6494998Y5687502D02*
D03*
X5587500Y6947500D02*
D03*
X4907500Y6627500D02*
D03*
X9982500Y6895000D02*
D03*
X7592500Y5205000D02*
D03*
X8739998Y4775002D02*
D03*
X6882500Y5012539D02*
D03*
X7282500Y5045000D02*
D03*
X4657286Y7718681D02*
D03*
X14785001Y7152498D02*
D03*
X13168219Y7712502D02*
D03*
X12914772Y7854772D02*
D03*
X13172501Y7247500D02*
D03*
X14487500Y6385000D02*
D03*
X13002499Y6945000D02*
D03*
X12962500Y7197500D02*
D03*
X15139999Y5859998D02*
D03*
X14352499Y6257498D02*
D03*
X13852499Y5927500D02*
D03*
X12127500Y8252500D02*
D03*
X12337501Y7575001D02*
D03*
X12040000Y7057500D02*
D03*
X11615000Y7450000D02*
D03*
X11454999Y7447498D02*
D03*
X12717501Y6254999D02*
D03*
X12149999Y6227501D02*
D03*
X12635000Y5190000D02*
D03*
X11742941Y6210000D02*
D03*
X17245000Y4567499D02*
D03*
X17632503Y3435000D02*
D03*
X15617500Y4222500D02*
D03*
X15320000Y3282500D02*
D03*
X16425002Y2582499D02*
D03*
X14957500Y4157500D02*
D03*
X12790140Y4724859D02*
D03*
X13070000Y4157500D02*
D03*
X12847498Y3139999D02*
D03*
X9637500Y8232500D02*
D03*
X10500977Y7026522D02*
D03*
X10237500Y6775000D02*
D03*
X8300000Y8002500D02*
D03*
X8395000Y6550000D02*
D03*
X7660000Y6619112D02*
D03*
X8205593Y6498093D02*
D03*
X7622500Y5757500D02*
D03*
X6542502Y7700000D02*
D03*
X5639999Y7994995D02*
D03*
X7520000Y7485000D02*
D03*
X6747500Y6942501D02*
D03*
X7152498Y6929999D02*
D03*
X5925000Y6907500D02*
D03*
X4657498Y6809545D02*
D03*
X5767500Y6552500D02*
D03*
X10367500Y5340000D02*
D03*
X9685000Y3672500D02*
D03*
X8367502Y3659998D02*
D03*
X7604999Y3454999D02*
D03*
X8559998Y2917500D02*
D03*
X8377499Y2924998D02*
D03*
X7670000Y2687500D02*
D03*
X6705000Y5062500D02*
D03*
X7369470Y4442501D02*
D03*
X4824999Y4372498D02*
D03*
X4872500Y3890000D02*
D03*
X4580000Y3677500D02*
D03*
X4481876Y3283125D02*
D03*
X3757500Y3347504D02*
D03*
X6250000Y2959999D02*
D03*
X5822500Y3055000D02*
D03*
X3102498Y2772501D02*
D03*
X14194998Y3914999D02*
D03*
X15482500Y4560000D02*
D03*
X12342500Y5447500D02*
D03*
X11187500Y3390000D02*
D03*
X11057499Y3565002D02*
D03*
X11255000Y4476232D02*
D03*
X11932002Y5232500D02*
D03*
X11527500Y6210000D02*
D03*
X11520000Y6375000D02*
D03*
X8600140Y6870141D02*
D03*
X8907500Y3737500D02*
D03*
X6602500Y2675000D02*
D03*
X7560000Y8004717D02*
D03*
X7486655Y5730785D02*
D03*
X7719493Y4694847D02*
D03*
X5335001Y7994995D02*
D03*
X7605997Y4973497D02*
D03*
X9585000Y7970000D02*
D03*
X4562500Y3815000D02*
D03*
X3210000Y3515000D02*
D03*
X6502500Y4970002D02*
D03*
X5277500Y5140000D02*
D03*
X8642500Y7107500D02*
D03*
X9117500Y7715000D02*
D03*
X11352500Y8255000D02*
D03*
X8745000Y5047500D02*
D03*
X9880000Y4400000D02*
D03*
X9882500Y4840000D02*
D03*
X10165000Y4127500D02*
D03*
X12787500Y3975000D02*
D03*
X10277500Y7872500D02*
D03*
X13799998Y5487502D02*
D03*
X15625000Y2770000D02*
D03*
X15190002Y2564999D02*
D03*
X15352502Y3022498D02*
D03*
X12285000Y7415000D02*
D03*
X9520000Y2962500D02*
D03*
X11105000Y4162500D02*
D03*
X11092500Y4660000D02*
D03*
X11227500Y4642500D02*
D03*
X11250000Y4232500D02*
D03*
X11042500Y7037500D02*
D03*
X10420000Y7335000D02*
D03*
X10510000Y6680000D02*
D03*
X10392500Y6767500D02*
D03*
X13180000Y7082500D02*
D03*
X12590000Y7392500D02*
D03*
X11999999Y7824700D02*
D03*
X12330000Y8064997D02*
D03*
X10967500Y7917500D02*
D03*
X11950000Y6970000D02*
D03*
X11937500Y6737500D02*
D03*
X11122500Y6222500D02*
D03*
X10352500Y6500000D02*
D03*
X10152500Y6482500D02*
D03*
X10392500Y6080000D02*
D03*
X10160000Y6037500D02*
D03*
X10300000Y6645000D02*
D03*
X7525000Y3000000D02*
D03*
X5267500Y6032500D02*
D03*
X3922500Y2947500D02*
D03*
X5640000Y3200000D02*
D03*
X5672500Y3025000D02*
D03*
X7397500Y3007500D02*
D03*
X8625000Y3105000D02*
D03*
X8607500Y3790000D02*
D03*
X7272500Y3977500D02*
D03*
X6512500Y4607500D02*
D03*
X7480000Y6527500D02*
D03*
X9047501Y7902500D02*
D03*
X11630000Y5452500D02*
D03*
X10105000Y7307500D02*
D03*
X9160000Y8155000D02*
D03*
X8390000Y6820000D02*
D03*
X9207500Y7317500D02*
D03*
X8630000Y8092500D02*
D03*
X9962500Y3220000D02*
D03*
X7397500Y3180000D02*
D03*
X6245000Y3112500D02*
D03*
X5845000Y4615000D02*
D03*
X4755000Y6690000D02*
D03*
X4775000Y3355000D02*
D03*
X10157500Y3770000D02*
D03*
X14835001Y6207500D02*
D03*
X11902603Y3342011D02*
D03*
X12339807Y2904807D02*
D03*
X11692500Y3690000D02*
D03*
X12962500Y6810000D02*
D03*
X9372500Y3742500D02*
D03*
X6375000Y2577500D02*
D03*
X7447500Y4310000D02*
D03*
X7645000Y3975000D02*
D03*
X7745000Y2557500D02*
D03*
X10095000Y7882500D02*
D03*
X11767500Y7897500D02*
D03*
X10825000Y7170000D02*
D03*
X10882500Y7320000D02*
D03*
X14914999Y3942500D02*
D03*
X10755000Y2952500D02*
D03*
X13242500Y2802500D02*
D03*
X11100000Y5065000D02*
D03*
X10090000Y8230000D02*
D03*
X10227500Y7702500D02*
D03*
X10047500Y8082500D02*
D03*
X6545000Y7955000D02*
D03*
X5450000Y4055000D02*
D03*
X6527500Y3087500D02*
D03*
X6870000Y2565000D02*
D03*
X7690000Y4820000D02*
D03*
X7777500Y4980000D02*
D03*
X7380000Y4585000D02*
D03*
X7662500Y4125000D02*
D03*
X7607500Y4315000D02*
D03*
X8533089Y4155592D02*
D03*
X10240000Y5295000D02*
D03*
X9837500Y3200000D02*
D03*
X9670000Y3487501D02*
D03*
X7065000Y3932500D02*
D03*
X4690000Y4687500D02*
D03*
X4747500Y4812500D02*
D03*
X4635000Y4890000D02*
D03*
X4927500Y4452500D02*
D03*
X6207500Y7475000D02*
D03*
X6550000Y7564999D02*
D03*
X6155000Y7635000D02*
D03*
X2647498Y2967502D02*
D03*
X5630291Y3407212D02*
D03*
X15175002Y5602498D02*
D03*
X12075003Y6909999D02*
D03*
X12100001Y7189998D02*
D03*
X12660000Y7529998D02*
D03*
X13822502Y7129998D02*
D03*
X13645003Y7262500D02*
D03*
X13302498Y7197501D02*
D03*
X16297501Y5707500D02*
D03*
X9050000Y7389998D02*
D03*
X6230000Y4827499D02*
D03*
X7552502Y3819997D02*
D03*
X5415001Y4492498D02*
D03*
X14672501Y6380000D02*
D03*
X15605000Y5825000D02*
D03*
X12380000Y5580000D02*
D03*
X11872500Y5680000D02*
D03*
X10362500Y7700000D02*
D03*
X11192500Y7888484D02*
D03*
X11487500Y7892500D02*
D03*
X12775001Y5775000D02*
D03*
X8787500Y6677500D02*
D03*
X11737500Y8112500D02*
D03*
X5452500Y4270000D02*
D03*
X9262501Y5439999D02*
D03*
X6487500Y6687500D02*
D03*
X5302499Y5767502D02*
D03*
X10146248Y4995001D02*
D03*
X9857501Y5012502D02*
D03*
X9312499Y5570002D02*
D03*
X4872502Y5382499D02*
D03*
X8307502Y3810000D02*
D03*
X7747498Y3752499D02*
D03*
X4757501Y5307503D02*
D03*
X2842499Y8232501D02*
D03*
X11067501Y4807499D02*
D03*
X11197499Y4847499D02*
D03*
X12595001Y7637501D02*
D03*
X8384809Y3322691D02*
D03*
X8227502Y3407501D02*
D03*
X7667498Y3642502D02*
D03*
X10087498Y5280000D02*
D03*
X10395001Y5739999D02*
D03*
X12227499Y7287499D02*
D03*
X10107498Y3012501D02*
D03*
X13916441Y5673943D02*
D03*
X6594998Y3762502D02*
D03*
X5567502Y7777500D02*
D03*
X14072499Y3825001D02*
D03*
X11257498Y5135001D02*
D03*
X8492500Y5342499D02*
D03*
X9875591Y5193091D02*
D03*
X8527501Y4507499D02*
D03*
X13279999Y5312501D02*
D03*
X13114999Y5157500D02*
D03*
X12397501Y6239998D02*
D03*
X11031220Y5967501D02*
D03*
X9747499Y3825001D02*
D03*
X7425003Y3307503D02*
D03*
X8687501Y3659998D02*
D03*
X9729998Y2917500D02*
D03*
X8277499Y2775001D02*
D03*
X6700002Y7467498D02*
D03*
X5212502Y3820003D02*
D03*
D119*
X16554999Y3305002D02*
D03*
Y3405002D02*
D03*
X16625002D02*
D03*
Y3505002D02*
D03*
X16554999D02*
D03*
Y3605002D02*
D03*
X16625002D02*
D03*
Y3305002D02*
D03*
X16694998D02*
D03*
Y3605002D02*
D03*
Y3405002D02*
D03*
Y3505002D02*
D03*
X17005000Y3617498D02*
D03*
X16794998D02*
D03*
Y3694999D02*
D03*
X16934998Y3617498D02*
D03*
X16865001D02*
D03*
X17123000Y3654999D02*
D03*
X16554999Y3905001D02*
D03*
Y3705001D02*
D03*
Y3805001D02*
D03*
Y4105001D02*
D03*
Y4205000D02*
D03*
Y4005001D02*
D03*
X16625002Y4305000D02*
D03*
Y3805001D02*
D03*
Y3905001D02*
D03*
Y3705001D02*
D03*
X16694998Y3905001D02*
D03*
X16625002Y4105001D02*
D03*
Y4205000D02*
D03*
Y4005001D02*
D03*
X16694998Y4205000D02*
D03*
X16554999Y4405000D02*
D03*
Y4505000D02*
D03*
Y4305000D02*
D03*
X16625002Y4405000D02*
D03*
Y4505000D02*
D03*
X16665001Y4650999D02*
D03*
X16585001D02*
D03*
X16694998Y4005001D02*
D03*
Y3705001D02*
D03*
Y3805001D02*
D03*
Y4405000D02*
D03*
Y4105001D02*
D03*
X16934998Y3694999D02*
D03*
X16865001D02*
D03*
X17005000D02*
D03*
X17123000Y3734999D02*
D03*
X16865001Y3772499D02*
D03*
X16794998D02*
D03*
X17005000D02*
D03*
X16934998D02*
D03*
X16694998Y4305000D02*
D03*
Y4505000D02*
D03*
X17005000Y3439998D02*
D03*
X16865001D02*
D03*
X16934998D02*
D03*
X17123000Y3474999D02*
D03*
X17005000Y3510001D02*
D03*
X16865001D02*
D03*
X16934998D02*
D03*
X16794998Y4005001D02*
D03*
Y3905001D02*
D03*
Y4105001D02*
D03*
Y4205000D02*
D03*
X16934998Y3905001D02*
D03*
X16865001D02*
D03*
Y4005001D02*
D03*
Y4105001D02*
D03*
Y4205000D02*
D03*
X16934998Y4005001D02*
D03*
Y4205000D02*
D03*
Y4105001D02*
D03*
X16794998Y4305000D02*
D03*
X16865001D02*
D03*
X16794998Y4405000D02*
D03*
X16865001D02*
D03*
X16794998Y4505000D02*
D03*
X16865001D02*
D03*
X16825002Y4650999D02*
D03*
X16934998Y4305000D02*
D03*
Y4405000D02*
D03*
Y4505000D02*
D03*
X16905000Y4650999D02*
D03*
%TF.MD5,9fcf3c0b9480d40d8051bf61dd6e943f*%
M02*
